<?xml version="1.0" encoding="UTF-8"?>
<svg version="1.1" xmlns="http://www.w3.org/2000/svg" width="700" height="300">
<path d="M0 0 C0.94512431 -0.00115384 1.89024861 -0.00230769 2.86401305 -0.0034965 C6.03694388 -0.00614733 9.20982417 -0.00165359 12.38275242 0.00279331 C14.67805813 0.0023573 16.97336379 0.00148183 19.26866919 0.00020415 C25.58073354 -0.00203486 31.89278097 0.0019724 38.20484316 0.00698221 C44.31112837 0.01134258 50.41741372 0.01002197 56.52370001 0.00930037 C69.01409298 0.00798684 81.50448066 0.01132646 93.99487209 0.01731777 C106.36197466 0.02323474 118.72907503 0.02708371 131.09617901 0.02817059 C131.86512029 0.02823933 132.63406158 0.02830806 133.42630412 0.02837889 C137.33136633 0.02871722 141.23642855 0.0290186 145.14149076 0.02930576 C172.80122292 0.03140619 200.46095219 0.03814359 228.12068272 0.04760838 C254.99177631 0.05679269 281.86286912 0.06387636 308.73396397 0.06811619 C309.56224431 0.06824771 310.39052466 0.06837924 311.24390441 0.06851475 C319.56183403 0.06983327 327.87976365 0.07110909 336.19769327 0.07235361 C353.14228375 0.07488983 370.08687417 0.07771108 387.03146458 0.08070469 C387.8105499 0.08084198 388.58963522 0.08097927 389.39232919 0.08112072 C441.41856218 0.09032143 493.44479351 0.10618743 545.47102451 0.12304783 C545.56475667 22.7596843 545.63514459 45.39628845 545.6782732 68.0330801 C545.69883707 78.54539473 545.72683863 89.05758829 545.77278233 99.56982517 C545.81284019 108.73976928 545.83850212 117.90962563 545.84737849 127.07965481 C545.85256137 131.92835529 545.86461195 136.77680488 545.89394474 141.62542439 C545.92141444 146.20386005 545.92940692 150.78194526 545.92345524 155.36045551 C545.92454156 157.02674875 545.93230532 158.69305566 545.94784641 160.35927677 C546.17062851 185.51206017 539.34562367 208.87253732 521.48664951 227.26367283 C501.28107539 247.04553898 474.64453809 250.91516207 447.64795017 250.72432041 C445.31581004 250.72650606 442.98367112 250.7308936 440.65153867 250.73726624 C434.30254124 250.74835219 427.95397217 250.72857742 421.60502923 250.70337594 C415.44350065 250.68139592 409.2819653 250.68818925 403.12040947 250.69178515 C390.53214299 250.69832398 377.94400866 250.68176507 365.3557806 250.65169811 C352.90534591 250.622037 340.45496635 250.60285311 328.00449657 250.59743404 C327.22819956 250.59709035 326.45190255 250.59674665 325.65208139 250.59639253 C321.70910437 250.59470069 317.76612731 250.59319384 313.8231502 250.59175815 C285.94930856 250.58127696 258.07553867 250.54764867 230.2017374 250.50024509 C203.13533501 250.454268 176.06895231 250.41887691 149.00251865 250.39770603 C147.74941368 250.39671959 147.74941368 250.39671959 146.47099345 250.39571321 C138.08095825 250.38912019 129.6909229 250.38274118 121.30088742 250.37651891 C104.21187222 250.36384039 87.12285829 250.34973414 70.03384495 250.33476353 C69.24824875 250.33407708 68.46265255 250.33339063 67.65325041 250.33268338 C15.2591449 250.28673813 -37.13491943 250.20741448 -89.52897549 250.12304783 C-89.62276767 227.91210508 -89.6931246 205.70119538 -89.73622417 183.49009418 C-89.75677548 173.17513214 -89.78475248 162.86029374 -89.8307333 152.54541111 C-89.8708302 143.54611281 -89.89646217 134.54690413 -89.90532947 125.54751897 C-89.91050586 120.79041417 -89.92251372 116.0335656 -89.95189571 111.27654362 C-90.23019427 64.3766937 -90.23019427 64.3766937 -80.52897549 45.12304783 C-80.14999111 44.34058689 -79.77100674 43.55812595 -79.38053799 42.75195408 C-69.77826976 24.15964279 -53.15493058 12.16557064 -33.83366299 5.15039158 C-22.757901 1.70721734 -11.57087255 -0.03485786 0 0 Z M-56.52897549 41.12304783 C-69.61723435 57.85259272 -71.69754694 77.44582372 -71.64250088 97.91430759 C-71.64221836 99.39344881 -71.64237801 100.87259017 -71.64294338 102.3517313 C-71.64322882 106.34281906 -71.63737313 110.33387641 -71.63036942 114.32495713 C-71.62409364 118.50496181 -71.62352876 122.68496727 -71.62234402 126.86497593 C-71.61924312 134.76952678 -71.61104654 142.67406371 -71.60099453 150.57860845 C-71.58979475 159.58227151 -71.58431322 168.58593525 -71.57929909 177.58960354 C-71.56886283 196.10075952 -71.55128753 214.61190255 -71.52897549 233.12304783 C-21.48749383 233.17443832 28.55398968 233.22219553 78.59549046 233.25007725 C79.33693268 233.25049142 80.0783749 233.25090559 80.84228507 233.25133231 C96.95848682 233.26031247 113.07468886 233.26862281 129.19089131 233.27624382 C137.09506012 233.2799856 144.99922886 233.28387529 152.90339756 233.28784275 C154.08319406 233.28843117 154.08319406 233.28843117 155.28682484 233.28903147 C180.74900557 233.30179982 206.21116624 233.32432199 231.67333484 233.35193949 C257.85404547 233.38028457 284.03474501 233.39871511 310.21547073 233.4047928 C313.91914811 233.40565718 317.62282546 233.40663408 321.3265028 233.40767956 C322.05539037 233.40788183 322.78427794 233.4080841 323.53525301 233.40829249 C335.23586125 233.41182817 346.93643504 233.42571664 358.63702927 233.44354393 C370.41974266 233.46127296 382.20241914 233.46769333 393.98514535 233.46355196 C400.3613004 233.46163605 406.73735496 233.46451266 413.11349201 233.48066425 C418.96383079 233.49537486 424.81400247 233.49592847 430.6643493 233.48574451 C432.7683463 233.48448778 434.87235419 233.48819807 436.97633012 233.49769738 C463.53588689 233.61052984 489.94963655 231.46948584 510.21711826 212.47070408 C522.311157 199.87362041 527.60538254 181.6367625 527.59127903 164.47279453 C527.59265369 163.17580631 527.59402836 161.87881809 527.59544468 160.5425272 C527.59190644 159.12283397 527.58827164 157.70314098 527.5845499 156.28344822 C527.58426756 154.77504573 527.58442669 153.26664311 527.58499241 151.7582407 C527.58527854 147.67819469 527.57941164 143.59817827 527.57241845 139.51813912 C527.56615418 135.24870247 527.56557868 130.9792651 527.56439304 126.70982456 C527.56128878 118.63166902 527.55308761 110.55352707 527.54304355 102.4753775 C527.53185429 93.27587574 527.52636488 84.07637333 527.52134812 74.87686646 C527.51090423 55.95891922 527.49332233 37.04098462 527.47102451 18.12304783 C477.22475461 18.07166067 426.97848288 18.02390302 376.73219395 17.99601841 C375.98779419 17.99560424 375.24339443 17.99519007 374.47643711 17.99476335 C358.29620102 17.98578332 342.11596464 17.97747296 325.93572785 17.96985184 C318.00022772 17.96611003 310.06472766 17.96222034 302.12922764 17.95825291 C300.94475047 17.95766449 300.94475047 17.95766449 299.73634447 17.95706419 C274.17017038 17.94429437 248.60401627 17.92177109 223.03785427 17.89415617 C196.75163454 17.86581525 170.46542586 17.84738151 144.17919111 17.84130286 C140.46113838 17.84043847 136.74308568 17.83946156 133.025033 17.8384161 C132.2933117 17.83821383 131.56159041 17.83801156 130.80769574 17.83780316 C119.05853877 17.8342666 107.30941607 17.8203757 95.56027303 17.80255173 C83.73052827 17.78482866 71.90082025 17.77840096 60.07106271 17.7825437 C53.66870327 17.78446043 47.2664439 17.78157352 40.86410236 17.7654314 C34.99099422 17.75073252 29.11805257 17.75015977 23.24493644 17.76035114 C21.13153603 17.761609 19.01812484 17.75788868 16.90474537 17.74839828 C-10.14503958 17.63409092 -36.96791405 20.27767428 -56.52897549 41.12304783 Z " fill="#D60E26" transform="translate(122.52897548675537,24.876952171325684)"/>
<path d="M0 0 C0.89793463 -0.00346153 1.79586926 -0.00692307 2.72101402 -0.01048949 C5.71550648 -0.01840002 8.70951032 -0.00499683 11.70397758 0.00837994 C13.87812948 0.00707102 16.05228091 0.00444303 18.22642982 0.00061244 C24.18972341 -0.00608758 30.15285501 0.00589364 36.11612797 0.02094662 C42.55091338 0.03390961 48.98568975 0.02951733 55.42048454 0.0272398 C66.56553148 0.0251493 77.71052902 0.03496984 88.85556221 0.05195332 C100.54195341 0.06971602 112.22832357 0.0812535 123.91472816 0.08451176 C124.64187283 0.08471798 125.36901749 0.08492419 126.11819684 0.08513666 C129.81113081 0.08615169 133.50406481 0.08705583 137.19699882 0.08791729 C163.34101215 0.09421531 189.48499803 0.11441843 215.6289959 0.14282513 C241.02450223 0.17038667 266.42000104 0.19163347 291.81551933 0.20434856 C292.59858342 0.20474314 293.38164752 0.20513772 294.18844082 0.20554426 C302.05242953 0.20949988 309.9164183 0.21332731 317.78040711 0.21706083 C333.79966977 0.22466908 349.81893194 0.23313284 365.83819389 0.24211407 C366.57470268 0.24252594 367.31121146 0.24293781 368.0700387 0.24336216 C417.23683818 0.27095523 466.40362153 0.31855226 515.57040215 0.36914349 C515.60090636 2.76767825 515.62315753 5.16582017 515.64071465 7.56445599 C515.65014091 8.23903851 515.65956718 8.91362103 515.6692791 9.60864544 C515.72471096 19.71572093 511.90611295 27.88724882 504.85946465 35.12695599 C493.28978773 44.84157922 478.32128101 43.93526612 464.15199089 43.85016155 C461.98349854 43.85190781 459.81500701 43.85541373 457.64651996 43.86051822 C451.71275923 43.86943114 445.77928916 43.85350511 439.84556544 43.83340597 C433.43741812 43.81609226 427.02928649 43.82198045 420.62112236 43.82501507 C409.5268562 43.82710995 398.4326858 43.81472646 387.33844376 43.79206371 C375.70756075 43.76836584 364.07671538 43.75299393 352.44580841 43.74865246 C351.35955978 43.74824002 351.35955978 43.74824002 350.25136674 43.74781925 C346.57343975 43.74646585 342.89551272 43.74526034 339.21758566 43.74411175 C313.19169228 43.7357183 287.16584798 43.7087918 261.13998222 43.6709013 C235.86199008 43.63414219 210.58401138 43.60581822 185.30599785 43.58887005 C184.52631645 43.58834394 183.74663505 43.58781784 182.94332693 43.58727579 C175.11318393 43.58200155 167.28304082 43.57689831 159.45289762 43.57192035 C143.50311753 43.5617765 127.55333831 43.55049149 111.60355949 43.53851604 C110.87027356 43.53796688 110.13698762 43.53741772 109.3814809 43.53685192 C60.44443379 43.50007207 11.50741553 43.43661054 -37.42959785 43.36914349 C-37.4601655 41.14657386 -37.48188029 38.92388143 -37.49991035 36.70117474 C-37.51948799 34.84456219 -37.51948799 34.84456219 -37.53946114 32.95044231 C-37.2426537 23.27517941 -33.25083236 15.12572542 -26.39053535 8.35742474 C-18.59131645 1.78458477 -10.03810911 -0.09694811 0 0 Z " fill="#D60E26" transform="translate(111.42959785461426,177.63085651397705)"/>
<path d="M0 0 C0.66 0 1.32 0 2 0 C1.37774918 8.0892606 -3.01241229 14.74260591 -9 20 C-10.3921875 21.299375 -10.3921875 21.299375 -11.8125 22.625 C-18.33115047 27.48203368 -24.34899796 28.44433405 -32.23035431 28.36914349 C-33.5813924 28.37433579 -33.5813924 28.37433579 -34.95972419 28.37963298 C-37.97563743 28.38756912 -40.99106949 28.37411879 -44.00695801 28.36076355 C-46.19175819 28.36207194 -48.37655791 28.36469897 -50.56135511 28.36853105 C-56.56337157 28.37524139 -62.56522754 28.36323563 -68.56722355 28.34819686 C-75.04021766 28.33524878 -81.51320263 28.3396251 -87.98620605 28.34190369 C-99.20058751 28.34399551 -110.41491992 28.33416457 -121.62928772 28.31719017 C-133.38990019 28.29943462 -145.15049178 28.28789143 -156.91111755 28.28463173 C-157.64255874 28.28442551 -158.37399992 28.28421929 -159.12760599 28.28400682 C-162.84227801 28.28299181 -166.55695006 28.28208767 -170.27162212 28.2812262 C-196.57757999 28.2749262 -222.88351061 28.25471758 -249.18945312 28.22631836 C-274.74413915 28.19876203 -300.29881772 28.17751267 -325.85351562 28.16479492 C-326.64132494 28.16440034 -327.42913425 28.16400576 -328.24081657 28.16359923 C-336.15237472 28.15964364 -344.06393292 28.15581621 -351.97549118 28.15208265 C-368.09201893 28.14447416 -384.2085462 28.13601041 -400.32507324 28.12702942 C-401.43657299 28.12641161 -401.43657299 28.12641161 -402.57052728 28.12578133 C-452.04702977 28.09818278 -501.52351626 28.05058515 -551 28 C-551 24.04 -551 20.08 -551 16 C-549.89253341 15.99864347 -548.78506683 15.99728694 -547.64404064 15.99588931 C-498.83783512 15.93597645 -450.03163358 15.87360345 -401.22544861 15.79867554 C-400.48657891 15.79754191 -399.74770922 15.79640829 -398.98644953 15.79524031 C-382.928931 15.77058903 -366.87141319 15.74549617 -350.81389606 15.71994839 C-342.93932602 15.7074225 -335.06475583 15.6949942 -327.19018555 15.68261719 C-326.40656996 15.68138386 -325.62295438 15.68015054 -324.81559287 15.67887984 C-299.41505656 15.63894794 -274.01451672 15.60546013 -248.61396707 15.57531309 C-222.51222592 15.54429981 -196.41050199 15.50678734 -170.30878221 15.46109388 C-166.62233784 15.45464345 -162.93589335 15.44826735 -159.24944878 15.44193649 C-158.52390158 15.44068819 -157.79835439 15.43943988 -157.05082091 15.43815375 C-145.3701782 15.41824834 -133.6895374 15.40519682 -122.00888286 15.39470672 C-110.26669522 15.38401516 -98.52453777 15.36594625 -86.78237201 15.34083296 C-80.41988723 15.32744159 -74.0574402 15.31729895 -67.69494057 15.31578636 C-61.87114912 15.3143311 -56.0474486 15.30374434 -50.22368508 15.28586559 C-48.11587243 15.28101181 -46.00804882 15.27952183 -43.90023173 15.28172119 C-41.03556381 15.28421978 -38.17118481 15.27447786 -35.30655003 15.26171303 C-34.48791179 15.26536271 -33.66927356 15.26901239 -32.82582811 15.27277267 C-22.32724388 15.19223684 -11.71891702 12.68474022 -4.0390625 5.05078125 C-2.66065404 3.39332912 -1.32584045 1.69979545 0 0 Z " fill="#EFCF00" transform="translate(625,211)"/>
<path d="M0 0 C2.93338 4.9205084 2.33876033 9.65910614 1.9375 15.25 C2.48277344 14.59773438 3.02804687 13.94546875 3.58984375 13.2734375 C15.97237876 -1.07760308 15.97237876 -1.07760308 24.36328125 -2.0234375 C32.05972727 -2.29421909 32.05972727 -2.29421909 36.0625 0.1875 C39.55579214 5.89321049 39.42127721 11.82029876 37.9375 18.25 C38.41960937 17.6003125 38.90171875 16.950625 39.3984375 16.28125 C40.34589844 15.02828125 40.34589844 15.02828125 41.3125 13.75 C41.93898438 12.9146875 42.56546875 12.079375 43.2109375 11.21875 C44.06558594 10.24421875 44.06558594 10.24421875 44.9375 9.25 C45.5975 9.25 46.2575 9.25 46.9375 9.25 C46.9375 8.59 46.9375 7.93 46.9375 7.25 C48.65269077 5.8260131 50.4362912 4.4836784 52.25 3.1875 C53.72919922 2.11822266 53.72919922 2.11822266 55.23828125 1.02734375 C60.45795529 -2.40963409 65.85414036 -2.43403594 71.9375 -1.75 C74.59313802 0.1468843 75.50992527 1.39485055 76.9375 4.25 C78.18008881 14.21407773 75.04286673 24.34791105 72.92822266 34.01586914 C69.33354568 48.61495912 69.33354568 48.61495912 70.9375 63.25 C71.5975 63.58 72.2575 63.91 72.9375 64.25 C72.9375 64.91 72.9375 65.57 72.9375 66.25 C66.70136287 69.62414183 61.06998301 71.51965666 53.9375 70.25 C51.00326805 68.45353146 49.46544645 67.3058929 47.9375 64.25 C46.93262205 54.11925837 49.22957253 44.5042662 51.375 34.6875 C51.70484463 33.12978318 52.03362763 31.57184117 52.36132812 30.01367188 C54.71223421 18.92579736 54.71223421 18.92579736 55.9375 15.25 C51.70528889 18.27945129 48.92345836 21.73969177 46.125 26.0625 C45.69558105 26.71758545 45.26616211 27.3726709 44.82373047 28.04760742 C37.44411814 39.48832717 29.13835243 52.44019707 27.9375 66.25 C28.5975 66.25 29.2575 66.25 29.9375 66.25 C29.9375 66.91 29.9375 67.57 29.9375 68.25 C16.82306383 72.2553943 16.82306383 72.2553943 10.9375 69.25 C8.9375 67.1875 8.9375 67.1875 7.9375 64.25 C8.437371 55.91004698 10.48968194 47.8632764 12.375 39.75 C12.69122299 38.37380532 13.0069812 36.99750376 13.32226562 35.62109375 C13.92350347 32.9981981 14.52717042 30.37590596 15.13232422 27.75390625 C16.08904277 23.59052704 17.01911046 19.42198061 17.9375 15.25 C13.70528889 18.27945129 10.92345836 21.73969177 8.125 26.0625 C7.48087158 27.04512817 7.48087158 27.04512817 6.82373047 28.04760742 C-5.18306741 45.90736758 -5.18306741 45.90736758 -9.0625 66.25 C-9.0625 67.24 -9.0625 68.23 -9.0625 69.25 C-21.68614582 72.13125906 -21.68614582 72.13125906 -28.0625 68.25 C-30.0625 66.25 -30.0625 66.25 -30.359375 62.3203125 C-30.22898426 56.68428506 -28.80436966 51.5323045 -27.3125 46.125 C-25.11479155 37.73369011 -23.15975029 29.35147045 -21.625 20.8125 C-21.36154785 19.4210376 -21.36154785 19.4210376 -21.09277344 18.00146484 C-20.07652826 12.11900987 -20.14376127 7.1527462 -21.0625 1.25 C-13.93584454 -1.49744128 -7.04770709 -4.02726119 0 0 Z " fill="#D60E26" transform="translate(358.0625,86.75)"/>
<path d="M0 0 C5.61658187 5.44955261 7.52197615 12.15425285 9.9765625 19.4296875 C10.43188913 20.74756511 10.88840242 22.06503327 11.34603882 23.3821106 C12.54322691 26.83735167 13.72496842 30.29767594 14.90325928 33.75939941 C16.09858816 37.26320403 17.30736856 40.76235537 18.515625 44.26171875 C19.87724496 48.2060991 21.23773645 52.15080749 22.58657837 56.09957886 C25.090007 63.42244757 25.090007 63.42244757 27.76513672 70.68359375 C29.46930949 75.26039939 29.86835215 79.19190201 29 84 C27.35195134 87.17837956 25.03648964 89.21369752 22.1875 91.375 C17.20731241 92.79791074 13.39947876 92.61900022 8.75 90.5625 C3.80876551 85.95816786 2.30072957 80.50364787 1 74 C-8.57 74 -18.14 74 -28 74 C-28.99 78.95 -28.99 78.95 -30 84 C-30.66 85.32 -31.32 86.64 -32 88 C-32.66 88 -33.32 88 -34 88 C-34 88.66 -34 89.32 -34 90 C-37.73513123 92.49008749 -41.67082662 92.64614528 -46 92 C-49.9081433 90.63525155 -52.50673991 88.66281825 -55 85.3125 C-57.58858539 76.73781089 -53.55602738 68.24134822 -50.5625 60.25 C-49.65060238 57.76363862 -48.74043707 55.27669629 -47.83203125 52.7890625 C-47.5983786 52.15233612 -47.36472595 51.51560974 -47.12399292 50.85958862 C-45.46651377 46.32898444 -43.8758729 41.77879549 -42.32421875 37.2109375 C-42.10709732 36.57293213 -41.88997589 35.93492676 -41.66627502 35.27758789 C-40.62985677 32.22788399 -39.5996474 29.17622547 -38.57641602 26.12207031 C-36.54974991 20.16164057 -34.41698965 14.2434953 -32.078125 8.3984375 C-31.6337207 7.26841309 -31.18931641 6.13838867 -30.73144531 4.97412109 C-28.34017073 0.86660461 -25.24027871 -1.25324043 -20.75 -2.75 C-6.1876413 -4.07385079 -6.1876413 -4.07385079 0 0 Z M-14 25 C-14.20681396 25.74161377 -14.41362793 26.48322754 -14.62670898 27.24731445 C-15.56286408 30.60259317 -16.50016837 33.95754978 -17.4375 37.3125 C-17.76298828 38.47974609 -18.08847656 39.64699219 -18.42382812 40.84960938 C-18.89272461 42.52700195 -18.89272461 42.52700195 -19.37109375 44.23828125 C-19.8031311 45.7857605 -19.8031311 45.7857605 -20.24389648 47.36450195 C-20.78649449 49.25579852 -21.37779302 51.13337905 -22 53 C-16.39 53 -10.78 53 -5 53 C-7.2525848 43.51543241 -10.02214354 34.2749047 -13 25 C-13.33 25 -13.66 25 -14 25 Z " fill="#1655C2" transform="translate(130,65)"/>
<path d="M0 0 C3.12204124 0.85363651 5.16696817 0.05499408 7.91796875 -1.50390625 C10.86530202 -2.80420034 12.84364473 -2.82532513 16.04296875 -2.44140625 C20.39775287 -0.05054438 24.09014953 2.47891464 25.6071167 7.38201904 C26.08416541 9.76432322 26.18429318 11.95425342 26.20410156 14.38378906 C26.21370911 15.33868225 26.22331665 16.29357544 26.23321533 17.27740479 C26.23746521 18.30347839 26.24171509 19.329552 26.24609375 20.38671875 C26.25179382 21.44969177 26.2574939 22.51266479 26.2633667 23.60784912 C26.27280895 25.85720832 26.2793476 28.10658131 26.28320312 30.35595703 C26.29289303 33.78182392 26.32391796 37.20708675 26.35546875 40.6328125 C26.3620008 42.82161103 26.36725048 45.01041384 26.37109375 47.19921875 C26.38344055 48.21719543 26.39578735 49.23517212 26.4085083 50.28399658 C26.38948734 56.41602252 25.70025883 60.99986423 23.04296875 66.55859375 C19.82682286 69.55035737 17.30679811 70.79202161 12.98046875 70.99609375 C9.04296875 70.55859375 9.04296875 70.55859375 6.66796875 68.87109375 C4.19886983 67.29152223 4.19886983 67.29152223 1.9375 68.02734375 C1.12667969 68.30578125 0.31585938 68.58421875 -0.51953125 68.87109375 C-10.70795667 72.34270537 -20.26240999 70.98021988 -29.95703125 66.55859375 C-38.27325512 61.82646636 -43.80795206 54.50860829 -46.95703125 45.55859375 C-48.82094054 37.59461769 -48.09586921 30.33244712 -45.95703125 22.55859375 C-45.7971875 21.89988281 -45.63734375 21.24117187 -45.47265625 20.5625 C-43.06292602 12.47036539 -36.60708044 5.81099143 -29.45703125 1.55859375 C-19.88571239 -3.14398131 -9.89507928 -4.05536036 0 0 Z M-18.95703125 20.55859375 C-21.85671408 25.19535073 -22.42268235 29.20010642 -22.33203125 34.55859375 C-22.34363281 35.244375 -22.35523438 35.93015625 -22.3671875 36.63671875 C-22.34021824 41.34734971 -21.50035958 44.59974784 -18.95703125 48.55859375 C-16.08509533 51.38266407 -13.94988882 52.00990037 -9.95703125 52.05859375 C-6.1537709 51.95216968 -5.31840142 51.88470829 -2.39453125 49.24609375 C0.1052598 44.57257135 0.25750925 40.49454599 0.29296875 35.30859375 C0.31359375 34.56996094 0.33421875 33.83132812 0.35546875 33.0703125 C0.39251711 27.81870703 -0.48507802 24.21272578 -2.95703125 19.55859375 C-5.4838971 17.49720319 -7.20346406 16.6938494 -10.39453125 16.12109375 C-14.06107285 16.74708866 -16.10092759 18.19920377 -18.95703125 20.55859375 Z " fill="#1655C1" transform="translate(292.95703125,87.44140625)"/>
<path d="M0 0 C1.28390625 -0.01417969 2.5678125 -0.02835937 3.890625 -0.04296875 C7.78686233 0.18970129 11.02241956 1.0903427 14.75 2.1875 C17.27869082 1.34271502 17.27869082 1.34271502 19.75 0.1875 C25.88467346 -0.41393857 31.01177512 1.24781835 36.75 3.1875 C35.72737533 6.29307447 34.67940949 9.38249755 33.56640625 12.45703125 C27.37281019 29.95731668 23.67767821 49.75187893 27.75 68.1875 C23.25189374 71.67353235 19.53395101 73.45600063 13.75 73.1875 C9.5816283 72.00646135 7.35633363 70.82574593 4.375 67.6875 C2.15946913 62.91558736 1.93540719 58.397442 1.75 53.1875 C1.03714844 54.06792969 0.32429688 54.94835937 -0.41015625 55.85546875 C-12.85948638 71.0355073 -12.85948638 71.0355073 -22.25 73.1875 C-27.48867807 73.65523911 -30.84662079 73.12308614 -35.25 70.1875 C-40.68314623 63.99975013 -41.55267757 56.48020406 -41.1875 48.5 C-39.41736805 32.67054421 -31.99559643 17.98925386 -20.25 7.1875 C-13.4910226 2.40994901 -8.34457662 0.04155666 0 0 Z M-7.69921875 15.45703125 C-16.21614487 24.96080524 -18.17945128 39.92965966 -18.25 52.1875 C-17.92 53.1775 -17.59 54.1675 -17.25 55.1875 C-14.61103402 55.10578338 -12.82889929 54.73107801 -10.87353516 52.89501953 C-9.35599864 51.06295658 -7.94967636 49.18275655 -6.5625 47.25 C-5.7895459 46.1990918 -5.7895459 46.1990918 -5.00097656 45.12695312 C0.65997421 37.23845819 5.25595354 28.77788969 9.75 20.1875 C8.97914063 19.22585937 8.20828125 18.26421875 7.4140625 17.2734375 C6.7636499 16.46205322 6.7636499 16.46205322 6.10009766 15.63427734 C4.21975484 13.6192843 2.38951337 12.88210878 -0.25 12.1875 C-3.76325804 12.1875 -5.11352528 13.16647897 -7.69921875 15.45703125 Z " fill="#D60E26" transform="translate(478.25,84.8125)"/>
<path d="M0 0 C2.63581903 1.63055229 4.67241904 3.13780683 6.078125 5.94921875 C6.41759009 9.61544172 6.56818281 12.06244747 4.765625 15.32421875 C0.51384802 17.89506065 -4.03608271 17.78074315 -8.921875 17.94921875 C-9.416875 20.42421875 -9.416875 20.42421875 -9.921875 22.94921875 C-9.24640625 23.0471875 -8.5709375 23.14515625 -7.875 23.24609375 C1.05491695 24.74301624 1.05491695 24.74301624 4.078125 28.94921875 C5.541083 31.87513475 5.52335609 33.70539222 5.078125 36.94921875 C2.30999078 40.30011807 0.79083531 41.74787334 -3.546875 42.2578125 C-6.02568411 42.26133354 -8.45350211 42.16873808 -10.921875 41.94921875 C-10.591875 42.60921875 -10.261875 43.26921875 -9.921875 43.94921875 C-9.81054167 46.71159502 -9.75775483 49.44794954 -9.75390625 52.2109375 C-9.74891365 53.44696465 -9.74891365 53.44696465 -9.74382019 54.70796204 C-9.73875119 56.45561159 -9.73641186 58.20327084 -9.73657227 59.95092773 C-9.7343979 62.608727 -9.71627583 65.26610301 -9.69726562 67.92382812 C-9.69432917 69.6236965 -9.69234606 71.32356685 -9.69140625 73.0234375 C-9.68422073 73.81223801 -9.67703522 74.60103851 -9.66963196 75.41374207 C-9.69525166 81.69082096 -10.21143228 86.98846733 -14.484375 91.88671875 C-17.77025789 94.31296968 -20.72281448 94.61200057 -24.73828125 94.375 C-28.1719257 93.70547004 -30.32111823 92.23281006 -32.921875 89.94921875 C-34.72111005 87.02921708 -35.16850543 84.86291413 -35.14892578 81.45605469 C-35.14877472 80.57544373 -35.14862366 79.69483276 -35.14846802 78.78753662 C-35.13814545 77.84573547 -35.12782288 76.90393433 -35.1171875 75.93359375 C-35.1143576 74.96262756 -35.11152771 73.99166138 -35.10861206 72.99127197 C-35.09742792 69.8937949 -35.07232642 66.79660825 -35.046875 63.69921875 C-35.03684292 61.59766043 -35.02771747 59.49609757 -35.01953125 57.39453125 C-34.99749434 52.24598206 -34.96297645 47.09764962 -34.921875 41.94921875 C-36.03820312 41.80742188 -37.15453125 41.665625 -38.3046875 41.51953125 C-41.921875 40.94921875 -41.921875 40.94921875 -43.796875 39.82421875 C-45.62683122 36.77429172 -45.921875 34.49782564 -45.921875 30.94921875 C-43.51222533 27.00615565 -42.12009889 25.26573072 -37.609375 24.07421875 C-36.7225 24.03296875 -35.835625 23.99171875 -34.921875 23.94921875 C-34.95667969 23.15257813 -34.99148437 22.3559375 -35.02734375 21.53515625 C-35.30732228 10.5759967 -35.30732228 10.5759967 -31.921875 5.94921875 C-23.59019304 -2.02021617 -10.94128115 -3.93476555 0 0 Z " fill="#1655C2" transform="translate(241.921875,63.05078125)"/>
<path d="M0 0 C3.43837861 6.40788742 -0.1081767 14.95892858 -2.00390625 21.5078125 C-2.20886719 22.18585938 -2.41382813 22.86390625 -2.625 23.5625 C4.45221931 23.68359311 11.34695301 23.41623239 18.375 22.5625 C18.2558122 29.47539231 18.2558122 29.47539231 15.890625 32.39453125 C10.52064328 37.11047674 6.75039771 37.69625398 -0.375 37.625 C-1.54546875 37.61597656 -2.7159375 37.60695312 -3.921875 37.59765625 C-4.81390625 37.58605469 -5.7059375 37.57445312 -6.625 37.5625 C-6.74875 38.820625 -6.8725 40.07875 -7 41.375 C-7.38308963 44.92829516 -7.97018149 48.37489268 -8.6875 51.875 C-9.80136335 57.75187603 -10.0541614 63.59416241 -9.625 69.5625 C-8.43103644 70.97105077 -8.43103644 70.97105077 -5 70.875 C-1.65473043 70.86298826 0.34791831 70.25581811 3.1875 68.5 C4.239375 67.860625 5.29125 67.22125 6.375 66.5625 C9.375 67.5625 9.375 67.5625 10.375 69.5625 C10.87334658 73.88150368 10.71881119 75.99687514 8.4375 79.75 C2.95096131 85.59605547 -5.21409406 87.4967219 -12.9375 87.8125 C-19.09520565 87.7202881 -23.65741643 86.10234801 -28.5 82.3125 C-33.16411562 76.27658567 -33.17163231 69.38055803 -32.34399414 62.08569336 C-31.93668407 59.27813541 -31.47914999 56.48369562 -31 53.6875 C-30.82758789 52.65536377 -30.65517578 51.62322754 -30.47753906 50.55981445 C-28.90109878 41.46386329 -26.84919031 32.49819941 -24.55615234 23.55712891 C-22.6971773 16.02439465 -21.11075672 8.10522983 -23.625 0.5625 C-7.6884898 -4.21036346 -7.6884898 -4.21036346 0 0 Z " fill="#D60E26" transform="translate(608.625,70.4375)"/>
<path d="M0 0 C3.33299066 1.63262347 5.43015801 3.88997475 7.13809204 7.21694946 C8.21361317 10.68974445 8.26920089 13.70423189 8.29052734 17.34130859 C8.30060318 18.42281441 8.30060318 18.42281441 8.31088257 19.52616882 C8.32981892 21.90032925 8.33378447 24.27420634 8.3359375 26.6484375 C8.34236833 28.30604161 8.34909691 29.96364459 8.35610962 31.62124634 C8.36807136 35.09290192 8.37179157 38.56445808 8.37060547 42.03613281 C8.37040231 46.47361402 8.39770574 50.91045458 8.43214989 55.34778404 C8.45444239 58.77085266 8.4584423 62.19376764 8.45738602 65.6169014 C8.45973838 67.25229729 8.46854137 68.88769765 8.48405075 70.5230217 C8.50375993 72.81576521 8.49785479 75.10713429 8.48583984 77.39990234 C8.48868988 78.70164398 8.49153992 80.00338562 8.49447632 81.34457397 C7.78428645 86.59466672 5.83906061 90.41636447 1.75 93.9375 C-1.91194592 95.35234274 -5.16416664 95.65434804 -9 95 C-13.02082695 93.17924817 -14.60081153 91.76425726 -16.64526367 87.85009766 C-18.98826515 81.15238001 -18.40928193 73.90340992 -18.36328125 66.8984375 C-18.36276178 65.33240764 -18.36328285 63.76637712 -18.36479187 62.2003479 C-18.36470252 58.93066577 -18.35434747 55.66123211 -18.33618164 52.39160156 C-18.31345808 48.21097636 -18.31296121 44.03071237 -18.31969929 39.85004234 C-18.32304755 36.62088843 -18.31639367 33.39181616 -18.30657005 30.16267776 C-18.30273539 28.62137912 -18.30156261 27.08007136 -18.3031559 25.53876877 C-18.30352869 23.38293013 -18.29084853 21.22754718 -18.2746582 19.07177734 C-18.27005081 17.84792328 -18.26544342 16.62406921 -18.26069641 15.36312866 C-17.79776155 9.39101152 -16.03142226 5.4093681 -12 1 C-8.26836358 -0.86581821 -4.06325499 -0.55464677 0 0 Z " fill="#1655C1" transform="translate(184,62)"/>
<path d="M0 0 C2.625 1.5625 2.625 1.5625 3.625 2.5625 C3.69758946 4.74889453 3.70873783 6.93750389 3.6875 9.125 C3.67847656 10.32253906 3.66945313 11.52007812 3.66015625 12.75390625 C3.64855469 13.68074219 3.63695312 14.60757813 3.625 15.5625 C4.19347656 14.91023438 4.76195312 14.25796875 5.34765625 13.5859375 C18.2211297 -0.98537302 18.2211297 -0.98537302 23.68359375 -1.7109375 C30.0112752 -1.98108482 30.0112752 -1.98108482 32.8125 0.5 C34.4428354 6.64511035 32.14129338 11.92464259 29.25 17.375 C27.38222927 20.54522212 25.4501698 23.15587388 22.625 25.5625 C22.08875 25.211875 21.5525 24.86125 21 24.5 C17.64488091 23.17561089 16.04885054 23.39839082 12.625 24.5625 C2.93772696 33.61799436 -6.91531961 51.23176861 -7.375 64.5625 C-7.07306223 66.23513937 -6.74552135 67.90370441 -6.375 69.5625 C-13.89555666 71.42722819 -20.20881643 72.73238728 -27.375 69 C-30.12421217 65.64939767 -29.72431756 62.6884212 -29.375 58.5625 C-28.89955135 55.76853155 -28.20949605 53.05673974 -27.4765625 50.3203125 C-27.07543414 48.74220953 -26.67439551 47.16408376 -26.2734375 45.5859375 C-25.6430199 43.15266156 -25.00864738 40.72047819 -24.37109375 38.2890625 C-21.35984192 26.73646112 -19.37700557 15.46376334 -18.375 3.5625 C-19.035 3.5625 -19.695 3.5625 -20.375 3.5625 C-20.375 2.9025 -20.375 2.2425 -20.375 1.5625 C-6.97008365 -2.96873933 -6.97008365 -2.96873933 0 0 Z M1.625 16.5625 C2.625 18.5625 2.625 18.5625 2.625 18.5625 Z " fill="#D60E26" transform="translate(543.375,86.4375)"/>
</svg>
