<?xml version="1.0" encoding="UTF-8"?>
<svg version="1.1" xmlns="http://www.w3.org/2000/svg" width="1600" height="1200">
<path d="M0 0 C1.01429161 -0.00420695 2.02858321 -0.0084139 3.07361093 -0.01274834 C6.47073931 -0.02318352 9.86745747 -0.01228032 13.26457977 -0.00147593 C15.73584846 -0.00460578 18.20711578 -0.00904985 20.67838001 -0.01468903 C26.06741639 -0.02395206 31.4563333 -0.02388523 36.84536266 -0.0156384 C44.91292244 -0.00334839 52.9804085 -0.00839198 61.04796997 -0.01678632 C74.79802961 -0.03058465 88.54805596 -0.03013712 102.29811859 -0.02194369 C116.23287887 -0.01369077 130.16761725 -0.01194823 144.10237885 -0.01815569 C144.98241554 -0.01854321 145.86245223 -0.01893073 146.76915669 -0.01932999 C150.35339109 -0.0209298 153.93762545 -0.02257592 157.52185979 -0.02428082 C190.90961471 -0.04015107 224.29735494 -0.04122394 257.685112 -0.03283846 C258.67456131 -0.03259008 259.66401062 -0.03234169 260.68344325 -0.03208578 C262.16998753 -0.03171259 262.16998753 -0.03171259 263.68656301 -0.03133187 C293.86462929 -0.02376587 324.0426895 -0.0218065 354.22075653 -0.0253998 C356.24070209 -0.02563224 358.26064765 -0.02586371 360.28059322 -0.02609421 C368.39767958 -0.02702559 376.51476594 -0.02798159 384.6318523 -0.02897351 C407.32323015 -0.03172469 430.01460802 -0.03343637 452.70598602 -0.03433192 C453.73934408 -0.03437286 454.77270214 -0.03441379 455.83737408 -0.03445597 C488.77038563 -0.03568401 521.70339506 -0.03230204 554.63640594 -0.02578318 C556.23890905 -0.02546706 556.23890905 -0.02546706 557.87378595 -0.02514455 C575.22345269 -0.02170961 592.57311938 -0.01805127 609.92278607 -0.01437403 C678.73590123 0.00019526 747.54899887 -0.00048096 816.36211395 -0.01506579 C833.70297494 -0.01872929 851.04383593 -0.02236241 868.38469696 -0.02578318 C869.45240058 -0.02599453 870.52010419 -0.02620587 871.62016246 -0.02642362 C904.51848088 -0.03289103 937.41679785 -0.03563521 970.31511688 -0.03433192 C971.86401936 -0.03427079 971.86401936 -0.03427079 973.44421279 -0.03420842 C996.1102743 -0.03327104 1018.77633565 -0.03137021 1041.44239701 -0.02860041 C1049.55227751 -0.02761296 1057.66215801 -0.02667372 1065.77203851 -0.02574828 C1067.78961199 -0.02551611 1069.80718547 -0.02527992 1071.82475895 -0.02503969 C1101.99572842 -0.02145716 1132.16669104 -0.02451164 1162.33765966 -0.03208578 C1163.82183363 -0.03245836 1163.82183363 -0.03245836 1165.33599091 -0.03283846 C1166.32361929 -0.03308651 1167.31124768 -0.03333456 1168.32880419 -0.03359012 C1201.61915891 -0.0418597 1234.90949599 -0.03883131 1268.19984818 -0.02299623 C1271.77280678 -0.02133913 1275.34576541 -0.01972902 1278.91872406 -0.01815569 C1280.23404354 -0.01756976 1280.23404354 -0.01756976 1281.57593513 -0.016972 C1295.4746916 -0.01104905 1309.3734262 -0.01518068 1323.27218071 -0.02346271 C1336.9304363 -0.03138814 1350.58865489 -0.02863193 1364.24690577 -0.01442045 C1372.25943035 -0.00640188 1380.27185359 -0.00660367 1388.28437337 -0.01886524 C1394.22570433 -0.02704338 1400.16694849 -0.01965393 1406.10827196 -0.00609642 C1408.5022057 -0.00306451 1410.89615234 -0.00510047 1413.2900759 -0.01271423 C1416.53394312 -0.02230247 1419.77726116 -0.0134544 1423.02110291 0 C1423.94679452 -0.00717223 1424.87248613 -0.01434445 1425.82622901 -0.02173402 C1436.56307175 0.0690382 1445.47092574 3.17579543 1453.51055145 10.37604749 C1462.6851331 20.54752766 1464.982026 30.2868784 1464.85112762 43.71052015 C1464.85148923 44.92101215 1464.85185083 46.13150415 1464.8522234 47.37867773 C1464.8499985 51.26599477 1464.82721787 55.15287095 1464.8035202 59.04010999 C1464.79910495 61.4524614 1464.79604713 63.86481568 1464.79436493 66.27717054 C1464.7786873 75.18517358 1464.73680346 84.09311495 1464.69805145 93.00104749 C1464.63617645 112.92479749 1464.57430145 132.84854749 1464.51055145 153.37604749 C1405.44055145 153.37604749 1346.37055145 153.37604749 1285.51055145 153.37604749 C1285.51055145 157.99604749 1285.51055145 162.61604749 1285.51055145 167.37604749 C1344.58055145 167.37604749 1403.65055145 167.37604749 1464.51055145 167.37604749 C1464.51055145 219.18604749 1464.51055145 270.99604749 1464.51055145 324.37604749 C1405.77055145 324.37604749 1347.03055145 324.37604749 1286.51055145 324.37604749 C1286.18055145 328.33604749 1285.85055145 332.29604749 1285.51055145 336.37604749 C1285.18055145 337.03604749 1284.85055145 337.69604749 1284.51055145 338.37604749 C1343.91055145 338.37604749 1403.31055145 338.37604749 1464.51055145 338.37604749 C1464.57242645 358.13479749 1464.63430145 377.89354749 1464.69805145 398.25104749 C1464.72536346 404.47705823 1464.75267548 410.70306898 1464.78081512 417.11774671 C1464.79436493 424.75324476 1464.79436493 424.75324476 1464.79688263 428.33408582 C1464.8014725 430.82116277 1464.81198863 433.30823328 1464.82727814 435.79526746 C1464.8493405 439.57475253 1464.85226599 443.35383159 1464.85112762 447.13337171 C1464.86192195 448.23096248 1464.87271627 449.32855325 1464.8838377 450.45940435 C1464.83546004 462.51439834 1461.6355995 471.36814194 1453.51055145 480.37604749 C1444.53479564 488.4146934 1434.84749213 490.84372544 1423.02110291 490.75209498 C1422.0068113 490.75630194 1420.99251969 490.76050889 1419.94749197 490.76484332 C1416.5503636 490.77527851 1413.15364543 490.7643753 1409.75652313 490.75357091 C1407.28525444 490.75670076 1404.81398713 490.76114483 1402.34272289 490.76678401 C1396.95368652 490.77604704 1391.5647696 490.77598022 1386.17574024 490.76773338 C1378.10818047 490.75544337 1370.0406944 490.76048696 1361.97313293 490.76888131 C1348.2230733 490.78267963 1334.47304695 490.7822321 1320.72298431 490.77403867 C1306.78822403 490.76578575 1292.85348566 490.76404321 1278.91872406 490.77025068 C1278.03868737 490.7706382 1277.15865068 490.77102571 1276.25194621 490.77142497 C1272.66771182 490.77302478 1269.08347745 490.7746709 1265.49924311 490.7763758 C1232.11148819 490.79224605 1198.72374796 490.79331892 1165.33599091 490.78493345 C1164.34654159 490.78468506 1163.35709228 490.78443668 1162.33765966 490.78418076 C1160.85111537 490.78380758 1160.85111537 490.78380758 1159.33453989 490.78342686 C1129.15647361 490.77586085 1098.9784134 490.77390148 1068.80034637 490.77749479 C1066.78040081 490.77772723 1064.76045525 490.7779587 1062.74050969 490.7781892 C1054.62342332 490.77912058 1046.50633696 490.78007658 1038.38925061 490.78106849 C1015.69787275 490.78381967 993.00649488 490.78553136 970.31511688 490.7864269 C968.76507979 490.78648831 968.76507979 490.78648831 967.18372882 490.78655095 C934.25071728 490.787779 901.31770784 490.78439702 868.38469696 490.77787817 C866.78219386 490.77756204 866.78219386 490.77756204 865.14731696 490.77723954 C847.79765022 490.77380459 830.44798352 490.77014625 813.09831683 490.76646902 C744.28520168 490.75189973 675.47210403 490.75257595 606.65898895 490.76716077 C589.31812797 490.77082427 571.97726698 490.77445739 554.63640594 490.77787817 C553.56870233 490.77808951 552.50099871 490.77830085 551.40094044 490.7785186 C518.50262202 490.78498602 485.60430506 490.7877302 452.70598602 490.7864269 C451.15708355 490.78636577 451.15708355 490.78636577 449.57689012 490.78630341 C426.91082861 490.78536602 404.24476725 490.7834652 381.5787059 490.78069539 C373.4688254 490.77970794 365.3589449 490.77876871 357.24906439 490.77784326 C355.23149091 490.77761109 353.21391743 490.7773749 351.19634395 490.77713467 C321.02537449 490.77355214 290.85441186 490.77660662 260.68344325 490.78418076 C259.69399394 490.78442915 258.70454462 490.78467753 257.685112 490.78493345 C256.69748361 490.78518149 255.70985523 490.78542954 254.69229871 490.78568511 C221.401944 490.79395468 188.11160692 490.7909263 154.82125473 490.77509122 C151.24829612 490.77343411 147.67533749 490.771824 144.10237885 490.77025068 C143.22549919 490.76986006 142.34861954 490.76946944 141.44516778 490.76906698 C127.5464113 490.76314403 113.6476767 490.76727566 99.7489222 490.7755577 C86.0906666 490.78348312 72.43244802 490.78072692 58.77419713 490.76651543 C50.76167255 490.75849686 42.74924932 490.75869866 34.73672953 490.77096022 C28.79539857 490.77913837 22.85415441 490.77174892 16.91283095 490.7581914 C14.51889721 490.7551595 12.12495056 490.75719545 9.73102701 490.76480921 C6.48715979 490.77439746 3.24384174 490.76554938 0 490.75209498 C-0.92569161 490.75926721 -1.85138323 490.76643944 -2.8051261 490.773829 C-13.54196884 490.68305679 -22.44982283 487.57629956 -30.48944855 480.37604749 C-39.63428927 470.23753987 -41.96164614 460.51692823 -41.83002472 447.13337171 C-41.83038632 445.9327919 -41.83074793 444.73221208 -41.83112049 443.49525106 C-41.82889581 439.64023791 -41.80611623 435.78566947 -41.7824173 431.93073499 C-41.77800198 429.53824038 -41.7749442 427.14574286 -41.77326202 424.75324476 C-41.75758519 415.91913458 -41.71570135 407.08508658 -41.67694855 398.25104749 C-41.61507355 378.49229749 -41.55319855 358.73354749 -41.48944855 338.37604749 C17.58055145 338.37604749 76.65055145 338.37604749 137.51055145 338.37604749 C137.18055145 336.72604749 136.85055145 335.07604749 136.51055145 333.37604749 C136.51055145 330.40604749 136.51055145 327.43604749 136.51055145 324.37604749 C77.77055145 324.37604749 19.03055145 324.37604749 -41.48944855 324.37604749 C-41.48944855 272.56604749 -41.48944855 220.75604749 -41.48944855 167.37604749 C17.25055145 167.37604749 75.99055145 167.37604749 136.51055145 167.37604749 C136.51055145 162.75604749 136.51055145 158.13604749 136.51055145 153.37604749 C77.77055145 153.37604749 19.03055145 153.37604749 -41.48944855 153.37604749 C-41.55132355 133.45229749 -41.61319855 113.52854749 -41.67694855 93.00104749 C-41.70426056 86.72282972 -41.73157257 80.44461195 -41.75971222 73.97614515 C-41.77326202 66.27717054 -41.77326202 66.27717054 -41.77577972 62.66666639 C-41.78036987 60.15875624 -41.79088659 57.65085249 -41.80617523 55.14298475 C-41.82823533 51.33204718 -41.83116316 47.5215123 -41.83002472 43.71052015 C-41.84081904 42.60356102 -41.85161337 41.49660188 -41.86273479 40.35609853 C-41.81462723 28.2706617 -38.63731725 19.40925337 -30.48944855 10.37604749 C-21.51369273 2.33740158 -11.82638922 -0.09163045 0 0 Z " fill="#FDFCFB" transform="translate(88.48944854736328,354.6239525079727)"/>
<path d="M0 0 C53.24002508 -1.18419115 106.57105965 4.02697104 159.48095703 9.41113281 C165.76846017 10.04904592 172.05867964 10.65276331 178.35107422 11.24023438 C197.1531314 13.0018791 215.86374775 15.07307318 234.58056641 17.59863281 C241.4086097 18.51055554 248.24265767 19.37426246 255.07763672 20.23242188 C256.08955582 20.36000885 256.08955582 20.36000885 257.12191772 20.49017334 C266.07780669 21.61676338 275.03454927 22.66204541 284.02954102 23.42431641 C287.68873668 23.75168067 291.22148257 24.2445776 294.81591797 25.00976562 C301.73839628 26.45593621 308.75010114 27.30320403 315.75732422 28.22341919 C318.24348264 28.55029218 320.72898983 28.88175538 323.21435547 29.21459961 C326.48196769 29.65217603 329.74968652 30.08892887 333.01757812 30.52441406 C345.70829841 32.21632839 358.3146584 34.00264399 370.87744141 36.48657227 C378.11565671 37.9052678 385.38097816 39.10822917 392.6618042 40.28668213 C402.56741256 41.89264184 412.33377803 43.6357566 422.06591797 46.07617188 C427.6331704 47.44756146 433.26465835 48.50562305 438.89013672 49.60742188 C452.36378646 52.26358645 465.67049286 55.19264084 478.85107422 59.08007812 C481.75143542 59.92201521 484.65621928 60.71519979 487.57373047 61.49414062 C539.41153438 75.59046285 539.41153438 75.59046285 552.50714111 91.71389771 C554.75917823 95.77250643 554.96535916 99.05282462 554.93603516 103.57177734 C554.94635867 104.40839024 554.95668219 105.24500313 554.96731853 106.10696793 C554.99688297 108.896374 554.99821488 111.68505788 554.99951172 114.47460938 C555.01478663 116.46924149 555.03175907 118.46386122 555.05030823 120.45846558 C555.09515956 125.84647765 555.11508401 131.23431282 555.12936783 136.6224823 C555.14736073 142.23634517 555.18462946 147.85008518 555.21899414 153.46386719 C555.27267235 162.72816704 555.3103676 171.99242692 555.33886719 181.25683594 C555.37033832 191.35525477 555.43028511 201.45313872 555.50976753 211.5512867 C555.57393715 219.75531587 555.62357239 227.95932734 555.66013908 236.16352654 C555.68166637 240.97466657 555.70869 245.78560515 555.75012207 250.59661865 C555.78806042 255.09628547 555.80629833 259.59561071 555.80933952 264.09543228 C555.8136553 265.73316893 555.82478283 267.37090478 555.84341621 269.00854111 C555.94674849 278.49558233 555.95108844 285.81895638 549.47998047 293.32226562 C541.95069907 299.34842369 533.48144504 303.18961236 524.7175293 307.07348633 C523.17790721 307.75745775 521.64369926 308.45376181 520.11547852 309.1628418 C514.95049645 311.5386999 509.78850073 313.3524724 504.32763672 314.91992188 C503.47911133 315.1685498 502.63058594 315.41717773 501.75634766 315.67333984 C499.92978955 316.20782129 498.10245234 316.73964616 496.27441406 317.26904297 C493.28497483 318.1379895 490.30019609 319.02170396 487.31591797 319.90820312 C468.3305624 325.52904539 449.33848278 330.19895992 429.89013672 333.91992188 C418.55533112 336.08897772 418.55533112 336.08897772 407.24169922 338.36523438 C393.91866259 341.11540249 380.54978477 343.51131189 367.14013672 345.79492188 C366.25650452 345.94549042 365.37287231 346.09605896 364.46246338 346.25119019 C355.33237884 347.80325569 346.19906634 349.30378109 337.04199219 350.68920898 C333.70058696 351.21616785 330.39170627 351.86834712 327.07763672 352.54492188 C319.41120515 354.04380144 311.70234628 354.98742716 303.94848633 355.90966797 C296.31584074 356.83046938 288.73154821 357.95796067 281.14013672 359.16992188 C272.47437647 360.54700142 263.83826686 361.65906566 255.10107422 362.45922852 C249.61918911 362.96440635 244.21099182 363.68373059 238.77735901 364.57922363 C227.71994548 366.30349972 216.57279009 367.44745623 205.43954659 368.55412292 C203.25328972 368.77145075 201.06729144 368.99124562 198.8813324 369.21154785 C195.01992354 369.6003253 191.15831551 369.98708044 187.29663086 370.37310791 C181.12441044 370.99010495 174.95236349 371.60879881 168.78059196 372.23027039 C166.66248907 372.44304058 164.54421482 372.65403311 162.42591858 372.86486816 C155.50727504 373.5582573 148.60189631 374.31293681 141.69921875 375.14892578 C134.56112812 376.00697669 127.42843387 376.62938447 120.25341797 377.09960938 C118.47877922 377.22080643 118.47877922 377.22080643 116.66828918 377.3444519 C114.17156238 377.51482298 111.67472907 377.68363999 109.17779541 377.85095215 C105.41899728 378.10546767 101.66112289 378.37086223 97.90332031 378.63964844 C45.37800495 382.3794514 -6.03013548 382.64447641 -58.60986328 379.10742188 C-61.12483319 378.93988062 -63.63980724 378.77240145 -66.15478516 378.60498047 C-80.70240145 377.63284372 -95.2477269 376.6298241 -109.79077148 375.59155273 C-114.48411893 375.25660145 -119.17798143 374.93045358 -123.87231445 374.60961914 C-137.21051978 373.69104937 -150.50742512 372.62874368 -163.79736328 371.16992188 C-165.43681999 370.99387062 -167.07630633 370.81809513 -168.71582031 370.64257812 C-178.4246121 369.59680009 -188.12061899 368.46508171 -197.81030273 367.25439453 C-204.41243274 366.44623754 -211.02189097 365.75329464 -217.64111328 365.10351562 C-218.53077789 365.01603058 -219.4204425 364.92854553 -220.33706665 364.83840942 C-224.78847765 364.40231426 -229.24044121 363.9731535 -233.69335938 363.55273438 C-241.22234996 362.83103919 -248.64227195 362.04626318 -256.06884766 360.57397461 C-260.98359078 359.67158471 -265.95684991 359.2063269 -270.92236328 358.66992188 C-279.37022415 357.7225434 -287.80943685 356.73838695 -296.23486328 355.60742188 C-297.04866455 355.50115479 -297.86246582 355.3948877 -298.70092773 355.28540039 C-304.57927543 354.48282155 -310.39710405 353.41618965 -316.22317505 352.3044281 C-323.40857833 350.93975201 -330.6178713 349.73428441 -337.83407593 348.54504395 C-340.1721389 348.15965687 -342.50981271 347.7719775 -344.84741211 347.38378906 C-351.8855885 346.21574264 -358.92494136 345.05501861 -365.96533203 343.90039062 C-367.04943359 343.7217749 -368.13353516 343.54315918 -369.25048828 343.35913086 C-371.20454409 343.03736927 -373.15894359 342.71768395 -375.11376953 342.40063477 C-375.98259766 342.25746826 -376.85142578 342.11430176 -377.74658203 341.96679688 C-378.47578857 341.84788086 -379.20499512 341.72896484 -379.95629883 341.60644531 C-383.04625891 341.02535428 -386.10604272 340.33934259 -389.17341614 339.64993286 C-393.22800094 338.7471196 -397.29459897 337.90199132 -401.35986328 337.04882812 C-404.1529588 336.45852425 -406.94586232 335.86731714 -409.73876953 335.27612305 C-411.65247091 334.87206518 -413.56653482 334.46972046 -415.48095703 334.0690918 C-418.27498172 333.48388927 -421.06751031 332.89194952 -423.85986328 332.29882812 C-424.70387695 332.12372208 -425.54789062 331.94861603 -426.41748047 331.76820374 C-431.2558022 330.7332784 -435.88906328 329.43927272 -440.55282593 327.78314209 C-442.69313768 327.0800669 -444.81943432 326.57827943 -447.02392578 326.11914062 C-452.11986543 325.04544004 -457.03132143 323.51685152 -461.98486328 321.91992188 C-462.94021973 321.6123999 -463.89557617 321.30487793 -464.87988281 320.98803711 C-518.0672384 303.69488051 -518.0672384 303.69488051 -528.60986328 285.10742188 C-530.42873263 280.52101776 -530.86268025 276.67859203 -530.87055969 271.75808716 C-530.87438524 271.03989992 -530.87821079 270.32171268 -530.88215226 269.58176219 C-530.89243149 267.18675686 -530.88849984 264.79199354 -530.88452148 262.39697266 C-530.88887079 260.67509744 -530.89405467 258.95322417 -530.90000916 257.23135376 C-530.91338736 252.56187749 -530.9139791 247.89248221 -530.91144586 243.22299051 C-530.91037527 239.32147156 -530.9152618 235.41996893 -530.92005128 231.51845348 C-530.93114255 222.3119318 -530.93158611 213.10545091 -530.92553711 203.89892578 C-530.91949783 194.40927191 -530.93180805 184.91976633 -530.95310718 175.43013775 C-530.97073552 167.27538488 -530.97672256 159.12067915 -530.97346944 150.96590793 C-530.97165829 146.09868199 -530.97427593 141.23156182 -530.98818398 136.36435318 C-531.00077761 131.78588308 -530.99880368 127.20764373 -530.98577309 122.62917709 C-530.98341104 120.95224682 -530.98612863 119.27530023 -530.99439621 117.59838867 C-531.0459907 106.31687404 -530.90093078 97.7489864 -522.60986328 89.10742188 C-505.76245872 74.44394013 -483.57928539 66.75179113 -462.60986328 60.10742188 C-461.88202637 59.87361816 -461.15418945 59.63981445 -460.40429688 59.39892578 C-433.43963906 50.81661216 -405.45091526 45.01683081 -377.65820312 39.86181641 C-373.76757047 39.13962129 -369.8818879 38.39293754 -365.99658203 37.64257812 C-352.05832963 34.96810264 -338.14012904 32.44964341 -324.0793457 30.48852539 C-318.16540464 29.66029709 -312.29283189 28.70590593 -306.41845703 27.63867188 C-297.68191469 26.06378158 -288.91784571 24.88855877 -280.10986328 23.79492188 C-278.43308122 23.5842587 -276.75632417 23.37339629 -275.07958984 23.16235352 C-271.48520141 22.71095147 -267.89042627 22.26278022 -264.29541016 21.81640625 C-259.43568854 21.21215181 -254.57757437 20.59577816 -249.71966553 19.97714233 C-224.41871917 16.76123114 -199.12072276 13.99519134 -173.71562195 11.7510376 C-166.35863902 11.09658864 -159.0162779 10.33300159 -151.67236328 9.54492188 C-123.51271786 6.58377995 -95.33432996 4.6413767 -67.06274414 3.109375 C-65.42887253 3.01984055 -65.42887253 3.01984055 -63.76199341 2.92849731 C-61.72092338 2.8171247 -59.67973046 2.70797135 -57.63839722 2.60153198 C-52.6249509 2.32839263 -47.66499596 1.91480354 -42.67912292 1.32733154 C-39.55484634 0.99530041 -36.43685992 0.8869119 -33.29736328 0.79101562 C-32.28814064 0.75950409 -32.28814064 0.75950409 -31.25852966 0.72735596 C-23.20553004 0.48537048 -15.15056638 0.31402538 -7.09552002 0.1574707 C-4.73020835 0.10984503 -2.36513464 0.05564275 0 0 Z " fill="#FDFDFD" transform="translate(787.60986328125,407.892578125)"/>
<path d="M0 0 C1.01429161 -0.00420695 2.02858321 -0.0084139 3.07361093 -0.01274834 C6.47073931 -0.02318352 9.86745747 -0.01228032 13.26457977 -0.00147593 C15.73584846 -0.00460578 18.20711578 -0.00904985 20.67838001 -0.01468903 C26.06741639 -0.02395206 31.4563333 -0.02388523 36.84536266 -0.0156384 C44.91292244 -0.00334839 52.9804085 -0.00839198 61.04796997 -0.01678632 C74.79802961 -0.03058465 88.54805596 -0.03013712 102.29811859 -0.02194369 C116.23287887 -0.01369077 130.16761725 -0.01194823 144.10237885 -0.01815569 C144.98241554 -0.01854321 145.86245223 -0.01893073 146.76915669 -0.01932999 C150.35339109 -0.0209298 153.93762545 -0.02257592 157.52185979 -0.02428082 C190.90961471 -0.04015107 224.29735494 -0.04122394 257.685112 -0.03283846 C258.67456131 -0.03259008 259.66401062 -0.03234169 260.68344325 -0.03208578 C262.16998753 -0.03171259 262.16998753 -0.03171259 263.68656301 -0.03133187 C293.86462929 -0.02376587 324.0426895 -0.0218065 354.22075653 -0.0253998 C356.24070209 -0.02563224 358.26064765 -0.02586371 360.28059322 -0.02609421 C368.39767958 -0.02702559 376.51476594 -0.02798159 384.6318523 -0.02897351 C407.32323015 -0.03172469 430.01460802 -0.03343637 452.70598602 -0.03433192 C453.73934408 -0.03437286 454.77270214 -0.03441379 455.83737408 -0.03445597 C488.77038563 -0.03568401 521.70339506 -0.03230204 554.63640594 -0.02578318 C556.23890905 -0.02546706 556.23890905 -0.02546706 557.87378595 -0.02514455 C575.22345269 -0.02170961 592.57311938 -0.01805127 609.92278607 -0.01437403 C678.73590123 0.00019526 747.54899887 -0.00048096 816.36211395 -0.01506579 C833.70297494 -0.01872929 851.04383593 -0.02236241 868.38469696 -0.02578318 C869.45240058 -0.02599453 870.52010419 -0.02620587 871.62016246 -0.02642362 C904.51848088 -0.03289103 937.41679785 -0.03563521 970.31511688 -0.03433192 C971.86401936 -0.03427079 971.86401936 -0.03427079 973.44421279 -0.03420842 C996.1102743 -0.03327104 1018.77633565 -0.03137021 1041.44239701 -0.02860041 C1049.55227751 -0.02761296 1057.66215801 -0.02667372 1065.77203851 -0.02574828 C1067.78961199 -0.02551611 1069.80718547 -0.02527992 1071.82475895 -0.02503969 C1101.99572842 -0.02145716 1132.16669104 -0.02451164 1162.33765966 -0.03208578 C1163.82183363 -0.03245836 1163.82183363 -0.03245836 1165.33599091 -0.03283846 C1166.32361929 -0.03308651 1167.31124768 -0.03333456 1168.32880419 -0.03359012 C1201.61915891 -0.0418597 1234.90949599 -0.03883131 1268.19984818 -0.02299623 C1271.77280678 -0.02133913 1275.34576541 -0.01972902 1278.91872406 -0.01815569 C1280.23404354 -0.01756976 1280.23404354 -0.01756976 1281.57593513 -0.016972 C1295.4746916 -0.01104905 1309.3734262 -0.01518068 1323.27218071 -0.02346271 C1336.9304363 -0.03138814 1350.58865489 -0.02863193 1364.24690577 -0.01442045 C1372.25943035 -0.00640188 1380.27185359 -0.00660367 1388.28437337 -0.01886524 C1394.22570433 -0.02704338 1400.16694849 -0.01965393 1406.10827196 -0.00609642 C1408.5022057 -0.00306451 1410.89615234 -0.00510047 1413.2900759 -0.01271423 C1416.53394312 -0.02230247 1419.77726116 -0.0134544 1423.02110291 0 C1423.94679452 -0.00717223 1424.87248613 -0.01434445 1425.82622901 -0.02173402 C1436.56307175 0.0690382 1445.47092574 3.17579543 1453.51055145 10.37604749 C1462.6851331 20.54752766 1464.982026 30.2868784 1464.85112762 43.71052015 C1464.85148923 44.92101215 1464.85185083 46.13150415 1464.8522234 47.37867773 C1464.8499985 51.26599477 1464.82721787 55.15287095 1464.8035202 59.04010999 C1464.79910495 61.4524614 1464.79604713 63.86481568 1464.79436493 66.27717054 C1464.7786873 75.18517358 1464.73680346 84.09311495 1464.69805145 93.00104749 C1464.63617645 112.92479749 1464.57430145 132.84854749 1464.51055145 153.37604749 C1405.44055145 153.37604749 1346.37055145 153.37604749 1285.51055145 153.37604749 C1284.52055145 150.40604749 1283.53055145 147.43604749 1282.51055145 144.37604749 C1274.05863173 124.63122662 1257.77973034 114.35382981 1239.51055145 104.37604749 C1238.90211395 104.04089124 1238.29367645 103.70573499 1237.66680145 103.36042249 C1228.92065238 98.59689487 1219.91282033 95.21099686 1210.5042038 92.06110609 C1208.50743494 91.3749766 1206.53219471 90.64641806 1204.55742645 89.89948499 C1178.76356147 80.14608186 1151.81323836 73.39095159 1124.82769012 67.85700452 C1119.59726887 66.77135181 1114.390114 65.58208164 1109.1863327 64.37604749 C1101.30812967 62.56122961 1093.5129935 60.99475583 1085.48711395 59.96344984 C1081.85422564 59.45691266 1078.27137236 58.76674953 1074.6747818 58.05021131 C1061.74597377 55.47672055 1048.75072926 53.57137014 1035.69805145 51.75104749 C1033.56843329 51.44939357 1031.43887574 51.14731145 1029.30937958 50.84479749 C1009.70084342 48.0699392 990.05568766 45.72239797 970.3804245 43.47785413 C967.53426116 43.15280219 964.68840523 42.82516175 961.8425827 42.49714124 C960.97800949 42.39920774 960.11343628 42.30127424 959.22266388 42.20037305 C958.41379227 42.10680021 957.60492065 42.01322736 956.77153778 41.91681898 C956.06700974 41.83624753 955.36248169 41.75567609 954.63660431 41.67266309 C953.11765507 41.46074736 951.60667508 41.18816588 950.10511017 40.87604749 C947.30966514 40.33733449 944.57417072 40.0644781 941.73662567 39.83527601 C940.59708435 39.74170316 939.45754303 39.64813032 938.28347015 39.55172193 C937.05645386 39.45378843 935.82943756 39.35585493 934.56523895 39.25495374 C932.6084282 39.09465952 930.65161766 38.9343627 928.6948185 38.77392709 C925.25859264 38.49303826 921.82205109 38.21606273 918.38555145 37.93854749 C913.02853902 37.50527381 907.67176409 37.0692133 902.31523895 36.62995374 C900.3743338 36.47093076 900.3743338 36.47093076 898.39421844 36.3086952 C890.39366055 35.64343406 882.4126042 34.87365645 874.43294525 33.99520338 C869.04043294 33.40852211 863.68036479 33.04284662 858.26055145 32.87604749 C850.94065982 32.59108821 843.67762948 32.06942353 836.38555145 31.37604749 C826.5669375 30.45175397 816.76555936 29.99926949 806.90850067 29.71784437 C805.84389618 29.68626234 804.77929169 29.6546803 803.68242645 29.62214124 C802.75526825 29.59821302 801.82811005 29.5742848 800.87285614 29.54963148 C797.99191032 29.40089836 795.14547767 29.16636555 792.27446747 28.8941139 C786.8911758 28.39007517 781.51709915 28.07492701 776.1160202 27.84089124 C775.14678619 27.79777814 774.17755219 27.75466505 773.17894745 27.71024549 C770.01884067 27.57286726 766.85853671 27.44191517 763.69805145 27.31354749 C762.60485596 27.26902448 761.51166046 27.22450147 760.38533783 27.17862928 C724.11222591 25.73620089 687.30194544 25.05836946 651.0691452 27.85260999 C644.86682529 28.31893353 638.6669587 28.60097357 632.4519577 28.84089124 C630.95292404 28.89916341 630.95292404 28.89916341 629.42360687 28.9586128 C625.27735028 29.11812525 621.13102458 29.27516241 616.98442841 29.42560804 C604.7126542 29.87499146 592.50116873 30.52010497 580.27387238 31.68035352 C574.52003647 32.22562212 568.78593206 32.59624649 563.01055145 32.81354749 C550.50895738 33.35650611 538.07874649 34.7008676 525.63311005 35.96003187 C519.41995899 36.5882679 513.20525773 37.20050413 506.98995209 37.80701673 C505.08539054 37.99371139 503.18114228 38.18359365 501.27690887 38.37360609 C495.38709529 38.95115594 489.51327998 39.44420004 483.60430145 39.77448499 C473.92913958 40.39194192 464.34498176 41.7098677 454.73479462 42.96027601 C450.48441889 43.50836898 446.23129626 44.03291269 441.97786713 44.5566963 C401.52881237 49.54178078 361.19858724 55.07033324 321.15215302 62.68659437 C318.54590842 63.18002657 315.93901997 63.66602575 313.32988739 64.14362562 C306.6660004 65.36751504 300.06933641 66.66443475 293.51055145 68.37604749 C290.51662413 69.03079679 287.51325448 69.6380034 284.51055145 70.25104749 C271.37170731 72.98883604 258.44238305 76.35429328 245.51055145 79.93854749 C244.44755829 80.23156751 243.38456512 80.52458753 242.28936005 80.82648695 C236.57011868 82.42861529 231.04803976 84.23269949 225.51055145 86.37604749 C223.08287785 87.13822409 220.64563736 87.8377123 218.19805145 88.53229749 C191.670012 96.86086802 154.82229791 111.11257308 141.16680145 136.91510999 C138.66554781 142.68585947 138.24856701 146.73390748 137.51055145 153.37604749 C78.44055145 153.37604749 19.37055145 153.37604749 -41.48944855 153.37604749 C-41.55132355 133.45229749 -41.61319855 113.52854749 -41.67694855 93.00104749 C-41.70426056 86.72282972 -41.73157257 80.44461195 -41.75971222 73.97614515 C-41.77326202 66.27717054 -41.77326202 66.27717054 -41.77577972 62.66666639 C-41.78036987 60.15875624 -41.79088659 57.65085249 -41.80617523 55.14298475 C-41.82823533 51.33204718 -41.83116316 47.5215123 -41.83002472 43.71052015 C-41.84081904 42.60356102 -41.85161337 41.49660188 -41.86273479 40.35609853 C-41.81462723 28.2706617 -38.63731725 19.40925337 -30.48944855 10.37604749 C-21.51369273 2.33740158 -11.82638922 -0.09163045 0 0 Z " fill="#EE353A" transform="translate(88.48944854736328,354.6239525079727)"/>
<path d="M0 0 C59.4 0 118.8 0 180 0 C182.64 5.28 185.28 10.56 188 16 C190.96599046 19.67615719 193.63834822 22.78982647 197 26 C197.65097656 26.65871094 198.30195313 27.31742188 198.97265625 27.99609375 C210.32802066 38.87011324 224.82103327 46.48311114 239 53 C239.82677246 53.38510742 240.65354492 53.77021484 241.50537109 54.16699219 C255.8964643 60.8228398 270.56371006 66.11564977 285.66479492 70.92163086 C289.22423516 72.07250177 292.76078614 73.28292721 296.30078125 74.4921875 C304.16888823 77.14279563 312.14132973 79.27731693 320.1875 81.3125 C320.93732147 81.50320068 321.68714294 81.69390137 322.45968628 81.89038086 C373.44545115 94.8287298 425.09383684 103.34065589 477.16430664 110.60223389 C481.15804349 111.16244015 485.14934823 111.73898826 489.140625 112.31640625 C501.64725119 114.11015393 514.12320412 115.59841601 526.71875 116.60546875 C529.08076749 116.80069749 531.27867046 117.05640257 533.60546875 117.52734375 C536.98763664 118.19494948 540.37716919 118.24306255 543.8125 118.375 C550.75366286 118.69830444 557.55731309 119.41975437 564.4375 120.375 C578.33836403 122.27464334 592.31842702 123.09386015 606.31225586 123.99755859 C607.22796356 124.05731873 608.14367126 124.11707886 609.08712769 124.1786499 C610.8125556 124.29052579 612.53815564 124.39979085 614.26394653 124.50592041 C618.88794367 124.80336114 623.41152538 125.33448045 628 126 C629.95528173 126.12503491 631.91279343 126.21944181 633.87109375 126.28125 C634.94037109 126.31863281 636.00964844 126.35601563 637.11132812 126.39453125 C638.7577832 126.44673828 638.7577832 126.44673828 640.4375 126.5 C642.62380697 126.56957017 644.81001253 126.64241483 646.99609375 126.71875 C647.95700928 126.74904297 648.9179248 126.77933594 649.90795898 126.81054688 C652.21101207 126.95165775 654.50804496 127.19865415 656.7956543 127.5 C661.28892144 128.08714392 665.74641999 128.20609427 670.2734375 128.28125 C671.59560776 128.30886414 671.59560776 128.30886414 672.94448853 128.33703613 C675.7545967 128.39527415 678.56476849 128.44808447 681.375 128.5 C685.02871199 128.56988688 688.68234518 128.64286436 692.3359375 128.71875 C693.27683228 128.73794495 694.21772705 128.75713989 695.18713379 128.7769165 C701.15467216 128.90838165 707.11446084 129.12010457 713.07772827 129.3793335 C730.30133752 130.12114479 747.51355671 130.24259536 764.75 130.25 C765.54071899 130.25073643 766.33143799 130.25147285 767.14611816 130.2522316 C796.18324984 130.27413603 825.0396319 129.2904566 854.0098877 127.2121582 C857.99150895 126.92964921 861.97421124 126.66438319 865.95697021 126.39848328 C870.59693901 126.08700952 875.23610646 125.76456697 879.875 125.4375 C881.10984131 125.35065445 881.10984131 125.35065445 882.36962891 125.26205444 C891.54785667 124.60624999 900.63866352 123.70432977 909.765625 122.51098633 C917.23073846 121.57430708 924.73755203 121.01185799 932.23239136 120.36947632 C948.9635929 118.92416694 965.60825428 117.21548938 982.24641418 114.91970825 C988.59858992 114.04555349 994.95715162 113.22320191 1001.31640625 112.40234375 C1045.74002613 106.65323544 1089.9667959 100.36221457 1133.73681641 90.71435547 C1136.78408806 90.04726607 1139.83424738 89.39672264 1142.88671875 88.75390625 C1231.0347502 71.6365327 1231.0347502 71.6365327 1306.32421875 26.67578125 C1306.87722656 26.12277344 1307.43023438 25.56976562 1308 25 C1308.66 25 1309.32 25 1310 25 C1310.39445312 24.11634766 1310.39445312 24.11634766 1310.796875 23.21484375 C1312.05137365 20.90542579 1313.40838087 19.42485809 1315.25 17.5625 C1320.10273787 12.05019304 1320.10273787 12.05019304 1325 0 C1384.73 0 1444.46 0 1506 0 C1506.061875 19.75875 1506.12375 39.5175 1506.1875 59.875 C1506.21481201 66.10101074 1506.24212402 72.32702148 1506.27026367 78.74169922 C1506.28381348 86.37719727 1506.28381348 86.37719727 1506.28633118 89.95803833 C1506.29092105 92.44511528 1506.30143718 94.93218578 1506.31672668 97.41921997 C1506.33878905 101.19870503 1506.34171454 104.9777841 1506.34057617 108.75732422 C1506.3513705 109.85491499 1506.36216482 110.95250576 1506.37328625 112.08335686 C1506.32490859 124.13835085 1503.12504804 132.99209444 1495 142 C1486.02424419 150.03864591 1476.33694067 152.46767794 1464.51055145 152.37604749 C1463.49625985 152.38025444 1462.48196824 152.38446139 1461.43694052 152.38879583 C1458.03981215 152.39923102 1454.64309398 152.38832781 1451.24597168 152.37752342 C1448.77470299 152.38065327 1446.30343568 152.38509734 1443.83217144 152.39073652 C1438.44313507 152.39999955 1433.05421815 152.39993272 1427.66518879 152.39168589 C1419.59762901 152.37939588 1411.53014295 152.38443947 1403.46258148 152.39283381 C1389.71252185 152.40663214 1375.9624955 152.40618461 1362.21243286 152.39799118 C1348.27767258 152.38973826 1334.34293421 152.38799572 1320.40817261 152.39420319 C1319.52813592 152.3945907 1318.64809923 152.39497822 1317.74139476 152.39537748 C1314.15716037 152.39697729 1310.572926 152.39862341 1306.98869166 152.40032831 C1273.60093674 152.41619856 1240.21319651 152.41727143 1206.82543945 152.40888596 C1205.83599014 152.40863757 1204.84654083 152.40838918 1203.8271082 152.40813327 C1202.34056392 152.40776009 1202.34056392 152.40776009 1200.82398844 152.40737936 C1170.64592216 152.39981336 1140.46786195 152.39785399 1110.28979492 152.4014473 C1108.26984936 152.40167973 1106.2499038 152.4019112 1104.22995824 152.40214171 C1096.11287187 152.40307309 1087.99578551 152.40402909 1079.87869915 152.405021 C1057.1873213 152.40777218 1034.49594343 152.40948387 1011.80456543 152.41037941 C1010.25452834 152.41044082 1010.25452834 152.41044082 1008.67317737 152.41050346 C975.74016582 152.41173151 942.80715639 152.40834953 909.87414551 152.40183067 C908.27164241 152.40151455 908.27164241 152.40151455 906.6367655 152.40119205 C889.28709876 152.3977571 871.93743207 152.39409876 854.58776538 152.39042152 C785.77465023 152.37585224 716.96155258 152.37652846 648.1484375 152.39111328 C630.80757652 152.39477678 613.46671553 152.3984099 596.12585449 152.40183067 C595.05815088 152.40204202 593.99044726 152.40225336 592.89038899 152.40247111 C559.99207057 152.40893852 527.09375361 152.4116827 494.19543457 152.41037941 C492.6465321 152.41031828 492.6465321 152.41031828 491.06633867 152.41025592 C468.40027716 152.40931853 445.7342158 152.40741771 423.06815444 152.4046479 C414.95827395 152.40366045 406.84839344 152.40272121 398.73851294 152.40179577 C396.72093946 152.4015636 394.70336598 152.40132741 392.6857925 152.40108718 C362.51482303 152.39750465 332.34386041 152.40055913 302.1728918 152.40813327 C300.68871783 152.40850585 300.68871783 152.40850585 299.17456055 152.40888596 C298.18693216 152.409134 297.19930378 152.40938205 296.18174726 152.40963761 C262.89139255 152.41790719 229.60105547 152.41487881 196.31070328 152.39904372 C192.73774467 152.39738662 189.16478604 152.39577651 185.59182739 152.39420319 C184.71494774 152.39381257 183.83806809 152.39342195 182.93461633 152.39301949 C169.03585985 152.38709654 155.13712525 152.39122817 141.23837074 152.3995102 C127.58011515 152.40743563 113.92189657 152.40467942 100.26364568 152.39046794 C92.2511211 152.38244937 84.23869787 152.38265116 76.22617808 152.39491273 C70.28484712 152.40309087 64.34360296 152.39570142 58.4022795 152.38214391 C56.00834575 152.37911201 53.61439911 152.38114796 51.22047555 152.38876172 C47.97660834 152.39834997 44.73329029 152.38950189 41.48944855 152.37604749 C40.56375693 152.38321972 39.63806532 152.39039194 38.68432245 152.39778151 C27.9474797 152.3070093 19.03962571 149.20025207 11 142 C1.85515928 131.86149238 -0.47219759 122.14088074 -0.34057617 108.75732422 C-0.34093778 107.5567444 -0.34129938 106.35616459 -0.34167194 105.11920357 C-0.33944727 101.26419042 -0.31666768 97.40962198 -0.29296875 93.5546875 C-0.28855343 91.16219288 -0.28549565 88.76969537 -0.28381348 86.37719727 C-0.26813664 77.54308708 -0.2262528 68.70903909 -0.1875 59.875 C-0.125625 40.11625 -0.06375 20.3575 0 0 Z " fill="#F9C734" transform="translate(47,693)"/>
<path d="M0 0 C53.24002508 -1.18419115 106.57105965 4.02697104 159.48095703 9.41113281 C165.76846017 10.04904592 172.05867964 10.65276331 178.35107422 11.24023438 C197.1531314 13.0018791 215.86374775 15.07307318 234.58056641 17.59863281 C241.4086097 18.51055554 248.24265767 19.37426246 255.07763672 20.23242188 C256.08955582 20.36000885 256.08955582 20.36000885 257.12191772 20.49017334 C266.07780669 21.61676338 275.03454927 22.66204541 284.02954102 23.42431641 C287.68873668 23.75168067 291.22148257 24.2445776 294.81591797 25.00976562 C301.73839628 26.45593621 308.75010114 27.30320403 315.75732422 28.22341919 C318.24348264 28.55029218 320.72898983 28.88175538 323.21435547 29.21459961 C326.48196769 29.65217603 329.74968652 30.08892887 333.01757812 30.52441406 C345.70829841 32.21632839 358.3146584 34.00264399 370.87744141 36.48657227 C378.11565671 37.9052678 385.38097816 39.10822917 392.6618042 40.28668213 C402.56741256 41.89264184 412.33377803 43.6357566 422.06591797 46.07617188 C427.6331704 47.44756146 433.26465835 48.50562305 438.89013672 49.60742188 C452.36378646 52.26358645 465.67049286 55.19264084 478.85107422 59.08007812 C481.75143542 59.92201521 484.65621928 60.71519979 487.57373047 61.49414062 C539.41153438 75.59046285 539.41153438 75.59046285 552.50714111 91.71389771 C554.75917823 95.77250643 554.96535916 99.05282462 554.93603516 103.57177734 C554.94635867 104.40839024 554.95668219 105.24500313 554.96731853 106.10696793 C554.99688297 108.896374 554.99821488 111.68505788 554.99951172 114.47460938 C555.01478663 116.46924149 555.03175907 118.46386122 555.05030823 120.45846558 C555.09515956 125.84647765 555.11508401 131.23431282 555.12936783 136.6224823 C555.14736073 142.23634517 555.18462946 147.85008518 555.21899414 153.46386719 C555.27267235 162.72816704 555.3103676 171.99242692 555.33886719 181.25683594 C555.37033832 191.35525477 555.43028511 201.45313872 555.50976753 211.5512867 C555.57393715 219.75531587 555.62357239 227.95932734 555.66013908 236.16352654 C555.68166637 240.97466657 555.70869 245.78560515 555.75012207 250.59661865 C555.78806042 255.09628547 555.80629833 259.59561071 555.80933952 264.09543228 C555.8136553 265.73316893 555.82478283 267.37090478 555.84341621 269.00854111 C555.94674849 278.49558233 555.95108844 285.81895638 549.47998047 293.32226562 C541.95069907 299.34842369 533.48144504 303.18961236 524.7175293 307.07348633 C523.17790721 307.75745775 521.64369926 308.45376181 520.11547852 309.1628418 C514.95049645 311.5386999 509.78850073 313.3524724 504.32763672 314.91992188 C503.47911133 315.1685498 502.63058594 315.41717773 501.75634766 315.67333984 C499.92978955 316.20782129 498.10245234 316.73964616 496.27441406 317.26904297 C493.28497483 318.1379895 490.30019609 319.02170396 487.31591797 319.90820312 C468.3305624 325.52904539 449.33848278 330.19895992 429.89013672 333.91992188 C418.55533112 336.08897772 418.55533112 336.08897772 407.24169922 338.36523438 C393.91866259 341.11540249 380.54978477 343.51131189 367.14013672 345.79492188 C366.25650452 345.94549042 365.37287231 346.09605896 364.46246338 346.25119019 C355.33237884 347.80325569 346.19906634 349.30378109 337.04199219 350.68920898 C333.70058696 351.21616785 330.39170627 351.86834712 327.07763672 352.54492188 C319.41120515 354.04380144 311.70234628 354.98742716 303.94848633 355.90966797 C296.31584074 356.83046938 288.73154821 357.95796067 281.14013672 359.16992188 C272.47437647 360.54700142 263.83826686 361.65906566 255.10107422 362.45922852 C249.61918911 362.96440635 244.21099182 363.68373059 238.77735901 364.57922363 C227.71994548 366.30349972 216.57279009 367.44745623 205.43954659 368.55412292 C203.25328972 368.77145075 201.06729144 368.99124562 198.8813324 369.21154785 C195.01992354 369.6003253 191.15831551 369.98708044 187.29663086 370.37310791 C181.12441044 370.99010495 174.95236349 371.60879881 168.78059196 372.23027039 C166.66248907 372.44304058 164.54421482 372.65403311 162.42591858 372.86486816 C155.50727504 373.5582573 148.60189631 374.31293681 141.69921875 375.14892578 C134.56112812 376.00697669 127.42843387 376.62938447 120.25341797 377.09960938 C118.47877922 377.22080643 118.47877922 377.22080643 116.66828918 377.3444519 C114.17156238 377.51482298 111.67472907 377.68363999 109.17779541 377.85095215 C105.41899728 378.10546767 101.66112289 378.37086223 97.90332031 378.63964844 C45.37800495 382.3794514 -6.03013548 382.64447641 -58.60986328 379.10742188 C-61.12483319 378.93988062 -63.63980724 378.77240145 -66.15478516 378.60498047 C-80.70240145 377.63284372 -95.2477269 376.6298241 -109.79077148 375.59155273 C-114.48411893 375.25660145 -119.17798143 374.93045358 -123.87231445 374.60961914 C-137.21051978 373.69104937 -150.50742512 372.62874368 -163.79736328 371.16992188 C-165.43681999 370.99387062 -167.07630633 370.81809513 -168.71582031 370.64257812 C-178.4246121 369.59680009 -188.12061899 368.46508171 -197.81030273 367.25439453 C-204.41243274 366.44623754 -211.02189097 365.75329464 -217.64111328 365.10351562 C-218.53077789 365.01603058 -219.4204425 364.92854553 -220.33706665 364.83840942 C-224.78847765 364.40231426 -229.24044121 363.9731535 -233.69335938 363.55273438 C-241.22234996 362.83103919 -248.64227195 362.04626318 -256.06884766 360.57397461 C-260.98359078 359.67158471 -265.95684991 359.2063269 -270.92236328 358.66992188 C-279.37022415 357.7225434 -287.80943685 356.73838695 -296.23486328 355.60742188 C-297.04866455 355.50115479 -297.86246582 355.3948877 -298.70092773 355.28540039 C-304.57927543 354.48282155 -310.39710405 353.41618965 -316.22317505 352.3044281 C-323.40857833 350.93975201 -330.6178713 349.73428441 -337.83407593 348.54504395 C-340.1721389 348.15965687 -342.50981271 347.7719775 -344.84741211 347.38378906 C-351.8855885 346.21574264 -358.92494136 345.05501861 -365.96533203 343.90039062 C-367.04943359 343.7217749 -368.13353516 343.54315918 -369.25048828 343.35913086 C-371.20454409 343.03736927 -373.15894359 342.71768395 -375.11376953 342.40063477 C-375.98259766 342.25746826 -376.85142578 342.11430176 -377.74658203 341.96679688 C-378.47578857 341.84788086 -379.20499512 341.72896484 -379.95629883 341.60644531 C-383.04625891 341.02535428 -386.10604272 340.33934259 -389.17341614 339.64993286 C-393.22800094 338.7471196 -397.29459897 337.90199132 -401.35986328 337.04882812 C-404.1529588 336.45852425 -406.94586232 335.86731714 -409.73876953 335.27612305 C-411.65247091 334.87206518 -413.56653482 334.46972046 -415.48095703 334.0690918 C-418.27498172 333.48388927 -421.06751031 332.89194952 -423.85986328 332.29882812 C-424.70387695 332.12372208 -425.54789062 331.94861603 -426.41748047 331.76820374 C-431.2558022 330.7332784 -435.88906328 329.43927272 -440.55282593 327.78314209 C-442.69313768 327.0800669 -444.81943432 326.57827943 -447.02392578 326.11914062 C-452.11986543 325.04544004 -457.03132143 323.51685152 -461.98486328 321.91992188 C-462.94021973 321.6123999 -463.89557617 321.30487793 -464.87988281 320.98803711 C-518.0672384 303.69488051 -518.0672384 303.69488051 -528.60986328 285.10742188 C-530.42873263 280.52101776 -530.86268025 276.67859203 -530.87055969 271.75808716 C-530.87438524 271.03989992 -530.87821079 270.32171268 -530.88215226 269.58176219 C-530.89243149 267.18675686 -530.88849984 264.79199354 -530.88452148 262.39697266 C-530.88887079 260.67509744 -530.89405467 258.95322417 -530.90000916 257.23135376 C-530.91338736 252.56187749 -530.9139791 247.89248221 -530.91144586 243.22299051 C-530.91037527 239.32147156 -530.9152618 235.41996893 -530.92005128 231.51845348 C-530.93114255 222.3119318 -530.93158611 213.10545091 -530.92553711 203.89892578 C-530.91949783 194.40927191 -530.93180805 184.91976633 -530.95310718 175.43013775 C-530.97073552 167.27538488 -530.97672256 159.12067915 -530.97346944 150.96590793 C-530.97165829 146.09868199 -530.97427593 141.23156182 -530.98818398 136.36435318 C-531.00077761 131.78588308 -530.99880368 127.20764373 -530.98577309 122.62917709 C-530.98341104 120.95224682 -530.98612863 119.27530023 -530.99439621 117.59838867 C-531.0459907 106.31687404 -530.90093078 97.7489864 -522.60986328 89.10742188 C-505.76245872 74.44394013 -483.57928539 66.75179113 -462.60986328 60.10742188 C-461.88202637 59.87361816 -461.15418945 59.63981445 -460.40429688 59.39892578 C-433.43963906 50.81661216 -405.45091526 45.01683081 -377.65820312 39.86181641 C-373.76757047 39.13962129 -369.8818879 38.39293754 -365.99658203 37.64257812 C-352.05832963 34.96810264 -338.14012904 32.44964341 -324.0793457 30.48852539 C-318.16540464 29.66029709 -312.29283189 28.70590593 -306.41845703 27.63867188 C-297.68191469 26.06378158 -288.91784571 24.88855877 -280.10986328 23.79492188 C-278.43308122 23.5842587 -276.75632417 23.37339629 -275.07958984 23.16235352 C-271.48520141 22.71095147 -267.89042627 22.26278022 -264.29541016 21.81640625 C-259.43568854 21.21215181 -254.57757437 20.59577816 -249.71966553 19.97714233 C-224.41871917 16.76123114 -199.12072276 13.99519134 -173.71562195 11.7510376 C-166.35863902 11.09658864 -159.0162779 10.33300159 -151.67236328 9.54492188 C-123.51271786 6.58377995 -95.33432996 4.6413767 -67.06274414 3.109375 C-65.42887253 3.01984055 -65.42887253 3.01984055 -63.76199341 2.92849731 C-61.72092338 2.8171247 -59.67973046 2.70797135 -57.63839722 2.60153198 C-52.6249509 2.32839263 -47.66499596 1.91480354 -42.67912292 1.32733154 C-39.55484634 0.99530041 -36.43685992 0.8869119 -33.29736328 0.79101562 C-32.28814064 0.75950409 -32.28814064 0.75950409 -31.25852966 0.72735596 C-23.20553004 0.48537048 -15.15056638 0.31402538 -7.09552002 0.1574707 C-4.73020835 0.10984503 -2.36513464 0.05564275 0 0 Z M-34.03149414 42.83007812 C-39.79602798 43.22146959 -45.57124924 43.33583046 -51.34589195 43.49550629 C-68.05996557 43.96052444 -84.74316379 44.77121372 -101.43579102 45.72705078 C-104.42125217 45.89788983 -107.40689633 46.06453809 -110.39282227 46.22705078 C-128.52058658 47.21382818 -146.60762307 48.43184751 -164.68989563 50.0607605 C-173.55420867 50.85900863 -182.41557998 51.5358467 -191.29736328 52.10742188 C-204.75430923 53.00008782 -218.17134155 54.21185751 -231.59242249 55.52378845 C-236.19325233 55.97307532 -240.79552994 56.4037781 -245.39892578 56.82617188 C-260.10415811 58.188783 -274.75075397 59.81246701 -289.39624023 61.69702148 C-296.52327165 62.61056336 -303.64225214 63.45080335 -310.79736328 64.10742188 C-319.14054538 64.88367793 -327.43373963 65.96981243 -335.73486328 67.10742188 C-336.95713623 67.27371094 -338.17940918 67.44 -339.4387207 67.61132812 C-345.4276393 68.44731649 -351.3444632 69.41168415 -357.26318359 70.64746094 C-361.29095328 71.43692391 -365.35498921 71.94300416 -369.42236328 72.48242188 C-379.36368776 73.85489496 -389.19197247 75.63392116 -399.03222656 77.59570312 C-401.56548679 78.09861214 -404.1009124 78.58882294 -406.63720703 79.07617188 C-457.74876998 87.12697172 -457.74876998 87.12697172 -499.18171597 114.3309288 C-500.85240515 117.57895294 -500.99410196 119.6660866 -501.01100159 123.30474854 C-501.02379654 124.55232437 -501.03659149 125.79990021 -501.04977417 127.08528137 C-501.04872572 128.46017485 -501.04734117 129.8350681 -501.0456543 131.20996094 C-501.05463517 132.6640653 -501.06484418 134.11816251 -501.07618713 135.57225037 C-501.10266232 139.51668601 -501.10971965 143.46092633 -501.11163449 147.40544224 C-501.11376904 149.87247553 -501.12017779 152.3394594 -501.12812614 154.80648041 C-501.15587444 163.42098637 -501.1681327 172.03535318 -501.16577148 180.64990234 C-501.16397068 188.6667904 -501.19559784 196.68307184 -501.24300247 204.69980645 C-501.28230131 211.59258874 -501.29832011 218.48517339 -501.29640526 225.37806678 C-501.29564221 229.49042323 -501.30408751 233.60224078 -501.33593941 237.71448517 C-501.36510578 241.58569534 -501.36513916 245.45585617 -501.34338951 249.32710457 C-501.34026669 250.74239457 -501.34725358 252.15775128 -501.36547089 253.57292747 C-501.47142871 262.37930807 -500.70803091 268.47244194 -494.60986328 275.10742188 C-477.30296672 290.12095464 -450.25878438 295.03119612 -428.60986328 300.10742188 C-427.7073584 300.32253418 -426.80485352 300.53764648 -425.875 300.75927734 C-389.8429713 309.28319771 -352.47116171 314.53191525 -315.66455078 318.33398438 C-310.66151168 318.85891711 -305.67555004 319.47936723 -300.68699646 320.12434387 C-285.97317605 322.01777741 -271.23204505 323.48886494 -256.46087646 324.85597229 C-254.38942553 325.04797487 -252.31811446 325.24143198 -250.24682617 325.43518066 C-225.62959113 327.73423953 -200.99389647 329.70772618 -176.33131409 331.45861816 C-171.54510593 331.80259152 -166.76415548 332.17407351 -161.98535156 332.60961914 C-145.28055543 334.12549402 -128.57565679 334.82418264 -111.81996918 335.45632553 C-104.58286792 335.73090867 -97.3462728 336.01835419 -90.10986328 336.31054688 C-89.30963619 336.34275015 -88.5094091 336.37495342 -87.68493271 336.40813255 C-77.56857263 336.81857987 -67.46396194 337.31259066 -57.35986328 337.96679688 C-55.73212479 338.0718605 -55.73212479 338.0718605 -54.07150269 338.17904663 C-52.46989792 338.28256943 -52.46989792 338.28256943 -50.8359375 338.38818359 C-28.42274633 339.83407125 -6.08165465 340.40304423 16.37184906 340.41794205 C18.58240298 340.41987148 20.79293161 340.42495334 23.003479 340.43051147 C42.27731713 340.46658832 61.41817096 339.73081119 80.64894867 338.47062778 C86.54430544 338.08763982 92.44095555 337.79501959 98.34326172 337.54492188 C99.64704773 337.48899872 99.64704773 337.48899872 100.97717285 337.4319458 C102.675068 337.35965119 104.37298443 337.28785429 106.07092285 337.21658325 C119.24366629 336.65689656 132.36779455 336.01181828 145.48779297 334.67773438 C153.14360936 333.90837588 160.81620108 333.33598697 168.48742676 332.74484253 C170.17574436 332.6145328 171.86398152 332.48317532 173.55212402 332.35061646 C182.48265873 331.64952291 191.40737943 331.03298876 200.35498047 330.59570312 C207.36121326 330.24926217 214.29744276 329.68549015 221.26513672 328.85742188 C231.00737047 327.75295549 240.75639309 326.7753613 250.51904297 325.86914062 C251.68769897 325.76048676 252.85635498 325.65183289 254.0604248 325.53988647 C258.82519663 325.09795889 263.59007476 324.65740999 268.35565186 324.22424316 C284.43571148 322.79999677 284.43571148 322.79999677 300.41723633 320.56518555 C306.5620247 319.61901833 312.76438623 319.12306292 318.95263672 318.54492188 C321.60014262 318.29718529 324.24713611 318.04519321 326.89404297 317.79101562 C328.62376343 317.6294397 328.62376343 317.6294397 330.38842773 317.46459961 C332.82892893 317.17420081 335.02484354 316.73096471 337.39013672 316.10742188 C340.20229968 315.81125038 343.01135025 315.54438446 345.82763672 315.29492188 C354.69416526 314.46042507 363.50722851 313.33350109 372.32763672 312.10742188 C373.52251709 311.94137451 374.71739746 311.77532715 375.94848633 311.60424805 C388.32336032 309.86329619 400.6522013 307.94005951 412.95263672 305.73242188 C414.77202759 305.40697388 414.77202759 305.40697388 416.62817383 305.07495117 C425.53291088 303.47006522 434.40817826 301.74673836 443.27294922 299.93554688 C446.44952164 299.28854648 449.63051735 298.70775504 452.82763672 298.16992188 C490.25459227 291.72660239 490.25459227 291.72660239 522.39013672 273.10742188 C523.16917107 272.36271637 523.16917107 272.36271637 523.96394348 271.60296631 C526.16375212 267.75375425 525.7619478 264.07834357 525.68969727 259.72167969 C525.68600191 258.76859169 525.68230656 257.81550369 525.67849922 256.83353424 C525.66289392 253.65894397 525.62606349 250.48495778 525.58935547 247.31054688 C525.57413713 245.06399448 525.56038588 242.81743172 525.54801941 240.57086182 C525.52022243 235.82995713 525.48456123 231.08919881 525.44378662 226.34838867 C525.38675693 219.31554314 525.3702322 212.28305229 525.36523438 205.25 C525.3567675 194.91514856 525.3206015 184.58081486 525.25799751 174.24614716 C525.22319896 168.38881197 525.19854726 162.53176061 525.19458008 156.67431641 C525.19031131 150.85224881 525.16207742 145.03075743 525.11670494 139.20886993 C525.10379753 137.025651 525.09939805 134.8423633 525.10398293 132.65911102 C525.10886383 129.65001518 525.08295174 126.64266924 525.04956055 123.63378906 C525.05818619 122.75208542 525.06681183 121.87038177 525.07569885 120.96195984 C524.96360425 114.95319451 523.72541974 112.30258805 519.39013672 108.10742188 C517.69464216 106.76817959 517.69464216 106.76817959 515.96435547 105.98242188 C515.34117432 105.67151611 514.71799316 105.36061035 514.07592773 105.0402832 C513.4164917 104.73243896 512.75705566 104.42459473 512.07763672 104.10742188 C511.02757446 103.60214966 511.02757446 103.60214966 509.95629883 103.08666992 C490.37871733 93.85063992 469.7293293 88.71063353 448.56933594 84.56762695 C445.26153695 83.91921623 441.95662798 83.25739529 438.65185547 82.59375 C428.54341283 80.58140272 418.47634858 78.67222394 408.23632812 77.47338867 C405.73166896 77.15133651 403.34173649 76.70260447 400.89013672 76.10742188 C394.4785048 74.58140616 387.9212771 73.92746347 381.39013672 73.10742188 C378.35156444 72.72309245 375.31327645 72.33674248 372.27539062 71.94702148 C370.20773575 71.68184257 368.13970582 71.41956956 366.07128906 71.16040039 C365.11947754 71.03850342 364.16766602 70.91660645 363.18701172 70.79101562 C362.33461914 70.68329834 361.48222656 70.57558105 360.60400391 70.46459961 C358.39013672 70.10742188 358.39013672 70.10742188 355.39013672 69.10742188 C352.56583174 68.77198416 349.74793261 68.47293999 346.91748047 68.20117188 C340.16701515 67.52212931 333.43394044 66.76780311 326.70654297 65.88867188 C325.91050156 65.78468582 325.11446014 65.68069977 324.29429626 65.57356262 C322.67293917 65.36086263 321.05165731 65.14758831 319.43045044 64.93374634 C301.70689977 62.58514854 301.70689977 62.58514854 283.92553711 60.74023438 C279.92308127 60.38291656 275.94301771 59.92952187 271.95748901 59.41362 C262.76398115 58.22507397 253.56569376 57.3636322 244.32763672 56.60742188 C242.90899108 56.4892421 241.49037123 56.37075243 240.07177734 56.25195312 C237.87643289 56.06810785 235.68106384 55.88461694 233.48556519 55.70262146 C229.41847106 55.36476228 225.35234314 55.01803872 221.28710938 54.65844727 C210.06536895 53.66613144 198.83991461 52.73427284 187.60888672 51.85351562 C186.92830767 51.80008121 186.24772861 51.7466468 185.54652596 51.69159317 C179.22162467 51.19519092 172.8965741 50.70071724 166.57128906 50.20922852 C163.06276095 49.93650193 159.55440944 49.66159182 156.04615784 49.38533211 C154.09710296 49.23249265 152.14785766 49.08208748 150.1986084 48.93174744 C144.55683298 48.48682674 138.99033221 47.93421373 133.39013672 47.10742188 C130.92590559 46.92453104 128.45935111 46.77133477 125.99169922 46.64257812 C124.94290588 46.5862471 124.94290588 46.5862471 123.8729248 46.52877808 C121.58713164 46.40642136 119.30114526 46.28818008 117.01513672 46.16992188 C113.75463124 45.99708729 110.49424891 45.82199917 107.23388672 45.64648438 C105.99543503 45.5801606 105.99543503 45.5801606 104.73196411 45.51249695 C98.70515397 45.18682423 92.68166629 44.82095481 86.65841675 44.43556213 C59.42840839 42.69408698 32.29954985 42.01568291 5.01513672 41.98242188 C3.77030518 41.97974304 2.52547363 41.97706421 1.24291992 41.9743042 C-10.5454618 41.955065 -22.27269273 41.94748821 -34.03149414 42.83007812 Z " fill="#EE353A" transform="translate(787.60986328125,407.892578125)"/>
<path d="M0 0 C59.4 0 118.8 0 180 0 C180 51.81 180 103.62 180 157 C135.40245358 157.04030303 135.40245358 157.04030303 116.77539062 157.04882812 C103.89200444 157.05477168 91.00862476 157.06177491 78.12524414 157.07543945 C68.74414755 157.08538464 59.36305623 157.09185303 49.98195451 157.09408849 C45.01149782 157.09539588 40.0410562 157.0984835 35.07060432 157.10573006 C30.39791878 157.11248767 25.72525459 157.11461749 21.05256462 157.11310768 C19.33238484 157.11338413 17.61220438 157.11539078 15.89202881 157.11920547 C13.55393339 157.1241387 11.21591996 157.12299968 8.87782288 157.12025452 C7.56611146 157.12117631 6.25440004 157.1220981 4.9029398 157.12304783 C2 157 2 157 1 156 C0.87565131 153.99071749 0.8219294 151.97705349 0.79467773 149.96411133 C0.77473251 148.65432816 0.75478729 147.34454498 0.73423767 145.99507141 C0.71711643 144.5240608 0.70024462 143.05304726 0.68359375 141.58203125 C0.66288556 140.02153655 0.6418872 138.46104567 0.62062073 136.90055847 C0.57628803 133.5617486 0.5355827 130.22291794 0.49731445 126.8840332 C0.459948 123.64079516 0.41877133 120.3976615 0.37231445 117.15454102 C-0.18266295 78.10187435 0 39.06035432 0 0 Z " fill="#207BBE" transform="translate(1373,522)"/>
<path d="M0 0 C59.07 0 118.14 0 179 0 C179.0309375 38.5790625 179.0309375 38.5790625 179.0625 77.9375 C179.071604 86.07269287 179.08070801 94.20788574 179.09008789 102.58959961 C179.09460449 112.48742676 179.09460449 112.48742676 179.09544373 117.11402893 C179.09637923 120.36065854 179.10014195 123.60727196 179.10557556 126.85389709 C179.11240226 130.98724959 179.1144972 135.12057833 179.11307228 139.25393593 C179.11337051 140.77582307 179.1153725 142.29771099 179.11921513 143.81959331 C179.12414349 145.86551703 179.12240383 147.91145367 179.12025452 149.9573822 C179.12163721 151.68159598 179.12163721 151.68159598 179.12304783 153.44064236 C179 156 179 156 178 157 C175.70909906 157.09710514 173.41513459 157.12186587 171.12217712 157.12025452 C170.03058701 157.12153615 170.03058701 157.12153615 168.91694456 157.12284368 C166.46014887 157.12450064 164.00342034 157.11897362 161.54663086 157.11352539 C159.79281109 157.11324354 158.03899121 157.11340121 156.28517151 157.1139679 C151.50851331 157.11425595 146.73188 157.10835795 141.95522761 157.10139394 C136.96905946 157.09516171 131.9828908 157.09455671 126.99671936 157.09336853 C117.54776706 157.09025482 108.09882626 157.08204091 98.64987904 157.07201904 C85.88640683 157.05877423 73.1229315 157.05335831 60.35945415 157.04751682 C40.23962748 157.03810104 20.11982509 157.01818239 0 157 C0 105.19 0 53.38 0 0 Z " fill="#207BBE" transform="translate(47,522)"/>
<path d="M0 0 C0.91644287 0.00523682 1.83288574 0.01047363 2.77709961 0.01586914 C4.26113281 0.02070312 4.26113281 0.02070312 5.77514648 0.02563477 C6.81606445 0.03401367 7.85698242 0.04239258 8.92944336 0.05102539 C10.49662109 0.05779297 10.49662109 0.05779297 12.09545898 0.06469727 C14.68600996 0.07652627 17.27644895 0.0930085 19.86694336 0.11352539 C17.79972209 7.21503846 15.52591447 14.15345487 12.86694336 21.05102539 C9.23675385 30.52649332 6.15419298 40.00670415 4.86694336 50.11352539 C8.49694336 50.11352539 12.12694336 50.11352539 15.86694336 50.11352539 C15.22375993 52.57258019 14.57752184 55.03076063 13.92944336 57.48852539 C13.74704102 58.18719727 13.56463867 58.88586914 13.37670898 59.60571289 C11.98022461 64.88696289 11.98022461 64.88696289 10.86694336 67.11352539 C8.15247357 67.42593994 5.52784975 67.62689131 2.80444336 67.73852539 C2.04583008 67.77719727 1.2872168 67.81586914 0.50561523 67.85571289 C-1.37352859 67.95026101 -3.25326 68.03299295 -5.13305664 68.11352539 C-6.24255301 71.39183627 -7.33885024 74.67413639 -8.42211914 77.96118164 C-9.74086954 81.95879587 -11.10282601 85.94047974 -12.46899414 89.92211914 C-13.2952694 92.38150122 -14.1207845 94.84113882 -14.94555664 97.30102539 C-15.35475342 98.47568359 -15.7639502 99.6503418 -16.18554688 100.8605957 C-18.92734879 109.13296402 -21.37604446 118.0424225 -17.69555664 126.36352539 C-14.48340608 128.55718919 -12.45441919 128.83054519 -8.61352539 128.58618164 C-0.02861185 126.95031623 6.62060524 121.21012474 13.20288086 115.80883789 C15.86694336 114.11352539 15.86694336 114.11352539 18.21850586 114.35571289 C18.76249023 114.60579102 19.30647461 114.85586914 19.86694336 115.11352539 C20.30158132 120.5045611 20.30158132 120.5045611 18.42553711 123.13305664 C6.54768404 133.17345177 -8.02841061 143.1077188 -24.13696289 142.50024414 C-31.92601699 141.49487731 -37.92980999 139.10514274 -43.13305664 133.11352539 C-44.76424281 131.60642383 -44.76424281 131.60642383 -47.13305664 131.11352539 C-49.78798257 132.05530655 -52.12575976 133.05934742 -54.63305664 134.30102539 C-67.96048885 140.44234693 -82.4150773 143.87161361 -97.07055664 140.42211914 C-99.29544679 139.49894423 -101.14669597 138.47129092 -103.13305664 137.11352539 C-103.84719727 136.65461914 -104.56133789 136.19571289 -105.29711914 135.72290039 C-109.6682195 132.70286741 -112.50151697 129.71871981 -115.13305664 125.11352539 C-118.02112958 126.4707267 -120.49385609 128.05161175 -123.07055664 129.92602539 C-135.15197998 138.06655611 -149.70084369 141.5319247 -164.13305664 140.11352539 C-169.0624125 137.86504728 -171.98759462 134.42730187 -175.13305664 130.11352539 C-180.32830045 114.85870121 -172.43602883 96.80313868 -166.13305664 83.11352539 C-165.47449381 81.77617083 -164.8108417 80.44124134 -164.13305664 79.11352539 C-169.21048272 78.92786434 -174.6512102 78.9206556 -178.65112305 82.45483398 C-181.74450398 86.05680408 -184.25854198 90.07311919 -186.8034668 94.07202148 C-200.80092124 115.5642569 -219.15135034 130.24642181 -242.13305664 141.11352539 C-242.79305664 141.44352539 -243.45305664 141.77352539 -244.13305664 142.11352539 C-248.61308788 142.65042501 -252.06327284 142.74144197 -256.00805664 140.42602539 C-261.13305664 134.84881951 -261.13305664 134.84881951 -261.13305664 131.11352539 C-261.83430664 131.5118457 -262.53555664 131.91016602 -263.25805664 132.32055664 C-266.1954823 133.96088537 -269.15389256 135.55035919 -272.13305664 137.11352539 C-272.79950195 137.46543945 -273.46594727 137.81735352 -274.15258789 138.17993164 C-280.88471955 141.21599102 -289.70212662 141.73105679 -296.63696289 139.19946289 C-302.46521214 135.77108098 -307.22577067 130.70233146 -309.13305664 124.11352539 C-309.13305664 122.79352539 -309.13305664 121.47352539 -309.13305664 120.11352539 C-310.15399414 120.73227539 -310.15399414 120.73227539 -311.19555664 121.36352539 C-319.63776596 126.39292669 -328.27119292 130.87533638 -337.13305664 135.11352539 C-337.78193848 135.42805664 -338.43082031 135.74258789 -339.09936523 136.06665039 C-340.95568287 136.95775837 -342.82226647 137.82126999 -344.69555664 138.67602539 C-345.7693457 139.17231445 -346.84313477 139.66860352 -347.94946289 140.17993164 C-351.77940069 141.30306678 -354.27160368 141.03204852 -358.13305664 140.11352539 C-363.11220495 136.85792842 -365.40019634 133.79345636 -367.13305664 128.11352539 C-367.95239517 117.9537276 -364.72446793 109.83026668 -360.66430664 100.62524414 C-359.28278945 97.45691772 -357.97967475 94.28395047 -356.75805664 91.05102539 C-356.44094727 90.21442383 -356.12383789 89.37782227 -355.79711914 88.51586914 C-355.07310981 85.89665893 -354.86861033 83.8172609 -355.13305664 81.11352539 C-357.66099576 78.58558627 -359.50519829 78.76239117 -362.96508789 78.55493164 C-366.41652297 79.44422032 -367.87297448 81.41508071 -370.13305664 84.11352539 C-371.44912877 86.58394892 -372.57632537 88.91651081 -373.63305664 91.48852539 C-373.93074951 92.19187012 -374.22844238 92.89521484 -374.53515625 93.61987305 C-377.18567467 99.997393 -379.40156066 106.49943304 -381.48852539 113.08178711 C-382.70349132 116.91169106 -383.94610025 120.73225878 -385.19555664 124.55102539 C-385.42895752 125.28434082 -385.6623584 126.01765625 -385.90283203 126.77319336 C-387.58986369 131.93097476 -389.65282847 136.15306906 -392.13305664 141.11352539 C-401.04305664 141.11352539 -409.95305664 141.11352539 -419.13305664 141.11352539 C-418.31812634 136.22394356 -417.18490943 132.32761059 -415.29711914 127.84399414 C-415.01710052 127.16355545 -414.73708191 126.48311676 -414.44857788 125.78205872 C-413.55761855 123.61922715 -412.65843423 121.45995117 -411.75805664 119.30102539 C-404.61522853 104.03845022 -404.61522853 104.03845022 -401.82055664 87.73852539 C-401.82442383 86.74079102 -401.82829102 85.74305664 -401.83227539 84.71508789 C-401.95995656 81.87975165 -401.95995656 81.87975165 -404.13305664 79.11352539 C-407.5055428 78.44593754 -407.5055428 78.44593754 -411.13305664 79.11352539 C-415.45142497 82.6682386 -417.71873122 86.68194187 -419.88305664 91.73852539 C-420.21523193 92.49689697 -420.54740723 93.25526855 -420.88964844 94.03662109 C-424.91566703 103.52472014 -427.99781746 113.35325238 -431.15258789 123.15649414 C-432.59862826 127.60749037 -434.20424924 131.85246377 -436.13305664 136.11352539 C-436.79305664 137.76352539 -437.45305664 139.41352539 -438.13305664 141.11352539 C-446.38305664 141.11352539 -454.63305664 141.11352539 -463.13305664 141.11352539 C-461.18268996 134.61230311 -459.19427202 128.38606318 -456.69555664 122.11352539 C-456.38626221 121.3266333 -456.07696777 120.53974121 -455.75830078 119.72900391 C-454.22126733 115.8256895 -452.65608217 111.93489674 -451.07055664 108.05102539 C-448.41600848 101.46042306 -446.12573711 94.73249682 -443.79956055 88.02075195 C-443.23999048 86.41952067 -442.66315003 84.82433924 -442.08227539 83.23071289 C-440.59421217 79.06977781 -439.68979953 75.54609651 -440.13305664 71.11352539 C-440.62805664 70.61852539 -440.62805664 70.61852539 -441.13305664 70.11352539 C-448.87600413 70.50067276 -455.80520979 72.67846036 -463.13305664 75.11352539 C-466.13305664 69.36352539 -466.13305664 69.36352539 -466.13305664 67.11352539 C-458.48277746 63.41206933 -450.81429213 59.75027797 -443.13305664 56.11352539 C-441.89628174 55.5235376 -441.89628174 55.5235376 -440.63452148 54.92163086 C-423.99669137 47.03253548 -423.99669137 47.03253548 -417.13305664 48.11352539 C-414.08451212 49.38427393 -413.30895887 50.37969952 -411.13305664 53.11352539 C-410.37063959 55.88688138 -410.23170048 58.20353208 -410.13305664 61.11352539 C-404.08505409 59.95044798 -399.23737427 56.62255875 -394.38305664 52.98852539 C-388.65867398 48.71869898 -385.32417223 47.13396638 -378.13305664 48.11352539 C-371.23398384 50.71335981 -367.22715628 56.24105122 -363.13305664 62.11352539 C-357.84379095 61.70587486 -354.59732431 58.75733417 -350.57055664 55.61352539 C-349.26124096 54.59730188 -347.94757007 53.58665943 -346.62915039 52.58227539 C-346.05350342 52.13303711 -345.47785645 51.68379883 -344.88476562 51.22094727 C-340.30546927 48.32593845 -334.34396893 48.32350959 -329.13305664 49.11352539 C-325.84845763 50.47968604 -323.95637924 52.05150108 -322.13305664 55.11352539 C-319.57991963 65.02846851 -324.53997342 75.05152971 -328.13305664 84.11352539 C-328.7514057 85.70422018 -329.36858188 87.29537137 -329.98461914 88.88696289 C-330.87677297 91.18979532 -331.77182838 93.49094013 -332.68408203 95.78588867 C-337.20274844 106.61051467 -337.20274844 106.61051467 -338.13305664 118.11352539 C-336.97560177 119.48350284 -336.97560177 119.48350284 -333.82055664 119.42602539 C-327.31474089 119.36720246 -320.69262282 116.97013365 -314.96118164 113.98071289 C-313.13305664 113.11352539 -313.13305664 113.11352539 -310.13305664 113.11352539 C-310.11887695 112.3980957 -310.10469727 111.68266602 -310.09008789 110.94555664 C-309.16013177 91.5170139 -298.2281081 76.37171011 -284.38305664 63.48852539 C-275.96812761 56.37469985 -265.91849399 49.55506473 -254.57446289 49.78540039 C-248.69574363 50.57550026 -243.3684332 53.45390618 -238.13305664 56.11352539 C-237.47305664 53.80352539 -236.81305664 51.49352539 -236.13305664 49.11352539 C-229.20305664 49.11352539 -222.27305664 49.11352539 -215.13305664 49.11352539 C-220.90446932 68.35156766 -220.90446932 68.35156766 -224.44555664 76.67602539 C-226.7082848 82.00257181 -228.79643241 87.38037332 -230.82055664 92.80102539 C-231.11808838 93.58485596 -231.41562012 94.36868652 -231.72216797 95.17626953 C-234.33708486 102.24166661 -236.70443858 109.49509957 -236.13305664 117.11352539 C-235.01618123 118.42880998 -235.01618123 118.42880998 -232.19555664 118.55102539 C-223.41312479 118.31896926 -216.48020065 111.03090946 -210.67651367 105.13208008 C-204.85377497 98.9707883 -199.75997238 92.20990321 -195.13305664 85.11352539 C-194.55531494 84.23809082 -193.97757324 83.36265625 -193.38232422 82.46069336 C-188.70018912 74.9695253 -186.34858564 67.82361863 -184.44555664 59.23852539 C-181.09306892 44.47793199 -181.09306892 44.47793199 -177.13305664 40.11352539 C-173.38305664 39.23852539 -173.38305664 39.23852539 -170.13305664 39.11352539 C-170.02993164 39.75290039 -169.92680664 40.39227539 -169.82055664 41.05102539 C-169.59368164 41.73165039 -169.36680664 42.41227539 -169.13305664 43.11352539 C-165.07239364 44.46707973 -161.1044467 44.49212499 -156.84790039 44.73461914 C-154.13305664 45.11352539 -154.13305664 45.11352539 -152.13305664 47.11352539 C-152.63836914 47.57500977 -153.14368164 48.03649414 -153.66430664 48.51196289 C-157.47716329 52.33994993 -159.63911877 54.94148896 -159.69555664 60.48852539 C-159.54328799 64.26295229 -159.54328799 64.26295229 -157.13305664 67.11352539 C-154.27877203 67.36878662 -151.49238893 67.53370823 -148.63305664 67.61352539 C-140.40332691 67.84325512 -140.40332691 67.84325512 -138.13305664 70.11352539 C-137.49917445 74.30373366 -137.70326959 78.07298832 -139.32055664 81.98852539 C-141.13305664 84.11352539 -141.13305664 84.11352539 -143.60571289 85.32055664 C-147.05081084 87.76460604 -147.36581315 89.87860321 -148.38305664 93.92602539 C-148.69758789 95.1287207 -149.01211914 96.33141602 -149.33618164 97.57055664 C-150.67165752 103.50818714 -151.33788883 109.15216267 -151.38305664 115.23852539 C-151.41399414 116.29233398 -151.41399414 116.29233398 -151.44555664 117.36743164 C-151.46946225 120.52894849 -151.31814641 122.76798798 -149.81274414 125.57836914 C-148.12044638 127.41574187 -148.12044638 127.41574187 -145.00805664 127.55102539 C-136.17410507 126.55364376 -127.64884134 122.79868988 -120.13305664 118.11352539 C-118.98442939 114.66764364 -119.42402272 113.60599654 -120.13305664 110.11352539 C-121.41084888 92.14572943 -118.39483865 77.25505786 -106.38305664 63.30102539 C-99.49231226 56.03668644 -91.49127898 50.67492901 -81.32836914 49.77758789 C-73.76242875 49.61098993 -67.50464238 49.57989707 -61.13305664 54.11352539 C-57.45950306 57.90622124 -56.56452365 60.35275959 -56.57055664 65.61352539 C-56.9119478 76.8558893 -61.38788254 86.28097005 -68.13305664 95.11352539 C-69.00510742 96.32202148 -69.00510742 96.32202148 -69.89477539 97.55493164 C-72.59007535 100.63594643 -75.51934366 102.75484347 -78.88305664 105.05102539 C-80.13095325 105.9214016 -81.37835145 106.79249284 -82.62524414 107.66430664 C-83.225625 108.08147949 -83.82600586 108.49865234 -84.44458008 108.9284668 C-87.73750559 111.23960914 -90.93052764 113.67960335 -94.13305664 116.11352539 C-92.18030709 121.75480187 -90.57438196 124.16614084 -85.13305664 127.11352539 C-76.72700592 129.9155423 -65.76419352 128.38371601 -57.65258789 125.11352539 C-44.50816776 118.42021933 -37.60625358 103.14491371 -32.98193359 89.78881836 C-31.89237824 86.34422812 -30.84564664 82.89032386 -29.82055664 79.42602539 C-29.46155273 78.23557617 -29.10254883 77.04512695 -28.73266602 75.81860352 C-27.85928087 72.91896485 -26.99518704 70.01653024 -26.13305664 67.11352539 C-30.42305664 67.11352539 -34.71305664 67.11352539 -39.13305664 67.11352539 C-37.38305664 54.73852539 -37.38305664 54.73852539 -35.13305664 49.11352539 C-29.85305664 49.11352539 -24.57305664 49.11352539 -19.13305664 49.11352539 C-18.80305664 47.46352539 -18.47305664 45.81352539 -18.13305664 44.11352539 C-17.3791501 41.99553616 -16.5843633 39.89183164 -15.75805664 37.80102539 C-15.30817383 36.6524707 -14.85829102 35.50391602 -14.39477539 34.32055664 C-13.9784082 33.26223633 -13.56204102 32.20391602 -13.13305664 31.11352539 C-12.1161966 28.45297378 -11.12346885 25.78400858 -10.13305664 23.11352539 C-9.8146582 22.2743457 -9.49625977 21.43516602 -9.16821289 20.57055664 C-7.03152112 14.85389828 -5.24646091 9.1473992 -3.74633789 3.23071289 C-2.85451118 0.15192259 -2.85451118 0.15192259 0 0 Z " fill="#217CBE" transform="translate(1253.133056640625,534.886474609375)"/>
<path d="M0 0 C-1.98967549 6.88684154 -4.22031691 13.64515415 -6.6875 20.375 C-7.03780273 21.33269287 -7.38810547 22.29038574 -7.74902344 23.27709961 C-11.30554329 32.93176148 -15.09752307 42.48068153 -19 52 C-19.47550293 53.16144531 -19.95100586 54.32289063 -20.44091797 55.51953125 C-22.01833487 59.3691595 -23.60220826 63.21610926 -25.1875 67.0625 C-25.68668945 68.27558838 -26.18587891 69.48867676 -26.70019531 70.73852539 C-30.61418768 80.19603822 -34.69122097 89.55241355 -39.3125 98.6875 C-39.82425781 99.70199219 -40.33601563 100.71648437 -40.86328125 101.76171875 C-41.23839844 102.50035156 -41.61351562 103.23898437 -42 104 C-36.08591076 100.69719275 -30.33383851 97.35664755 -24.9375 93.25 C-17.74151952 87.88439246 -9.9389703 83.55469217 -2.11279297 79.1875 C-0.37553698 78.2110714 1.34415744 77.20346226 3.05859375 76.1875 C8.8845695 72.90631046 14.33836071 71.6633604 21 73 C25.03964834 75.9222988 27.33870916 79.81797154 30 84 C30.33 84.33 30.66 84.66 31 85 C38.86604974 84.82899892 44.95984374 80.36287927 51.578125 76.4921875 C57.33561213 73.32375905 62.4074732 71.56783038 69 73 C72.18865048 74.67338269 74.24513511 76.97063878 76.375 79.875 C78.18609967 86.03273888 76.48293369 91.93056165 74.75 97.875 C74.52183594 98.67800537 74.29367187 99.48101074 74.05859375 100.30834961 C72.71384963 104.92151686 71.13481435 109.20915548 69.046875 113.5390625 C65.04416338 122.9484219 62.18554083 132.7378144 63 143 C64.65223138 143.83654186 64.65223138 143.83654186 67 144 C69.46242271 143.01270788 71.67394113 141.99088915 74 140.75 C74.61617187 140.43675781 75.23234375 140.12351562 75.8671875 139.80078125 C80.75326966 137.35055091 80.75326966 137.35055091 85 134 C85.73539135 131.45536036 85.73539135 131.45536036 85.9375 128.5625 C88.28582755 111.98489957 99.44104263 93.99671051 112.66308594 83.70556641 C124.13816277 75.39263761 134.85020985 71.80495153 149 71.875 C149.78117187 71.87113281 150.56234375 71.86726562 151.3671875 71.86328125 C155.68992831 71.87055859 159.74356845 72.14052825 164 73 C164.15855469 72.40574219 164.31710937 71.81148437 164.48046875 71.19921875 C166.06790592 65.55987011 168.1164942 60.41471111 170.609375 55.12109375 C172.83845505 50.11818657 174.67965219 44.97649893 176.57421875 39.83984375 C178.29041809 35.18849464 180.13402447 30.59317054 182 26 C188.6 26 195.2 26 202 26 C198.70394986 37.71928938 194.52573834 49.19083113 189.2734375 60.1796875 C187.36997856 64.39532356 185.69956061 68.69882095 184 73 C183.57509277 74.06814941 183.15018555 75.13629883 182.71240234 76.23681641 C181.30347606 79.78099736 179.90131454 83.32780325 178.5 86.875 C177.79037109 88.65970703 177.79037109 88.65970703 177.06640625 90.48046875 C174.45037354 97.11113338 172.00675754 103.75632321 169.82202148 110.54199219 C168.73883111 113.78094694 167.3516345 116.86420796 166 120 C165.08452356 122.34659774 164.19070722 124.70170138 163.3125 127.0625 C162.87550781 128.22910156 162.43851563 129.39570312 161.98828125 130.59765625 C160.82689479 134.5959472 160.08464987 138.16929975 162 142 C169.29858386 142.59311291 175.12963028 141.29192019 182.01953125 138.875 C184.86620011 138.0392807 187.05758449 137.82595694 190 138 C190.99 140.31 191.98 142.62 193 145 C192.46375 145.12375 191.9275 145.2475 191.375 145.375 C183.40990257 147.47107827 176.42082368 151.12330089 169.14941406 154.88867188 C165.52779454 156.76118574 161.89020973 158.6014624 158.25 160.4375 C157.58274902 160.77934326 156.91549805 161.12118652 156.22802734 161.47338867 C150.6371972 164.29897784 146.31851026 165.66510634 140 165 C136.50470664 162.26455302 134.86412307 160.30222975 134 156 C133.35933594 156.40992188 132.71867187 156.81984375 132.05859375 157.2421875 C131.19363281 157.78101563 130.32867188 158.31984375 129.4375 158.875 C128.59058594 159.40867187 127.74367188 159.94234375 126.87109375 160.4921875 C121.06462736 163.54156985 115.42473818 164.36265511 108.9375 164.375 C108.25623047 164.39949219 107.57496094 164.42398438 106.87304688 164.44921875 C100.68860849 164.48486393 97.3950279 162.17563603 92.953125 158.140625 C92.39109375 157.51671875 91.8290625 156.8928125 91.25 156.25 C90.67765625 155.63640625 90.1053125 155.0228125 89.515625 154.390625 C87.39876141 151.05165459 86.82384509 147.86076423 86 144 C84.71029297 144.87011719 84.71029297 144.87011719 83.39453125 145.7578125 C71.90394899 153.394726 59.61415688 161.23194594 45.4375 161.375 C44.15746094 161.40335938 42.87742187 161.43171875 41.55859375 161.4609375 C37.47083956 160.93145891 35.87841085 159.88377102 33 157 C29.43335823 149.86671647 32.07789455 141.02821109 34.40820312 133.92114258 C35.63423626 130.37524421 36.90200294 126.84558393 38.17993164 123.31811523 C39.8270974 118.66201553 41.28628756 114.17660151 41.3125 109.1875 C41.33763672 108.06408203 41.33763672 108.06408203 41.36328125 106.91796875 C41.24339844 106.28503906 41.12351562 105.65210938 41 105 C37.30636907 102.53757938 34.28632212 102.209972 30 103 C23.09711678 107.86339499 20.92288694 116.64475253 18.80859375 124.4453125 C17.97209278 127.08817065 16.88078501 129.56275746 15.76928711 132.09912109 C14.4325773 135.4020797 13.51581769 138.82057331 12.5625 142.25 C10.68583325 148.98578034 8.40272688 155.39250107 6 162 C-2.25 162 -10.5 162 -19 162 C-17.21661551 155.46092352 -15.63846272 149.72704261 -13.1875 143.5625 C-5.162871 124.32789514 -5.162871 124.32789514 -4 104 C-5.13753532 102.64519863 -5.13753532 102.64519863 -8.15234375 102.76171875 C-21.79912655 103.60684946 -34.13340598 115.7643361 -43.8671875 124.44921875 C-47.95886269 128.04523015 -52.29402386 131.18724168 -56.75 134.3125 C-62.15270147 138.14471302 -67.36260341 142.04370743 -72.375 146.375 C-88.43967334 160.06219057 -106.78494742 166.40699717 -127.75244141 165.21142578 C-138.91327442 164.16153643 -148.2677376 159.2077163 -155.875 151.125 C-161.39431158 144.32510568 -162.60072266 138.13236688 -162.4375 129.41015625 C-161.71975008 123.81555194 -159.52341078 119.00176065 -157 114 C-154.79740264 116.81802897 -152.9976169 119.69526199 -151.25 122.8125 C-145.84578233 131.79750738 -139.92565965 136.46989188 -130 140 C-115.64388522 143.3326695 -100.23164554 140.24873854 -87.7421875 132.62109375 C-85.72710748 131.17102636 -83.86171024 129.64176135 -82 128 C-81.36835938 127.46117187 -80.73671875 126.92234375 -80.0859375 126.3671875 C-57.98415032 106.0264989 -47.10863679 70.78151651 -38.33105469 42.98583984 C-36.79860785 38.16718962 -35.01968653 33.60131843 -32.86279297 29.02539062 C-32.0136638 27.03207552 -31.46531489 25.11258886 -31 23 C-40.23669829 24.35006081 -49.40663323 25.93140206 -58.5625 27.75 C-59.78646484 27.976875 -61.01042969 28.20375 -62.27148438 28.4375 C-72.52270874 30.48883601 -82.68906563 33.13817536 -89 42 C-91.42579596 46.45366955 -91.26760395 50.68385112 -91.1875 55.625 C-91.18685547 56.388125 -91.18621094 57.15125 -91.18554688 57.9375 C-91.15975172 61.20488579 -91.03955395 63.88133815 -90 67 C-86.25653694 68.90252784 -82.26854616 69.71810085 -78.1875 70.625 C-77.02605469 70.88539063 -75.86460937 71.14578125 -74.66796875 71.4140625 C-73.34732422 71.70410156 -73.34732422 71.70410156 -72 72 C-74.53560348 77.82435651 -79.20566706 80.778884 -84.9140625 83.2734375 C-92.97362871 86.15039658 -99.87553418 87.53139141 -107.9921875 84.09375 C-115.21049173 80.16159983 -121.31161648 73.81189704 -124 66 C-125.56108714 56.82310072 -125.23143244 47.44861644 -120.01171875 39.515625 C-94.79360211 7.9807374 -51.14015772 5.38517205 -13.828125 0.85546875 C-13.13233337 0.76896561 -12.43654175 0.68246246 -11.71966553 0.59333801 C-7.79001325 0.12829944 -3.95602359 -0.08424438 0 0 Z " fill="#217BBE" transform="translate(494,511)"/>
<path d="M0 0 C11.55730974 8.67909182 19.51482355 21.30369299 22.19921875 35.48828125 C23.92748163 53.88563966 19.85485856 69.10189154 8.19921875 83.48828125 C7.67714844 84.13796875 7.15507813 84.78765625 6.6171875 85.45703125 C-2.7706228 95.91433892 -17.26824026 101.34143386 -30.921875 102.828125 C-46.81681852 103.35584557 -60.73143772 98.03949542 -72.67578125 87.67578125 C-83.4906956 77.222412 -90.65186255 63.82599979 -91.14428711 48.54882812 C-91.34227267 34.02374811 -88.25706973 21.88115169 -78.80078125 10.48828125 C-78.30191406 9.80636719 -77.80304687 9.12445312 -77.2890625 8.421875 C-58.86754432 -15.28944941 -23.32082483 -16.46332069 0 0 Z " fill="#EE383D" transform="translate(769.80078125,581.51171875)"/>
<path d="M0 0 C11.55730974 8.67909182 19.51482355 21.30369299 22.19921875 35.48828125 C23.92748163 53.88563966 19.85485856 69.10189154 8.19921875 83.48828125 C7.67714844 84.13796875 7.15507813 84.78765625 6.6171875 85.45703125 C-2.7706228 95.91433892 -17.26824026 101.34143386 -30.921875 102.828125 C-46.81681852 103.35584557 -60.73143772 98.03949542 -72.67578125 87.67578125 C-83.4906956 77.222412 -90.65186255 63.82599979 -91.14428711 48.54882812 C-91.34227267 34.02374811 -88.25706973 21.88115169 -78.80078125 10.48828125 C-78.30191406 9.80636719 -77.80304687 9.12445312 -77.2890625 8.421875 C-58.86754432 -15.28944941 -23.32082483 -16.46332069 0 0 Z M-66.80078125 8.48828125 C-67.73664062 9.30619141 -67.73664062 9.30619141 -68.69140625 10.140625 C-77.57250212 18.34598531 -83.16986393 29.93648649 -83.96875 42.03125 C-84.07516029 56.43920272 -79.92839797 70.12771315 -69.73828125 80.75 C-56.77055384 92.38435221 -44.00350889 95.1262828 -27.13623047 94.61572266 C-22.60593469 94.36851229 -18.87996745 93.43707055 -14.80078125 91.48828125 C-13.84171875 91.03582031 -12.88265625 90.58335937 -11.89453125 90.1171875 C-0.63527257 84.18901721 7.53467827 75.33924793 12.19921875 63.48828125 C12.67488281 62.35712891 12.67488281 62.35712891 13.16015625 61.203125 C17.439871 49.4437253 16.25763799 35.77026125 11.19921875 24.48828125 C4.26719551 11.82046888 -5.02282656 3.47567478 -18.609375 -1.55078125 C-35.93512295 -6.58159545 -53.3268537 -3.98857566 -66.80078125 8.48828125 Z " fill="#EE383D" transform="translate(769.80078125,581.51171875)"/>
<path d="M0 0 C6.83055742 3.73141225 10.5911965 9.1277055 14.01171875 15.96875 C14.90917307 24.42072488 14.60678181 30.92182304 9.64453125 37.984375 C5.09743243 43.51051423 -1.1590825 47.13612953 -8.25390625 48.359375 C-15.35441255 48.70695223 -20.86517196 45.95618318 -26.73828125 42.21875 C-31.79057017 37.16646108 -35.11968604 31.44381316 -35.17578125 24.21875 C-34.99509149 15.2875134 -32.39073243 10.77423028 -26.47265625 4.203125 C-19.14458187 -2.38753309 -9.20089408 -3.17521051 0 0 Z " fill="#FDFAFA" transform="translate(745.98828125,604.03125)"/>
<path d="M0 0 C11.6431968 7.66049937 19.2452458 17.02465304 22.9609375 30.67578125 C25.49157496 44.0583876 23.70990104 56.48136879 16.79296875 68.32421875 C9.24389236 79.23836666 -1.01208389 87.76869781 -14.17529297 90.81030273 C-27.67746843 93.12560363 -40.52161945 91.67357614 -52.125 84.3125 C-53.55398668 83.28779958 -54.97147857 82.2468118 -56.375 81.1875 C-56.99117187 80.74792969 -57.60734375 80.30835938 -58.2421875 79.85546875 C-67.19646996 72.95072206 -72.75020669 61.63446934 -75.125 50.75 C-76.23401863 34.94648452 -73.65255458 22.24071645 -63.125 10.0625 C-45.92039771 -8.15912311 -22.29537951 -12.67709841 0 0 Z M-60.8125 15.125 C-69.2485619 26.36155786 -70.77562682 38.46799802 -69.375 52.1875 C-66.42301904 63.804563 -58.9633811 73.19783901 -49.375 80.1875 C-37.06515218 86.92622428 -24.80311061 88.12554368 -11.18359375 84.21875 C0.36597136 79.97801956 9.42447844 71.87248138 14.65234375 60.7421875 C18.72870963 50.03558797 19.76891535 36.3671918 15.72265625 25.4140625 C9.9488083 13.70198658 0.79128692 4.95745693 -11.375 0.1875 C-29.92932811 -6.0737662 -48.4499479 0.45872509 -60.8125 15.125 Z " fill="#FDF1F1" transform="translate(761.375,584.8125)"/>
<path d="M0 0 C6.58067547 4.48788115 11.14971636 10.25937639 13.609375 17.890625 C15.46170135 27.89318731 14.18890463 37.79617922 8.45703125 46.28515625 C2.94196764 53.03700759 -4.60162896 58.41389114 -13.41796875 59.37109375 C-24.94897601 59.57423067 -32.68566705 56.88049121 -41.2421875 48.96484375 C-48.14144673 41.2530051 -49.37106019 33.59145386 -49.27734375 23.54296875 C-48.60371352 14.93757972 -43.63651508 7.2091865 -37.3046875 1.4609375 C-27.00903402 -6.4339358 -11.01222134 -6.57620285 0 0 Z M-36.3125 11.3125 C-41.3201786 17.25972371 -42.48301815 22.86064682 -42.3203125 30.5078125 C-41.55004464 36.5008722 -38.08702641 41.67256027 -34 46 C-28.30545382 50.33280688 -22.74516996 52.63184893 -15.56640625 52.4375 C-8.41965344 51.21917989 -1.79301578 47.6432651 2.625 41.875 C3.92716675 39.96101105 3.92716675 39.96101105 5 38 C5.36867188 37.39671875 5.73734375 36.7934375 6.1171875 36.171875 C8.48530203 30.34589412 8.05395401 22.84680105 5.90234375 17.03515625 C2.80942859 11.5503867 -0.61128566 8.1933122 -6 5 C-6.57878906 4.63648438 -7.15757812 4.27296875 -7.75390625 3.8984375 C-18.71596079 -0.48638432 -28.71792647 3.39360305 -36.3125 11.3125 Z " fill="#EE373D" transform="translate(753,600)"/>
<path d="M0 0 C7.06565967 5.72607364 11.93718074 13.4215492 13.6640625 22.390625 C14.73593918 35.04757974 12.64659647 44.46246202 4.6640625 54.390625 C-1.68895464 61.46848303 -9.57127988 65.63871314 -19.01953125 66.87109375 C-30.06685981 67.2894675 -38.76123028 64.68799166 -47.2734375 57.578125 C-51.0930805 53.89662461 -53.94468147 50.11687222 -56.3359375 45.390625 C-57.233125 43.658125 -57.233125 43.658125 -58.1484375 41.890625 C-61.11907051 33.25188764 -60.57773998 21.80772141 -56.66015625 13.62890625 C-51.3780919 4.70081518 -44.41307715 -3.18259268 -34.140625 -6.1328125 C-21.75758278 -8.23689488 -10.54557089 -7.26551038 0 0 Z M-46.3359375 7.390625 C-53.70408221 16.48669745 -55.17126338 24.82865402 -54.3359375 36.390625 C-52.63870161 45.17631665 -46.52210881 52.18180034 -39.3125 57.13671875 C-31.57815708 62.04328807 -24.45998981 62.51614005 -15.3359375 61.390625 C-6.96993153 58.6757646 0.61446488 53.90983542 4.9375 46.0859375 C8.86403351 37.5923721 10.21660345 28.81370869 7.98046875 19.5625 C4.3103822 9.63346917 -1.92255757 4.01964681 -11.3359375 -0.609375 C-23.59329064 -4.90203454 -37.19491148 -1.33489984 -46.3359375 7.390625 Z " fill="#FCF0F0" transform="translate(758.3359375,597.609375)"/>
<path d="M0 0 C2.71068402 2.80590711 3.41230451 4.82648287 3.375 8.6875 C3.05940116 17.05086921 -0.26342642 23.78074205 -3.875 31.1875 C-4.20242188 31.86506348 -4.52984375 32.54262695 -4.8671875 33.24072266 C-8.21835785 39.90870077 -12.21301755 45.47076913 -19 49 C-22.75 49.4375 -22.75 49.4375 -26 49 C-29.19935813 44.2009628 -28.69007207 39.61217909 -28 34 C-24.80170662 21.04256366 -18.13934812 9.74819745 -8 1 C-5.17116253 -0.41441874 -3.12623255 -0.31900332 0 0 Z " fill="#F9FBFC" transform="translate(998,606)"/>
<path d="M0 0 C3.4375 0.4375 3.4375 0.4375 5.109375 1.65234375 C7.4564168 4.80704405 7.1406615 7.824464 7.04296875 11.6484375 C5.11567849 23.70954432 -0.99853038 35.78413612 -9.5625 44.4375 C-10.08714844 44.99953125 -10.61179687 45.5615625 -11.15234375 46.140625 C-13.95487432 48.84651659 -15.51206143 49.43343237 -19.4375 49.75 C-20.46875 49.646875 -21.5 49.54375 -22.5625 49.4375 C-26.2473882 42.93735721 -24.96583183 36.0814252 -23.0625 29.125 C-19.89649782 19.60445964 -14.81092873 11.39838776 -7.5625 4.4375 C-6.94375 3.674375 -6.325 2.91125 -5.6875 2.125 C-3.5625 0.4375 -3.5625 0.4375 0 0 Z " fill="#F9FBFC" transform="translate(631.5625,604.5625)"/>
<path d="M0 0 C1 1 1 1 1.28515625 4.15625 C0.65579671 12.63967171 -6.24860189 21.0786575 -12.41015625 26.6953125 C-14.55158165 28.45264931 -16.43413481 29.91963571 -19 31 C-21.8125 30.6875 -21.8125 30.6875 -24 30 C-24.85577778 22.12684442 -21.63036703 16.35811776 -16.83984375 10.2421875 C-7.19822272 -0.79980252 -7.19822272 -0.79980252 0 0 Z " fill="#F5F8FB" transform="translate(1176,602)"/>
<path d="M0 0 C0 3 0 3 -1.4609375 4.82421875 C-2.09257813 5.43910156 -2.72421875 6.05398438 -3.375 6.6875 C-4.00148438 7.31011719 -4.62796875 7.93273437 -5.2734375 8.57421875 C-7 10 -7 10 -9 10 C-7.61811547 6.78956118 -6.07578097 4.95063635 -3.375 2.75 C-2.74335937 2.22921875 -2.11171875 1.7084375 -1.4609375 1.171875 C-0.73777344 0.59179688 -0.73777344 0.59179688 0 0 Z " fill="#2D84C2" transform="translate(607,595)"/>
</svg>
