<?xml version="1.0" encoding="UTF-8"?>
<!DOCTYPE svg PUBLIC "-//W3C//DTD SVG 1.1//EN" "http://www.w3.org/Graphics/SVG/1.1/DTD/svg11.dtd">
<svg xmlns="http://www.w3.org/2000/svg" version="1.1" width="360px" height="360px" style="shape-rendering:geometricPrecision; text-rendering:geometricPrecision; image-rendering:optimizeQuality; fill-rule:evenodd; clip-rule:evenodd" xmlns:xlink="http://www.w3.org/1999/xlink">
<g><path style="opacity:1" fill="#f6f6f6" d="M -0.5,-0.5 C 119.5,-0.5 239.5,-0.5 359.5,-0.5C 359.5,119.5 359.5,239.5 359.5,359.5C 239.5,359.5 119.5,359.5 -0.5,359.5C -0.5,239.5 -0.5,119.5 -0.5,-0.5 Z"/></g>
<g><path style="opacity:1" fill="#f3c560" d="M 289.5,104.5 C 290.141,105.482 290.807,106.482 291.5,107.5C 290.754,108.736 290.421,110.07 290.5,111.5C 293.546,111.183 295.213,112.516 295.5,115.5C 293.715,118.175 293.382,120.675 294.5,123C 293.107,133.422 291.941,143.922 291,154.5C 290.505,152.527 290.338,150.527 290.5,148.5C 290.667,136.495 290.5,124.495 290,112.5C 288.624,111.295 287.458,109.962 286.5,108.5C 286.611,107.883 286.944,107.383 287.5,107C 274.404,100.362 260.404,96.1954 245.5,94.5C 241.481,94.3542 237.481,94.0209 233.5,93.5C 233.167,93.5 232.833,93.5 232.5,93.5C 228.382,92.2911 224.049,91.6245 219.5,91.5C 219.167,91.5 218.833,91.5 218.5,91.5C 191.253,89.0786 163.92,88.912 136.5,91C 127.061,92.0257 117.728,93.6923 108.5,96C 100.897,98.4852 93.2308,100.652 85.5,102.5C 85.0618,102.565 84.7284,102.399 84.5,102C 85.6667,101.5 86.5,100.667 87,99.5C 88,99.5 89,99.5 90,99.5C 91.4352,97.7887 93.2686,96.622 95.5,96C 95.2716,95.6012 94.9382,95.4346 94.5,95.5C 94.5,95.1667 94.5,94.8333 94.5,94.5C 102.796,91.3708 111.463,89.3708 120.5,88.5C 166.126,81.9225 211.459,83.4225 256.5,93C 267.765,96.1434 278.765,99.9767 289.5,104.5 Z"/></g>
<g><path style="opacity:1" fill="#4e4321" d="M 218.5,91.5 C 217.207,92.1582 215.707,92.4915 214,92.5C 211.648,92.6951 209.648,92.0284 208,90.5C 194.018,90.8108 179.685,90.8108 165,90.5C 136.029,91.7459 107.862,97.2459 80.5,107C 74.525,108.639 71.025,112.472 70,118.5C 68.3195,170.326 80.3195,219.326 106,265.5C 124.931,295.932 149.431,320.932 179.5,340.5C 250.588,292.017 286.922,224.35 288.5,137.5C 289.833,130.5 289.833,123.5 288.5,116.5C 288.456,112.91 286.789,110.41 283.5,109C 267.7,102.512 251.367,97.8452 234.5,95C 233.944,94.6174 233.611,94.1174 233.5,93.5C 237.481,94.0209 241.481,94.3542 245.5,94.5C 259.465,98.377 273.132,103.044 286.5,108.5C 287.458,109.962 288.624,111.295 290,112.5C 290.5,124.495 290.667,136.495 290.5,148.5C 288.668,161.673 287.001,175.007 285.5,188.5C 276.221,230.391 257.887,267.724 230.5,300.5C 215.885,315.286 200.218,328.786 183.5,341C 180.366,341.79 177.366,341.457 174.5,340C 163.048,331.713 152.048,322.879 141.5,313.5C 118.874,290.93 101.208,264.93 88.5,235.5C 82.6518,220.485 77.9852,205.152 74.5,189.5C 72.1054,174.414 70.1054,159.414 68.5,144.5C 68.5,134.5 68.5,124.5 68.5,114.5C 69.3382,114.158 69.6716,113.492 69.5,112.5C 70.9774,110.193 72.9774,108.36 75.5,107C 79.2641,106.148 82.5974,104.648 85.5,102.5C 93.2308,100.652 100.897,98.4852 108.5,96C 117.728,93.6923 127.061,92.0257 136.5,91C 163.92,88.912 191.253,89.0786 218.5,91.5 Z"/></g>
<g><path style="opacity:1" fill="#bb8322" d="M 298.5,138.5 C 297.337,143.137 296.337,147.804 295.5,152.5C 295.5,150.5 295.5,148.5 295.5,146.5C 295.5,145.167 295.5,143.833 295.5,142.5C 296.658,132.675 296.825,122.675 296,112.5C 294.641,108.993 292.474,106.327 289.5,104.5C 288.251,102.864 286.584,101.697 284.5,101C 263.282,92.5289 241.282,87.1955 218.5,85C 192.598,82.1376 166.598,82.1376 140.5,85C 133.592,85.5777 126.926,86.7444 120.5,88.5C 111.463,89.3708 102.796,91.3708 94.5,94.5C 82.2777,96.4495 71.611,101.45 62.5,109.5C 65.7756,103.401 70.7756,99.2347 77.5,97C 124.377,81.3366 172.377,76.6699 221.5,83C 246.02,85.2949 269.353,91.6282 291.5,102C 295.381,104.928 297.881,108.761 299,113.5C 299.801,121.912 299.634,130.245 298.5,138.5 Z"/></g>
<g><path style="opacity:1" fill="#55492d" d="M 219.5,91.5 C 224.049,91.6245 228.382,92.2911 232.5,93.5C 228.675,93.921 224.842,93.921 221,93.5C 219.97,93.1639 219.47,92.4972 219.5,91.5 Z"/></g>
<g><path style="opacity:1" fill="#f9e0a7" d="M 289.5,104.5 C 278.765,99.9767 267.765,96.1434 256.5,93C 211.459,83.4225 166.126,81.9225 120.5,88.5C 126.926,86.7444 133.592,85.5777 140.5,85C 166.598,82.1376 192.598,82.1376 218.5,85C 241.282,87.1955 263.282,92.5289 284.5,101C 286.584,101.697 288.251,102.864 289.5,104.5 Z"/></g>
<g><path style="opacity:1" fill="#050508" d="M 218.5,91.5 C 218.833,91.5 219.167,91.5 219.5,91.5C 219.47,92.4972 219.97,93.1639 221,93.5C 224.842,93.921 228.675,93.921 232.5,93.5C 232.833,93.5 233.167,93.5 233.5,93.5C 233.611,94.1174 233.944,94.6174 234.5,95C 251.367,97.8452 267.7,102.512 283.5,109C 286.789,110.41 288.456,112.91 288.5,116.5C 288.167,116.5 287.833,116.5 287.5,116.5C 285.888,115.445 284.555,115.945 283.5,118C 285.078,120.968 285.745,124.135 285.5,127.5C 285.175,132.599 285.675,137.599 287,142.5C 287.333,140.167 287.667,137.833 288,135.5C 288.464,136.094 288.631,136.761 288.5,137.5C 286.922,224.35 250.588,292.017 179.5,340.5C 149.431,320.932 124.931,295.932 106,265.5C 80.3195,219.326 68.3195,170.326 70,118.5C 71.025,112.472 74.525,108.639 80.5,107C 107.862,97.2459 136.029,91.7459 165,90.5C 179.685,90.8108 194.018,90.8108 208,90.5C 209.648,92.0284 211.648,92.6951 214,92.5C 215.707,92.4915 217.207,92.1582 218.5,91.5 Z"/></g>
<g><path style="opacity:1" fill="#2e3132" d="M 156.5,92.5 C 178.935,91.8764 201.268,93.0431 223.5,96C 198.506,95.6103 173.506,95.6103 148.5,96C 135.469,97.4215 122.469,98.7548 109.5,100C 125.141,96.5091 140.808,94.0091 156.5,92.5 Z"/></g>
<g><path style="opacity:1" fill="#e0ac45" d="M 245.5,94.5 C 260.404,96.1954 274.404,100.362 287.5,107C 286.944,107.383 286.611,107.883 286.5,108.5C 273.132,103.044 259.465,98.377 245.5,94.5 Z"/></g>
<g><path style="opacity:1" fill="#f5daa0" d="M 186.5,97.5 C 185.432,98.4345 184.099,98.7678 182.5,98.5C 182.5,107.5 182.5,116.5 182.5,125.5C 182.167,125.5 181.833,125.5 181.5,125.5C 181.5,116.167 181.5,106.833 181.5,97.5C 183.167,97.5 184.833,97.5 186.5,97.5 Z"/></g>
<g><path style="opacity:1" fill="#eab443" d="M 186.5,97.5 C 191.265,96.6506 194.598,98.3173 196.5,102.5C 196.769,104.429 196.269,106.095 195,107.5C 194.727,102.727 192.227,100.727 187.5,101.5C 186.235,102.514 185.569,104.014 185.5,106C 185.508,107.707 185.842,109.207 186.5,110.5C 186.918,111.222 187.584,111.722 188.5,112C 187.584,112.278 186.918,112.778 186.5,113.5C 185.517,117.298 185.183,121.298 185.5,125.5C 184.5,125.5 183.5,125.5 182.5,125.5C 182.5,116.5 182.5,107.5 182.5,98.5C 184.099,98.7678 185.432,98.4345 186.5,97.5 Z"/></g>
<g><path style="opacity:1" fill="#ccbe9d" d="M 135.5,100.5 C 134.152,101.186 132.985,102.186 132,103.5C 130.531,108.905 128.865,114.239 127,119.5C 125.991,117.975 125.491,116.308 125.5,114.5C 126.117,114.611 126.617,114.944 127,115.5C 128.501,110.828 130.001,106.161 131.5,101.5C 132.689,100.571 134.022,100.238 135.5,100.5 Z"/></g>
<g><path style="opacity:1" fill="#eebf5b" d="M 143.5,127.5 C 143.167,127.5 142.833,127.5 142.5,127.5C 142.5,118.5 142.5,109.5 142.5,100.5C 143.791,100.737 144.791,100.404 145.5,99.5C 155.895,98.0959 158.895,102.263 154.5,112C 157.194,114.653 158.027,117.82 157,121.5C 155.167,123.333 153.333,125.167 151.5,127C 148.854,127.497 146.187,127.664 143.5,127.5 Z"/></g>
<g><path style="opacity:1" fill="#fbdd9b" d="M 225.5,100.5 C 224.791,101.404 223.791,101.737 222.5,101.5C 222.826,110.349 222.493,119.016 221.5,127.5C 221.5,118.5 221.5,109.5 221.5,100.5C 222.833,100.5 224.167,100.5 225.5,100.5 Z"/></g>
<g><path style="opacity:1" fill="#d9a33a" d="M 225.5,100.5 C 226.166,104.021 226.833,107.687 227.5,111.5C 228.417,112.127 229.417,112.461 230.5,112.5C 231.568,113.434 232.901,113.768 234.5,113.5C 234.5,110.167 234.5,106.833 234.5,103.5C 235.5,103.5 236.5,103.5 237.5,103.5C 238.138,112.895 237.471,121.895 235.5,130.5C 233.825,126.471 232.991,122.137 233,117.5C 230.959,116.577 228.792,116.244 226.5,116.5C 226.5,120.5 226.5,124.5 226.5,128.5C 224.585,128.784 222.919,128.451 221.5,127.5C 222.493,119.016 222.826,110.349 222.5,101.5C 223.791,101.737 224.791,101.404 225.5,100.5 Z"/></g>
<g><path style="opacity:1" fill="#fde8b6" d="M 141.5,99.5 C 142.833,99.5 144.167,99.5 145.5,99.5C 144.791,100.404 143.791,100.737 142.5,100.5C 142.5,109.5 142.5,118.5 142.5,127.5C 141.506,118.348 141.173,109.015 141.5,99.5 Z"/></g>
<g><path style="opacity:1" fill="#6e582b" d="M 187.5,101.5 C 187.5,101.833 187.5,102.167 187.5,102.5C 186.532,104.607 186.198,106.941 186.5,109.5C 186.5,109.833 186.5,110.167 186.5,110.5C 185.842,109.207 185.508,107.707 185.5,106C 185.569,104.014 186.235,102.514 187.5,101.5 Z"/></g>
<g><path style="opacity:1" fill="#020306" d="M 187.5,102.5 C 192.328,102.385 193.661,104.552 191.5,109C 189.866,109.494 188.199,109.66 186.5,109.5C 186.198,106.941 186.532,104.607 187.5,102.5 Z"/></g>
<g><path style="opacity:1" fill="#a2957a" d="M 120.5,102.5 C 119.791,103.404 118.791,103.737 117.5,103.5C 117.173,112.682 117.507,121.682 118.5,130.5C 118.158,131.338 117.492,131.672 116.5,131.5C 116.5,121.833 116.5,112.167 116.5,102.5C 117.833,102.5 119.167,102.5 120.5,102.5 Z"/></g>
<g><path style="opacity:1" fill="#191714" d="M 145.5,103.5 C 147.5,103.5 149.5,103.5 151.5,103.5C 151.5,105.5 151.5,107.5 151.5,109.5C 149.5,109.833 147.5,110.167 145.5,110.5C 145.5,108.167 145.5,105.833 145.5,103.5 Z"/></g>
<g><path style="opacity:1" fill="#f2d698" d="M 237.5,102.5 C 237.5,102.833 237.5,103.167 237.5,103.5C 236.5,103.5 235.5,103.5 234.5,103.5C 234.5,106.833 234.5,110.167 234.5,113.5C 232.901,113.768 231.568,113.434 230.5,112.5C 231.5,112.5 232.5,112.5 233.5,112.5C 233.177,108.774 233.511,105.107 234.5,101.5C 235.417,102.127 236.417,102.461 237.5,102.5 Z"/></g>
<g><path style="opacity:1" fill="#e0a737" d="M 94.5,95.5 C 94.9382,95.4346 95.2716,95.6012 95.5,96C 93.2686,96.622 91.4352,97.7887 90,99.5C 89,99.5 88,99.5 87,99.5C 86.5,100.667 85.6667,101.5 84.5,102C 84.7284,102.399 85.0618,102.565 85.5,102.5C 82.5974,104.648 79.2641,106.148 75.5,107C 72.9774,108.36 70.9774,110.193 69.5,112.5C 66.5817,109.09 67.2484,106.256 71.5,104C 78.9698,100.597 86.6365,97.7635 94.5,95.5 Z"/></g>
<g><path style="opacity:1" fill="#d9a543" d="M 244.5,103.5 C 245.209,104.404 246.209,104.737 247.5,104.5C 247.5,113.5 247.5,122.5 247.5,131.5C 246.167,131.5 244.833,131.5 243.5,131.5C 243.167,131.5 242.833,131.5 242.5,131.5C 241.861,121.773 242.528,112.44 244.5,103.5 Z"/></g>
<g><path style="opacity:1" fill="#ebbc5f" d="M 165.5,97.5 C 174.408,97.4258 178.408,101.926 177.5,111C 177.765,115.872 176.598,120.372 174,124.5C 167.957,128.227 163.624,126.894 161,120.5C 160.333,114.833 160.333,109.167 161,103.5C 162.332,101.34 163.832,99.34 165.5,97.5 Z"/></g>
<g><path style="opacity:1" fill="#0e0c0c" d="M 171.5,103.5 C 172.55,108.114 172.717,112.78 172,117.5C 169.719,124.136 167.385,124.136 165,117.5C 164.294,113.113 164.46,108.78 165.5,104.5C 167.249,102.469 169.249,102.135 171.5,103.5 Z"/></g>
<g><path style="opacity:1" fill="#c5b99f" d="M 171.5,103.5 C 169.249,102.135 167.249,102.469 165.5,104.5C 165.559,102.278 166.725,101.278 169,101.5C 170.376,101.684 171.209,102.351 171.5,103.5 Z"/></g>
<g><path style="opacity:1" fill="#deb25c" d="M 187.5,102.5 C 187.5,102.167 187.5,101.833 187.5,101.5C 192.227,100.727 194.727,102.727 195,107.5C 196.269,106.095 196.769,104.429 196.5,102.5C 198.413,107.125 197.413,111.125 193.5,114.5C 195.438,118.314 196.771,122.314 197.5,126.5C 195.712,126.785 194.045,126.452 192.5,125.5C 191.048,122.263 189.881,118.93 189,115.5C 188.329,114.748 187.496,114.414 186.5,114.5C 186.5,114.167 186.5,113.833 186.5,113.5C 186.918,112.778 187.584,112.278 188.5,112C 187.584,111.722 186.918,111.222 186.5,110.5C 186.5,110.167 186.5,109.833 186.5,109.5C 188.199,109.66 189.866,109.494 191.5,109C 193.661,104.552 192.328,102.385 187.5,102.5 Z"/></g>
<g><path style="opacity:1" fill="#deac4a" d="M 210.5,116.5 C 210.5,115.5 210.5,114.5 210.5,113.5C 212.833,113.5 215.167,113.5 217.5,113.5C 219.296,124.544 214.963,128.711 204.5,126C 202.683,124.2 201.516,122.034 201,119.5C 200.333,114.5 200.333,109.5 201,104.5C 205.091,97.3188 210.091,96.6521 216,102.5C 216.49,103.793 216.657,105.127 216.5,106.5C 215.127,106.657 213.793,106.49 212.5,106C 211.298,103.308 209.464,102.474 207,103.5C 205.437,108.718 205.104,114.051 206,119.5C 206.949,122.2 208.783,123.033 211.5,122C 213.078,119.661 212.745,117.828 210.5,116.5 Z"/></g>
<g><path style="opacity:1" fill="#d5c7a8" d="M 256.5,106.5 C 255.791,107.404 254.791,107.737 253.5,107.5C 253.826,116.017 253.493,124.35 252.5,132.5C 252.5,129.833 252.5,127.167 252.5,124.5C 252.17,118.132 252.504,111.798 253.5,105.5C 254.417,106.127 255.417,106.461 256.5,106.5 Z"/></g>
<g><path style="opacity:1" fill="#efcf8e" d="M 94.5,94.5 C 94.5,94.8333 94.5,95.1667 94.5,95.5C 86.6365,97.7635 78.9698,100.597 71.5,104C 67.2484,106.256 66.5817,109.09 69.5,112.5C 69.6716,113.492 69.3382,114.158 68.5,114.5C 66.549,114.227 65.049,114.893 64,116.5C 63.5087,136.263 64.6753,155.929 67.5,175.5C 67.6716,176.492 67.3382,177.158 66.5,177.5C 63.5825,155.457 61.9158,133.457 61.5,111.5C 61.3284,110.508 61.6618,109.842 62.5,109.5C 71.611,101.45 82.2777,96.4495 94.5,94.5 Z"/></g>
<g><path style="opacity:1" fill="#efd395" d="M 268.5,109.5 C 268.5,109.833 268.5,110.167 268.5,110.5C 267.5,110.5 266.5,110.5 265.5,110.5C 265.817,114.702 265.483,118.702 264.5,122.5C 264.173,117.786 264.507,113.12 265.5,108.5C 266.417,109.127 267.417,109.461 268.5,109.5 Z"/></g>
<g><path style="opacity:1" fill="#d69c2b" d="M 256.5,106.5 C 259.577,112.138 262.077,118.138 264,124.5C 264.464,123.906 264.631,123.239 264.5,122.5C 265.483,118.702 265.817,114.702 265.5,110.5C 266.5,110.5 267.5,110.5 268.5,110.5C 268.827,119.682 268.493,128.682 267.5,137.5C 266.5,137.5 265.5,137.5 264.5,137.5C 262.921,131.076 260.587,125.076 257.5,119.5C 257.081,123.832 256.081,128.499 254.5,133.5C 253.508,133.672 252.842,133.338 252.5,132.5C 253.493,124.35 253.826,116.017 253.5,107.5C 254.791,107.737 255.791,107.404 256.5,106.5 Z"/></g>
<g><path style="opacity:1" fill="#604e27" d="M 268.5,109.5 C 269.49,115.31 269.823,121.31 269.5,127.5C 269.823,131.226 269.489,134.893 268.5,138.5C 267.893,138.376 267.56,138.043 267.5,137.5C 268.493,128.682 268.827,119.682 268.5,110.5C 268.5,110.167 268.5,109.833 268.5,109.5 Z"/></g>
<g><path style="opacity:1" fill="#cdbfa1" d="M 217.5,113.5 C 215.167,113.5 212.833,113.5 210.5,113.5C 210.5,114.5 210.5,115.5 210.5,116.5C 209.566,115.432 209.232,114.099 209.5,112.5C 212.385,112.194 215.052,112.527 217.5,113.5 Z"/></g>
<g><path style="opacity:1" fill="#5c605b" d="M 275.5,112.5 C 274.506,121.652 274.173,130.985 274.5,140.5C 273.517,136.702 273.183,132.702 273.5,128.5C 273.171,122.794 273.505,117.128 274.5,111.5C 275.107,111.624 275.44,111.957 275.5,112.5 Z"/></g>
<g><path style="opacity:1" fill="#cec5b1" d="M 82.5,113.5 C 81.8586,122.599 81.1919,131.599 80.5,140.5C 79.8623,131.105 80.5289,122.105 82.5,113.5 Z"/></g>
<g><path style="opacity:1" fill="#ecb546" d="M 84.5,112.5 C 84.5,120.5 84.5,128.5 84.5,136.5C 86.2624,136.643 87.9291,136.309 89.5,135.5C 90.6956,135.846 90.6956,136.346 89.5,137C 90.0944,137.464 90.7611,137.631 91.5,137.5C 87.8161,138.496 84.1495,139.829 80.5,141.5C 80.5,141.167 80.5,140.833 80.5,140.5C 81.1919,131.599 81.8586,122.599 82.5,113.5C 82.8417,112.662 83.5084,112.328 84.5,112.5 Z"/></g>
<g><path style="opacity:1" fill="#d89c2a" d="M 275.5,112.5 C 276.609,112.557 277.609,112.89 278.5,113.5C 278.832,122.857 278.498,132.19 277.5,141.5C 276.583,140.873 275.583,140.539 274.5,140.5C 274.173,130.985 274.506,121.652 275.5,112.5 Z"/></g>
<g><path style="opacity:1" fill="#1c1a16" d="M 145.5,114.5 C 151.487,113.977 153.487,116.477 151.5,122C 149.782,122.346 148.115,122.846 146.5,123.5C 145.516,120.572 145.183,117.572 145.5,114.5 Z"/></g>
<g><path style="opacity:1" fill="#614f27" d="M 186.5,113.5 C 186.5,113.833 186.5,114.167 186.5,114.5C 186.5,118.5 186.5,122.5 186.5,126.5C 184.585,126.784 182.919,126.451 181.5,125.5C 181.833,125.5 182.167,125.5 182.5,125.5C 183.5,125.5 184.5,125.5 185.5,125.5C 185.183,121.298 185.517,117.298 186.5,113.5 Z"/></g>
<g><path style="opacity:1" fill="#595e5c" d="M 287.5,116.5 C 287.666,121.511 287.499,126.511 287,131.5C 286.79,129.942 286.29,128.609 285.5,127.5C 285.745,124.135 285.078,120.968 283.5,118C 284.555,115.945 285.888,115.445 287.5,116.5 Z"/></g>
<g><path style="opacity:1" fill="#e6af40" d="M 68.5,114.5 C 68.5,124.5 68.5,134.5 68.5,144.5C 67.8373,146.473 67.5039,148.639 67.5,151C 67.3571,154.535 68.0237,157.868 69.5,161C 69.4837,164.992 69.4837,168.659 69.5,172C 68.9152,173.302 68.2485,174.469 67.5,175.5C 64.6753,155.929 63.5087,136.263 64,116.5C 65.049,114.893 66.549,114.227 68.5,114.5 Z"/></g>
<g><path style="opacity:1" fill="#5e6360" d="M 78.5,182.5 C 75.6172,171.14 73.7839,159.474 73,147.5C 72.6964,138.653 72.1964,129.82 71.5,121C 71.5002,115.887 72.6669,115.387 75,119.5C 75.8692,139.219 77.3692,158.886 79.5,178.5C 79.3767,179.925 79.0434,181.258 78.5,182.5 Z"/></g>
<g><path style="opacity:1" fill="#ecbd59" d="M 135.5,100.5 C 136.49,106.645 136.823,112.978 136.5,119.5C 137.055,123.012 136.388,126.012 134.5,128.5C 132.869,123.9 131.869,118.9 131.5,113.5C 130.571,114.689 130.238,116.022 130.5,117.5C 129.024,122.069 127.858,126.735 127,131.5C 125.35,127.238 123.85,122.905 122.5,118.5C 122.539,117.244 122.039,116.244 121,115.5C 120.501,120.489 120.334,125.489 120.5,130.5C 119.833,130.5 119.167,130.5 118.5,130.5C 117.507,121.682 117.173,112.682 117.5,103.5C 118.791,103.737 119.791,103.404 120.5,102.5C 122.901,105.992 124.567,109.992 125.5,114.5C 125.491,116.308 125.991,117.975 127,119.5C 128.865,114.239 130.531,108.905 132,103.5C 132.985,102.186 134.152,101.186 135.5,100.5 Z"/></g>
<g><path style="opacity:1" fill="#292c2c" d="M 287.5,116.5 C 287.833,116.5 288.167,116.5 288.5,116.5C 289.833,123.5 289.833,130.5 288.5,137.5C 288.631,136.761 288.464,136.094 288,135.5C 287.667,137.833 287.333,140.167 287,142.5C 285.675,137.599 285.175,132.599 285.5,127.5C 286.29,128.609 286.79,129.942 287,131.5C 287.499,126.511 287.666,121.511 287.5,116.5 Z"/></g>
<g><path style="opacity:1" fill="#18191b" d="M 141.5,99.5 C 141.173,109.015 141.506,118.348 142.5,127.5C 142.833,127.5 143.167,127.5 143.5,127.5C 143.082,128.222 142.416,128.722 141.5,129C 143.5,129.333 145.5,129.667 147.5,130C 148.585,132.172 149.919,134.172 151.5,136C 150.167,138 150.167,140 151.5,142C 149.608,144.673 149.275,147.34 150.5,150C 147.345,150.981 147.012,152.315 149.5,154C 148.377,155.044 147.044,155.71 145.5,156C 146.5,156.333 147.5,156.667 148.5,157C 146.368,157.918 145.701,159.251 146.5,161C 145.711,163.365 144.544,165.532 143,167.5C 142.667,166.833 142.333,166.167 142,165.5C 141.667,167.167 141.333,168.833 141,170.5C 140.333,166.5 139.667,166.5 139,170.5C 138,170.833 137,171.167 136,171.5C 135.138,173.087 134.471,174.754 134,176.5C 133.667,175.833 133.333,175.167 133,174.5C 131.667,176.5 130.333,178.5 129,180.5C 127.417,178.007 125.917,178.174 124.5,181C 125.328,181.915 126.328,182.581 127.5,183C 126.146,184.294 124.812,184.46 123.5,183.5C 122.017,185.946 120.851,185.612 120,182.5C 118.354,184.055 118.021,185.721 119,187.5C 118.085,186.672 117.419,185.672 117,184.5C 115.007,185.147 113.341,186.813 112,189.5C 111.333,186.833 110.667,186.833 110,189.5C 109.577,188.044 108.744,187.544 107.5,188C 108.258,189.364 107.758,190.531 106,191.5C 105.311,190.643 104.478,189.977 103.5,189.5C 102.5,190.833 101.5,190.833 100.5,189.5C 98.9019,191.973 97.4019,191.973 96,189.5C 95.6667,190.167 95.3333,190.833 95,191.5C 91.4679,184.068 88.6346,176.402 86.5,168.5C 88.1002,167.488 89.4335,167.988 90.5,170C 90.1667,170.333 89.8333,170.667 89.5,171C 90.7391,175.665 91.5724,175.498 92,170.5C 92.3333,171.833 92.6667,173.167 93,174.5C 93.3333,173.833 93.6667,173.167 94,172.5C 94.6667,173.833 95.3333,175.167 96,176.5C 96.3076,175.692 96.8076,175.025 97.5,174.5C 98.4255,175.641 99.2588,175.641 100,174.5C 102.263,176.708 103.929,176.041 105,172.5C 105.667,175.167 106.333,175.167 107,172.5C 107.667,175.167 108.333,175.167 109,172.5C 109.333,173.167 109.667,173.833 110,174.5C 110.862,172.913 111.529,171.246 112,169.5C 112.333,170.5 112.667,171.5 113,172.5C 113.667,165.833 114.333,165.833 115,172.5C 115.419,168.148 116.086,167.815 117,171.5C 117.317,169.699 117.984,169.366 119,170.5C 121.609,168.892 122.942,166.559 123,163.5C 123.667,168.833 124.333,168.833 125,163.5C 125.333,164.167 125.667,164.833 126,165.5C 127.781,162.726 129.115,159.726 130,156.5C 130.333,157.167 130.667,157.833 131,158.5C 131.419,157.328 132.085,156.328 133,155.5C 133.195,153.793 133.195,152.126 133,150.5C 133.914,151.654 134.747,151.487 135.5,150C 134.813,147.768 134.479,145.602 134.5,143.5C 135.04,142.252 135.707,141.085 136.5,140C 136.219,136.396 134.886,132.896 132.5,129.5C 133.492,129.672 134.158,129.338 134.5,128.5C 136.388,126.012 137.055,123.012 136.5,119.5C 137.314,121.631 137.814,123.964 138,126.5C 138.333,123.833 138.667,121.167 139,118.5C 139.333,121.5 139.667,124.5 140,127.5C 140.17,117.991 140.67,108.658 141.5,99.5 Z"/></g>
<g><path style="opacity:1" fill="#e5b657" d="M 111.5,122.5 C 112.374,125.789 113.041,129.123 113.5,132.5C 111.833,132.5 110.167,132.5 108.5,132.5C 108.435,130.304 107.768,128.304 106.5,126.5C 104.929,127.309 103.262,127.643 101.5,127.5C 101.167,130.167 100.833,132.833 100.5,135.5C 99.1667,135.5 97.8333,135.5 96.5,135.5C 96.3677,132.43 96.701,129.43 97.5,126.5C 98.8901,120.511 100.39,114.511 102,108.5C 102.928,105.965 104.762,104.965 107.5,105.5C 108.99,111.126 110.323,116.792 111.5,122.5 Z"/></g>
<g><path style="opacity:1" fill="#211d18" d="M 103.5,116.5 C 105.614,117.784 106.614,119.784 106.5,122.5C 105.5,122.5 104.5,122.5 103.5,122.5C 103.5,120.5 103.5,118.5 103.5,116.5 Z"/></g>
<g><path style="opacity:1" fill="#a4711b" d="M 122.5,118.5 C 121.833,122.5 121.167,126.5 120.5,130.5C 120.334,125.489 120.501,120.489 121,115.5C 122.039,116.244 122.539,117.244 122.5,118.5 Z"/></g>
<g><path style="opacity:1" fill="#1a1b1b" d="M 237.5,102.5 C 238.33,111.658 238.83,120.991 239,130.5C 239.333,127.167 239.667,123.833 240,120.5C 241.093,124.169 241.926,127.836 242.5,131.5C 242.833,131.5 243.167,131.5 243.5,131.5C 244.984,132.473 245.484,133.807 245,135.5C 244.195,133.099 243.362,133.266 242.5,136C 243.76,138.886 245.093,141.719 246.5,144.5C 245.098,145.842 245.431,146.676 247.5,147C 247.167,147.333 246.833,147.667 246.5,148C 247.744,148.456 248.577,147.956 249,146.5C 250.646,148.055 250.979,149.721 250,151.5C 252.043,153.208 253.71,155.208 255,157.5C 255.333,156.833 255.667,156.167 256,155.5C 257,157.167 258,158.833 259,160.5C 260,159.167 261,157.833 262,156.5C 262.667,159.167 263.333,159.167 264,156.5C 265,158.167 266,159.833 267,161.5C 268.686,158.978 270.019,159.311 271,162.5C 271.84,159.536 272.84,159.203 274,161.5C 274.981,158.311 276.314,157.978 278,160.5C 278.21,158.942 278.71,157.609 279.5,156.5C 279.16,161.847 277.66,166.847 275,171.5C 274.667,170.833 274.333,170.167 274,169.5C 273.333,170.833 272.333,171.833 271,172.5C 270.333,171.167 269.667,171.167 269,172.5C 268.333,168.5 267.667,168.5 267,172.5C 266.333,168.5 265.667,168.5 265,172.5C 263.921,170.606 262.587,170.273 261,171.5C 260.085,170.672 259.419,169.672 259,168.5C 258.667,169.167 258.333,169.833 258,170.5C 256.921,168.606 255.587,168.273 254,169.5C 249.049,166.882 245.049,163.216 242,158.5C 241.667,158.833 241.333,159.167 241,159.5C 238.375,156.56 236.208,153.393 234.5,150C 234.833,149.667 235.167,149.333 235.5,149C 234.167,146 232.833,143 231.5,140C 234.167,139.333 234.167,138.667 231.5,138C 231.968,136.178 232.301,134.011 232.5,131.5C 233.791,131.737 234.791,131.404 235.5,130.5C 237.471,121.895 238.138,112.895 237.5,103.5C 237.5,103.167 237.5,102.833 237.5,102.5 Z"/></g>
<g><path style="opacity:1" fill="#5d4e2a" d="M 134.5,128.5 C 134.158,129.338 133.492,129.672 132.5,129.5C 131.833,125.5 131.167,121.5 130.5,117.5C 130.238,116.022 130.571,114.689 131.5,113.5C 131.869,118.9 132.869,123.9 134.5,128.5 Z"/></g>
<g><path style="opacity:1" fill="#fbdfa2" d="M 289.5,104.5 C 292.474,106.327 294.641,108.993 296,112.5C 296.825,122.675 296.658,132.675 295.5,142.5C 295.5,133.5 295.5,124.5 295.5,115.5C 295.213,112.516 293.546,111.183 290.5,111.5C 290.421,110.07 290.754,108.736 291.5,107.5C 290.807,106.482 290.141,105.482 289.5,104.5 Z"/></g>
<g><path style="opacity:1" fill="#212323" d="M 244.5,103.5 C 245.833,103.5 247.167,103.5 248.5,103.5C 248.17,109.868 248.504,116.202 249.5,122.5C 250.518,123.193 251.518,123.859 252.5,124.5C 252.5,127.167 252.5,129.833 252.5,132.5C 252.842,133.338 253.508,133.672 254.5,133.5C 255.209,134.404 256.209,134.737 257.5,134.5C 257.5,129.5 257.5,124.5 257.5,119.5C 260.587,125.076 262.921,131.076 264.5,137.5C 265.5,137.5 266.5,137.5 267.5,137.5C 267.56,138.043 267.893,138.376 268.5,138.5C 269.489,134.893 269.823,131.226 269.5,127.5C 270.959,127.433 272.292,127.766 273.5,128.5C 273.183,132.702 273.517,136.702 274.5,140.5C 275.583,140.539 276.583,140.873 277.5,141.5C 278.498,132.19 278.832,122.857 278.5,113.5C 279.054,122.276 280.054,131.11 281.5,140C 280.785,145.503 280.118,151.003 279.5,156.5C 278.71,157.609 278.21,158.942 278,160.5C 276.314,157.978 274.981,158.311 274,161.5C 272.84,159.203 271.84,159.536 271,162.5C 270.019,159.311 268.686,158.978 267,161.5C 266,159.833 265,158.167 264,156.5C 263.333,159.167 262.667,159.167 262,156.5C 261,157.833 260,159.167 259,160.5C 258,158.833 257,157.167 256,155.5C 255.667,156.167 255.333,156.833 255,157.5C 253.71,155.208 252.043,153.208 250,151.5C 250.979,149.721 250.646,148.055 249,146.5C 248.577,147.956 247.744,148.456 246.5,148C 246.833,147.667 247.167,147.333 247.5,147C 245.431,146.676 245.098,145.842 246.5,144.5C 245.093,141.719 243.76,138.886 242.5,136C 243.362,133.266 244.195,133.099 245,135.5C 245.484,133.807 244.984,132.473 243.5,131.5C 244.833,131.5 246.167,131.5 247.5,131.5C 247.5,122.5 247.5,113.5 247.5,104.5C 246.209,104.737 245.209,104.404 244.5,103.5 Z"/></g>
<g><path style="opacity:1" fill="#87590a" d="M 257.5,119.5 C 257.5,124.5 257.5,129.5 257.5,134.5C 256.209,134.737 255.209,134.404 254.5,133.5C 256.081,128.499 257.081,123.832 257.5,119.5 Z"/></g>
<g><path style="opacity:1" fill="#222423" d="M 130.5,117.5 C 131.167,121.5 131.833,125.5 132.5,129.5C 134.886,132.896 136.219,136.396 136.5,140C 135.707,141.085 135.04,142.252 134.5,143.5C 134.479,145.602 134.813,147.768 135.5,150C 134.747,151.487 133.914,151.654 133,150.5C 133.195,152.126 133.195,153.793 133,155.5C 132.085,156.328 131.419,157.328 131,158.5C 130.667,157.833 130.333,157.167 130,156.5C 129.115,159.726 127.781,162.726 126,165.5C 125.667,164.833 125.333,164.167 125,163.5C 124.333,168.833 123.667,168.833 123,163.5C 122.942,166.559 121.609,168.892 119,170.5C 117.984,169.366 117.317,169.699 117,171.5C 116.086,167.815 115.419,168.148 115,172.5C 114.333,165.833 113.667,165.833 113,172.5C 112.667,171.5 112.333,170.5 112,169.5C 111.529,171.246 110.862,172.913 110,174.5C 109.667,173.833 109.333,173.167 109,172.5C 108.333,175.167 107.667,175.167 107,172.5C 106.333,175.167 105.667,175.167 105,172.5C 103.929,176.041 102.263,176.708 100,174.5C 99.2588,175.641 98.4255,175.641 97.5,174.5C 96.8076,175.025 96.3076,175.692 96,176.5C 95.3333,175.167 94.6667,173.833 94,172.5C 93.6667,173.167 93.3333,173.833 93,174.5C 92.6667,173.167 92.3333,171.833 92,170.5C 91.5724,175.498 90.7391,175.665 89.5,171C 89.8333,170.667 90.1667,170.333 90.5,170C 89.4335,167.988 88.1002,167.488 86.5,168.5C 84.6519,159.443 82.6519,150.443 80.5,141.5C 84.1495,139.829 87.8161,138.496 91.5,137.5C 92.5,137.5 93.5,137.5 94.5,137.5C 94.5,136.167 94.5,134.833 94.5,133.5C 92.4352,133.517 90.4352,133.85 88.5,134.5C 86.4896,132.977 86.1563,131.144 87.5,129C 90.6786,127.539 94.0119,126.705 97.5,126.5C 96.701,129.43 96.3677,132.43 96.5,135.5C 97.8333,135.5 99.1667,135.5 100.5,135.5C 100.833,132.833 101.167,130.167 101.5,127.5C 103.262,127.643 104.929,127.309 106.5,126.5C 107.768,128.304 108.435,130.304 108.5,132.5C 110.167,132.5 111.833,132.5 113.5,132.5C 113.041,129.123 112.374,125.789 111.5,122.5C 112.833,122.5 114.167,122.5 115.5,122.5C 115.777,125.448 115.444,128.281 114.5,131C 115.094,131.464 115.761,131.631 116.5,131.5C 117.492,131.672 118.158,131.338 118.5,130.5C 119.167,130.5 119.833,130.5 120.5,130.5C 121.167,126.5 121.833,122.5 122.5,118.5C 123.85,122.905 125.35,127.238 127,131.5C 127.858,126.735 129.024,122.069 130.5,117.5 Z"/></g>
<g><path style="opacity:1" fill="#f7dda3" d="M 184.5,133.5 C 180.126,135.6 175.46,137.1 170.5,138C 168.561,139.432 167.228,141.265 166.5,143.5C 165.847,140.942 166.847,138.775 169.5,137C 174.099,134.133 179.099,132.966 184.5,133.5 Z"/></g>
<g><path style="opacity:1" fill="#c58c23" d="M 184.5,133.5 C 191.754,132.98 198.421,134.647 204.5,138.5C 200.759,139.603 197.092,139.269 193.5,137.5C 192.833,137.833 192.167,138.167 191.5,138.5C 193.5,139.167 195.5,139.833 197.5,140.5C 195.121,142.042 192.454,142.709 189.5,142.5C 183.27,140.859 176.937,140.025 170.5,140C 169.167,141.333 169.167,142.667 170.5,144C 183.126,145.207 195.792,145.874 208.5,146C 211.828,146.495 214.828,147.662 217.5,149.5C 217.389,150.117 217.056,150.617 216.5,151C 218.028,152.648 218.695,154.648 218.5,157C 218.695,159.352 218.028,161.352 216.5,163C 217.635,163.749 218.635,163.583 219.5,162.5C 219.942,161.261 220.609,160.261 221.5,159.5C 220.833,162.167 220.167,164.833 219.5,167.5C 218.739,168.391 217.739,169.058 216.5,169.5C 214.218,168.777 211.884,168.443 209.5,168.5C 211.042,167.837 212.709,167.17 214.5,166.5C 211.893,165.682 209.226,165.182 206.5,165C 201.708,161.937 196.708,159.437 191.5,157.5C 191.5,157.167 191.5,156.833 191.5,156.5C 199.124,160.1 207.124,161.933 215.5,162C 219.488,155.09 217.488,150.757 209.5,149C 196.453,148.901 183.453,148.234 170.5,147C 168.456,146.502 167.122,145.335 166.5,143.5C 167.228,141.265 168.561,139.432 170.5,138C 175.46,137.1 180.126,135.6 184.5,133.5 Z"/></g>
<g><path style="opacity:1" fill="#c79f52" d="M 88.5,134.5 C 90.4352,133.85 92.4352,133.517 94.5,133.5C 94.5,134.833 94.5,136.167 94.5,137.5C 93.5,137.5 92.5,137.5 91.5,137.5C 90.7611,137.631 90.0944,137.464 89.5,137C 90.6956,136.346 90.6956,135.846 89.5,135.5C 87.9291,136.309 86.2624,136.643 84.5,136.5C 84.5,128.5 84.5,120.5 84.5,112.5C 85.3478,119.418 85.8478,127.085 86,135.5C 86.6708,134.748 87.5041,134.414 88.5,134.5 Z"/></g>
<g><path style="opacity:1" fill="#17191a" d="M 185.5,138.5 C 187.179,138.892 188.846,139.392 190.5,140C 189.667,140.167 188.833,140.333 188,140.5C 186.624,140.316 185.791,139.649 185.5,138.5 Z"/></g>
<g><path style="opacity:1" fill="#e7b041" d="M 295.5,115.5 C 295.5,124.5 295.5,133.5 295.5,142.5C 295.5,143.833 295.5,145.167 295.5,146.5C 294.125,157.872 292.459,169.206 290.5,180.5C 290.103,179.475 289.437,179.308 288.5,180C 289.076,183.835 288.576,187.669 287,191.5C 286.768,190.263 286.268,189.263 285.5,188.5C 287.001,175.007 288.668,161.673 290.5,148.5C 290.338,150.527 290.505,152.527 291,154.5C 291.941,143.922 293.107,133.422 294.5,123C 293.382,120.675 293.715,118.175 295.5,115.5 Z"/></g>
<g><path style="opacity:1" fill="#f3ce7d" d="M 217.5,149.5 C 220.917,151.891 222.25,155.225 221.5,159.5C 220.609,160.261 219.942,161.261 219.5,162.5C 218.635,163.583 217.635,163.749 216.5,163C 218.028,161.352 218.695,159.352 218.5,157C 218.695,154.648 218.028,152.648 216.5,151C 217.056,150.617 217.389,150.117 217.5,149.5 Z"/></g>
<g><path style="opacity:1" fill="#f0cd85" d="M 295.5,146.5 C 295.5,148.5 295.5,150.5 295.5,152.5C 294.827,167.557 292.494,182.224 288.5,196.5C 288.389,195.883 288.056,195.383 287.5,195C 289.2,190.335 290.2,185.501 290.5,180.5C 292.459,169.206 294.125,157.872 295.5,146.5 Z"/></g>
<g><path style="opacity:1" fill="#c68712" d="M 201.5,185.5 C 201.5,188.5 201.5,191.5 201.5,194.5C 196.167,193.167 190.833,191.833 185.5,190.5C 184.083,187.645 184.75,185.312 187.5,183.5C 186.066,181.78 185.233,179.78 185,177.5C 182.135,175.255 179.301,172.922 176.5,170.5C 177.092,168.577 178.092,166.911 179.5,165.5C 188.581,163.407 193.081,167.074 193,176.5C 195.396,179.999 198.229,182.999 201.5,185.5 Z"/></g>
<g><path style="opacity:1" fill="#f8ce71" d="M 68.5,144.5 C 70.1054,159.414 72.1054,174.414 74.5,189.5C 75.7959,204.677 79.6292,219.344 86,233.5C 86.4169,234.756 87.2502,235.423 88.5,235.5C 101.208,264.93 118.874,290.93 141.5,313.5C 143.22,316.731 145.553,319.564 148.5,322C 151.667,324.5 154.833,327 158,329.5C 158.195,330.819 158.028,332.153 157.5,333.5C 154.185,331.192 150.851,328.859 147.5,326.5C 103.053,286.627 76.0535,236.96 66.5,177.5C 67.3382,177.158 67.6716,176.492 67.5,175.5C 68.2485,174.469 68.9152,173.302 69.5,172C 69.4837,168.659 69.4837,164.992 69.5,161C 68.0237,157.868 67.3571,154.535 67.5,151C 67.5039,148.639 67.8373,146.473 68.5,144.5 Z"/></g>
<g><path style="opacity:1" fill="#fbcf6c" d="M 185.5,190.5 C 190.833,191.833 196.167,193.167 201.5,194.5C 201.5,191.5 201.5,188.5 201.5,185.5C 202.945,188.937 203.945,192.603 204.5,196.5C 201.102,196.18 197.768,196.513 194.5,197.5C 196.833,199 199.167,200.5 201.5,202C 199.5,202 197.5,202 195.5,202C 196.167,202.667 196.833,203.333 197.5,204C 200.167,204.333 202.833,204.667 205.5,205C 207.872,206.471 207.872,207.637 205.5,208.5C 203.294,206.801 200.794,205.801 198,205.5C 193.65,207.023 189.15,207.69 184.5,207.5C 184.229,209.38 184.896,210.713 186.5,211.5C 187.216,214.598 188.716,217.264 191,219.5C 191.495,221.473 191.662,223.473 191.5,225.5C 190.691,226.469 189.691,227.302 188.5,228C 185.025,228.447 181.691,229.28 178.5,230.5C 178.5,229.167 178.5,227.833 178.5,226.5C 179.806,224.184 181.139,221.85 182.5,219.5C 184.5,219.5 185.5,218.5 185.5,216.5C 185.724,212.485 184.557,211.819 182,214.5C 181.5,214.167 181,213.833 180.5,213.5C 182.274,210.15 181.274,208.484 177.5,208.5C 177.5,210.167 177.5,211.833 177.5,213.5C 174.874,214.422 172.207,215.422 169.5,216.5C 166.643,215.804 164.143,214.471 162,212.5C 160.053,214.063 158.886,216.063 158.5,218.5C 157.206,219.29 156.039,220.29 155,221.5C 153.812,220.437 153.312,219.103 153.5,217.5C 152.07,217.421 150.736,217.754 149.5,218.5C 147.45,217.923 146.45,216.59 146.5,214.5C 147.318,208.531 149.985,203.531 154.5,199.5C 155.167,201.5 155.833,203.5 156.5,205.5C 157.971,204.619 158.804,203.286 159,201.5C 159.671,200.748 160.504,200.414 161.5,200.5C 162.671,206.258 166.005,207.924 171.5,205.5C 170.479,203.812 169.145,202.479 167.5,201.5C 166.956,196.003 165.289,190.836 162.5,186C 161.216,185.316 160.049,185.483 159,186.5C 158.075,180.516 160.242,176.016 165.5,173C 168.5,171.5 171.5,170 174.5,168.5C 175.027,173.362 177.694,176.362 182.5,177.5C 182.778,182.239 183.778,186.573 185.5,190.5 Z"/></g>
<g><path style="opacity:1" fill="#fae1a8" d="M 196.5,168.5 C 199.134,172.549 201.301,176.882 203,181.5C 204.369,188.643 206.202,195.643 208.5,202.5C 206.658,200.81 205.325,198.81 204.5,196.5C 203.945,192.603 202.945,188.937 201.5,185.5C 199.128,179.56 196.461,173.726 193.5,168C 194.577,167.53 195.577,167.697 196.5,168.5 Z"/></g>
<g><path style="opacity:1" fill="#f9ca62" d="M 191.5,157.5 C 196.708,159.437 201.708,161.937 206.5,165C 209.226,165.182 211.893,165.682 214.5,166.5C 212.709,167.17 211.042,167.837 209.5,168.5C 211.86,169.865 213.527,171.865 214.5,174.5C 215.053,176.939 215.053,179.273 214.5,181.5C 214,181.833 213.5,182.167 213,182.5C 211.594,181.586 210.094,180.92 208.5,180.5C 206.314,174.65 202.647,169.983 197.5,166.5C 196.702,166.957 196.369,167.624 196.5,168.5C 195.577,167.697 194.577,167.53 193.5,168C 196.461,173.726 199.128,179.56 201.5,185.5C 198.229,182.999 195.396,179.999 193,176.5C 193.081,167.074 188.581,163.407 179.5,165.5C 182.707,161.623 186.707,158.956 191.5,157.5 Z"/></g>
<g><path style="opacity:1" fill="#fce0a2" d="M 170.5,174.5 C 173.412,176.066 176.079,178.066 178.5,180.5C 178.863,183.832 179.196,187.499 179.5,191.5C 181.82,193.743 183.987,195.41 186,196.5C 187,196.167 188,195.833 189,195.5C 191.023,197.769 191.856,200.436 191.5,203.5C 188.989,203.301 186.822,202.968 185,202.5C 184.333,203.167 183.667,203.833 183,204.5C 181,204.5 179,204.5 177,204.5C 175.81,201.8 173.977,199.633 171.5,198C 171.833,197.667 172.167,197.333 172.5,197C 171.736,194.931 171.236,192.764 171,190.5C 170.25,189.874 169.416,189.374 168.5,189C 168.833,188.667 169.167,188.333 169.5,188C 167.732,185.116 165.732,182.449 163.5,180C 165.348,177.663 167.681,175.83 170.5,174.5 Z"/></g>
<g><path style="opacity:1" fill="#dea739" d="M 191.5,156.5 C 191.5,156.833 191.5,157.167 191.5,157.5C 186.707,158.956 182.707,161.623 179.5,165.5C 178.092,166.911 177.092,168.577 176.5,170.5C 179.301,172.922 182.135,175.255 185,177.5C 185.233,179.78 186.066,181.78 187.5,183.5C 184.75,185.312 184.083,187.645 185.5,190.5C 183.778,186.573 182.778,182.239 182.5,177.5C 177.694,176.362 175.027,173.362 174.5,168.5C 171.5,170 168.5,171.5 165.5,173C 160.242,176.016 158.075,180.516 159,186.5C 160.049,185.483 161.216,185.316 162.5,186C 165.289,190.836 166.956,196.003 167.5,201.5C 166.769,197.749 165.102,194.416 162.5,191.5C 160.959,194.486 160.626,197.486 161.5,200.5C 160.504,200.414 159.671,200.748 159,201.5C 158.804,203.286 157.971,204.619 156.5,205.5C 155.833,203.5 155.167,201.5 154.5,199.5C 149.985,203.531 147.318,208.531 146.5,214.5C 145.18,217.28 144.68,220.28 145,223.5C 145.906,220.879 146.406,221.046 146.5,224C 146.197,226.724 145.364,229.224 144,231.5C 143.667,230.167 143.333,228.833 143,227.5C 142.623,228.942 141.79,229.942 140.5,230.5C 142.687,223.672 144.187,216.672 145,209.5C 147.232,204.035 150.232,199.035 154,194.5C 154.993,190.558 155.66,186.558 156,182.5C 156.561,180.275 157.561,178.275 159,176.5C 168.1,170.366 176.933,163.866 185.5,157C 187.565,155.458 189.565,155.291 191.5,156.5 Z"/></g>
<g><path style="opacity:1" fill="#8e5c07" d="M 191.5,180.5 C 191.56,179.957 191.893,179.624 192.5,179.5C 197.123,182.552 198.623,186.552 197,191.5C 196.729,188.728 195.229,187.062 192.5,186.5C 193.831,184.177 193.498,182.177 191.5,180.5 Z"/></g>
<g><path style="opacity:1" fill="#daa030" d="M 290.5,180.5 C 290.2,185.501 289.2,190.335 287.5,195C 288.056,195.383 288.389,195.883 288.5,196.5C 286.056,202.181 284.389,208.181 283.5,214.5C 281.545,223.421 278.712,232.087 275,240.5C 273.102,244.742 270.935,248.742 268.5,252.5C 266.25,255.999 264.25,259.665 262.5,263.5C 258.779,268.562 255.445,273.896 252.5,279.5C 250.938,283.392 248.605,286.725 245.5,289.5C 241.5,293.833 237.5,298.167 233.5,302.5C 232.778,302.082 232.278,301.416 232,300.5C 231.221,303.097 230.721,303.097 230.5,300.5C 257.887,267.724 276.221,230.391 285.5,188.5C 286.268,189.263 286.768,190.263 287,191.5C 288.576,187.669 289.076,183.835 288.5,180C 289.437,179.308 290.103,179.475 290.5,180.5 Z"/></g>
<g><path style="opacity:1" fill="#a86e0b" d="M 167.5,201.5 C 169.145,202.479 170.479,203.812 171.5,205.5C 166.005,207.924 162.671,206.258 161.5,200.5C 160.626,197.486 160.959,194.486 162.5,191.5C 165.102,194.416 166.769,197.749 167.5,201.5 Z"/></g>
<g><path style="opacity:1" fill="#986209" d="M 208.5,180.5 C 208.824,184.33 210.824,186.163 214.5,186C 216.007,184.527 216.674,182.693 216.5,180.5C 216.639,178.117 215.972,176.117 214.5,174.5C 213.527,171.865 211.86,169.865 209.5,168.5C 211.884,168.443 214.218,168.777 216.5,169.5C 217.739,169.058 218.739,168.391 219.5,167.5C 220.376,167.369 221.043,167.702 221.5,168.5C 223.297,174.704 226.131,180.371 230,185.5C 230.743,190.477 230.243,195.31 228.5,200C 230.53,205.071 230.864,210.237 229.5,215.5C 224.43,213.033 219.097,211.366 213.5,210.5C 211.819,207.797 210.153,205.131 208.5,202.5C 206.202,195.643 204.369,188.643 203,181.5C 201.301,176.882 199.134,172.549 196.5,168.5C 196.369,167.624 196.702,166.957 197.5,166.5C 202.647,169.983 206.314,174.65 208.5,180.5 Z"/></g>
<g><path style="opacity:1" fill="#dca231" d="M 222.5,179.5 C 223.496,179.414 224.329,179.748 225,180.5C 226.368,183.738 226.701,187.072 226,190.5C 224.375,191.881 223.208,193.548 222.5,195.5C 223.304,198.44 224.637,201.107 226.5,203.5C 224.878,205.623 222.878,205.956 220.5,204.5C 220.013,203.554 219.68,202.554 219.5,201.5C 219.971,194.043 220.971,186.71 222.5,179.5 Z"/></g>
<g><path style="opacity:1" fill="#d3951d" d="M 214.5,174.5 C 215.972,176.117 216.639,178.117 216.5,180.5C 216.674,182.693 216.007,184.527 214.5,186C 210.824,186.163 208.824,184.33 208.5,180.5C 210.094,180.92 211.594,181.586 213,182.5C 213.5,182.167 214,181.833 214.5,181.5C 215.053,179.273 215.053,176.939 214.5,174.5 Z"/></g>
<g><path style="opacity:1" fill="#2f3233" d="M 78.5,182.5 C 79.7899,183.058 80.6232,184.058 81,185.5C 84.3126,201.635 88.146,217.302 92.5,232.5C 85.6491,216.428 80.9824,199.761 78.5,182.5 Z"/></g>
<g><path style="opacity:1" fill="#c98b17" d="M 204.5,196.5 C 205.325,198.81 206.658,200.81 208.5,202.5C 210.153,205.131 211.819,207.797 213.5,210.5C 210.015,209.41 206.681,209.41 203.5,210.5C 202.833,210.5 202.5,210.167 202.5,209.5C 202.389,208.883 202.056,208.383 201.5,208C 194.186,205.497 190.853,207.997 191.5,215.5C 189.693,214.164 188.193,212.497 187,210.5C 186.601,210.728 186.435,211.062 186.5,211.5C 184.896,210.713 184.229,209.38 184.5,207.5C 189.15,207.69 193.65,207.023 198,205.5C 200.794,205.801 203.294,206.801 205.5,208.5C 207.872,207.637 207.872,206.471 205.5,205C 202.833,204.667 200.167,204.333 197.5,204C 196.833,203.333 196.167,202.667 195.5,202C 197.5,202 199.5,202 201.5,202C 199.167,200.5 196.833,199 194.5,197.5C 197.768,196.513 201.102,196.18 204.5,196.5 Z"/></g>
<g><path style="opacity:1" fill="#fadd9a" d="M 153.5,202.5 C 154.434,203.568 154.768,204.901 154.5,206.5C 156.722,206.822 158.556,206.155 160,204.5C 160.948,206.57 162.448,208.07 164.5,209C 168.028,209.089 171.362,209.756 174.5,211C 172.863,211.601 171.197,212.101 169.5,212.5C 165.362,210.732 161.195,209.066 157,207.5C 154.35,210.081 151.684,212.748 149,215.5C 149.321,210.837 150.821,206.504 153.5,202.5 Z"/></g>
<g><path style="opacity:1" fill="#e3bd79" d="M 288.5,196.5 C 288.015,202.938 286.349,208.938 283.5,214.5C 284.389,208.181 286.056,202.181 288.5,196.5 Z"/></g>
<g><path style="opacity:1" fill="#9d6812" d="M 298.5,138.5 C 297.565,195.473 280.398,246.806 247,292.5C 241.967,298.362 236.801,304.029 231.5,309.5C 231.5,308.833 231.5,308.167 231.5,307.5C 236.573,301.767 241.239,295.767 245.5,289.5C 248.605,286.725 250.938,283.392 252.5,279.5C 257.055,274.942 260.388,269.608 262.5,263.5C 265.786,260.6 267.786,256.933 268.5,252.5C 270.935,248.742 273.102,244.742 275,240.5C 278.712,232.087 281.545,223.421 283.5,214.5C 286.349,208.938 288.015,202.938 288.5,196.5C 292.494,182.224 294.827,167.557 295.5,152.5C 296.337,147.804 297.337,143.137 298.5,138.5 Z"/></g>
<g><path style="opacity:1" fill="#a26d17" d="M 61.5,111.5 C 61.9158,133.457 63.5825,155.457 66.5,177.5C 76.0535,236.96 103.053,286.627 147.5,326.5C 146.833,326.5 146.5,326.833 146.5,327.5C 98.2194,285.62 70.3861,232.62 63,168.5C 60.4971,149.392 59.9971,130.392 61.5,111.5 Z"/></g>
<g><path style="opacity:1" fill="#e4b047" d="M 74.5,189.5 C 77.9852,205.152 82.6518,220.485 88.5,235.5C 87.2502,235.423 86.4169,234.756 86,233.5C 79.6292,219.344 75.7959,204.677 74.5,189.5 Z"/></g>
<g><path style="opacity:1" fill="#ac710b" d="M 185.5,216.5 C 185.5,218.5 184.5,219.5 182.5,219.5C 178.865,221.966 175.365,224.632 172,227.5C 170.192,227.112 168.525,227.112 167,227.5C 163.844,224.601 161.178,224.935 159,228.5C 158.333,223.833 156.333,223.167 153,226.5C 152.667,225.833 152.333,225.167 152,224.5C 151.667,226.833 151.333,229.167 151,231.5C 150.617,232.056 150.117,232.389 149.5,232.5C 149.743,229.117 149.076,225.951 147.5,223C 148.071,221.795 148.738,220.628 149.5,219.5C 151.658,222.33 154.324,222.997 157.5,221.5C 158.127,220.583 158.461,219.583 158.5,218.5C 159.893,217.74 161.393,217.074 163,216.5C 165.81,217.939 168.477,218.939 171,219.5C 174.459,217.474 177.126,214.807 179,211.5C 179.49,212.793 179.657,214.127 179.5,215.5C 181.621,215.325 183.621,215.659 185.5,216.5 Z"/></g>
<g><path style="opacity:1" fill="#e0a633" d="M 203.5,210.5 C 206.681,209.41 210.015,209.41 213.5,210.5C 219.097,211.366 224.43,213.033 229.5,215.5C 232.851,217.859 236.185,220.192 239.5,222.5C 240.718,223.161 242.051,223.828 243.5,224.5C 241.554,225.802 239.721,226.469 238,226.5C 231.909,224.201 226.075,221.534 220.5,218.5C 220.5,217.167 220.5,215.833 220.5,214.5C 216.383,212.874 212.049,211.874 207.5,211.5C 207.719,212.675 207.386,213.675 206.5,214.5C 205.479,213.099 204.479,211.765 203.5,210.5 Z"/></g>
<g><path style="opacity:1" fill="#d89b20" d="M 185.5,216.5 C 183.621,215.659 181.621,215.325 179.5,215.5C 179.657,214.127 179.49,212.793 179,211.5C 177.126,214.807 174.459,217.474 171,219.5C 168.477,218.939 165.81,217.939 163,216.5C 161.393,217.074 159.893,217.74 158.5,218.5C 158.886,216.063 160.053,214.063 162,212.5C 164.143,214.471 166.643,215.804 169.5,216.5C 172.207,215.422 174.874,214.422 177.5,213.5C 177.5,211.833 177.5,210.167 177.5,208.5C 181.274,208.484 182.274,210.15 180.5,213.5C 181,213.833 181.5,214.167 182,214.5C 184.557,211.819 185.724,212.485 185.5,216.5 Z"/></g>
<g><path style="opacity:1" fill="#8f5d09" d="M 182.5,219.5 C 181.139,221.85 179.806,224.184 178.5,226.5C 176.615,228.795 176.115,231.462 177,234.5C 179.635,238.233 181.802,242.233 183.5,246.5C 182.883,246.611 182.383,246.944 182,247.5C 181.667,250.167 181.333,252.833 181,255.5C 179.249,257.49 178.249,259.823 178,262.5C 176.103,264.016 173.936,264.683 171.5,264.5C 173.023,261.655 174.023,258.655 174.5,255.5C 175.5,255.5 176.5,255.5 177.5,255.5C 179.464,252.074 178.798,249.407 175.5,247.5C 175.53,246.503 175.03,245.836 174,245.5C 170.793,246.711 169.126,249.044 169,252.5C 167.185,254.405 165.185,256.072 163,257.5C 161.434,260.752 159.601,263.752 157.5,266.5C 157.559,264.235 156.726,263.902 155,265.5C 152.266,264.709 151.932,263.376 154,261.5C 155.292,262.791 156.458,262.791 157.5,261.5C 158.5,261.167 159.167,260.5 159.5,259.5C 160.847,256.634 162.847,254.134 165.5,252C 164.692,251.692 164.025,251.192 163.5,250.5C 166.118,247.308 165.118,245.975 160.5,246.5C 158.86,243.15 158.026,239.483 158,235.5C 157.333,234.833 156.667,234.167 156,233.5C 150.667,241.175 146.667,249.508 144,258.5C 142.264,260.063 140.764,261.73 139.5,263.5C 143.222,253.611 147.555,243.945 152.5,234.5C 151.998,233.479 151.332,233.312 150.5,234C 148.257,236.488 146.257,239.154 144.5,242C 143.552,242.483 142.552,242.649 141.5,242.5C 140.752,240.416 140.752,238.416 141.5,236.5C 144.224,235.898 146.891,234.564 149.5,232.5C 150.117,232.389 150.617,232.056 151,231.5C 151.333,229.167 151.667,226.833 152,224.5C 152.333,225.167 152.667,225.833 153,226.5C 156.333,223.167 158.333,223.833 159,228.5C 161.178,224.935 163.844,224.601 167,227.5C 168.525,227.112 170.192,227.112 172,227.5C 175.365,224.632 178.865,221.966 182.5,219.5 Z"/></g>
<g><path style="opacity:1" fill="#e4aa38" d="M 202.5,209.5 C 201.549,211.403 200.549,213.403 199.5,215.5C 199.543,216.416 199.876,217.083 200.5,217.5C 201.058,218.79 202.058,219.623 203.5,220C 206.753,221.036 210.086,221.703 213.5,222C 212.672,222.915 211.672,223.581 210.5,224C 206.848,224.499 203.182,224.665 199.5,224.5C 195.435,222.767 192.768,219.767 191.5,215.5C 190.853,207.997 194.186,205.497 201.5,208C 202.056,208.383 202.389,208.883 202.5,209.5 Z"/></g>
<g><path style="opacity:1" fill="#fde3a9" d="M 196.5,208.5 C 197.873,208.343 199.207,208.51 200.5,209C 195.295,210.942 194.129,214.442 197,219.5C 200.776,221.915 204.943,223.082 209.5,223C 200.811,225.13 195.144,221.963 192.5,213.5C 193.16,211.185 194.493,209.519 196.5,208.5 Z"/></g>
<g><path style="opacity:1" fill="#986208" d="M 202.5,209.5 C 202.5,210.167 202.833,210.5 203.5,210.5C 204.479,211.765 205.479,213.099 206.5,214.5C 207.386,213.675 207.719,212.675 207.5,211.5C 212.049,211.874 216.383,212.874 220.5,214.5C 220.5,215.833 220.5,217.167 220.5,218.5C 226.075,221.534 231.909,224.201 238,226.5C 239.721,226.469 241.554,225.802 243.5,224.5C 242.051,223.828 240.718,223.161 239.5,222.5C 248.042,221.459 248.709,223.292 241.5,228C 236.97,228.947 232.636,228.447 228.5,226.5C 228.167,226.833 227.833,227.167 227.5,227.5C 230.532,232.707 230.865,238.207 228.5,244C 228.884,249.642 229.884,255.142 231.5,260.5C 231.246,262.417 230.246,263.751 228.5,264.5C 228.5,262.167 228.5,259.833 228.5,257.5C 227.127,257.657 225.793,257.49 224.5,257C 225.649,255.396 225.649,253.73 224.5,252C 225.296,250.908 225.963,249.741 226.5,248.5C 225.6,246.761 224.933,244.928 224.5,243C 225.705,239.164 225.371,235.331 223.5,231.5C 224.724,229.161 224.724,226.828 223.5,224.5C 222.161,228.185 220.828,231.851 219.5,235.5C 210.216,238.303 205.716,244.636 206,254.5C 202.337,258.062 197.837,259.395 192.5,258.5C 194.118,257.549 195.451,256.216 196.5,254.5C 196.167,253.833 195.833,253.167 195.5,252.5C 198.782,248.161 200.449,243.161 200.5,237.5C 200.351,235.68 199.684,234.18 198.5,233C 199.167,232.333 199.833,231.667 200.5,231C 199.034,230.365 197.7,229.531 196.5,228.5C 193.59,230.79 192.59,233.623 193.5,237C 194.448,237.483 195.448,237.649 196.5,237.5C 197.093,241.679 196.093,245.346 193.5,248.5C 192.833,244.833 192.167,241.167 191.5,237.5C 190.333,239.167 189.167,240.833 188,242.5C 189.087,236.899 190.254,231.232 191.5,225.5C 191.662,223.473 191.495,221.473 191,219.5C 188.716,217.264 187.216,214.598 186.5,211.5C 186.435,211.062 186.601,210.728 187,210.5C 188.193,212.497 189.693,214.164 191.5,215.5C 192.768,219.767 195.435,222.767 199.5,224.5C 200.83,226.711 202.33,228.044 204,228.5C 204.273,230.101 204.773,231.601 205.5,233C 204.962,235.251 204.795,237.418 205,239.5C 208.885,235.943 212.718,232.443 216.5,229C 215.886,227.87 215.886,226.537 216.5,225C 216.102,223.101 215.102,221.601 213.5,220.5C 209.195,218.335 204.862,217.335 200.5,217.5C 199.876,217.083 199.543,216.416 199.5,215.5C 200.549,213.403 201.549,211.403 202.5,209.5 Z"/></g>
<g><path style="opacity:1" fill="#af730c" d="M 199.5,224.5 C 203.182,224.665 206.848,224.499 210.5,224C 211.672,223.581 212.672,222.915 213.5,222C 210.086,221.703 206.753,221.036 203.5,220C 202.058,219.623 201.058,218.79 200.5,217.5C 204.862,217.335 209.195,218.335 213.5,220.5C 215.102,221.601 216.102,223.101 216.5,225C 215.886,226.537 215.886,227.87 216.5,229C 212.718,232.443 208.885,235.943 205,239.5C 204.795,237.418 204.962,235.251 205.5,233C 204.773,231.601 204.273,230.101 204,228.5C 202.33,228.044 200.83,226.711 199.5,224.5 Z"/></g>
<g><path style="opacity:1" fill="#cb8e1b" d="M 146.5,214.5 C 146.45,216.59 147.45,217.923 149.5,218.5C 150.736,217.754 152.07,217.421 153.5,217.5C 153.312,219.103 153.812,220.437 155,221.5C 156.039,220.29 157.206,219.29 158.5,218.5C 158.461,219.583 158.127,220.583 157.5,221.5C 154.324,222.997 151.658,222.33 149.5,219.5C 148.738,220.628 148.071,221.795 147.5,223C 149.076,225.951 149.743,229.117 149.5,232.5C 146.891,234.564 144.224,235.898 141.5,236.5C 140.752,238.416 140.752,240.416 141.5,242.5C 142.552,242.649 143.552,242.483 144.5,242C 146.257,239.154 148.257,236.488 150.5,234C 151.332,233.312 151.998,233.479 152.5,234.5C 147.555,243.945 143.222,253.611 139.5,263.5C 139.919,267.773 139.252,271.773 137.5,275.5C 136.801,280.532 133.801,282.866 128.5,282.5C 127.624,282.631 126.957,282.298 126.5,281.5C 127.538,278.212 126.872,277.879 124.5,280.5C 124.167,279.833 123.833,279.167 123.5,278.5C 126.57,272.03 130.403,266.03 135,260.5C 134.884,255.37 136.218,250.703 139,246.5C 139.215,241.085 139.715,235.752 140.5,230.5C 141.79,229.942 142.623,228.942 143,227.5C 143.333,228.833 143.667,230.167 144,231.5C 145.364,229.224 146.197,226.724 146.5,224C 146.406,221.046 145.906,220.879 145,223.5C 144.68,220.28 145.18,217.28 146.5,214.5 Z"/></g>
<g><path style="opacity:1" fill="#cd921f" d="M 228.5,264.5 C 228.565,264.938 228.399,265.272 228,265.5C 227,261.5 226,261.5 225,265.5C 222.441,264.556 220.941,262.722 220.5,260C 224.191,251.549 223.857,243.382 219.5,235.5C 220.828,231.851 222.161,228.185 223.5,224.5C 224.724,226.828 224.724,229.161 223.5,231.5C 225.371,235.331 225.705,239.164 224.5,243C 224.933,244.928 225.6,246.761 226.5,248.5C 225.963,249.741 225.296,250.908 224.5,252C 225.649,253.73 225.649,255.396 224.5,257C 225.793,257.49 227.127,257.657 228.5,257.5C 228.5,259.833 228.5,262.167 228.5,264.5 Z"/></g>
<g><path style="opacity:1" fill="#0e0d0c" d="M 160.5,246.5 C 158.441,254.727 153.608,260.727 146,264.5C 145.517,265.448 145.351,266.448 145.5,267.5C 144.71,268.609 144.21,269.942 144,271.5C 143.581,270.328 142.915,269.328 142,268.5C 141.208,272.079 139.875,275.412 138,278.5C 137.517,277.552 137.351,276.552 137.5,275.5C 139.252,271.773 139.919,267.773 139.5,263.5C 140.764,261.73 142.264,260.063 144,258.5C 146.667,249.508 150.667,241.175 156,233.5C 156.667,234.167 157.333,234.833 158,235.5C 158.026,239.483 158.86,243.15 160.5,246.5 Z"/></g>
<g><path style="opacity:1" fill="#ca8d1d" d="M 191.5,225.5 C 190.254,231.232 189.087,236.899 188,242.5C 189.167,240.833 190.333,239.167 191.5,237.5C 192.167,241.167 192.833,244.833 193.5,248.5C 196.093,245.346 197.093,241.679 196.5,237.5C 195.448,237.649 194.448,237.483 193.5,237C 192.59,233.623 193.59,230.79 196.5,228.5C 197.7,229.531 199.034,230.365 200.5,231C 199.833,231.667 199.167,232.333 198.5,233C 199.684,234.18 200.351,235.68 200.5,237.5C 200.449,243.161 198.782,248.161 195.5,252.5C 195.833,253.167 196.167,253.833 196.5,254.5C 195.451,256.216 194.118,257.549 192.5,258.5C 191.07,258.579 189.736,258.246 188.5,257.5C 187.279,253.585 185.612,249.918 183.5,246.5C 181.802,242.233 179.635,238.233 177,234.5C 176.115,231.462 176.615,228.795 178.5,226.5C 178.5,227.833 178.5,229.167 178.5,230.5C 181.691,229.28 185.025,228.447 188.5,228C 189.691,227.302 190.691,226.469 191.5,225.5 Z"/></g>
<g><path style="opacity:1" fill="#c48a1e" d="M 175.5,247.5 C 178.798,249.407 179.464,252.074 177.5,255.5C 176.5,255.5 175.5,255.5 174.5,255.5C 174.023,258.655 173.023,261.655 171.5,264.5C 170.25,264.423 169.417,263.756 169,262.5C 167.658,263.902 166.824,263.569 166.5,261.5C 169.524,256.817 172.524,252.15 175.5,247.5 Z"/></g>
<g><path style="opacity:1" fill="#fde09f" d="M 159.5,259.5 C 159.167,260.5 158.5,261.167 157.5,261.5C 156.244,261.539 155.244,261.039 154.5,260C 156.286,259.215 157.786,258.049 159,256.5C 159.483,257.448 159.649,258.448 159.5,259.5 Z"/></g>
<g><path style="opacity:1" fill="#e6c17c" d="M 268.5,252.5 C 267.786,256.933 265.786,260.6 262.5,263.5C 264.25,259.665 266.25,255.999 268.5,252.5 Z"/></g>
<g><path style="opacity:1" fill="#c88c18" d="M 160.5,246.5 C 165.118,245.975 166.118,247.308 163.5,250.5C 164.025,251.192 164.692,251.692 165.5,252C 162.847,254.134 160.847,256.634 159.5,259.5C 159.649,258.448 159.483,257.448 159,256.5C 157.786,258.049 156.286,259.215 154.5,260C 155.244,261.039 156.244,261.539 157.5,261.5C 156.458,262.791 155.292,262.791 154,261.5C 151.932,263.376 152.266,264.709 155,265.5C 156.726,263.902 157.559,264.235 157.5,266.5C 157.5,266.833 157.5,267.167 157.5,267.5C 156.539,272.326 153.539,274.16 148.5,273C 149.451,272.282 149.617,271.449 149,270.5C 148.311,271.357 147.478,272.023 146.5,272.5C 145.548,270.955 145.215,269.288 145.5,267.5C 145.351,266.448 145.517,265.448 146,264.5C 153.608,260.727 158.441,254.727 160.5,246.5 Z"/></g>
<g><path style="opacity:1" fill="#e5bf7b" d="M 262.5,263.5 C 260.388,269.608 257.055,274.942 252.5,279.5C 255.445,273.896 258.779,268.562 262.5,263.5 Z"/></g>
<g><path style="opacity:1" fill="#252727" d="M 145.5,267.5 C 145.215,269.288 145.548,270.955 146.5,272.5C 147.478,272.023 148.311,271.357 149,270.5C 149.617,271.449 149.451,272.282 148.5,273C 153.539,274.16 156.539,272.326 157.5,267.5C 157.281,277.399 158.614,287.066 161.5,296.5C 161.675,301.519 163.509,305.852 167,309.5C 166.383,307.905 166.716,306.572 168,305.5C 170.09,306.791 171.424,306.124 172,303.5C 172.333,304.167 172.667,304.833 173,305.5C 174.53,304.364 175.863,303.364 177,302.5C 177.667,303.833 178.333,305.167 179,306.5C 180,305.167 181,303.833 182,302.5C 182.84,305.464 183.84,305.797 185,303.5C 185.974,305.878 186.641,305.544 187,302.5C 187.471,304.246 188.138,305.913 189,307.5C 189.333,306.833 189.667,306.167 190,305.5C 190.667,306.833 191.333,308.167 192,309.5C 192.667,308.167 193.333,306.833 194,305.5C 196.026,306.366 197.526,307.699 198.5,309.5C 201.947,308.277 205.28,306.777 208.5,305C 209.252,304.329 209.586,303.496 209.5,302.5C 219.734,294.772 229.234,286.105 238,276.5C 238.317,278.301 238.984,278.634 240,277.5C 240.667,278.167 240.667,278.833 240,279.5C 224.082,302.925 204.249,321.925 180.5,336.5C 170.009,330.498 160.509,323.165 152,314.5C 143.207,303.972 135.374,293.305 128.5,282.5C 133.801,282.866 136.801,280.532 137.5,275.5C 137.351,276.552 137.517,277.552 138,278.5C 139.875,275.412 141.208,272.079 142,268.5C 142.915,269.328 143.581,270.328 144,271.5C 144.21,269.942 144.71,268.609 145.5,267.5 Z"/></g>
<g><path style="opacity:1" fill="#18191b" d="M 209.5,302.5 C 209.586,303.496 209.252,304.329 208.5,305C 205.28,306.777 201.947,308.277 198.5,309.5C 197.526,307.699 196.026,306.366 194,305.5C 193.333,306.833 192.667,308.167 192,309.5C 191.333,308.167 190.667,306.833 190,305.5C 189.667,306.167 189.333,306.833 189,307.5C 188.138,305.913 187.471,304.246 187,302.5C 186.641,305.544 185.974,305.878 185,303.5C 183.84,305.797 182.84,305.464 182,302.5C 181,303.833 180,305.167 179,306.5C 178.333,305.167 177.667,303.833 177,302.5C 175.863,303.364 174.53,304.364 173,305.5C 172.667,304.833 172.333,304.167 172,303.5C 171.424,306.124 170.09,306.791 168,305.5C 166.716,306.572 166.383,307.905 167,309.5C 163.509,305.852 161.675,301.519 161.5,296.5C 164.065,296.845 165.899,295.512 167,292.5C 167.333,293.167 167.667,293.833 168,294.5C 168.667,293.167 169.333,291.833 170,290.5C 171.925,294.169 173.592,294.169 175,290.5C 176.714,291.925 178.047,291.592 179,289.5C 179.419,290.672 180.085,291.672 181,292.5C 182.525,292.112 184.192,292.112 186,292.5C 186.667,288.5 187.333,288.5 188,292.5C 188.333,291.833 188.667,291.167 189,290.5C 189.442,292.679 190.442,293.345 192,292.5C 193.984,294.303 195.984,295.303 198,295.5C 198.333,294.5 198.667,293.5 199,292.5C 199.552,295.047 200.886,297.047 203,298.5C 203.667,295.833 204.333,295.833 205,298.5C 205.333,297.833 205.667,297.167 206,296.5C 207.801,298.64 208.968,300.64 209.5,302.5 Z"/></g>
<g><path style="opacity:1" fill="#eac580" d="M 245.5,289.5 C 241.239,295.767 236.573,301.767 231.5,307.5C 229.5,309.167 227.5,310.833 225.5,312.5C 227.763,308.897 230.43,305.564 233.5,302.5C 237.5,298.167 241.5,293.833 245.5,289.5 Z"/></g>
<g><path style="opacity:1" fill="#f3c25b" d="M 230.5,300.5 C 230.721,303.097 231.221,303.097 232,300.5C 232.278,301.416 232.778,302.082 233.5,302.5C 230.43,305.564 227.763,308.897 225.5,312.5C 214.635,324.708 202.301,335.042 188.5,343.5C 185.521,344.793 182.687,344.46 180,342.5C 178.108,343.13 176.441,344.13 175,345.5C 169.196,341.357 163.362,337.357 157.5,333.5C 158.028,332.153 158.195,330.819 158,329.5C 154.833,327 151.667,324.5 148.5,322C 145.553,319.564 143.22,316.731 141.5,313.5C 152.048,322.879 163.048,331.713 174.5,340C 177.366,341.457 180.366,341.79 183.5,341C 200.218,328.786 215.885,315.286 230.5,300.5 Z"/></g>
<g><path style="opacity:1" fill="#bc811a" d="M 231.5,307.5 C 231.5,308.167 231.5,308.833 231.5,309.5C 217.373,325.805 201.04,339.305 182.5,350C 177.396,350.462 172.729,349.128 168.5,346C 160.91,340.053 153.577,333.886 146.5,327.5C 146.5,326.833 146.833,326.5 147.5,326.5C 150.851,328.859 154.185,331.192 157.5,333.5C 163.679,339.835 170.846,344.835 179,348.5C 182.963,348.223 186.129,346.556 188.5,343.5C 202.301,335.042 214.635,324.708 225.5,312.5C 227.5,310.833 229.5,309.167 231.5,307.5 Z"/></g>
<g><path style="opacity:1" fill="#f8db9d" d="M 157.5,333.5 C 163.362,337.357 169.196,341.357 175,345.5C 176.441,344.13 178.108,343.13 180,342.5C 182.687,344.46 185.521,344.793 188.5,343.5C 186.129,346.556 182.963,348.223 179,348.5C 170.846,344.835 163.679,339.835 157.5,333.5 Z"/></g>
</svg>
