<?xml version="1.0" encoding="UTF-8"?>
<svg version="1.1" xmlns="http://www.w3.org/2000/svg" width="400" height="400">
<path d="M0 0 C9.17087976 -0.04636882 18.34171907 -0.08189231 27.51269054 -0.10362434 C31.77127922 -0.11405535 36.02978761 -0.12820209 40.28833008 -0.15087891 C44.39912517 -0.17263163 48.50984309 -0.18457377 52.6206913 -0.18975449 C54.18795295 -0.19344588 55.75521045 -0.20065425 57.32243919 -0.21146011 C59.51998348 -0.22600742 61.71721012 -0.2279766 63.91479492 -0.22705078 C65.16499924 -0.231492 66.41520355 -0.23593323 67.70329285 -0.24050903 C70.90684332 -0.00679618 73.12237397 0.62102591 76 2 C76 1.34 76 0.68 76 0 C77.65 0 79.3 0 81 0 C81 0.66 81 1.32 81 2 C80.34 2.33 79.68 2.66 79 3 C79 3.66 79 4.32 79 5 C81.475 3.515 81.475 3.515 84 2 C85 6.75 85 6.75 85 9 C85.99 9.33 86.98 9.66 88 10 C88.33 13.3 88.66 16.6 89 20 C90.98 20.33 92.96 20.66 95 21 C95 23.97 95 26.94 95 30 C98.9595774 31.16169042 98.9595774 31.16169042 103 31 C103 32.65 103 34.3 103 36 C103.99 36.33 104.98 36.66 106 37 C106 38.32 106 39.64 106 41 C105.01 41 104.02 41 103 41 C103.99 41.33 104.98 41.66 106 42 C106.33 45.3 106.66 48.6 107 52 C109.97 52 112.94 52 116 52 C116 53.98 116 55.96 116 58 C115.195625 57.979375 114.39125 57.95875 113.5625 57.9375 C111.06645115 57.70366379 111.06645115 57.70366379 110 59 C111.65 59 113.3 59 115 59 C114.67 60.32 114.34 61.64 114 63 C114.66 63 115.32 63 116 63 C115.67 65.64 115.34 68.28 115 71 C113.68 71 112.36 71 111 71 C110.9175 71.7425 110.835 72.485 110.75 73.25 C109.85411277 76.53491986 108.36582738 77.63417262 106 80 C106 81.32 106 82.64 106 84 C105.01 84.33 104.02 84.66 103 85 C103 85.99 103 86.98 103 88 C102.01 88 101.02 88 100 88 C99.855625 88.639375 99.71125 89.27875 99.5625 89.9375 C98.70312398 93.0885454 96.57933417 94.08630045 94 96 C94.165 97.11375 94.33 98.2275 94.5 99.375 C95 103 95 103 95 105 C94.071875 105.433125 93.14375 105.86625 92.1875 106.3125 C89.48698311 107.74218541 87.95417784 108.75269548 86 111 C85.34 111.66 84.68 112.32 84 113 C84.36707617 114.88719655 84.36707617 114.88719655 85 117 C85.03786901 118.66623639 85.04627845 120.33397597 85 122 C83.68 122 82.36 122 81 122 C81 122.66 81 123.32 81 124 C77.535 124.495 77.535 124.495 74 125 C74 125.66 74 126.32 74 127 C72.35 126.67 70.7 126.34 69 126 C69.33 125.34 69.66 124.68 70 124 C69.113125 124.309375 68.22625 124.61875 67.3125 124.9375 C64.53290845 125.8290671 61.86863625 126.49377007 59 127 C59 126.34 59 125.68 59 125 C53.39479966 125.11846533 47.78976875 125.24272849 42.18481445 125.37231445 C40.27892532 125.41556753 38.37299983 125.45724925 36.46704102 125.49731445 C33.72400979 125.55525071 30.98115987 125.6188774 28.23828125 125.68359375 C27.38913651 125.70030624 26.53999176 125.71701874 25.66511536 125.73423767 C21.65130309 125.83425158 17.92645667 126.07912957 14 127 C10 127 6 127 2 127 C2 125.68 2 124.36 2 123 C2.99 123 3.98 123 5 123 C5 121.68 5 120.36 5 119 C2.69 120.32 0.38 121.64 -2 123 C-2 124.32 -2 125.64 -2 127 C-4.64 127.33 -7.28 127.66 -10 128 C-10 133.28 -10 138.56 -10 144 C-10.66 144 -11.32 144 -12 144 C-12.33 145.32 -12.66 146.64 -13 148 C-13.99 148 -14.98 148 -16 148 C-15.835 147.360625 -15.67 146.72125 -15.5 146.0625 C-14.96073333 144.19173179 -14.96073333 144.19173179 -15 143 C-15.99 143.99 -16.98 144.98 -18 146 C-18.33 145.67 -18.66 145.34 -19 145 C-19.66 146.65 -20.32 148.3 -21 150 C-21.66 150 -22.32 150 -23 150 C-23.33 151.65 -23.66 153.3 -24 155 C-26.31 155.33 -28.62 155.66 -31 156 C-31 156.66 -31 157.32 -31 158 C-54.43 158 -77.86 158 -102 158 C-102 156.68 -102 155.36 -102 154 C-102.99 154 -103.98 154 -105 154 C-105 151.69 -105 149.38 -105 147 C-104.34 147 -103.68 147 -103 147 C-102.67 147.99 -102.34 148.98 -102 150 C-101.505 149.01 -101.505 149.01 -101 148 C-99.02111039 147.27306096 -97.02045442 146.60183749 -95 146 C-95 144.02 -95 142.04 -95 140 C-94.01 139.67 -93.02 139.34 -92 139 C-92.33 138.01 -92.66 137.02 -93 136 C-92.01 136 -91.02 136 -90 136 C-90 135.01 -90 134.02 -90 133 C-87.525 132.01 -87.525 132.01 -85 131 C-84.67 128.36 -84.34 125.72 -84 123 C-83.01 123 -82.02 123 -81 123 C-80.5875 121.88625 -80.175 120.7725 -79.75 119.625 C-78.64453484 117.00679305 -78.25119213 116.16506911 -75.8125 114.5625 C-75.214375 114.376875 -74.61625 114.19125 -74 114 C-74 112.02 -74 110.04 -74 108 C-73.01 108 -72.02 108 -71 108 C-71 107.01 -71 106.02 -71 105 C-70.01 104.67 -69.02 104.34 -68 104 C-67.67 102.35 -67.34 100.7 -67 99 C-65.02 98.505 -65.02 98.505 -63 98 C-63 96.68 -63 95.36 -63 94 C-60.03 93.505 -60.03 93.505 -57 93 C-57.99 92.34 -58.98 91.68 -60 91 C-59.34 88.69 -58.68 86.38 -58 84 C-56.35 84 -54.7 84 -53 84 C-53 80.7 -53 77.4 -53 74 C-49.1273408 73.0318352 -45.96388638 72.92377142 -42 73 C-41.67 71.35 -41.34 69.7 -41 68 C-40.34 68 -39.68 68 -39 68 C-39 67.34 -39 66.68 -39 66 C-37.68 65.67 -36.36 65.34 -35 65 C-34.34 66.32 -33.68 67.64 -33 69 C-33 67.02 -33 65.04 -33 63 C-32.34 63 -31.68 63 -31 63 C-31 64.32 -31 65.64 -31 67 C-27.7 67 -24.4 67 -21 67 C-21 65.68 -21 64.36 -21 63 C-14.07 63 -7.14 63 0 63 C0 61.68 0 60.36 0 59 C3.63 59 7.26 59 11 59 C11 60.32 11 61.64 11 63 C17.93 63 24.86 63 32 63 C32 65 32 67 32 69 C35.63 69 39.26 69 43 69 C42.67 67.68 42.34 66.36 42 65 C42.99 64.67 43.98 64.34 45 64 C46 67 46 67 46 69 C49.465 68.505 49.465 68.505 53 68 C52.72382467 66.05925139 52.72382467 66.05925139 52 64 C51.01 63.34 50.02 62.68 49 62 C49.33 61.67 49.66 61.34 50 61 C47.70705512 60.14025199 47.70705512 60.14025199 45 60 C44.360625 60.66 43.72125 61.32 43.0625 62 C42.381875 62.66 41.70125 63.32 41 64 C37.75 63.75 37.75 63.75 35 63 C35.33 62.34 35.66 61.68 36 61 C35.68236347 59.00103089 35.68236347 59.00103089 35.0625 56.875 C34.86785156 56.15054688 34.67320312 55.42609375 34.47265625 54.6796875 C34.31667969 54.12539062 34.16070312 53.57109375 34 53 C33.01 53 32.02 53 31 53 C31 50 31 47 31 44 C26.02093741 43.24572703 26.02093741 43.24572703 21 43 C21 40.03 21 37.06 21 34 C21.99 34 22.98 34 24 34 C22.02 33.34 20.04 32.68 18 32 C17.67 30.35 17.34 28.7 17 27 C15.68 27 14.36 27 13 27 C11.1875 24.6875 11.1875 24.6875 10 22 C10.495 20.515 10.495 20.515 11 19 C10.835 18.175 10.67 17.35 10.5 16.5 C10 14 10 14 11 11 C9.02 11 7.04 11 5 11 C5.33 10.01 5.66 9.02 6 8 C5.01 7.67 4.02 7.34 3 7 C3 6.34 3 5.68 3 5 C2.01 5.33 1.02 5.66 0 6 C0 4 0 4 1 3 C0.505 1.515 0.505 1.515 0 0 Z M65 1 C64.67 1.66 64.34 2.32 64 3 C64.66 3 65.32 3 66 3 C66 3.66 66 4.32 66 5 C68.31 5.33 70.62 5.66 73 6 C73 5.01 73 4.02 73 3 C70.36 2.34 67.72 1.68 65 1 Z M17 21 C18 23 18 23 18 23 Z M96 33 C96 33.99 96 34.98 96 36 C97.98 36.66 99.96 37.32 102 38 C102.33 37.34 102.66 36.68 103 36 C102.34 36 101.68 36 101 36 C101 35.34 101 34.68 101 34 C99.68 34.33 98.36 34.66 97 35 C96.67 34.34 96.34 33.68 96 33 Z M113 54 C114 56 114 56 114 56 Z M64 60 C64 60.33 64 60.66 64 61 C74.23 61 84.46 61 95 61 C95 60.67 95 60.34 95 60 C84.77 60 74.54 60 64 60 Z M68 63 C68 63.33 68 63.66 68 64 C76.58 64 85.16 64 94 64 C94 63.67 94 63.34 94 63 C85.42 63 76.84 63 68 63 Z M106 64 C106.66 65.65 107.32 67.3 108 69 C108.66 69 109.32 69 110 69 C110 67.35 110 65.7 110 64 C108.68 64 107.36 64 106 64 Z M26 66 C25.34 66.66 24.68 67.32 24 68 C25.32 67.67 26.64 67.34 28 67 C27.34 66.67 26.68 66.34 26 66 Z M-21 67 C-21 67.33 -21 67.66 -21 68 C-7.14 68 6.72 68 21 68 C21 67.67 21 67.34 21 67 C7.14 67 -6.72 67 -21 67 Z M29 76 C29 76.66 29 77.32 29 78 C28.34 78 27.68 78 27 78 C27 79.65 27 81.3 27 83 C30.89759919 82.7342546 32.56306771 82.43693229 35.375 79.625 C37.26317731 77.0894128 37.26317731 77.0894128 37 74 C33.79604584 74 31.90600261 74.74335022 29 76 Z M23 83 C22.34 83.66 21.68 84.32 21 85 C21.3185177 87.10820797 21.3185177 87.10820797 22 89 C23.32 88.01 24.64 87.02 26 86 C25.16666667 83.83333333 25.16666667 83.83333333 23 83 Z M26 86 C26.33 86.66 26.66 87.32 27 88 C27.33 87.34 27.66 86.68 28 86 C27.34 86 26.68 86 26 86 Z M22 89 C21.67 90.32 21.34 91.64 21 93 C21.99 93 22.98 93 24 93 C23.34 91.68 22.68 90.36 22 89 Z M17 91 C18.485 91.99 18.485 91.99 20 93 C20 92.34 20 91.68 20 91 C19.01 91 18.02 91 17 91 Z M10 95 C10 96.65 10 98.3 10 100 C10.99 100 11.98 100 13 100 C13 101.65 13 103.3 13 105 C13.99 105 14.98 105 16 105 C16 104.34 16 103.68 16 103 C16.763125 102.773125 17.52625 102.54625 18.3125 102.3125 C21.54736301 100.73268318 22.41641358 99.16717283 24 96 C22.56342755 95.66269158 21.12569907 95.33030409 19.6875 95 C18.88699219 94.814375 18.08648437 94.62875 17.26171875 94.4375 C14.44128792 93.89192443 12.60634477 93.69682762 10 95 Z M89 103 C89 106 89 106 89 106 Z M7 105 C6.67 106.98 6.34 108.96 6 111 C7.37562854 109.71034824 8.70766393 108.37310707 10 107 C10 106.34 10 105.68 10 105 C9.01 105 8.02 105 7 105 Z M12 107 C12 107.66 12 108.32 12 109 C12.66 108.67 13.32 108.34 14 108 C13.34 107.67 12.68 107.34 12 107 Z M-68 108 C-67 110 -67 110 -67 110 Z M14 109 C15 111 15 111 15 111 Z M2 110 C3 114 3 114 3 114 Z M9 112 C10 114 10 114 10 114 Z M4 113 C5 115 5 115 5 115 Z M1 114 C1 114.66 1 115.32 1 116 C-0.65 116 -2.3 116 -4 116 C-4 116.66 -4 117.32 -4 118 C-2.02 118 -0.04 118 2 118 C1.67 116.68 1.34 115.36 1 114 Z M6 116 C5.67 116.99 5.34 117.98 5 119 C6.65 118.67 8.3 118.34 10 118 C9.67 117.34 9.34 116.68 9 116 C8.01 116 7.02 116 6 116 Z M79 116 C78.67 117.32 78.34 118.64 78 120 C78.99 119.67 79.98 119.34 81 119 C80.34 118.01 79.68 117.02 79 116 Z M81 117 C82 119 82 119 82 119 Z M6 120 C7 122 7 122 7 122 Z M74 120 C73.67 120.66 73.34 121.32 73 122 C74.32 121.34 75.64 120.68 77 120 C76.01 120 75.02 120 74 120 Z M6 123 C7 125 7 125 7 125 Z M-79 124 C-78 126 -78 126 -78 126 Z M-14 133 C-13.01 134.485 -13.01 134.485 -12 136 C-12 135.01 -12 134.02 -12 133 C-12.66 133 -13.32 133 -14 133 Z M-85 134 C-85.33 134.66 -85.66 135.32 -86 136 C-85.34 136 -84.68 136 -84 136 C-84.33 135.34 -84.66 134.68 -85 134 Z M-13 138 C-12 140 -12 140 -12 140 Z " fill="#6AC236" transform="translate(197,97)"/>
<path d="M0 0 C0.99 0.33 1.98 0.66 3 1 C2.67 1.99 2.34 2.98 2 4 C22.13 4 42.26 4 63 4 C61.61576963 7.46057592 60.66629636 9.74340752 58.65234375 12.6640625 C57.99202148 13.63472656 57.99202148 13.63472656 57.31835938 14.625 C56.86267578 15.285 56.40699219 15.945 55.9375 16.625 C55.02675382 17.94832825 54.11906999 19.27377066 53.21484375 20.6015625 C52.81386475 21.18244629 52.41288574 21.76333008 51.99975586 22.36181641 C50.82659133 24.14643956 50.82659133 24.14643956 50 27 C49.34 27 48.68 27 48 27 C47.61714844 28.08667969 47.61714844 28.08667969 47.2265625 29.1953125 C45.93175689 32.15604634 44.35218785 34.32825187 42.375 36.875 C39.16386886 41.32016087 38.32735477 43.61883816 39 49 C38.505 49.99 38.505 49.99 38 51 C36.02 51 34.04 51 32 51 C31.731875 51.7425 31.46375 52.485 31.1875 53.25 C30 56 30 56 28.4375 57.5625 C26.15372376 61.43499015 26.68570944 65.34809188 26.8125 69.75 C26.82603516 70.63816406 26.83957031 71.52632813 26.85351562 72.44140625 C26.88878691 74.62822578 26.93807248 76.81379966 27 79 C26.34 79 25.68 79 25 79 C24.505 80.98 24.505 80.98 24 83 C23.01 83 22.02 83 21 83 C21.165 82.360625 21.33 81.72125 21.5 81.0625 C22.03926667 79.19173179 22.03926667 79.19173179 22 78 C21.01 78.99 20.02 79.98 19 81 C18.67 80.67 18.34 80.34 18 80 C17.34 81.65 16.68 83.3 16 85 C15.34 85 14.68 85 14 85 C13.67 86.65 13.34 88.3 13 90 C9.535 90.495 9.535 90.495 6 91 C6 91.66 6 92.32 6 93 C-17.43 93 -40.86 93 -65 93 C-65 91.68 -65 90.36 -65 89 C-65.99 89 -66.98 89 -68 89 C-68 86.69 -68 84.38 -68 82 C-67.34 82 -66.68 82 -66 82 C-65.67 82.99 -65.34 83.98 -65 85 C-64.505 84.01 -64.505 84.01 -64 83 C-62.02111039 82.27306096 -60.02045442 81.60183749 -58 81 C-58 79.02 -58 77.04 -58 75 C-56.515 74.505 -56.515 74.505 -55 74 C-55.33 73.01 -55.66 72.02 -56 71 C-55.01 71 -54.02 71 -53 71 C-53 70.01 -53 69.02 -53 68 C-50.525 67.01 -50.525 67.01 -48 66 C-47.67 63.36 -47.34 60.72 -47 58 C-46.01 58 -45.02 58 -44 58 C-43.38125 56.329375 -43.38125 56.329375 -42.75 54.625 C-41.64453484 52.00679305 -41.25119213 51.16506911 -38.8125 49.5625 C-38.214375 49.376875 -37.61625 49.19125 -37 49 C-37 47.02 -37 45.04 -37 43 C-36.01 43 -35.02 43 -34 43 C-34 42.01 -34 41.02 -34 40 C-33.01 39.67 -32.02 39.34 -31 39 C-30.67 37.35 -30.34 35.7 -30 34 C-28.02 33.505 -28.02 33.505 -26 33 C-26 31.68 -26 30.36 -26 29 C-24.02 28.67 -22.04 28.34 -20 28 C-20.99 27.34 -21.98 26.68 -23 26 C-22.34 23.69 -21.68 21.38 -21 19 C-19.35 19 -17.7 19 -16 19 C-16 15.7 -16 12.4 -16 9 C-12.1273408 8.0318352 -8.96388638 7.92377142 -5 8 C-4.67 6.35 -4.34 4.7 -4 3 C-3.34 3 -2.68 3 -2 3 C-2 2.34 -2 1.68 -2 1 C-1.34 0.67 -0.68 0.34 0 0 Z M-31 43 C-30 45 -30 45 -30 45 Z M-42 59 C-41 61 -41 61 -41 61 Z M23 68 C23.99 69.485 23.99 69.485 25 71 C25 70.01 25 69.02 25 68 C24.34 68 23.68 68 23 68 Z M-48 69 C-48.33 69.66 -48.66 70.32 -49 71 C-48.34 71 -47.68 71 -47 71 C-47.33 70.34 -47.66 69.68 -48 69 Z M24 73 C25 75 25 75 25 75 Z " fill="#014D99" transform="translate(160,162)"/>
<path d="M0 0 C7.25898852 -0.11648741 14.51777148 -0.20501241 21.77750969 -0.25906086 C25.14953797 -0.28501814 28.52092106 -0.32015506 31.89257812 -0.37719727 C35.78011759 -0.43820924 39.6667547 -0.4662944 43.5546875 -0.48828125 C44.74988007 -0.51408768 45.94507263 -0.5398941 47.17648315 -0.56648254 C55.65456442 -0.56929008 62.35444972 0.98600945 68.88864136 6.63188171 C74.48330331 12.2509603 78.2445257 19.74695058 82.28515625 26.5078125 C85.13246878 31.2589967 88.17449695 35.84647696 91.2734375 40.4375 C98 50.42081448 98 50.42081448 98 53 C90.59335297 53.11637622 83.18690635 53.20495711 75.77952671 53.25906086 C72.33909639 53.28504187 68.89929625 53.32022381 65.45922852 53.37719727 C61.4950339 53.44243261 57.53108528 53.4662757 53.56640625 53.48828125 C52.34417862 53.51408768 51.12195099 53.5398941 49.86268616 53.56648254 C41.38614012 53.56924096 35.48018834 52.09100749 29.14576721 46.30683899 C24.0553574 41.10045372 20.47013476 34.57121348 16.69921875 28.390625 C13.45846619 23.08387773 10.06277167 17.88044642 6.66699219 12.67211914 C0 2.42612171 0 2.42612171 0 0 Z " fill="#EA3D02" transform="translate(207,103)"/>
<path d="M0 0 C9.17087976 -0.04636882 18.34171907 -0.08189231 27.51269054 -0.10362434 C31.77127922 -0.11405535 36.02978761 -0.12820209 40.28833008 -0.15087891 C44.39912517 -0.17263163 48.50984309 -0.18457377 52.6206913 -0.18975449 C54.18795295 -0.19344588 55.75521045 -0.20065425 57.32243919 -0.21146011 C59.51998348 -0.22600742 61.71721012 -0.2279766 63.91479492 -0.22705078 C65.16499924 -0.231492 66.41520355 -0.23593323 67.70329285 -0.24050903 C70.90684332 -0.00679618 73.12237397 0.62102591 76 2 C76 1.34 76 0.68 76 0 C77.65 0 79.3 0 81 0 C81 0.66 81 1.32 81 2 C80.34 2.33 79.68 2.66 79 3 C79 3.66 79 4.32 79 5 C80.65 4.01 82.3 3.02 84 2 C85 6.75 85 6.75 85 9 C85.99 9.33 86.98 9.66 88 10 C88.495 14.95 88.495 14.95 89 20 C90.98 20.33 92.96 20.66 95 21 C95 23.97 95 26.94 95 30 C98.9595774 31.16169042 98.9595774 31.16169042 103 31 C103 32.65 103 34.3 103 36 C103.99 36.33 104.98 36.66 106 37 C106 38.32 106 39.64 106 41 C105.01 41 104.02 41 103 41 C103.99 41.33 104.98 41.66 106 42 C106.33 45.3 106.66 48.6 107 52 C109.97 52 112.94 52 116 52 C116 53.98 116 55.96 116 58 C115.195625 57.979375 114.39125 57.95875 113.5625 57.9375 C111.06645115 57.70366379 111.06645115 57.70366379 110 59 C111.65 59 113.3 59 115 59 C114.67 60.32 114.34 61.64 114 63 C114.66 63 115.32 63 116 63 C115.67 65.64 115.34 68.28 115 71 C113.68 71 112.36 71 111 71 C110.9175 71.7425 110.835 72.485 110.75 73.25 C109.85411277 76.53491986 108.36582738 77.63417262 106 80 C106 81.32 106 82.64 106 84 C105.01 84.33 104.02 84.66 103 85 C103 85.99 103 86.98 103 88 C102.01 88 101.02 88 100 88 C99.855625 88.639375 99.71125 89.27875 99.5625 89.9375 C98.70312398 93.0885454 96.57933417 94.08630045 94 96 C94.165 97.11375 94.33 98.2275 94.5 99.375 C95 103 95 103 95 105 C94.071875 105.433125 93.14375 105.86625 92.1875 106.3125 C89.48698311 107.74218541 87.95417784 108.75269548 86 111 C85.34 111.66 84.68 112.32 84 113 C84.36707617 114.88719655 84.36707617 114.88719655 85 117 C85.03786901 118.66623639 85.04627845 120.33397597 85 122 C83.68 122 82.36 122 81 122 C81 122.66 81 123.32 81 124 C77.535 124.495 77.535 124.495 74 125 C74 125.66 74 126.32 74 127 C72.35 126.67 70.7 126.34 69 126 C69.33 125.34 69.66 124.68 70 124 C69.113125 124.309375 68.22625 124.61875 67.3125 124.9375 C64.53290845 125.8290671 61.86863625 126.49377007 59 127 C59 126.34 59 125.68 59 125 C53.39479966 125.11846533 47.78976875 125.24272849 42.18481445 125.37231445 C40.27892532 125.41556753 38.37299983 125.45724925 36.46704102 125.49731445 C33.72400979 125.55525071 30.98115987 125.6188774 28.23828125 125.68359375 C27.38913651 125.70030624 26.53999176 125.71701874 25.66511536 125.73423767 C21.65130309 125.83425158 17.92645667 126.07912957 14 127 C10 127 6 127 2 127 C2 125.68 2 124.36 2 123 C2.99 123 3.98 123 5 123 C5 121.68 5 120.36 5 119 C2.69 120.32 0.38 121.64 -2 123 C-2 124.32 -2 125.64 -2 127 C-4.97 127 -7.94 127 -11 127 C-9.54955729 122.89041233 -7.48889248 119.56741255 -5 116 C-4.505 116.99 -4.505 116.99 -4 118 C-1.525 117.505 -1.525 117.505 1 117 C1.5745952 113.26513121 2 109.78706732 2 106 C3.38650281 103.50372437 4.79589054 101.17874224 6.375 98.8125 C6.99375 97.85053711 6.99375 97.85053711 7.625 96.86914062 C10.72173028 92.13913486 10.72173028 92.13913486 13 91 C13.66 89.35 14.32 87.7 15 86 C18.63 80.39 22.26 74.78 26 69 C5.87 69.33 -14.26 69.66 -35 70 C-34.01 69.505 -34.01 69.505 -33 69 C-33 67.02 -33 65.04 -33 63 C-32.34 63 -31.68 63 -31 63 C-31 64.32 -31 65.64 -31 67 C-27.7 67 -24.4 67 -21 67 C-21 65.68 -21 64.36 -21 63 C-14.07 63 -7.14 63 0 63 C0 61.68 0 60.36 0 59 C3.63 59 7.26 59 11 59 C11 60.32 11 61.64 11 63 C17.93 63 24.86 63 32 63 C32 65 32 67 32 69 C35.63 69 39.26 69 43 69 C42.67 67.68 42.34 66.36 42 65 C42.99 64.67 43.98 64.34 45 64 C46 67 46 67 46 69 C49.465 68.505 49.465 68.505 53 68 C52.72382467 66.05925139 52.72382467 66.05925139 52 64 C50.515 63.01 50.515 63.01 49 62 C49.33 61.67 49.66 61.34 50 61 C47.70705512 60.14025199 47.70705512 60.14025199 45 60 C44.360625 60.66 43.72125 61.32 43.0625 62 C42.381875 62.66 41.70125 63.32 41 64 C37.75 63.75 37.75 63.75 35 63 C35.495 62.01 35.495 62.01 36 61 C35.68236347 59.00103089 35.68236347 59.00103089 35.0625 56.875 C34.86785156 56.15054688 34.67320312 55.42609375 34.47265625 54.6796875 C34.31667969 54.12539062 34.16070312 53.57109375 34 53 C33.01 53 32.02 53 31 53 C31 50 31 47 31 44 C26.02093741 43.24572703 26.02093741 43.24572703 21 43 C21 40.03 21 37.06 21 34 C21.99 34 22.98 34 24 34 C22.02 33.34 20.04 32.68 18 32 C17.67 30.35 17.34 28.7 17 27 C15.68 27 14.36 27 13 27 C11.1875 24.6875 11.1875 24.6875 10 22 C10.495 20.515 10.495 20.515 11 19 C10.835 18.175 10.67 17.35 10.5 16.5 C10 14 10 14 11 11 C9.02 11 7.04 11 5 11 C5.33 10.01 5.66 9.02 6 8 C5.01 7.67 4.02 7.34 3 7 C3 6.34 3 5.68 3 5 C2.01 5.33 1.02 5.66 0 6 C0 4 0 4 1 3 C0.505 1.515 0.505 1.515 0 0 Z M65 1 C64.67 1.66 64.34 2.32 64 3 C64.66 3 65.32 3 66 3 C66 3.66 66 4.32 66 5 C68.31 5.33 70.62 5.66 73 6 C73 5.01 73 4.02 73 3 C70.36 2.34 67.72 1.68 65 1 Z M10 6 C11.23052198 9.13513324 12.49216361 12.02364257 14.25 14.8984375 C14.68868408 15.61789551 15.12736816 16.33735352 15.5793457 17.07861328 C16.04816162 17.8364209 16.51697754 18.59422852 17 19.375 C17.48621826 20.16503418 17.97243652 20.95506836 18.47338867 21.76904297 C29.13379443 40.76466543 29.13379443 40.76466543 44 56 C44.76779785 56.52376221 45.5355957 57.04752441 46.32666016 57.5871582 C51.9219083 59.73920533 57.33224568 59.36729347 63.2734375 59.29296875 C65.19175888 59.28660149 65.19175888 59.28660149 67.14883423 59.28010559 C70.53234702 59.2661897 73.91524227 59.23928324 77.29858398 59.20599365 C80.75759574 59.17518588 84.21667154 59.1615775 87.67578125 59.14648438 C94.45069027 59.11344754 101.22530951 59.06327151 108 59 C106.31133239 54.58544132 104.09589273 50.72517685 101.5625 46.75 C101.12583008 46.0590625 100.68916016 45.368125 100.23925781 44.65625 C98.83143377 42.43410616 97.41634486 40.21672101 96 38 C95.52224121 37.24912109 95.04448242 36.49824219 94.55224609 35.72460938 C93.1226794 33.48014625 91.68755681 31.23935256 90.25 29 C89.81502197 28.31905273 89.38004395 27.63810547 88.93188477 26.93652344 C82.85835455 17.090592 82.85835455 17.090592 74.3125 9.5625 C73.19294922 8.85287109 73.19294922 8.85287109 72.05078125 8.12890625 C68.3978553 6.11805749 65.52371645 5.87743109 61.42700195 5.88647461 C60.28604568 5.88655014 59.14508942 5.88662567 57.96955872 5.88670349 C56.73823715 5.89186478 55.50691559 5.89702606 54.23828125 5.90234375 C52.97735153 5.9037587 51.71642181 5.90517365 50.4172821 5.90663147 C47.06848291 5.91128425 43.71975189 5.92026658 40.37097168 5.93133545 C36.95239857 5.94157313 33.53381841 5.94613414 30.11523438 5.95117188 C23.41013739 5.96220901 16.70507263 5.97895314 10 6 Z M17 21 C18 23 18 23 18 23 Z M96 33 C96 33.99 96 34.98 96 36 C97.98 36.66 99.96 37.32 102 38 C102.33 37.34 102.66 36.68 103 36 C102.34 36 101.68 36 101 36 C101 35.34 101 34.68 101 34 C99.68 34.33 98.36 34.66 97 35 C96.67 34.34 96.34 33.68 96 33 Z M113 54 C114 56 114 56 114 56 Z M64 60 C64 60.33 64 60.66 64 61 C74.23 61 84.46 61 95 61 C95 60.67 95 60.34 95 60 C84.77 60 74.54 60 64 60 Z M68 63 C68 63.33 68 63.66 68 64 C76.58 64 85.16 64 94 64 C94 63.67 94 63.34 94 63 C85.42 63 76.84 63 68 63 Z M106 64 C106.66 65.65 107.32 67.3 108 69 C108.66 69 109.32 69 110 69 C110 67.35 110 65.7 110 64 C108.68 64 107.36 64 106 64 Z M26 66 C25.34 66.66 24.68 67.32 24 68 C25.32 67.67 26.64 67.34 28 67 C27.34 66.67 26.68 66.34 26 66 Z M-21 67 C-21 67.33 -21 67.66 -21 68 C-7.14 68 6.72 68 21 68 C21 67.67 21 67.34 21 67 C7.14 67 -6.72 67 -21 67 Z M35.078125 81.1875 C31.69869182 85.76116896 28.75444035 90.57716308 25.80859375 95.4375 C23.76450145 98.79740691 21.64165642 102.09433613 19.47265625 105.375 C18.87606201 106.27822998 18.27946777 107.18145996 17.66479492 108.11206055 C16.4862666 109.89022202 15.30294979 111.66522052 14.11450195 113.43676758 C13.57913818 114.24782959 13.04377441 115.0588916 12.4921875 115.89453125 C11.77071533 116.97504761 11.77071533 116.97504761 11.03466797 118.07739258 C9.76305345 120.07640182 9.76305345 120.07640182 10 123 C17.50720548 123.10191247 25.01423073 123.17168009 32.52197266 123.21972656 C35.07282173 123.23976872 37.62362527 123.26700993 40.17431641 123.30175781 C43.8533048 123.3506003 47.53168259 123.37304381 51.2109375 123.390625 C52.34050873 123.41127014 53.47007996 123.43191528 54.63388062 123.45318604 C63.31973206 123.45561503 69.9744502 121.69511293 77.21484375 116.84765625 C80.92809217 113.05108108 83.69823731 108.89428786 86.5625 104.4375 C87.16022217 103.52307129 87.75794434 102.60864258 88.3737793 101.66650391 C89.62370582 99.7518415 90.86949923 97.83447511 92.11132812 95.91455078 C93.98280378 93.02653677 95.87156928 90.15058867 97.765625 87.27734375 C98.9484023 85.47688143 100.13071203 83.67611185 101.3125 81.875 C101.86945557 81.0286499 102.42641113 80.1822998 103.00024414 79.31030273 C103.51192139 78.52469971 104.02359863 77.73909668 104.55078125 76.9296875 C105.00106689 76.24116699 105.45135254 75.55264648 105.9152832 74.84326172 C107.15458289 72.88393379 107.15458289 72.88393379 108 70 C100.59335297 69.88362378 93.18690635 69.79504289 85.77952671 69.74093914 C82.33909639 69.71495813 78.89929625 69.67977619 75.45922852 69.62280273 C71.4950339 69.55756739 67.53108528 69.5337243 63.56640625 69.51171875 C62.34417862 69.48591232 61.12195099 69.4601059 59.86268616 69.43351746 C48.88657825 69.42994564 42.08061387 72.80656844 35.078125 81.1875 Z M29 76 C29 76.66 29 77.32 29 78 C28.34 78 27.68 78 27 78 C27 79.65 27 81.3 27 83 C30.89759919 82.7342546 32.56306771 82.43693229 35.375 79.625 C37.26317731 77.0894128 37.26317731 77.0894128 37 74 C33.79604584 74 31.90600261 74.74335022 29 76 Z M23 83 C22.34 83.66 21.68 84.32 21 85 C21.3185177 87.10820797 21.3185177 87.10820797 22 89 C23.32 88.01 24.64 87.02 26 86 C25.16666667 83.83333333 25.16666667 83.83333333 23 83 Z M26 86 C26.33 86.66 26.66 87.32 27 88 C27.33 87.34 27.66 86.68 28 86 C27.34 86 26.68 86 26 86 Z M22 89 C21.67 90.32 21.34 91.64 21 93 C21.99 93 22.98 93 24 93 C23.34 91.68 22.68 90.36 22 89 Z M17 91 C18.485 91.99 18.485 91.99 20 93 C20 92.34 20 91.68 20 91 C19.01 91 18.02 91 17 91 Z M10 95 C10 96.65 10 98.3 10 100 C10.99 100 11.98 100 13 100 C13 101.65 13 103.3 13 105 C13.99 105 14.98 105 16 105 C16 104.34 16 103.68 16 103 C16.763125 102.773125 17.52625 102.54625 18.3125 102.3125 C21.54736301 100.73268318 22.41641358 99.16717283 24 96 C22.56342755 95.66269158 21.12569907 95.33030409 19.6875 95 C18.88699219 94.814375 18.08648437 94.62875 17.26171875 94.4375 C14.44128792 93.89192443 12.60634477 93.69682762 10 95 Z M89 103 C89 106 89 106 89 106 Z M7 105 C6.67 106.98 6.34 108.96 6 111 C7.37562854 109.71034824 8.70766393 108.37310707 10 107 C10 106.34 10 105.68 10 105 C9.01 105 8.02 105 7 105 Z M12 107 C12 107.66 12 108.32 12 109 C12.66 108.67 13.32 108.34 14 108 C13.34 107.67 12.68 107.34 12 107 Z M14 109 C15 111 15 111 15 111 Z M9 112 C10 114 10 114 10 114 Z M4 113 C5 115 5 115 5 115 Z M6 116 C5.67 116.99 5.34 117.98 5 119 C6.65 118.67 8.3 118.34 10 118 C9.67 117.34 9.34 116.68 9 116 C8.01 116 7.02 116 6 116 Z M79 116 C78.67 117.32 78.34 118.64 78 120 C78.99 119.67 79.98 119.34 81 119 C80.34 118.01 79.68 117.02 79 116 Z M81 117 C82 119 82 119 82 119 Z M6 120 C7 122 7 122 7 122 Z M74 120 C73.67 120.66 73.34 121.32 73 122 C74.32 121.34 75.64 120.68 77 120 C76.01 120 75.02 120 74 120 Z M6 123 C7 125 7 125 7 125 Z " fill="#F7F7F4" transform="translate(197,97)"/>
<path d="M0 0 C3.63 0 7.26 0 11 0 C11 0.99 11 1.98 11 3 C9.02 3 7.04 3 5 3 C5 3.33 5 3.66 5 4 C7.31 4 9.62 4 12 4 C12.26554688 4.78246094 12.53109375 5.56492187 12.8046875 6.37109375 C13.15789062 7.38300781 13.51109375 8.39492188 13.875 9.4375 C14.39707031 10.95150391 14.39707031 10.95150391 14.9296875 12.49609375 C15.74055093 15.13971751 15.74055093 15.13971751 18 16 C18 17.65 18 19.3 18 21 C18.12375 19.700625 18.2475 18.40125 18.375 17.0625 C18.5859375 14.84765625 18.5859375 14.84765625 19 13 C19.66 12.67 20.32 12.34 21 12 C21.99444068 8.65506316 22.10348268 6.31044803 21 3 C24.41099168 3 27.63088314 3.49145406 31 4 C31.4612271 6.3953061 31.91897976 8.79120132 32.375 11.1875 C32.50132812 11.84169922 32.62765625 12.49589844 32.7578125 13.16992188 C34.00821157 19.76577695 34.97682447 26.34935906 36 33 C36.33 23.43 36.66 13.86 37 4 C39.31 4 41.62 4 44 4 C44.33 13.9 44.66 23.8 45 34 C45.66 33.67 46.32 33.34 47 33 C47 24.09 47 15.18 47 6 C46.34 5.67 45.68 5.34 45 5 C45 4.34 45 3.68 45 3 C44.01 2.67 43.02 2.34 42 2 C42.66 1.34 43.32 0.68 44 0 C45.98928868 0.22827903 47.97881184 0.46355249 49.95703125 0.7734375 C52.47125328 1.05226136 54.57518832 0.68197828 57 0 C59.125 6.625 59.125 6.625 58 10 C59.32 10 60.64 10 62 10 C63.8125 11.25 63.8125 11.25 65 13 C64.625 15.125 64.625 15.125 64 17 C64.33 17.33 64.66 17.66 65 18 C65.02698422 15.56242587 65.04683099 13.12515085 65.0625 10.6875 C65.07506836 9.65206055 65.07506836 9.65206055 65.08789062 8.59570312 C65.10307906 5.4516975 65.00193327 3.00579981 64 0 C66.16874252 0.50603992 67.99967627 0.99983813 70 2 C70 1.34 70 0.68 70 0 C71.32 0 72.64 0 74 0 C74.495 2.475 74.495 2.475 75 5 C74.34 5 73.68 5 73 5 C73.495 15.395 73.495 15.395 74 26 C74.66 26 75.32 26 76 26 C76.495 26.99 76.495 26.99 77 28 C78.32 24.7 79.64 21.4 81 18 C80.34 17.67 79.68 17.34 79 17 C79.66 14.69 80.32 12.38 81 10 C81.99 10 82.98 10 84 10 C83.9175 9.0925 83.835 8.185 83.75 7.25 C84 4 84 4 86 1.625 C86.66 1.08875 87.32 0.5525 88 0 C88.99 0.33 89.98 0.66 91 1 C91 1.66 91 2.32 91 3 C91.99 3.33 92.98 3.66 94 4 C94.474375 4.804375 94.94875 5.60875 95.4375 6.4375 C97.09552981 9.15666889 98.08436939 9.89407115 101 11 C100.67 11.99 100.34 12.98 100 14 C99.34 14 98.68 14 98 14 C99.92391649 19.31411494 99.92391649 19.31411494 104 23 C103.34 24.32 102.68 25.64 102 27 C103.32 26.34 104.64 25.68 106 25 C105.56054688 27.97851562 105.56054688 27.97851562 105.12109375 30.95703125 C104.86095201 33.2025342 104.86095201 33.2025342 106 36 C102.37 36.33 98.74 36.66 95 37 C95 35.02 95 33.04 95 31 C91.7 30.67 88.4 30.34 85 30 C85 32.31 85 34.62 85 37 C72.33029613 37.18451025 72.33029613 37.18451025 67 36 C66.505 36.99 66.505 36.99 66 38 C64.515 37.505 64.515 37.505 63 37 C63 35.35 63 33.7 63 32 C62.01 31.67 61.02 31.34 60 31 C59.25486277 28.90006779 59 27.22568901 59 25 C58.34 24.01 57.68 23.02 57 22 C57 25.63 57 29.26 57 33 C57.99 33.495 57.99 33.495 59 34 C58.67 34.99 58.34 35.98 58 37 C57.30132812 36.98839844 56.60265625 36.97679687 55.8828125 36.96484375 C54.97273438 36.95582031 54.06265625 36.94679688 53.125 36.9375 C52.22007812 36.92589844 51.31515625 36.91429687 50.3828125 36.90234375 C47.9831415 36.83750743 47.9831415 36.83750743 46 38 C45.01 37.505 45.01 37.505 44 37 C41.11629667 36.92805131 38.25760336 36.90708292 35.375 36.9375 C34.57320312 36.94201172 33.77140625 36.94652344 32.9453125 36.95117188 C30.96350994 36.96296832 28.98174567 36.98090395 27 37 C26.67 36.01 26.34 35.02 26 34 C26.66 34 27.32 34 28 34 C27.34 30.37 26.68 26.74 26 23 C26 23.99 26 24.98 26 26 C26.33 26.33 26.66 26.66 27 27 C27.04063832 28.66617115 27.042721 30.33388095 27 32 C25.35 32 23.7 32 22 32 C22 33.65 22 35.3 22 37 C20.9275 36.979375 19.855 36.95875 18.75 36.9375 C15.85209576 36.9857984 13.71387859 37.13155885 11 38 C11 36.35 11 34.7 11 33 C10.34 32.67 9.68 32.34 9 32 C9.99 30.35 10.98 28.7 12 27 C11.34 27 10.68 27 10 27 C7.90649311 30.4019487 7.82057837 33.05272412 8 37 C4.04 36.505 4.04 36.505 0 36 C0.54403443 25.9067296 1.53875338 16.00173656 3 6 C2.01 5.67 1.02 5.34 0 5 C0.66 4.01 1.32 3.02 2 2 C1.34 1.34 0.68 0.68 0 0 Z M67 2 C67 2.66 67 3.32 67 4 C68.65 4 70.3 4 72 4 C69.61837991 2.58614089 69.61837991 2.58614089 67 2 Z M52 2 C50.02 2.99 50.02 2.99 48 4 C50.31 4 52.62 4 55 4 C54.01 3.34 53.02 2.68 52 2 Z M82 13 C83 15 83 15 83 15 Z M81 16 C82 18 82 18 82 18 Z M90 16 C91 18 91 18 91 18 Z M89 18 C90 20 90 20 90 20 Z M65 19 C66 21 66 21 66 21 Z M9 20 C8.67 21.32 8.34 22.64 8 24 C9.485 24.99 9.485 24.99 11 26 C10.67 24.02 10.34 22.04 10 20 C9.67 20 9.34 20 9 20 Z M88 21 C88 21.66 88 22.32 88 23 C89.65 23 91.3 23 93 23 C92.67 22.34 92.34 21.68 92 21 C90.68 21 89.36 21 88 21 Z M12 29 C13 33 13 33 13 33 Z M23 29 C24 31 24 31 24 31 Z M76 29 C77 31 77 31 77 31 Z M75 32 C76 34 76 34 76 34 Z M96 32 C97 34 97 34 97 34 Z M13 33 C14 35 14 35 14 35 Z " fill="#A9A9A7" transform="translate(207,265)"/>
<path d="M0 0 C1.32 0 2.64 0 4 0 C4.33 0.99 4.66 1.98 5 3 C11.93 3.495 11.93 3.495 19 4 C19 4.66 19 5.32 19 6 C19.99 6.33 20.98 6.66 22 7 C21.67 8.65 21.34 10.3 21 12 C16.71 11.67 12.42 11.34 8 11 C8 12.32 8 13.64 8 15 C11.63 15 15.26 15 19 15 C19.144375 15.94875 19.28875 16.8975 19.4375 17.875 C19.82935399 20.8934494 19.82935399 20.8934494 21 23 C16.71 22.67 12.42 22.34 8 22 C8 24.31 8 26.62 8 29 C12.62 28.67 17.24 28.34 22 28 C22.33 20.08 22.66 12.16 23 4 C26.526875 3.938125 26.526875 3.938125 30.125 3.875 C30.85348145 3.85679199 31.58196289 3.83858398 32.33251953 3.81982422 C36.62036412 3.78377237 40.02263619 4.42640124 44 6 C43.835 6.515625 43.67 7.03125 43.5 7.5625 C42.88068941 10.16693016 42.88068941 10.16693016 43 13.5625 C43 17 43 17 42 20 C42.495 21.485 42.495 21.485 43 23 C42.72230092 25.3406065 42.39460023 27.67624308 42 30 C44.475 30.99 44.475 30.99 47 32 C47 33.65 47 35.3 47 37 C46.25234375 36.98839844 45.5046875 36.97679687 44.734375 36.96484375 C43.74953125 36.95582031 42.7646875 36.94679688 41.75 36.9375 C40.77546875 36.92589844 39.8009375 36.91429687 38.796875 36.90234375 C36.33800393 36.98819819 34.36190351 37.3986897 32 38 C31.505 37.505 31.505 37.505 31 37 C28.70848583 36.91209025 26.41427476 36.89305962 24.12109375 36.90234375 C22.86482178 36.90484131 21.6085498 36.90733887 20.31420898 36.90991211 C18.70489502 36.91901611 17.09558105 36.92812012 15.4375 36.9375 C10.343125 36.958125 5.24875 36.97875 0 37 C0 24.79 0 12.58 0 0 Z M31 11 C31 12.65 31 14.3 31 16 C32.32 14.35 33.64 12.7 35 11 C33.68 11 32.36 11 31 11 Z M35 13 C34.34 13.66 33.68 14.32 33 15 C33.99 15 34.98 15 36 15 C35.67 14.34 35.34 13.68 35 13 Z M39 24 C40 26 40 26 40 26 Z M31 26 C31 28.97 31 31.94 31 35 C31.33 35 31.66 35 32 35 C32.67673447 31.59679066 32.67673447 31.59679066 33 28 C32.34 27.34 31.68 26.68 31 26 Z M33 30 C34 32 34 32 34 32 Z M34 32 C35 34 35 34 35 34 Z " fill="#72716E" transform="translate(113,265)"/>
<path d="M0 0 C5.94 0 11.88 0 18 0 C18 2.31 18 4.62 18 7 C16.02 7 14.04 7 12 7 C12.33 13.93 12.66 20.86 13 28 C14.32 27.67 15.64 27.34 17 27 C18.36406916 24.87203362 18.36406916 24.87203362 19.25 22.25 C19.58515625 21.38890625 19.9203125 20.5278125 20.265625 19.640625 C21.01079114 16.96119783 21.13926696 14.76544393 21 12 C21.66 11.67 22.32 11.34 23 11 C22.67 9.68 22.34 8.36 22 7 C22.99 6.67 23.98 6.34 25 6 C26.70855022 2.99992729 26.70855022 2.99992729 28 0 C30.31 0 32.62 0 35 0 C35.5878125 1.4540625 35.5878125 1.4540625 36.1875 2.9375 C37.67594887 6.22176391 37.67594887 6.22176391 40.6875 6.875 C41.450625 6.91625 42.21375 6.9575 43 7 C42.67 9.97 42.34 12.94 42 16 C42.66 16.33 43.32 16.66 44 17 C44 18.65 44 20.3 44 22 C44.99 22.33 45.98 22.66 47 23 C46.67 25.97 46.34 28.94 46 32 C43.03 32 40.06 32 37 32 C37 30.02 37 28.04 37 26 C33.7 26.33 30.4 26.66 27 27 C27 28.65 27 30.3 27 32 C24.0294763 32.99017457 22.09363586 33.10393262 19 33.0625 C17.700625 33.04896484 17.700625 33.04896484 16.375 33.03515625 C15.59125 33.02355469 14.8075 33.01195312 14 33 C13.01 33 12.02 33 11 33 C9.02 32.67 7.04 32.34 5 32 C5 23.75 5 15.5 5 7 C3.35 7 1.7 7 0 7 C0 4.69 0 2.38 0 0 Z M38 8 C39 10 39 10 39 10 Z M31 11 C32 14 32 14 32 14 Z M40 13 C41 16 41 16 41 16 Z M30 14 C29.34 15.65 28.68 17.3 28 19 C29.98 19 31.96 19 34 19 C32.6910428 15.87802522 32.6910428 15.87802522 30 14 Z M42 18 C43 21 43 21 43 21 Z M44 24 C45 26 45 26 45 26 Z M25 27 C26 29 26 29 26 29 Z " fill="#464440" transform="translate(160,269)"/>
<path d="M0 0 C0.99 0.33 1.98 0.66 3 1 C3 1.66 3 2.32 3 3 C3.99 3.33 4.98 3.66 6 4 C6.474375 4.804375 6.94875 5.60875 7.4375 6.4375 C9.09552981 9.15666889 10.08436939 9.89407115 13 11 C12.67 11.99 12.34 12.98 12 14 C11.34 14 10.68 14 10 14 C11.92391649 19.31411494 11.92391649 19.31411494 16 23 C15.34 24.32 14.68 25.64 14 27 C15.32 26.34 16.64 25.68 18 25 C17.56054688 27.97851562 17.56054688 27.97851562 17.12109375 30.95703125 C16.86095201 33.2025342 16.86095201 33.2025342 18 36 C14.37 36.33 10.74 36.66 7 37 C7 35.02 7 33.04 7 31 C3.7 30.67 0.4 30.34 -3 30 C-3 32.31 -3 34.62 -3 37 C-15.66970387 37.18451025 -15.66970387 37.18451025 -21 36 C-21.33 36.66 -21.66 37.32 -22 38 C-22.12529002 32.48723898 -22.12529002 32.48723898 -21.4375 29.8125 C-20.77806294 27.7824796 -20.77806294 27.7824796 -22 25 C-21.34 25 -20.68 25 -20 25 C-20 18.4 -20 11.8 -20 5 C-18.35 5 -16.7 5 -15 5 C-14.67 11.93 -14.34 18.86 -14 26 C-13.34 26 -12.68 26 -12 26 C-11.67 26.66 -11.34 27.32 -11 28 C-9.68 24.7 -8.36 21.4 -7 18 C-7.66 17.67 -8.32 17.34 -9 17 C-8.34 14.69 -7.68 12.38 -7 10 C-6.01 10 -5.02 10 -4 10 C-4.0825 9.0925 -4.165 8.185 -4.25 7.25 C-4 4 -4 4 -2 1.625 C-1.34 1.08875 -0.68 0.5525 0 0 Z M-6 13 C-5 15 -5 15 -5 15 Z M-7 16 C-6 18 -6 18 -6 18 Z M2 16 C3 18 3 18 3 18 Z M1 18 C2 20 2 20 2 20 Z M0 21 C0 21.66 0 22.32 0 23 C1.65 23 3.3 23 5 23 C4.67 22.34 4.34 21.68 4 21 C2.68 21 1.36 21 0 21 Z M-12 29 C-11 31 -11 31 -11 31 Z M-13 32 C-12 34 -12 34 -12 34 Z M8 32 C9 34 9 34 9 34 Z " fill="#292622" transform="translate(295,265)"/>
<path d="M0 0 C0 3.47836345 -0.67533878 4.37187601 -2.58984375 7.1953125 C-3.12673828 7.99324219 -3.66363281 8.79117188 -4.21679688 9.61328125 C-4.78462891 10.44214844 -5.35246094 11.27101562 -5.9375 12.125 C-6.50146484 12.96160156 -7.06542969 13.79820312 -7.64648438 14.66015625 C-11.80333647 20.80333647 -11.80333647 20.80333647 -13 22 C-14.66671235 24.82836036 -16.29038345 27.68022023 -17.91796875 30.53125 C-19.55595516 33.32959583 -21.32536054 36.02323481 -23.13012695 38.71679688 C-23.66821487 39.52080933 -24.2063028 40.32482178 -24.76069641 41.15319824 C-25.1696666 41.76264282 -25.57863678 42.3720874 -26 43 C-18.20746086 42.9581835 -10.41562742 42.88571261 -2.62353516 42.79248047 C0.02418642 42.76435105 2.67199072 42.74309684 5.31982422 42.72900391 C9.13812364 42.70746404 12.9554368 42.66075353 16.7734375 42.609375 C18.53341568 42.60753204 18.53341568 42.60753204 20.32894897 42.60565186 C29.25311479 42.44859077 36.99232037 41.05012894 43.72265625 34.83984375 C47.44442418 30.75124859 50.45612219 26.20477084 53.4375 21.5625 C53.97826172 20.73556641 54.51902344 19.90863281 55.07617188 19.05664062 C56.39173904 17.04254222 57.69942285 15.02379678 59 13 C59.99 13.495 59.99 13.495 61 14 C61 19.28 61 24.56 61 30 C60.34 30 59.68 30 59 30 C58.67 31.32 58.34 32.64 58 34 C57.01 34 56.02 34 55 34 C55.165 33.360625 55.33 32.72125 55.5 32.0625 C56.03926667 30.19173179 56.03926667 30.19173179 56 29 C55.01 29.99 54.02 30.98 53 32 C52.67 31.67 52.34 31.34 52 31 C51.34 32.65 50.68 34.3 50 36 C49.34 36 48.68 36 48 36 C47.67 37.65 47.34 39.3 47 41 C43.535 41.495 43.535 41.495 40 42 C40 42.66 40 43.32 40 44 C16.57 44 -6.86 44 -31 44 C-31 42.68 -31 41.36 -31 40 C-31.99 40 -32.98 40 -34 40 C-34 37.69 -34 35.38 -34 33 C-33.34 33 -32.68 33 -32 33 C-31.67 33.99 -31.34 34.98 -31 36 C-30.67 35.34 -30.34 34.68 -30 34 C-28.02111039 33.27306096 -26.02045442 32.60183749 -24 32 C-24 30.02 -24 28.04 -24 26 C-23.01 25.67 -22.02 25.34 -21 25 C-21.33 24.01 -21.66 23.02 -22 22 C-21.01 22 -20.02 22 -19 22 C-19 21.01 -19 20.02 -19 19 C-17.35 18.34 -15.7 17.68 -14 17 C-13.67 14.36 -13.34 11.72 -13 9 C-12.01 9 -11.02 9 -10 9 C-9.4740625 7.329375 -9.4740625 7.329375 -8.9375 5.625 C-8.1328125 3.69140625 -8.1328125 3.69140625 -7 2 C-3.3125 0.5625 -3.3125 0.5625 0 0 Z M-8 10 C-7 12 -7 12 -7 12 Z M57 19 C57.99 20.485 57.99 20.485 59 22 C59 21.01 59 20.02 59 19 C58.34 19 57.68 19 57 19 Z M58 24 C59 26 59 26 59 26 Z " fill="#D5E1EB" transform="translate(126,211)"/>
<path d="M0 0 C3.63 0 7.26 0 11 0 C11 0.99 11 1.98 11 3 C9.02 3 7.04 3 5 3 C5 3.33 5 3.66 5 4 C7.31 4 9.62 4 12 4 C12.26554688 4.78246094 12.53109375 5.56492187 12.8046875 6.37109375 C13.15789062 7.38300781 13.51109375 8.39492188 13.875 9.4375 C14.39707031 10.95150391 14.39707031 10.95150391 14.9296875 12.49609375 C15.74055093 15.13971751 15.74055093 15.13971751 18 16 C17.67 18.97 17.34 21.94 17 25 C17.99 24.67 18.98 24.34 20 24 C20.99 24 21.98 24 23 24 C22.67 28.29 22.34 32.58 22 37 C20.9275 36.979375 19.855 36.95875 18.75 36.9375 C15.85209576 36.9857984 13.71387859 37.13155885 11 38 C11 36.35 11 34.7 11 33 C10.34 32.67 9.68 32.34 9 32 C9.99 30.35 10.98 28.7 12 27 C11.34 27 10.68 27 10 27 C7.90649311 30.4019487 7.82057837 33.05272412 8 37 C4.04 36.505 4.04 36.505 0 36 C0.54403443 25.9067296 1.53875338 16.00173656 3 6 C2.01 5.67 1.02 5.34 0 5 C0.66 4.01 1.32 3.02 2 2 C1.34 1.34 0.68 0.68 0 0 Z M9 20 C8.67 21.32 8.34 22.64 8 24 C9.485 24.99 9.485 24.99 11 26 C10.67 24.02 10.34 22.04 10 20 C9.67 20 9.34 20 9 20 Z M12 29 C13 33 13 33 13 33 Z M13 33 C14 35 14 35 14 35 Z " fill="#656360" transform="translate(207,265)"/>
<path d="M0 0 C0.99 0 1.98 0 3 0 C3 0.66 3 1.32 3 2 C4.10408203 2.02126953 4.10408203 2.02126953 5.23046875 2.04296875 C13.18847636 2.43193346 13.18847636 2.43193346 17.125 5.1875 C19.25291947 8.3793792 20 10.1631366 20 14 C18.8303301 17.20120183 17.92407353 19.2989787 15.1875 21.375 C12.3986387 22.17181751 9.88447209 22.13111237 7 22 C7.33 24.97 7.66 27.94 8 31 C8.99 30.67 9.98 30.34 11 30 C11 31.65 11 33.3 11 35 C6.7961068 36.51340155 5.04216399 35.72030914 0 35 C0 23.45 0 11.9 0 0 Z M7 10 C7 11.65 7 13.3 7 15 C7.66 14.67 8.32 14.34 9 14 C8.67 13.01 8.34 12.02 8 11 C8.99 11 9.98 11 11 11 C11.33 11.99 11.66 12.98 12 14 C12 12.68 12 11.36 12 10 C10.35 10 8.7 10 7 10 Z " fill="#2B2924" transform="translate(92,266)"/>
<path d="M0 0 C17.82 0 35.64 0 54 0 C54 0.33 54 0.66 54 1 C36.51 1 19.02 1 1 1 C6.45159249 10.08598749 11.88627549 19.08621003 17.6875 27.9375 C18.62432617 29.38092773 18.62432617 29.38092773 19.58007812 30.85351562 C27.2855099 42.870412 27.2855099 42.870412 38 52 C38.99 52.66 39.98 53.32 41 54 C39.68 54.66 38.36 55.32 37 56 C36.67 55.67 36.34 55.34 36 55 C35.46375 55.680625 34.9275 56.36125 34.375 57.0625 C32 59 32 59 28.75 58.75 C27.8425 58.5025 26.935 58.255 26 58 C26.33 57.34 26.66 56.68 27 56 C26.68236347 54.00103089 26.68236347 54.00103089 26.0625 51.875 C25.86785156 51.15054688 25.67320312 50.42609375 25.47265625 49.6796875 C25.31667969 49.12539062 25.16070312 48.57109375 25 48 C24.01 48 23.02 48 22 48 C22 45 22 42 22 39 C17.02093741 38.24572703 17.02093741 38.24572703 12 38 C12 35.03 12 32.06 12 29 C12.99 29 13.98 29 15 29 C13.02 28.34 11.04 27.68 9 27 C8.67 25.35 8.34 23.7 8 22 C6.68 22 5.36 22 4 22 C2.1875 19.6875 2.1875 19.6875 1 17 C1.33 16.01 1.66 15.02 2 14 C1.835 13.175 1.67 12.35 1.5 11.5 C1 9 1 9 2 6 C0.02 6 -1.96 6 -4 6 C-3.67 5.01 -3.34 4.02 -3 3 C-2.01 3.33 -1.02 3.66 0 4 C0 2.68 0 1.36 0 0 Z M8 16 C9 18 9 18 9 18 Z " fill="#F8F6F4" transform="translate(206,102)"/>
<path d="M0 0 C5.28 0 10.56 0 16 0 C16 1.65 16 3.3 16 5 C12.37 5 8.74 5 5 5 C5 6.98 5 8.96 5 11 C8.63 11 12.26 11 16 11 C16 12.65 16 14.3 16 16 C12.37 16 8.74 16 5 16 C5 18.97 5 21.94 5 25 C8.63 25 12.26 25 16 25 C16 26.98 16 28.96 16 31 C10.72 31 5.44 31 0 31 C0 20.77 0 10.54 0 0 Z " fill="#25221E" transform="translate(115,270)"/>
<path d="M0 0 C0.99 0.33 1.98 0.66 3 1 C3 1.66 3 2.32 3 3 C3.99 3.33 4.98 3.66 6 4 C6.474375 4.804375 6.94875 5.60875 7.4375 6.4375 C9.09552981 9.15666889 10.08436939 9.89407115 13 11 C12.67 11.99 12.34 12.98 12 14 C11.34 14 10.68 14 10 14 C11.92391649 19.31411494 11.92391649 19.31411494 16 23 C14.02 23.66 12.04 24.32 10 25 C10 24.01 10 23.02 10 22 C9.01 22 8.02 22 7 22 C7 22.66 7 23.32 7 24 C4.03 24 1.06 24 -2 24 C-1.01 20.7 -0.02 17.4 1 14 C0.01 13.67 -0.98 13.34 -2 13 C-2.66 14.98 -3.32 16.96 -4 19 C-4.66 19 -5.32 19 -6 19 C-6.33 20.32 -6.66 21.64 -7 23 C-7.33 22.34 -7.66 21.68 -8 21 C-7.67 20.01 -7.34 19.02 -7 18 C-7.66 17.67 -8.32 17.34 -9 17 C-8.34 14.69 -7.68 12.38 -7 10 C-6.01 10 -5.02 10 -4 10 C-4.0825 9.0925 -4.165 8.185 -4.25 7.25 C-4 4 -4 4 -2 1.625 C-1.34 1.08875 -0.68 0.5525 0 0 Z M-6 13 C-5 15 -5 15 -5 15 Z M-7 16 C-6 18 -6 18 -6 18 Z M2 16 C3 18 3 18 3 18 Z M1 18 C2 20 2 20 2 20 Z M0 21 C0 21.66 0 22.32 0 23 C1.65 23 3.3 23 5 23 C4.67 22.34 4.34 21.68 4 21 C2.68 21 1.36 21 0 21 Z " fill="#43413D" transform="translate(295,265)"/>
<path d="M0 0 C3.63 0 7.26 0 11 0 C9.02 0.99 9.02 0.99 7 2 C6.08400573 4.40404738 6.08400573 4.40404738 5.75 7.125 C5.60046875 8.03507812 5.4509375 8.94515625 5.296875 9.8828125 C5.19890625 10.58148438 5.1009375 11.28015625 5 12 C7.45963073 11.65820255 7.45963073 11.65820255 10 11 C11.36020151 9.03241727 11.36020151 9.03241727 12 7 C12.99 7.33 13.98 7.66 15 8 C15.33 6.68 15.66 5.36 16 4 C16 7.63 16 11.26 16 15 C14.68 15.33 13.36 15.66 12 16 C12.33 17.98 12.66 19.96 13 22 C11.02 22.33 9.04 22.66 7 23 C6.67 21.68 6.34 20.36 6 19 C5.67 22.63 5.34 26.26 5 30 C3.35 30 1.7 30 0 30 C0 20.1 0 10.2 0 0 Z " fill="#23211C" transform="translate(138,270)"/>
<path d="M0 0 C3.3 0.66 6.6 1.32 10 2 C10.20496094 3.09699219 10.40992188 4.19398438 10.62109375 5.32421875 C10.89321293 6.77864887 11.16534925 8.23307578 11.4375 9.6875 C11.57220703 10.40873047 11.70691406 11.12996094 11.84570312 11.87304688 C11.97783203 12.57880859 12.10996094 13.28457031 12.24609375 14.01171875 C12.43933228 15.04945435 12.43933228 15.04945435 12.63647461 16.1081543 C12.93074426 17.63958179 13.25733417 19.16477573 13.59375 20.6875 C14.04781858 23.27219806 14.09746275 25.690294 14.0625 28.3125 C14.05347656 29.19550781 14.04445312 30.07851563 14.03515625 30.98828125 C14.02355469 31.65214844 14.01195312 32.31601562 14 33 C12.35 33 10.7 33 9 33 C8.79503906 31.94039063 8.59007812 30.88078125 8.37890625 29.7890625 C8.10692334 28.40101178 7.83477956 27.01299256 7.5625 25.625 C7.42779297 24.92632812 7.29308594 24.22765625 7.15429688 23.5078125 C6.4227578 19.64371266 6.4227578 19.64371266 5 16 C4.34 16.66 3.68 17.32 3 18 C2.34 18 1.68 18 1 18 C0.67 18.99 0.34 19.98 0 21 C-0.98120464 17.94736336 -0.98120464 16.05263664 0 13 C-0.66 13 -1.32 13 -2 13 C-1.67 12.34 -1.34 11.68 -1 11 C0.94607677 6.05272786 0.94607677 6.05272786 0 1 C0 0.67 0 0.34 0 0 Z " fill="#34322D" transform="translate(228,267)"/>
<path d="M0 0 C0 3.47836345 -0.67533878 4.37187601 -2.58984375 7.1953125 C-3.12673828 7.99324219 -3.66363281 8.79117188 -4.21679688 9.61328125 C-4.78462891 10.44214844 -5.35246094 11.27101562 -5.9375 12.125 C-6.50146484 12.96160156 -7.06542969 13.79820312 -7.64648438 14.66015625 C-11.80333647 20.80333647 -11.80333647 20.80333647 -13 22 C-14.09587351 23.86769841 -15.1766341 25.74427627 -16.25 27.625 C-23.61020151 40.30510076 -23.61020151 40.30510076 -27 42 C-27 42.66 -27 43.32 -27 44 C-28.32 44 -29.64 44 -31 44 C-31 42.68 -31 41.36 -31 40 C-31.99 40 -32.98 40 -34 40 C-34 37.69 -34 35.38 -34 33 C-33.34 33 -32.68 33 -32 33 C-31.67 33.99 -31.34 34.98 -31 36 C-30.67 35.34 -30.34 34.68 -30 34 C-28.02111039 33.27306096 -26.02045442 32.60183749 -24 32 C-24 30.02 -24 28.04 -24 26 C-23.01 25.67 -22.02 25.34 -21 25 C-21.33 24.01 -21.66 23.02 -22 22 C-21.01 22 -20.02 22 -19 22 C-19 21.01 -19 20.02 -19 19 C-17.35 18.34 -15.7 17.68 -14 17 C-13.67 14.36 -13.34 11.72 -13 9 C-12.01 9 -11.02 9 -10 9 C-9.4740625 7.329375 -9.4740625 7.329375 -8.9375 5.625 C-8.1328125 3.69140625 -8.1328125 3.69140625 -7 2 C-3.3125 0.5625 -3.3125 0.5625 0 0 Z M-8 10 C-7 12 -7 12 -7 12 Z " fill="#F3F4F5" transform="translate(126,211)"/>
<path d="M0 0 C0.33 0.99 0.66 1.98 1 3 C26.245 2.505 26.245 2.505 52 2 C51.34 3.32 50.68 4.64 50 6 C24.755 6.495 24.755 6.495 -1 7 C16.16 7 33.32 7 51 7 C51 7.66 51 8.32 51 9 C32.52 9 14.04 9 -5 9 C-3.47426795 5.18566987 -2.47253678 3.03447696 0 0 Z " fill="#004F94" transform="translate(105,245)"/>
<path d="M0 0 C1.32 0 2.64 0 4 0 C4.33 0.99 4.66 1.98 5 3 C11.93 3.495 11.93 3.495 19 4 C19 4.66 19 5.32 19 6 C19.99 6.33 20.98 6.66 22 7 C21.67 8.65 21.34 10.3 21 12 C16.71 11.67 12.42 11.34 8 11 C8 12.32 8 13.64 8 15 C11.63 15 15.26 15 19 15 C19.144375 15.94875 19.28875 16.8975 19.4375 17.875 C19.82935399 20.8934494 19.82935399 20.8934494 21 23 C16.71 22.67 12.42 22.34 8 22 C8 24.31 8 26.62 8 29 C12.62 28.67 17.24 28.34 22 28 C22.33 20.08 22.66 12.16 23 4 C23.33 4 23.66 4 24 4 C24 14.89 24 25.78 24 37 C22.02 37 20.04 37 18 37 C18 34.69 18 32.38 18 30 C14.37 30 10.74 30 7 30 C7 27.03 7 24.06 7 21 C10.63 21 14.26 21 18 21 C18 19.35 18 17.7 18 16 C14.37 16 10.74 16 7 16 C7 14.02 7 12.04 7 10 C10.63 10 14.26 10 18 10 C18 8.35 18 6.7 18 5 C12.72 5 7.44 5 2 5 C2 15.23 2 25.46 2 36 C1.01 36.495 1.01 36.495 0 37 C0 24.79 0 12.58 0 0 Z " fill="#B6B5B4" transform="translate(113,265)"/>
<path d="M0 0 C1.14088074 0.00007553 2.28176147 0.00015106 3.45721436 0.00022888 C4.68337463 0.00539017 5.90953491 0.01055145 7.17285156 0.01586914 C8.43236633 0.01728409 9.6918811 0.01869904 10.98956299 0.02015686 C14.33012775 0.02480466 17.67062378 0.03378258 21.01116943 0.04486084 C24.42313037 0.05510941 27.83509841 0.05966185 31.24707031 0.06469727 C37.93589136 0.07572576 44.62467999 0.0924635 51.31347656 0.11352539 C50.09067827 3.24665617 48.87683522 6.00621424 46.96582031 8.77758789 C46.30549805 9.74825195 46.30549805 9.74825195 45.63183594 10.73852539 C45.17615234 11.39852539 44.72046875 12.05852539 44.25097656 12.73852539 C43.34023038 14.06185364 42.43254655 15.38729605 41.52832031 16.71508789 C41.12734131 17.29597168 40.7263623 17.87685547 40.31323242 18.4753418 C39.1400679 20.25996495 39.1400679 20.25996495 38.31347656 23.11352539 C37.65347656 23.11352539 36.99347656 23.11352539 36.31347656 23.11352539 C36.06597656 23.81477539 35.81847656 24.51602539 35.56347656 25.23852539 C34.14787702 28.49440433 32.38709858 31.23721098 30.31347656 34.11352539 C29.98347656 34.11352539 29.65347656 34.11352539 29.31347656 34.11352539 C28.81847656 31.14352539 28.81847656 31.14352539 28.31347656 28.11352539 C28.97347656 28.11352539 29.63347656 28.11352539 30.31347656 28.11352539 C30.31347656 27.45352539 30.31347656 26.79352539 30.31347656 26.11352539 C30.97347656 26.11352539 31.63347656 26.11352539 32.31347656 26.11352539 C32.80847656 24.62852539 32.80847656 24.62852539 33.31347656 23.11352539 C35.37597656 22.42602539 35.37597656 22.42602539 37.31347656 22.11352539 C37.31347656 20.13352539 37.31347656 18.15352539 37.31347656 16.11352539 C38.30347656 16.11352539 39.29347656 16.11352539 40.31347656 16.11352539 C40.64347656 13.80352539 40.97347656 11.49352539 41.31347656 9.11352539 C42.30347656 8.78352539 43.29347656 8.45352539 44.31347656 8.11352539 C44.31347656 7.45352539 44.31347656 6.79352539 44.31347656 6.11352539 C44.97347656 6.11352539 45.63347656 6.11352539 46.31347656 6.11352539 C46.31347656 4.79352539 46.31347656 3.47352539 46.31347656 2.11352539 C17.60347656 2.60852539 17.60347656 2.60852539 -11.68652344 3.11352539 C-8.26475213 -0.30824592 -4.67183855 -0.01033593 0 0 Z " fill="#094B8D" transform="translate(171.6865234375,165.886474609375)"/>
<path d="M0 0 C0.99 0 1.98 0 3 0 C3 0.66 3 1.32 3 2 C2.34 2 1.68 2 1 2 C1 12.56 1 23.12 1 34 C2.65 34 4.3 34 6 34 C5.96519531 33.08476562 5.93039063 32.16953125 5.89453125 31.2265625 C5.86746094 30.03804688 5.84039062 28.84953125 5.8125 27.625 C5.77769531 26.44164062 5.74289063 25.25828125 5.70703125 24.0390625 C5.80371094 23.03617187 5.90039062 22.03328125 6 21 C6.99 20.34 7.98 19.68 9 19 C9.33 18.34 9.66 17.68 10 17 C8.68 16.67 7.36 16.34 6 16 C6 13.69 6 11.38 6 9 C11.75 8.875 11.75 8.875 14 10 C14 8.68 14 7.36 14 6 C14.99 5.67 15.98 5.34 17 5 C18.93556774 8.2517538 20.02810495 10.29737629 19.875 14.125 C18.39853748 18.976234 18.39853748 18.976234 16 21 C12.96699829 21.64107851 10.11334133 21.81951644 7 22 C7.33 24.97 7.66 27.94 8 31 C8.99 30.67 9.98 30.34 11 30 C11 31.65 11 33.3 11 35 C6.7961068 36.51340155 5.04216399 35.72030914 0 35 C0 23.45 0 11.9 0 0 Z M7 10 C7 11.65 7 13.3 7 15 C7.66 14.67 8.32 14.34 9 14 C8.67 13.01 8.34 12.02 8 11 C8.99 11 9.98 11 11 11 C11.33 11.99 11.66 12.98 12 14 C12 12.68 12 11.36 12 10 C10.35 10 8.7 10 7 10 Z " fill="#4D4B48" transform="translate(92,266)"/>
<path d="M0 0 C5.28 0 10.56 0 16 0 C16 1.65 16 3.3 16 5 C14.02 5 12.04 5 10 5 C10 13.25 10 21.5 10 30 C8.35 30 6.7 30 5 30 C5 21.75 5 13.5 5 5 C3.35 5 1.7 5 0 5 C0 3.35 0 1.7 0 0 Z " fill="#262420" transform="translate(161,270)"/>
<path d="M0 0 C2.16874252 0.50603992 3.99967627 0.99983813 6 2 C6 1.34 6 0.68 6 0 C7.32 0 8.64 0 10 0 C10.33 1.65 10.66 3.3 11 5 C8.69 5 6.38 5 4 5 C4 5.59014893 4 6.18029785 4 6.78833008 C4 15.19222005 4 23.59611003 4 32 C3.34 32 2.68 32 2 32 C1.505 34.475 1.505 34.475 1 37 C0.34 37 -0.32 37 -1 37 C-1 35.35 -1 33.7 -1 32 C-1.99 31.67 -2.98 31.34 -4 31 C-4.74513723 28.90006779 -5 27.22568901 -5 25 C-5.63903117 23.32254318 -6.30341637 21.65438613 -7 20 C-6.01 19.67 -5.02 19.34 -4 19 C-2.95550089 15.86650268 -3.06576355 15.01031744 -4 12 C-3.01 11.34 -2.02 10.68 -1 10 C0.25664978 12.90600261 1 14.79604584 1 18 C1.02698422 15.56242587 1.04683099 13.12515085 1.0625 10.6875 C1.07087891 9.99720703 1.07925781 9.30691406 1.08789062 8.59570312 C1.10307906 5.4516975 1.00193327 3.00579981 0 0 Z M3 2 C3 2.66 3 3.32 3 4 C4.65 4 6.3 4 8 4 C5.61837991 2.58614089 5.61837991 2.58614089 3 2 Z M1 19 C2 21 2 21 2 21 Z " fill="#565450" transform="translate(271,265)"/>
<path d="M0 0 C17.82 0 35.64 0 54 0 C54 0.33 54 0.66 54 1 C36.51 1 19.02 1 1 1 C6.50750204 10.17917006 11.97378111 19.18234457 18 28 C17.67 28.66 17.34 29.32 17 30 C14.20866129 29.21791649 11.55518097 28.38293093 9 27 C8 24.3125 8 24.3125 8 22 C6.68 22 5.36 22 4 22 C2.1875 19.6875 2.1875 19.6875 1 17 C1.33 16.01 1.66 15.02 2 14 C1.835 13.175 1.67 12.35 1.5 11.5 C1 9 1 9 2 6 C0.02 6 -1.96 6 -4 6 C-3.67 5.01 -3.34 4.02 -3 3 C-2.01 3.33 -1.02 3.66 0 4 C0 2.68 0 1.36 0 0 Z M8 16 C9 18 9 18 9 18 Z " fill="#F4DDD2" transform="translate(206,102)"/>
<path d="M0 0 C1.65 0 3.3 0 5 0 C5.33 0.99 5.66 1.98 6 3 C6.66 3 7.32 3 8 3 C8 3.66 8 4.32 8 5 C8.66 5 9.32 5 10 5 C10.66 7.31 11.32 9.62 12 12 C10.68 13.32 9.36 14.64 8 16 C7.34 14.35 6.68 12.7 6 11 C5.34 11 4.68 11 4 11 C4 17.27 4 23.54 4 30 C2.68 30 1.36 30 0 30 C0 20.1 0 10.2 0 0 Z " fill="#2A2824" transform="translate(257,270)"/>
<path d="M0 0 C0.66 0 1.32 0 2 0 C2.66 0.99 3.32 1.98 4 3 C4.66 2.34 5.32 1.68 6 1 C5.67 3.97 5.34 6.94 5 10 C5.99 9.67 6.98 9.34 8 9 C8.99 9 9.98 9 11 9 C10.67 13.29 10.34 17.58 10 22 C8.9275 21.979375 7.855 21.95875 6.75 21.9375 C3.85209576 21.9857984 1.71387859 22.13155885 -1 23 C-1 21.35 -1 19.7 -1 18 C-1.66 17.67 -2.32 17.34 -3 17 C-2.505 16.649375 -2.01 16.29875 -1.5 15.9375 C0.78116718 12.9909924 0.31765543 10.62127195 0 7 C-0.88064927 4.64630193 -0.88064927 4.64630193 -2 3 C-1.34 2.01 -0.68 1.02 0 0 Z M1 18 C2 20 2 20 2 20 Z " fill="#383632" transform="translate(219,280)"/>
<path d="M0 0 C2.78765765 2.5303354 4.67463495 5.39339801 6.6875 8.5625 C7.31011719 9.53316406 7.93273437 10.50382813 8.57421875 11.50390625 C10 14 10 14 10 16 C2.48958306 16.04632915 -5.02081906 16.08187214 -12.53134632 16.10362434 C-16.01875161 16.11406404 -19.50605916 16.12822649 -22.9934082 16.15087891 C-27.00212546 16.17675512 -31.01073997 16.18647123 -35.01953125 16.1953125 C-36.27272659 16.20563507 -37.52592194 16.21595764 -38.8170929 16.22659302 C-40.55855843 16.22681961 -40.55855843 16.22681961 -42.33520508 16.22705078 C-43.87075798 16.23371262 -43.87075798 16.23371262 -45.43733215 16.24050903 C-48 16 -48 16 -51 14 C-35.16 14 -19.32 14 -3 14 C-3 13.34 -3 12.68 -3 12 C-1.02 11.67 0.96 11.34 3 11 C2.32829194 7.1936543 1.27253436 3.64793184 0 0 Z " fill="#D25727" transform="translate(295,140)"/>
<path d="M0 0 C0.99 0.33 1.98 0.66 3 1 C2.7421875 3.35546875 2.7421875 3.35546875 2 6 C0.3203125 7.23828125 0.3203125 7.23828125 -1.875 8.3125 C-9.31755717 12.80679781 -13.44148269 20.8256606 -18 28 C-20.475 27.01 -20.475 27.01 -23 26 C-22.01 22.535 -22.01 22.535 -21 19 C-19.35 19 -17.7 19 -16 19 C-16 15.7 -16 12.4 -16 9 C-12.1273408 8.0318352 -8.96388638 7.92377142 -5 8 C-4.67 6.35 -4.34 4.7 -4 3 C-3.34 3 -2.68 3 -2 3 C-2 2.34 -2 1.68 -2 1 C-1.34 0.67 -0.68 0.34 0 0 Z " fill="#EFF2F3" transform="translate(160,162)"/>
<path d="M0 0 C18.81 0 37.62 0 57 0 C57.495 2.475 57.495 2.475 58 5 C56.37873325 7.03697617 54.71140469 9.03814584 53 11 C53 12.32 53 13.64 53 15 C52.01 15.33 51.02 15.66 50 16 C50 16.99 50 17.98 50 19 C49.01 19 48.02 19 47 19 C46.855625 19.639375 46.71125 20.27875 46.5625 20.9375 C45.8396902 23.5878026 45.00346523 23.99653477 43 26 C42.01 26 41.02 26 40 26 C41.68913332 20.95270876 44.59016895 16.78110077 47.5 12.375 C47.99886719 11.611875 48.49773437 10.84875 49.01171875 10.0625 C50.99445083 7.03258771 52.9914297 4.01285544 55 1 C36.85 1 18.7 1 0 1 C0 0.67 0 0.34 0 0 Z " fill="#E5F0DD" transform="translate(250,166)"/>
<path d="M0 0 C1.65 0 3.3 0 5 0 C5 9.9 5 19.8 5 30 C3.35 30 1.7 30 0 30 C0 20.1 0 10.2 0 0 Z " fill="#1F1E19" transform="translate(245,270)"/>
<path d="M0 0 C-0.33 2.97 -0.66 5.94 -1 9 C1.475 9.99 1.475 9.99 4 11 C4 12.65 4 14.3 4 16 C3.25234375 15.98839844 2.5046875 15.97679687 1.734375 15.96484375 C0.74953125 15.95582031 -0.2353125 15.94679688 -1.25 15.9375 C-2.22453125 15.92589844 -3.1990625 15.91429687 -4.203125 15.90234375 C-6.93764694 15.88712492 -6.93764694 15.88712492 -9.234375 16.62890625 C-9.81703125 16.75136719 -10.3996875 16.87382812 -11 17 C-13 15 -13 15 -13.1953125 11.9609375 C-13.17210937 10.77757812 -13.14890625 9.59421875 -13.125 8.375 C-13.10695312 7.18648438 -13.08890625 5.99796875 -13.0703125 4.7734375 C-13.04710937 3.85820312 -13.02390625 2.94296875 -13 2 C-12.01 2.495 -12.01 2.495 -11 3 C-11 4.98 -11 6.96 -11 9 C-8.12579877 6.28395285 -8.12579877 6.28395285 -6 3 C-6 2.01 -6 1.02 -6 0 C-2.25 -1.125 -2.25 -1.125 0 0 Z M-4 3 C-3 5 -3 5 -3 5 Z M-10 9 C-9 11 -9 11 -9 11 Z M-9 11 C-8 13 -8 13 -8 13 Z " fill="#484542" transform="translate(156,286)"/>
<path d="M0 0 C0.66 0.33 1.32 0.66 2 1 C4.67590878 1.1449871 7.32984689 1.23427487 10.0078125 1.28125 C11.20698807 1.30886414 11.20698807 1.30886414 12.4303894 1.33703613 C14.99518379 1.3958541 17.56004758 1.44856636 20.125 1.5 C22.66852088 1.55164264 25.21196051 1.60477723 27.75534058 1.66296387 C29.33804068 1.69914982 30.92083024 1.73167947 32.50369263 1.7598877 C37.40027816 1.87145632 42.14847087 2.32154129 47 3 C47 3.66 47 4.32 47 5 C30.83 5 14.66 5 -2 5 C-2 3.68 -2 2.36 -2 1 C-1.34 0.67 -0.68 0.34 0 0 Z " fill="#024B9E" transform="translate(108,243)"/>
<path d="M0 0 C5.94 0 11.88 0 18 0 C18 2.31 18 4.62 18 7 C16.02 7 14.04 7 12 7 C12.33 13.93 12.66 20.86 13 28 C14.32 27.67 15.64 27.34 17 27 C17.33 28.32 17.66 29.64 18 31 C19.65 31 21.3 31 23 31 C23.66 29.68 24.32 28.36 25 27 C25.66 27 26.32 27 27 27 C27 28.65 27 30.3 27 32 C24.0294763 32.99017457 22.09363586 33.10393262 19 33.0625 C17.700625 33.04896484 17.700625 33.04896484 16.375 33.03515625 C15.59125 33.02355469 14.8075 33.01195312 14 33 C13.01 33 12.02 33 11 33 C9.02 32.67 7.04 32.34 5 32 C5 23.75 5 15.5 5 7 C3.35 7 1.7 7 0 7 C0 4.69 0 2.38 0 0 Z M1 1 C1 2.65 1 4.3 1 6 C2.65 6 4.3 6 6 6 C6 14.25 6 22.5 6 31 C7.65 31 9.3 31 11 31 C11 22.75 11 14.5 11 6 C12.98 6 14.96 6 17 6 C17 4.35 17 2.7 17 1 C11.72 1 6.44 1 1 1 Z " fill="#7A7976" transform="translate(160,269)"/>
<path d="M0 0 C1.32 0.33 2.64 0.66 4 1 C4 2.65 4 4.3 4 6 C4.99 6.33 5.98 6.66 7 7 C6.67 9.97 6.34 12.94 6 16 C3.03 16 0.06 16 -3 16 C-3 14.02 -3 12.04 -3 10 C-8.94 10.495 -8.94 10.495 -15 11 C-15 10.34 -15 9.68 -15 9 C-11.7 9 -8.4 9 -5 9 C-5 7.35 -5 5.7 -5 4 C-4.01 3.67 -3.02 3.34 -2 3 C-1.67 3.66 -1.34 4.32 -1 5 C-0.67 3.35 -0.34 1.7 0 0 Z M2 2 C3 5 3 5 3 5 Z M4 8 C5 10 5 10 5 10 Z " fill="#848280" transform="translate(200,285)"/>
<path d="M0 0 C1.32 0 2.64 0 4 0 C4.66 2.31 5.32 4.62 6 7 C5.01 7.33 4.02 7.66 3 8 C2.67 7.34 2.34 6.68 2 6 C0.35 5.67 -1.3 5.34 -3 5 C-3 14.9 -3 24.8 -3 35 C-1.68 35 -0.36 35 1 35 C1 28.73 1 22.46 1 16 C1.66 16 2.32 16 3 16 C4.13480527 19.60993172 4.10015767 22.9842327 4.0625 26.75 C4.05347656 27.92046875 4.04445313 29.0909375 4.03515625 30.296875 C4.02355469 31.18890625 4.01195312 32.0809375 4 33 C4.66 33.33 5.32 33.66 6 34 C5.67 34.99 5.34 35.98 5 37 C2.03 36.67 -0.94 36.34 -4 36 C-4 25.44 -4 14.88 -4 4 C-2.68 3.67 -1.36 3.34 0 3 C0 2.01 0 1.02 0 0 Z " fill="#848381" transform="translate(260,265)"/>
<path d="M0 0 C1.48828125 1.26953125 1.48828125 1.26953125 3 3 C3.1875 6.6875 3.1875 6.6875 3 10 C1.6078125 10.6496875 1.6078125 10.6496875 0.1875 11.3125 C-2.55321188 12.76346511 -3.92926204 13.83513759 -6 16 C-6.66 16.268125 -7.32 16.53625 -8 16.8125 C-10.30486641 17.89717929 -10.30486641 17.89717929 -11.0625 20.875 C-13.71721297 25.15679511 -16.67322761 25.8254055 -21.30859375 27.43359375 C-24.01979881 28.00416666 -25.42914944 27.92988212 -28 27 C-27.33613281 26.75765625 -26.67226563 26.5153125 -25.98828125 26.265625 C-25.10527344 25.93046875 -24.22226562 25.5953125 -23.3125 25.25 C-22.00732422 24.76273438 -22.00732422 24.76273438 -20.67578125 24.265625 C-13.70858128 20.97019027 -10.32401794 15.49397469 -6.1875 9.25 C-5.59001953 8.36183594 -4.99253906 7.47367188 -4.37695312 6.55859375 C-2.91084451 4.37702412 -1.45218665 2.19085096 0 0 Z M-3 8 C-3 11 -3 11 -3 11 Z " fill="#E8F2E3" transform="translate(289,192)"/>
<path d="M0 0 C0 4.6960524 -2.79490109 7.77716913 -5.3125 11.625 C-5.81201172 12.41390625 -6.31152344 13.2028125 -6.82617188 14.015625 C-7.31279297 14.76585937 -7.79941406 15.51609375 -8.30078125 16.2890625 C-8.74591064 16.97693848 -9.19104004 17.66481445 -9.6496582 18.37353516 C-11 20 -11 20 -14 21 C-14.99 21 -15.98 21 -17 21 C-17 19.02 -17 17.04 -17 15 C-16.01 15 -15.02 15 -14 15 C-14 14.01 -14 13.02 -14 12 C-13.01 11.67 -12.02 11.34 -11 11 C-10.67 9.35 -10.34 7.7 -10 6 C-8.68 5.67 -7.36 5.34 -6 5 C-6 3.68 -6 2.36 -6 1 C-4.02 0.67 -2.04 0.34 0 0 Z M-11 15 C-10 17 -10 17 -10 17 Z " fill="#EEF1F3" transform="translate(140,190)"/>
<path d="M0 0 C0.33 0 0.66 0 1 0 C1 3.63 1 7.26 1 11 C-0.32 11.33 -1.64 11.66 -3 12 C-2.67 13.98 -2.34 15.96 -2 18 C-3.98 18.33 -5.96 18.66 -8 19 C-8.33 17.68 -8.66 16.36 -9 15 C-9.33 18.63 -9.66 22.26 -10 26 C-10.33 26 -10.66 26 -11 26 C-11 21.71 -11 17.42 -11 13 C-9.68 13 -8.36 13 -7 13 C-7.66 11.68 -8.32 10.36 -9 9 C-7.68 9 -6.36 9 -5 9 C-4.67 7.02 -4.34 5.04 -4 3 C-2.68 3.33 -1.36 3.66 0 4 C0 2.68 0 1.36 0 0 Z " fill="#302F2A" transform="translate(153,274)"/>
<path d="M0 0 C17.16 0 34.32 0 52 0 C52 0.66 52 1.32 52 2 C34.84 2 17.68 2 0 2 C0 1.34 0 0.68 0 0 Z " fill="#FCFCFC" transform="translate(103,256)"/>
<path d="M0 0 C1.32 0 2.64 0 4 0 C4 8.25 4 16.5 4 25 C2.68 25 1.36 25 0 25 C0 16.75 0 8.5 0 0 Z " fill="#1E1B17" transform="translate(167,275)"/>
<path d="M0 0 C7.31091757 -0.06972114 14.62176265 -0.12292288 21.93294621 -0.15543652 C25.32838302 -0.1710469 28.72359121 -0.19219932 32.11889648 -0.22631836 C36.02845459 -0.26535614 39.93792232 -0.27974753 43.84765625 -0.29296875 C45.05833267 -0.30845261 46.26900909 -0.32393646 47.51637268 -0.33988953 C53.79659434 -0.3411371 58.46269293 -0.06371744 64 3 C60.28742057 4.23752648 59.51126737 3.43482947 56 2 C53.47806079 1.71494006 53.47806079 1.71494006 50.8425293 1.77294922 C49.84186935 1.77310028 48.84120941 1.77325134 47.81022644 1.77340698 C46.7423439 1.78372955 45.67446136 1.79405212 44.57421875 1.8046875 C43.47149124 1.8075174 42.36876373 1.81034729 41.23262024 1.81326294 C37.71746886 1.82444019 34.20257411 1.84954063 30.6875 1.875 C28.30143598 1.88503296 25.91536795 1.89415826 23.52929688 1.90234375 C17.68611065 1.92437151 11.84307366 1.95782486 6 2 C6.18433594 2.61359375 6.36867187 3.2271875 6.55859375 3.859375 C7.11922283 6.57817796 6.40936788 7.6786882 5 10 C4.16121545 8.71186658 3.32913217 7.41936744 2.5 6.125 C2.0359375 5.40570313 1.571875 4.68640625 1.09375 3.9453125 C0 2 0 2 0 0 Z " fill="#C9481D" transform="translate(207,103)"/>
<path d="M0 0 C6.09511968 0.1119055 6.09511968 0.1119055 8.42138672 2.39501953 C9.7054354 4.23628728 10.83766954 6.10575816 11.9375 8.0625 C12.53401367 9.05733398 12.53401367 9.05733398 13.14257812 10.07226562 C14.11602768 11.70250042 15.06093654 13.3497184 16 15 C15.01 15.495 15.01 15.495 14 16 C11.875 15.0625 11.875 15.0625 10 14 C10 12.68 10 11.36 10 10 C5.02093741 9.24572703 5.02093741 9.24572703 0 9 C0 6.03 0 3.06 0 0 Z " fill="#F7F4F0" transform="translate(218,131)"/>
<path d="M0 0 C0.66 0 1.32 0 2 0 C1.48090655 3.98199321 0.60871392 5.7818602 -2.25 8.5625 C-6.75650181 13.38855375 -10.28765191 18.71644104 -13.875 24.25 C-14.73206543 25.5639978 -14.73206543 25.5639978 -15.60644531 26.90454102 C-18.67421586 31.56376492 -18.67421586 31.56376492 -20.85986328 36.65917969 C-22 39 -22 39 -24.625 40.3125 C-25.40875 40.539375 -26.1925 40.76625 -27 41 C-22.17369694 33.38462733 -17.29735649 25.80361616 -12.375 18.25 C-11.73304688 17.26128906 -11.09109375 16.27257812 -10.4296875 15.25390625 C-3.11015055 4.01961696 -3.11015055 4.01961696 0 0 Z " fill="#1E5283" transform="translate(146,183)"/>
<path d="M0 0 C0.66 0 1.32 0 2 0 C2 1.32 2 2.64 2 4 C21.14 4.33 40.28 4.66 60 5 C59.67 5.66 59.34 6.32 59 7 C38.87 7 18.74 7 -2 7 C-1.34 6.67 -0.68 6.34 0 6 C0 4.02 0 2.04 0 0 Z " fill="#CCDBE7" transform="translate(164,160)"/>
<path d="M0 0 C0.99 0 1.98 0 3 0 C3 0.66 3 1.32 3 2 C2.34 2 1.68 2 1 2 C1 12.56 1 23.12 1 34 C2.65 34 4.3 34 6 34 C6 29.71 6 25.42 6 21 C8.31 21 10.62 21 13 21 C13 21.33 13 21.66 13 22 C11.02 22 9.04 22 7 22 C7.33 24.97 7.66 27.94 8 31 C8.99 30.67 9.98 30.34 11 30 C11 31.65 11 33.3 11 35 C6.7961068 36.51340155 5.04216399 35.72030914 0 35 C0 23.45 0 11.9 0 0 Z " fill="#C7C7C6" transform="translate(92,266)"/>
<path d="M0 0 C0.99 0.33 1.98 0.66 3 1 C2.443125 1.969375 1.88625 2.93875 1.3125 3.9375 C-1.16438467 8.26982873 -3.58405497 12.6334764 -6 17 C-6.66 17 -7.32 17 -8 17 C-8.2475 17.70125 -8.495 18.4025 -8.75 19.125 C-10.16559954 22.38087894 -11.92637798 25.12368559 -14 28 C-14.33 28 -14.66 28 -15 28 C-15.33 26.02 -15.66 24.04 -16 22 C-15.34 22 -14.68 22 -14 22 C-14 21.34 -14 20.68 -14 20 C-13.34 20 -12.68 20 -12 20 C-11.67 19.01 -11.34 18.02 -11 17 C-8.9375 16.3125 -8.9375 16.3125 -7 16 C-7 14.02 -7 12.04 -7 10 C-6.01 10 -5.02 10 -4 10 C-3.67 7.69 -3.34 5.38 -3 3 C-2.01 2.67 -1.02 2.34 0 2 C0 1.34 0 0.68 0 0 Z " fill="#1A5591" transform="translate(216,172)"/>
<path d="M0 0 C0.33 0 0.66 0 1 0 C1 1.65 1 3.3 1 5 C0.01 5 -0.98 5 -2 5 C-1.67 5.66 -1.34 6.32 -1 7 C16.16 7 33.32 7 51 7 C51 7.66 51 8.32 51 9 C32.52 9 14.04 9 -5 9 C-3.48298532 5.20746329 -2.53395246 2.97463984 0 0 Z " fill="#0F467F" transform="translate(105,245)"/>
<path d="M0 0 C1.11544282 3.34632847 0.67217232 4.63913839 0 8 C0.33 8.99 0.66 9.98 1 11 C-2.63 11.33 -6.26 11.66 -10 12 C-10 10.02 -10 8.04 -10 6 C-13.3 5.67 -16.6 5.34 -20 5 C-20 7.31 -20 9.62 -20 12 C-20.99 11.67 -21.98 11.34 -23 11 C-22.34 8.69 -21.68 6.38 -21 4 C-16.71 4 -12.42 4 -8 4 C-7.67 4.99 -7.34 5.98 -7 7 C-4.99983534 8.20882096 -4.99983534 8.20882096 -3 9 C-3.061875 7.88625 -3.12375 6.7725 -3.1875 5.625 C-3.0946875 3.830625 -3.0946875 3.830625 -3 2 C-2.01 1.34 -1.02 0.68 0 0 Z M-9 7 C-8 9 -8 9 -8 9 Z " fill="#E4E3E3" transform="translate(312,290)"/>
<path d="M0 0 C5.53846154 -0.36923077 5.53846154 -0.36923077 7.875 1.5 C8.24625 1.995 8.6175 2.49 9 3 C8.01 3.33 7.02 3.66 6 4 C6.01571045 4.95890137 6.0314209 5.91780273 6.04760742 6.90576172 C6.1018392 10.45775986 6.13632497 14.00972131 6.16479492 17.56201172 C6.17989711 19.10048574 6.20038046 20.63891661 6.22631836 22.17724609 C6.26264074 24.38650141 6.27971119 26.59518848 6.29296875 28.8046875 C6.30845261 29.49432587 6.32393646 30.18396423 6.33988953 30.89450073 C6.34057617 32.83544922 6.34057617 32.83544922 6 36 C5.01 36.66 4.02 37.32 3 38 C2.34 37.67 1.68 37.34 1 37 C1.66 35.68 2.32 34.36 3 33 C3.33 33 3.66 33 4 33 C4 24.09 4 15.18 4 6 C3.34 5.67 2.68 5.34 2 5 C2 4.34 2 3.68 2 3 C1.01 2.67 0.02 2.34 -1 2 C-0.67 1.34 -0.34 0.68 0 0 Z " fill="#C8C8C6" transform="translate(250,265)"/>
<path d="M0 0 C3.63 0 7.26 0 11 0 C7 2 7 2 4 2 C4 4.97 4 7.94 4 11 C3.01 11.495 3.01 11.495 2 12 C1.67 17.94 1.34 23.88 1 30 C0.67 30 0.34 30 0 30 C0 20.1 0 10.2 0 0 Z " fill="#1B1A14" transform="translate(138,270)"/>
<path d="M0 0 C0.66 0.33 1.32 0.66 2 1 C0.06901898 4.10826664 -1.87089582 7.2108601 -3.8125 10.3125 C-4.35970703 11.19357422 -4.90691406 12.07464844 -5.47070312 12.98242188 C-6.00244141 13.82998047 -6.53417969 14.67753906 -7.08203125 15.55078125 C-7.56905518 16.33106689 -8.0560791 17.11135254 -8.55786133 17.9152832 C-9.89638605 19.85021847 -11.2793416 21.40431809 -13 23 C-12.47731534 20.23723823 -11.89130413 17.6739124 -11 15 C-10.34 15 -9.68 15 -9 15 C-8.67 12.36 -8.34 9.72 -8 7 C-7.01 6.67 -6.02 6.34 -5 6 C-3.79117904 3.99983534 -3.79117904 3.99983534 -3 2 C-2.01 2 -1.02 2 0 2 C0 1.34 0 0.68 0 0 Z " fill="#74BD44" transform="translate(294,181)"/>
<path d="M0 0 C1.53888382 0.00666183 1.53888382 0.00666183 3.1088562 0.01345825 C4.85043503 0.01368484 4.85043503 0.01368484 6.62719727 0.01391602 C7.88555389 0.02423859 9.14391052 0.03456116 10.44039917 0.04519653 C11.72493988 0.04802643 13.00948059 0.05085632 14.33294678 0.05377197 C17.74921434 0.06141094 21.16531204 0.08106151 24.58151245 0.10317993 C28.0670034 0.12363279 31.55252177 0.13277248 35.03805542 0.14285278 C41.87796898 0.16430729 48.71776967 0.19844632 55.55758667 0.24050903 C54.89758667 1.56050903 54.23758667 2.88050903 53.55758667 4.24050903 C53.06258667 2.75550903 53.06258667 2.75550903 52.55758667 1.24050903 C24.34258667 1.73550903 24.34258667 1.73550903 -4.44241333 2.24050903 C-2.44241333 0.24050903 -2.44241333 0.24050903 0 0 Z " fill="#84B95B" transform="translate(249.44241333007813,166.75949096679688)"/>
<path d="M0 0 C2.32883474 3.4932521 2 4.92922578 2 9 C12.56 9 23.12 9 34 9 C34 9.33 34 9.66 34 10 C28.927993 10.04942365 23.85612606 10.08573068 18.78393555 10.10986328 C17.05832477 10.11992326 15.33273105 10.13357276 13.60717773 10.15087891 C11.1273986 10.17512754 8.64784477 10.18648301 6.16796875 10.1953125 C5.39599655 10.20563507 4.62402435 10.21595764 3.82865906 10.22659302 C0.00718524 10.22739422 -1.74136107 10.17242595 -5 8 C-3.35 5.36 -1.7 2.72 0 0 Z " fill="#004F91" transform="translate(111,235)"/>
<path d="M0 0 C0.33 0 0.66 0 1 0 C1 10.89 1 21.78 1 33 C-0.98 33 -2.96 33 -5 33 C-5 30.03 -5 27.06 -5 24 C-3.68 24 -2.36 24 -1 24 C-0.67 16.08 -0.34 8.16 0 0 Z " fill="#ECECEB" transform="translate(136,269)"/>
<path d="M0 0 C0.99 0.495 0.99 0.495 2 1 C1.9175 1.9075 1.835 2.815 1.75 3.75 C1.72377974 7.02517518 1.72377974 7.02517518 3.625 9.3125 C6.43958033 11.31233339 8.59319587 11.69029053 12 12 C11.67 10.35 11.34 8.7 11 7 C12.98 7.66 14.96 8.32 17 9 C17 10.65 17 12.3 17 14 C16.25234375 13.98839844 15.5046875 13.97679687 14.734375 13.96484375 C13.74953125 13.95582031 12.7646875 13.94679688 11.75 13.9375 C10.77546875 13.92589844 9.8009375 13.91429687 8.796875 13.90234375 C6.06235306 13.88712492 6.06235306 13.88712492 3.765625 14.62890625 C2.89164063 14.81259766 2.89164063 14.81259766 2 15 C0 13 0 13 -0.1953125 9.9609375 C-0.17210937 8.77757812 -0.14890625 7.59421875 -0.125 6.375 C-0.10695312 5.18648438 -0.08890625 3.99796875 -0.0703125 2.7734375 C-0.04710937 1.85820312 -0.02390625 0.94296875 0 0 Z " fill="#D6D6D5" transform="translate(143,288)"/>
<path d="M0 0 C1.32 0 2.64 0 4 0 C4.33 0.99 4.66 1.98 5 3 C9.29 3.33 13.58 3.66 18 4 C18 4.33 18 4.66 18 5 C12.72 5 7.44 5 2 5 C2 15.23 2 25.46 2 36 C1.01 36.495 1.01 36.495 0 37 C0 24.79 0 12.58 0 0 Z " fill="#959593" transform="translate(113,265)"/>
<path d="M0 0 C18.81 0 37.62 0 57 0 C56.34 1.32 55.68 2.64 55 4 C54.505 2.515 54.505 2.515 54 1 C36.18 1 18.36 1 0 1 C0 0.67 0 0.34 0 0 Z " fill="#194D7C" transform="translate(166,166)"/>
<path d="M0 0 C2.16874252 0.50603992 3.99967627 0.99983813 6 2 C6 1.34 6 0.68 6 0 C7.32 0 8.64 0 10 0 C10.33 1.65 10.66 3.3 11 5 C8.69 5 6.38 5 4 5 C3.67 11.27 3.34 17.54 3 24 C0.94030135 20.91045203 0.75859508 20.34575677 0.83984375 16.875 C0.85080078 16.08609375 0.86175781 15.2971875 0.87304688 14.484375 C0.89431641 13.66453125 0.91558594 12.8446875 0.9375 12 C0.97199101 10.37509008 1.00211783 8.75008016 1.02734375 7.125 C1.04531006 6.40570313 1.06327637 5.68640625 1.08178711 4.9453125 C1.08047841 2.78127156 1.08047841 2.78127156 0 0 Z M3 2 C3 2.66 3 3.32 3 4 C4.65 4 6.3 4 8 4 C5.61837991 2.58614089 5.61837991 2.58614089 3 2 Z " fill="#C3C2C2" transform="translate(271,265)"/>
<path d="M0 0 C0.66 0 1.32 0 2 0 C2 1.32 2 2.64 2 4 C2.99 3.34 3.98 2.68 5 2 C5.51495715 4.05982859 6.02686964 6.11755467 6.5 8.1875 C6.84109624 10.00563141 6.84109624 10.00563141 8 11 C8.04063832 12.66617115 8.042721 14.33388095 8 16 C6.35 16 4.7 16 3 16 C3 13.69 3 11.38 3 9 C2.01 9 1.02 9 0 9 C-0.66 9 -1.32 9 -2 9 C-1.855625 8.443125 -1.71125 7.88625 -1.5625 7.3125 C-0.97230872 4.88615805 -0.476571 2.45093655 0 0 Z M4 13 C5 15 5 15 5 15 Z " fill="#63615D" transform="translate(226,281)"/>
<path d="M0 0 C0.33 0 0.66 0 1 0 C1.33 1.65 1.66 3.3 2 5 C2.66 3.68 3.32 2.36 4 1 C4.07654536 5.51617599 4.10228696 9.59085217 3 14 C1.35 14 -0.3 14 -2 14 C-1.85970581 11.8537974 -1.71261836 9.70803782 -1.5625 7.5625 C-1.48128906 6.36753906 -1.40007812 5.17257812 -1.31640625 3.94140625 C-1 1 -1 1 0 0 Z " fill="#262421" transform="translate(210,286)"/>
<path d="M0 0 C0.33 0 0.66 0 1 0 C1 5.28 1 10.56 1 16 C0.34 16 -0.32 16 -1 16 C-1.33 17.32 -1.66 18.64 -2 20 C-2.99 20 -3.98 20 -5 20 C-4.54273352 17.86608974 -4.05870034 16.10639437 -3 14.1875 C-1.63308572 11.19737502 -1.37462564 8.24675551 -1 5 C-1.66 4.67 -2.32 4.34 -3 4 C-2.02727325 2.64664105 -1.0260734 1.31337396 0 0 Z " fill="#FAFAFA" transform="translate(186,225)"/>
<path d="M0 0 C0.99 0 1.98 0 3 0 C3 0.99 3 1.98 3 3 C2.01 3.495 2.01 3.495 1 4 C0.67 4.99 0.34 5.98 0 7 C3.12197478 5.6910428 3.12197478 5.6910428 5 3 C5.66 3 6.32 3 7 3 C5.45991675 6.46518731 3.65074056 9.27562776 1 12 C-2.25 12.8125 -2.25 12.8125 -5 13 C-4.01 12.34 -3.02 11.68 -2 11 C-1.95679753 8.66706666 -1.95977609 6.3329866 -2 4 C-1 1.5625 -1 1.5625 0 0 Z " fill="#72BE45" transform="translate(273,202)"/>
<path d="M0 0 C0.66 0.33 1.32 0.66 2 1 C2 1.99 2 2.98 2 4 C3.65 4 5.3 4 7 4 C7.66 2.68 8.32 1.36 9 0 C9.66 0 10.32 0 11 0 C11 1.65 11 3.3 11 5 C8.0294763 5.99017457 6.09363586 6.10393262 3 6.0625 C1.700625 6.04896484 1.700625 6.04896484 0.375 6.03515625 C-0.40875 6.02355469 -1.1925 6.01195312 -2 6 C-2.99 6 -3.98 6 -5 6 C-4.1875 3.5625 -4.1875 3.5625 -3 1 C-2.01 0.67 -1.02 0.34 0 0 Z " fill="#C6C5C4" transform="translate(176,296)"/>
<path d="M0 0 C0.33 0 0.66 0 1 0 C1 1.65 1 3.3 1 5 C1.66 5.33 2.32 5.66 3 6 C2.01 6 1.02 6 0 6 C-0.33 8.31 -0.66 10.62 -1 13 C-1.66 13 -2.32 13 -3 13 C-3.33 14.32 -3.66 15.64 -4 17 C-4.33 16.34 -4.66 15.68 -5 15 C-4.67 14.01 -4.34 13.02 -4 12 C-4.66 11.67 -5.32 11.34 -6 11 C-5.34 8.69 -4.68 6.38 -4 4 C-3.01 4 -2.02 4 -1 4 C-0.67 2.68 -0.34 1.36 0 0 Z M-3 7 C-2 9 -2 9 -2 9 Z M-4 10 C-3 12 -3 12 -3 12 Z " fill="#ADADAB" transform="translate(292,271)"/>
<path d="M0 0 C0.33 0 0.66 0 1 0 C1 6.6 1 13.2 1 20 C-0.32 20 -1.64 20 -3 20 C-3 13.73 -3 7.46 -3 1 C-2.67 1 -2.34 1 -2 1 C-2 6.28 -2 11.56 -2 17 C-1.34 17 -0.68 17 0 17 C0 11.39 0 5.78 0 0 Z " fill="#1A1816" transform="translate(260,280)"/>
<path d="M0 0 C4.28904235 1.5885342 6.32345526 4.43127368 9 8 C9 8.66 9 9.32 9 10 C7.68 10 6.36 10 5 10 C4.67 9.01 4.34 8.02 4 7 C2.68 7.33 1.36 7.66 0 8 C0.66 6.35 1.32 4.7 2 3 C1.01 3 0.02 3 -1 3 C-0.67 2.01 -0.34 1.02 0 0 Z " fill="#D84E1B" transform="translate(272,108)"/>
<path d="M0 0 C0.99 0 1.98 0 3 0 C4.125 7.75 4.125 7.75 3 10 C0.525 9.01 0.525 9.01 -2 8 C-1.125 1.125 -1.125 1.125 0 0 Z " fill="#34322F" transform="translate(306,289)"/>
<path d="M0 0 C1.11393093 3.34179279 0.75376997 4.64991123 0 8 C0 8.99 0 9.98 0 11 C-3 13 -3 13 -5.1875 12.625 C-5.785625 12.41875 -6.38375 12.2125 -7 12 C-5.44298069 7.32894208 -2.91552627 3.91294315 0 0 Z " fill="#76C04B" transform="translate(226,188)"/>
<path d="M0 0 C1.5 1.0625 1.5 1.0625 3 3 C3.1875 6.6875 3.1875 6.6875 3 10 C1.35 10.33 -0.3 10.66 -2 11 C-3.35384615 4.6 -3.35384615 4.6 -1.5625 1.5625 C-1.046875 1.046875 -0.53125 0.53125 0 0 Z " fill="#F4F8F1" transform="translate(289,192)"/>
<path d="M0 0 C2.93232634 2.6390937 5.02413919 5.59334344 7 9 C7 10.65 7 12.3 7 14 C3.7 14 0.4 14 -3 14 C-3 13.34 -3 12.68 -3 12 C-1.02 11.67 0.96 11.34 3 11 C2.32829194 7.1936543 1.27253436 3.64793184 0 0 Z " fill="#DE4A17" transform="translate(295,140)"/>
<path d="M0 0 C0.66 0.33 1.32 0.66 2 1 C3.28571429 7.42857143 3.28571429 7.42857143 2 10 C0.35 10 -1.3 10 -3 10 C-3.36923077 3.47692308 -3.36923077 3.47692308 -1.5 1.0625 C-1.005 0.711875 -0.51 0.36125 0 0 Z " fill="#32312E" transform="translate(181,290)"/>
<path d="M0 0 C0.99 0.99 1.98 1.98 3 3 C1.81819916 8.02265357 0.55007718 11.0949151 -3 15 C-3.66 13.35 -4.32 11.7 -5 10 C-4.01 9.67 -3.02 9.34 -2 9 C-0.74865147 6.17045475 -0.74865147 6.17045475 -1.5625 3.9375 C-1.706875 3.298125 -1.85125 2.65875 -2 2 C-1.34 1.34 -0.68 0.68 0 0 Z " fill="#6E6A69" transform="translate(269,275)"/>
<path d="M0 0 C3.63 0 7.26 0 11 0 C11 0.99 11 1.98 11 3 C9.02 3 7.04 3 5 3 C5 4.98 5 6.96 5 9 C4.54625 8.525625 4.0925 8.05125 3.625 7.5625 C2.06741796 5.90972192 2.06741796 5.90972192 0 5 C0.66 4.01 1.32 3.02 2 2 C1.34 1.34 0.68 0.68 0 0 Z " fill="#F4F4F4" transform="translate(207,265)"/>
<path d="M0 0 C0.84119973 2.39957614 1.11193544 3.64922558 0.328125 6.10546875 C-0.02765625 6.79253906 -0.3834375 7.47960937 -0.75 8.1875 C-1.26820313 9.22970703 -1.26820313 9.22970703 -1.796875 10.29296875 C-3 12 -3 12 -6 13 C-5.67 9.37 -5.34 5.74 -5 2 C-4.34 2 -3.68 2 -3 2 C-2.67 2.66 -2.34 3.32 -2 4 C-1.34 2.68 -0.68 1.36 0 0 Z M-3 5 C-2 7 -2 7 -2 7 Z M-4 8 C-3 10 -3 10 -3 10 Z " fill="#D8D8D7" transform="translate(286,289)"/>
<path d="M0 0 C1.11544282 3.34632847 0.67217232 4.63913839 0 8 C0.33 8.99 0.66 9.98 1 11 C-1.64 11 -4.28 11 -7 11 C-7 10.01 -7 9.02 -7 8 C-5.68 8.33 -4.36 8.66 -3 9 C-3.061875 7.88625 -3.12375 6.7725 -3.1875 5.625 C-3.125625 4.42875 -3.06375 3.2325 -3 2 C-2.01 1.34 -1.02 0.68 0 0 Z " fill="#949492" transform="translate(312,290)"/>
<path d="M0 0 C3.96 0 7.92 0 12 0 C11.34 1.32 10.68 2.64 10 4 C6.7 3.67 3.4 3.34 0 3 C0 2.01 0 1.02 0 0 Z " fill="#F8F8F8" transform="translate(123,265)"/>
<path d="M0 0 C1.4540625 0.0309375 1.4540625 0.0309375 2.9375 0.0625 C2.1875 3 2.1875 3 0.9375 6.0625 C-1.125 7 -1.125 7 -3.0625 7.0625 C-4.0625 6.0625 -4.0625 6.0625 -4.1875 3.5625 C-4.00295237 -0.12845252 -3.76342282 0.07680455 0 0 Z " fill="#FAFAFA" transform="translate(148.0625,169.9375)"/>
<path d="M0 0 C4.23431576 3.60700972 6.4692099 8.14586161 9 13 C7.35 13 5.7 13 4 13 C3.67 10.36 3.34 7.72 3 5 C2.01 4.67 1.02 4.34 0 4 C0 2.68 0 1.36 0 0 Z " fill="#D4552C" transform="translate(286,126)"/>
<path d="M0 0 C0.99 0.33 1.98 0.66 3 1 C3 3.31 3 5.62 3 8 C1.02 8 -0.96 8 -3 8 C-1.125 2.25 -1.125 2.25 0 0 Z " fill="#2F2F2B" transform="translate(286,293)"/>
<path d="M0 0 C0.66 0 1.32 0 2 0 C4 3 4 3 3.8125 5.5625 C3 8 3 8 0 10 C-1.00099189 6.4965284 -1.70539953 3.41079907 0 0 Z " fill="#282420" transform="translate(219,280)"/>
<path d="M0 0 C1.65 0.33 3.3 0.66 5 1 C4.67 3.97 4.34 6.94 4 10 C3.01 9.67 2.02 9.34 1 9 C0.45627049 5.94152152 0 3.11227195 0 0 Z " fill="#F3F3F3" transform="translate(198,275)"/>
<path d="M0 0 C0.33 1.32 0.66 2.64 1 4 C0.01 4.66 -0.98 5.32 -2 6 C-3.20450304 8.55183404 -3.20450304 8.55183404 -4 11 C-4.66 11 -5.32 11 -6 11 C-6 11.66 -6 12.32 -6 13 C-6.66 13 -7.32 13 -8 13 C-6.40956621 7.91061189 -3.2553049 4.12543357 0 0 Z " fill="#7DBB53" transform="translate(235,175)"/>
<path d="M0 0 C2.32883474 3.4932521 2 4.92922578 2 9 C-0.31 9 -2.62 9 -5 9 C-3.35 6.03 -1.7 3.06 0 0 Z " fill="#195490" transform="translate(111,235)"/>
<path d="M0 0 C5.53846154 -0.36923077 5.53846154 -0.36923077 7.875 1.5 C8.24625 1.995 8.6175 2.49 9 3 C7.02 3.99 5.04 4.98 3 6 C2.67 5.01 2.34 4.02 2 3 C1.01 2.67 0.02 2.34 -1 2 C-0.67 1.34 -0.34 0.68 0 0 Z " fill="#F5F5F5" transform="translate(250,265)"/>
<path d="M0 0 C-0.66 2.97 -1.32 5.94 -2 9 C-4.50298434 6.06171403 -5.46930939 3.82097239 -6 0 C-2.25 -1.125 -2.25 -1.125 0 0 Z M-4 3 C-3 5 -3 5 -3 5 Z " fill="#EAEAE9" transform="translate(156,286)"/>
<path d="M0 0 C0.99 0 1.98 0 3 0 C3.33 2.64 3.66 5.28 4 8 C2.68 8.33 1.36 8.66 0 9 C0 7.35 0 5.7 0 4 C-0.66 3.67 -1.32 3.34 -2 3 C-1.34 2.01 -0.68 1.02 0 0 Z M2 4 C3 6 3 6 3 6 Z " fill="#E5E5E5" transform="translate(218,294)"/>
<path d="M0 0 C2.5654594 2.5654594 2.54046087 4.47686668 3 8 C1.02 8.66 -0.96 9.32 -3 10 C-2.49287967 6.28111761 -1.88391785 3.26545761 0 0 Z M0 3 C1 5 1 5 1 5 Z M-1 5 C0 7 0 7 0 7 Z " fill="#DAD9D8" transform="translate(297,278)"/>
<path d="M0 0 C1.5625 1.25 1.5625 1.25 3 3 C2.875 5.125 2.875 5.125 2 7 C1.01 7.33 0.02 7.66 -1 8 C-1.33 8.66 -1.66 9.32 -2 10 C-2.66 9.67 -3.32 9.34 -4 9 C-3.67 8.34 -3.34 7.68 -3 7 C-1.99515117 4.66875071 -0.99477753 2.33556463 0 0 Z " fill="#7E7D7A" transform="translate(230,271)"/>
<path d="M0 0 C1.32 0 2.64 0 4 0 C4.66 2.31 5.32 4.62 6 7 C5.01 7.33 4.02 7.66 3 8 C1.02 4.535 1.02 4.535 -1 1 C-0.67 0.67 -0.34 0.34 0 0 Z " fill="#F0F0F0" transform="translate(260,265)"/>
<path d="M0 0 C0 0.99 0 1.98 0 3 C-1.74468372 3.70088156 -3.49601161 4.38524009 -5.25 5.0625 C-6.22453125 5.44535156 -7.1990625 5.82820312 -8.203125 6.22265625 C-11.04007395 7.01113787 -12.29409552 7.02437812 -15 6 C-13.96939453 5.60167969 -13.96939453 5.60167969 -12.91796875 5.1953125 C-12.01691406 4.84210938 -11.11585938 4.48890625 -10.1875 4.125 C-9.29417969 3.77695313 -8.40085937 3.42890625 -7.48046875 3.0703125 C-0.3649635 0 -0.3649635 0 0 0 Z " fill="#DCEDD1" transform="translate(276,213)"/>
<path d="M0 0 C0.99 0.33 1.98 0.66 3 1 C2.67 2.65 2.34 4.3 2 6 C0.35 6.33 -1.3 6.66 -3 7 C-2.67 6.34 -2.34 5.68 -2 5 C-2.66 4.34 -3.32 3.68 -4 3 C-3.34 3 -2.68 3 -2 3 C-2 2.34 -2 1.68 -2 1 C-1.34 0.67 -0.68 0.34 0 0 Z " fill="#F3F5F6" transform="translate(160,162)"/>
<path d="M0 0 C3.3 0 6.6 0 10 0 C10.33 0.99 10.66 1.98 11 3 C10.01 4.485 10.01 4.485 9 6 C8.67 5.01 8.34 4.02 8 3 C3.85906302 2.79029441 3.85906302 2.79029441 0 4 C0 2.68 0 1.36 0 0 Z " fill="#F7F7F7" transform="translate(187,265)"/>
<path d="M0 0 C0.99 0.33 1.98 0.66 3 1 C1.54955729 5.10958767 -0.51110752 8.43258745 -3 12 C-3.93065133 9.39417629 -4.14917407 8.35801776 -3.0625 5.75 C-2.5365625 4.88375 -2.5365625 4.88375 -2 4 C-1.34 4 -0.68 4 0 4 C0 2.68 0 1.36 0 0 Z " fill="#7BBC4E" transform="translate(285,192)"/>
<path d="M0 0 C0.99 0.33 1.98 0.66 3 1 C1.02 3.97 -0.96 6.94 -3 10 C-3.66 8.68 -4.32 7.36 -5 6 C-3.68 5.67 -2.36 5.34 -1 5 C-0.67 3.35 -0.34 1.7 0 0 Z " fill="#145088" transform="translate(188,215)"/>
<path d="M0 0 C0.66 0.33 1.32 0.66 2 1 C1.67 2.98 1.34 4.96 1 7 C-0.65 7 -2.3 7 -4 7 C-2.68 4.69 -1.36 2.38 0 0 Z " fill="#EBEFF0" transform="translate(197,206)"/>
<path d="M0 0 C0 2 0 2 -1.6875 4.125 C-4 6 -4 6 -6.75 6.25 C-7.4925 6.1675 -8.235 6.085 -9 6 C-3.15384615 0 -3.15384615 0 0 0 Z " fill="#7DBC58" transform="translate(245,169)"/>
<path d="M0 0 C1.32 0.66 2.64 1.32 4 2 C4 3.65 4 5.3 4 7 C2.35 7 0.7 7 -1 7 C-0.67 4.69 -0.34 2.38 0 0 Z M0 4 C1 6 1 6 1 6 Z " fill="#E3E3E3" transform="translate(230,290)"/>
<path d="M0 0 C0 0.66 0 1.32 0 2 C-4.29 2 -8.58 2 -13 2 C-8.24378872 -1.17080752 -5.58805025 -1.14301028 0 0 Z " fill="#E6EBED" transform="translate(166,253)"/>
<path d="M0 0 C0.66 0 1.32 0 2 0 C1.6875 2.375 1.6875 2.375 1 5 C0.01 5.66 -0.98 6.32 -2 7 C-2.66 6.34 -3.32 5.68 -4 5 C-2.71937515 3.2925002 -1.38232443 1.62626404 0 0 Z " fill="#1D568E" transform="translate(146,183)"/>
<path d="M0 0 C1.4783226 2.95664519 1.06032783 5.74229737 1 9 C-1.25245881 6.31158141 -2.88213958 4.35358125 -4 1 C-2 0 -2 0 0 0 Z " fill="#D84818" transform="translate(231,134)"/>
<path d="M0 0 C2 2 2 2 2.125 4.625 C2.08375 5.40875 2.0425 6.1925 2 7 C0.68 7 -0.64 7 -2 7 C-1.125 1.125 -1.125 1.125 0 0 Z " fill="#272724" transform="translate(240,293)"/>
<path d="M0 0 C1.5 1.3125 1.5 1.3125 3 3 C3 3.99 3 4.98 3 6 C1.35 6 -0.3 6 -2 6 C-2.33 4.68 -2.66 3.36 -3 2 C-2.01 2 -1.02 2 0 2 C0 1.34 0 0.68 0 0 Z " fill="#21211C" transform="translate(152,294)"/>
<path d="M0 0 C1.98 0.99 3.96 1.98 6 3 C5.67 3.99 5.34 4.98 5 6 C4.34 6 3.68 6 3 6 C2.67 6.66 2.34 7.32 2 8 C1.34 5.36 0.68 2.72 0 0 Z " fill="#EFEFEF" transform="translate(302,273)"/>
<path d="M0 0 C0.33 0.66 0.66 1.32 1 2 C1.99 2.33 2.98 2.66 4 3 C3.67 4.65 3.34 6.3 3 8 C2.01 7.67 1.02 7.34 0 7 C0 4.69 0 2.38 0 0 Z " fill="#F2F2F2" transform="translate(131,269)"/>
<path d="M0 0 C4.95 0.99 4.95 0.99 10 2 C9.67 3.32 9.34 4.64 9 6 C9 5.01 9 4.02 9 3 C4.35413108 3.48484276 4.35413108 3.48484276 0 5 C0 3.35 0 1.7 0 0 Z " fill="#B5B5B3" transform="translate(228,267)"/>
<path d="M0 0 C0.99 0.33 1.98 0.66 3 1 C3.8125 2.8125 3.8125 2.8125 4 5 C3.0625 7.25 3.0625 7.25 2 9 C-0.29013653 5.5647952 -0.17842973 4.014669 0 0 Z " fill="#DF4519" transform="translate(210,104)"/>
<path d="M0 0 C-0.33 1.65 -0.66 3.3 -1 5 C-2.32 5.33 -3.64 5.66 -5 6 C-5 4.68 -5 3.36 -5 2 C-2 0 -2 0 0 0 Z " fill="#3A3634" transform="translate(272,284)"/>
<path d="M0 0 C0.99 0.99 1.98 1.98 3 3 C2.34 4.32 1.68 5.64 1 7 C0.01 6.01 -0.98 5.02 -2 4 C-1.34 2.68 -0.68 1.36 0 0 Z " fill="#EFEFEF" transform="translate(269,275)"/>
<path d="M0 0 C0.33 0 0.66 0 1 0 C1 1.65 1 3.3 1 5 C0.01 5 -0.98 5 -2 5 C-1.67 5.99 -1.34 6.98 -1 8 C-2.32 7.67 -3.64 7.34 -5 7 C-4.19152271 5.83054208 -3.37810888 4.66449539 -2.5625 3.5 C-2.11003906 2.8503125 -1.65757813 2.200625 -1.19140625 1.53125 C-0.79824219 1.0259375 -0.40507813 0.520625 0 0 Z " fill="#1D5285" transform="translate(105,245)"/>
<path d="M0 0 C1.2065625 0.0309375 1.2065625 0.0309375 2.4375 0.0625 C0.79580472 2.08304804 -0.87161778 4.08293058 -2.5625 6.0625 C-2.8925 6.0625 -3.2225 6.0625 -3.5625 6.0625 C-3.605221 4.39638095 -3.60313832 2.72867115 -3.5625 1.0625 C-2.5625 0.0625 -2.5625 0.0625 0 0 Z " fill="#104C86" transform="translate(170.5625,241.9375)"/>
<path d="M0 0 C1.32 0.33 2.64 0.66 4 1 C1.525 4.465 1.525 4.465 -1 8 C-2.2077558 4.37673261 -1.54311128 3.35853631 0 0 Z " fill="#1B5288" transform="translate(196,202)"/>
<path d="M0 0 C1.32 0.66 2.64 1.32 4 2 C4 2.99 4 3.98 4 5 C2.02 5.33 0.04 5.66 -2 6 C-1.34 4.02 -0.68 2.04 0 0 Z " fill="#F6F6F5" transform="translate(173,297)"/>
<path d="M0 0 C0.33 0.66 0.66 1.32 1 2 C1.66 2 2.32 2 3 2 C3.33 2.99 3.66 3.98 4 5 C2.02 5 0.04 5 -2 5 C-1.125 1.125 -1.125 1.125 0 0 Z " fill="#201F1B" transform="translate(201,295)"/>
<path d="M0 0 C0.99 0.33 1.98 0.66 3 1 C3 1.66 3 2.32 3 3 C1.68 3 0.36 3 -1 3 C-1.33 3.99 -1.66 4.98 -2 6 C-2.66 6 -3.32 6 -4 6 C-3.6875 4.125 -3.6875 4.125 -3 2 C-2.01 1.34 -1.02 0.68 0 0 Z " fill="#F5F5F5" transform="translate(295,265)"/>
<path d="M0 0 C1.32 0 2.64 0 4 0 C4.33 1.65 4.66 3.3 5 5 C2.69 4.34 0.38 3.68 -2 3 C-1.34 2.67 -0.68 2.34 0 2 C0 1.34 0 0.68 0 0 Z " fill="#F9F9F9" transform="translate(277,265)"/>
<path d="M0 0 C0.99 0 1.98 0 3 0 C1.75023244 3.65316671 1.32901247 4.78065836 -2 7 C-1.125 1.125 -1.125 1.125 0 0 Z " fill="#0F4D87" transform="translate(175,234)"/>
<path d="M0 0 C1.32 0 2.64 0 4 0 C2.8141763 3.37503669 1.72426311 5.64722731 -1 8 C-0.67 5.36 -0.34 2.72 0 0 Z " fill="#114F88" transform="translate(180,225)"/>
<path d="M0 0 C2.25245881 2.68841859 3.88213958 4.64641875 5 8 C3.02 7.34 1.04 6.68 -1 6 C-0.67 4.02 -0.34 2.04 0 0 Z " fill="#F1E3DA" transform="translate(229,139)"/>
<path d="M0 0 C2.4375 0.6875 2.4375 0.6875 5 2 C5.8125 4.625 5.8125 4.625 6 7 C5.01 7.495 5.01 7.495 4 8 C2.68 5.36 1.36 2.72 0 0 Z " fill="#D34F20" transform="translate(216,118)"/>
<path d="M0 0 C1.32 1.32 2.64 2.64 4 4 C1.13822943 5.43088528 -0.93375773 4.59991697 -4 4 C-3.67 3.01 -3.34 2.02 -3 1 C-2.01 1.33 -1.02 1.66 0 2 C0 1.34 0 0.68 0 0 Z " fill="#F2EAE3" transform="translate(206,104)"/>
<path d="M0 0 C1.65 0 3.3 0 5 0 C4.67 1.65 4.34 3.3 4 5 C1.525 4.01 1.525 4.01 -1 3 C-0.67 2.01 -0.34 1.02 0 0 Z " fill="#F8F8F8" transform="translate(236,265)"/>
<path d="M0 0 C2.97 0 5.94 0 9 0 C9 0.33 9 0.66 9 1 C7.02 1 5.04 1 3 1 C3.33 1.99 3.66 2.98 4 4 C3.01 4 2.02 4 1 4 C0.67 2.68 0.34 1.36 0 0 Z " fill="#C74B1F" transform="translate(207,103)"/>
<path d="M0 0 C0.66 0 1.32 0 2 0 C2.66 1.98 3.32 3.96 4 6 C2.68 6 1.36 6 0 6 C-1.125 2.25 -1.125 2.25 0 0 Z " fill="#E1E1E0" transform="translate(267,290)"/>
<path d="M0 0 C0.66 0.33 1.32 0.66 2 1 C2 3.97 2 6.94 2 10 C-0.39119721 7.60880279 -0.59712795 6.30355083 -1 3 C-0.67 2.01 -0.34 1.02 0 0 Z " fill="#686662" transform="translate(227,292)"/>
<path d="M0 0 C0 1.65 0 3.3 0 5 C-1.65 4.67 -3.3 4.34 -5 4 C-5 3.01 -5 2.02 -5 1 C-1.125 0 -1.125 0 0 0 Z " fill="#EDECEC" transform="translate(105,276)"/>
<path d="M0 0 C0.66 0.33 1.32 0.66 2 1 C1.67 2.65 1.34 4.3 1 6 C0.01 6 -0.98 6 -2 6 C-1.34 4.02 -0.68 2.04 0 0 Z " fill="#64C62D" transform="translate(213,212)"/>
<path d="M0 0 C1.65 0 3.3 0 5 0 C5 0.99 5 1.98 5 3 C3.35 3 1.7 3 0 3 C0 2.01 0 1.02 0 0 Z " fill="#FAFAFA" transform="translate(161,265)"/>
<path d="M0 0 C0.33 0 0.66 0 1 0 C1 1.98 1 3.96 1 6 C0.01 6 -0.98 6 -2 6 C-1.125 1.125 -1.125 1.125 0 0 Z " fill="#FCFCFC" transform="translate(291,203)"/>
<path d="M0 0 C0.66 0 1.32 0 2 0 C2 1.65 2 3.3 2 5 C1.01 5 0.02 5 -1 5 C-0.67 3.35 -0.34 1.7 0 0 Z " fill="#FBFBFB" transform="translate(311,172)"/>
<path d="M0 0 C2.31 0 4.62 0 7 0 C6.67 0.66 6.34 1.32 6 2 C3.4375 2.625 3.4375 2.625 1 3 C0.67 2.01 0.34 1.02 0 0 Z " fill="#F3F3F3" transform="translate(100,289)"/>
<path d="M0 0 C0.66 0.33 1.32 0.66 2 1 C2.625 3.5625 2.625 3.5625 3 6 C1.35 4.35 -0.3 2.7 -2 1 C-1.34 0.67 -0.68 0.34 0 0 Z " fill="#F6F6F6" transform="translate(300,265)"/>
<path d="M0 0 C1.32 0.66 2.64 1.32 4 2 C3.67 2.99 3.34 3.98 3 5 C3 4.34 3 3.68 3 3 C1.68 3 0.36 3 -1 3 C-0.67 2.01 -0.34 1.02 0 0 Z " fill="#F7F7F7" transform="translate(105,265)"/>
<path d="M0 0 C1.65 1.32 3.3 2.64 5 4 C3.35 4.33 1.7 4.66 0 5 C0 3.35 0 1.7 0 0 Z " fill="#F7F7F7" transform="translate(129,288)"/>
<path d="M0 0 C0.33 0 0.66 0 1 0 C1 3.63 1 7.26 1 11 C0.67 11 0.34 11 0 11 C0 7.37 0 3.74 0 0 Z " fill="#FAFAFA" transform="translate(253,286)"/>
<path d="M0 0 C0.33 0 0.66 0 1 0 C1 1.65 1 3.3 1 5 C-0.32 5.33 -1.64 5.66 -3 6 C-2.01 4.02 -1.02 2.04 0 0 Z " fill="#F3F3F3" transform="translate(112,281)"/>
<path d="M0 0 C1.65 0 3.3 0 5 0 C5 0.66 5 1.32 5 2 C3.35 2 1.7 2 0 2 C0 1.34 0 0.68 0 0 Z " fill="#FCFCFC" transform="translate(165,302)"/>
<path d="M0 0 C0.99 0 1.98 0 3 0 C3.33 0.99 3.66 1.98 4 3 C2.68 3 1.36 3 0 3 C0 2.01 0 1.02 0 0 Z " fill="#FBFBFB" transform="translate(142,265)"/>
<path d="M0 0 C0.66 0 1.32 0 2 0 C2 1.65 2 3.3 2 5 C1.34 5 0.68 5 0 5 C0 3.35 0 1.7 0 0 Z " fill="#FCFCFC" transform="translate(113,212)"/>
<path d="M0 0 C0.99 0 1.98 0 3 0 C2.67 1.32 2.34 2.64 2 4 C2 3.34 2 2.68 2 2 C1.34 2 0.68 2 0 2 C0 1.34 0 0.68 0 0 Z " fill="#F7F7F7" transform="translate(176,286)"/>
<path d="M0 0 C0.99 0.33 1.98 0.66 3 1 C2.67 1.99 2.34 2.98 2 4 C1.34 2.68 0.68 1.36 0 0 Z " fill="#F5F5F5" transform="translate(110,270)"/>
<path d="M0 0 C0.99 0.33 1.98 0.66 3 1 C3 1.66 3 2.32 3 3 C1.68 2.67 0.36 2.34 -1 2 C-0.67 1.34 -0.34 0.68 0 0 Z " fill="#F8F8F8" transform="translate(97,265)"/>
<path d="M0 0 C0.66 0 1.32 0 2 0 C2.33 1.32 2.66 2.64 3 4 C2.01 3.34 1.02 2.68 0 2 C0 1.34 0 0.68 0 0 Z " fill="#F8F8F8" transform="translate(222,276)"/>
<path d="M0 0 C1.32 0.33 2.64 0.66 4 1 C2.02 1.99 2.02 1.99 0 3 C0 2.01 0 1.02 0 0 Z " fill="#F7F7F7" transform="translate(179,269)"/>
<path d="M0 0 C0.66 0.99 1.32 1.98 2 3 C1.01 3 0.02 3 -1 3 C-0.67 2.01 -0.34 1.02 0 0 Z " fill="#FBFBFB" transform="translate(229,154)"/>
<path d="M0 0 C0.33 1.32 0.66 2.64 1 4 C0.34 4 -0.32 4 -1 4 C-0.67 2.68 -0.34 1.36 0 0 Z " fill="#F3F3F3" transform="translate(123,289)"/>
<path d="M0 0 C0.66 0 1.32 0 2 0 C1.67 1.32 1.34 2.64 1 4 C0.67 2.68 0.34 1.36 0 0 Z " fill="#F5F5F5" transform="translate(221,271)"/>
<path d="M0 0 C1.32 0.33 2.64 0.66 4 1 C3.01 1.33 2.02 1.66 1 2 C0.67 1.34 0.34 0.68 0 0 Z " fill="#F9F9F9" transform="translate(137,266)"/>
<path d="M0 0 C0.99 0 1.98 0 3 0 C3 0.66 3 1.32 3 2 C2.01 2 1.02 2 0 2 C0 1.34 0 0.68 0 0 Z " fill="#FDFDFD" transform="translate(284,211)"/>
<path d="M0 0 C0.66 0 1.32 0 2 0 C2 0.99 2 1.98 2 3 C1.34 3 0.68 3 0 3 C0 2.01 0 1.02 0 0 Z " fill="#FDFDFD" transform="translate(298,189)"/>
<path d="M0 0 C0.66 0 1.32 0 2 0 C2 0.99 2 1.98 2 3 C1.34 3 0.68 3 0 3 C0 2.01 0 1.02 0 0 Z " fill="#FBFBFB" transform="translate(134,181)"/>
<path d="M0 0 C0.66 0 1.32 0 2 0 C2 0.99 2 1.98 2 3 C1.34 3 0.68 3 0 3 C0 2.01 0 1.02 0 0 Z " fill="#FBFBFB" transform="translate(207,126)"/>
<path d="M0 0 C1.32 0.33 2.64 0.66 4 1 C3.01 1.495 3.01 1.495 2 2 C1.34 1.34 0.68 0.68 0 0 Z " fill="#FAFAFA" transform="translate(109,298)"/>
<path d="M0 0 C0.66 0.33 1.32 0.66 2 1 C1.01 1.66 0.02 2.32 -1 3 C-0.67 2.01 -0.34 1.02 0 0 Z " fill="#F9F9F9" transform="translate(135,267)"/>
<path d="M0 0 C0.33 0.99 0.66 1.98 1 3 C0.34 3 -0.32 3 -1 3 C-0.67 2.01 -0.34 1.02 0 0 Z " fill="#FCFCFC" transform="translate(186,242)"/>
<path d="M0 0 C0.66 0.66 1.32 1.32 2 2 C1.01 2 0.02 2 -1 2 C-0.67 1.34 -0.34 0.68 0 0 Z " fill="#FBFBFB" transform="translate(280,221)"/>
<path d="M0 0 C0.66 0 1.32 0 2 0 C2 0.66 2 1.32 2 2 C1.34 2 0.68 2 0 2 C0 1.34 0 0.68 0 0 Z " fill="#F5F5F6" transform="translate(176,291)"/>
<path d="M0 0 C0.99 0.495 0.99 0.495 2 1 C1.67 1.66 1.34 2.32 1 3 C0.67 2.01 0.34 1.02 0 0 Z " fill="#F5F5F5" transform="translate(306,280)"/>
<path d="M0 0 C0.66 0.33 1.32 0.66 2 1 C1.01 1 0.02 1 -1 1 C-0.67 0.67 -0.34 0.34 0 0 Z " fill="#F7F7F7" transform="translate(233,266)"/>
<path d="M0 0 C0.33 0.66 0.66 1.32 1 2 C0.01 1.67 -0.98 1.34 -2 1 C-1.34 0.67 -0.68 0.34 0 0 Z " fill="#F9F9F9" transform="translate(153,267)"/>
<path d="M0 0 C0 3 0 3 0 3 Z " fill="#F8F8F8" transform="translate(248,265)"/>
<path d="M0 0 C0.66 0 1.32 0 2 0 C2 0.66 2 1.32 2 2 C1.34 2 0.68 2 0 2 C0 1.34 0 0.68 0 0 Z " fill="#FDFDFD" transform="translate(295,190)"/>
<path d="M0 0 C0.66 0 1.32 0 2 0 C2 0.66 2 1.32 2 2 C1.34 2 0.68 2 0 2 C0 1.34 0 0.68 0 0 Z " fill="#FCFCFC" transform="translate(210,127)"/>
<path d="M0 0 C0.66 0.66 1.32 1.32 2 2 C1.34 2 0.68 2 0 2 C0 1.34 0 0.68 0 0 Z " fill="#F9F9F9" transform="translate(90,300)"/>
<path d="" fill="#FBFBFB" transform="translate(0,0)"/>
<path d="" fill="#FAFAFA" transform="translate(0,0)"/>
<path d="M0 0 C0.33 0.66 0.66 1.32 1 2 C0.34 1.67 -0.32 1.34 -1 1 C-0.67 0.67 -0.34 0.34 0 0 Z " fill="#F9F9F9" transform="translate(90,269)"/>
<path d="M0 0 C0.66 0 1.32 0 2 0 C1.67 0.66 1.34 1.32 1 2 C0.67 1.34 0.34 0.68 0 0 Z " fill="#F8F8F8" transform="translate(177,267)"/>
<path d="M0 0 C3 1 3 1 3 1 Z " fill="#F9F9F9" transform="translate(147,267)"/>
<path d="M0 0 C0.66 0.66 1.32 1.32 2 2 C1.34 2 0.68 2 0 2 C0 1.34 0 0.68 0 0 Z " fill="#F7F7F7" transform="translate(154,265)"/>
<path d="" fill="#FCFCFC" transform="translate(0,0)"/>
<path d="M0 0 C0.33 0.66 0.66 1.32 1 2 C0.34 1.67 -0.32 1.34 -1 1 C-0.67 0.67 -0.34 0.34 0 0 Z " fill="#FCFCFC" transform="translate(231,172)"/>
<path d="M0 0 C2 1 2 1 2 1 Z " fill="#F6F6F6" transform="translate(309,302)"/>
<path d="M0 0 C2 1 2 1 2 1 Z " fill="#F8F8F8" transform="translate(215,299)"/>
<path d="M0 0 C2 1 2 1 2 1 Z " fill="#F8F8F8" transform="translate(298,296)"/>
<path d="" fill="#F6F6F6" transform="translate(0,0)"/>
<path d="" fill="#F5F5F5" transform="translate(0,0)"/>
<path d="M0 0 C2 1 2 1 2 1 Z " fill="#FAFAFA" transform="translate(132,289)"/>
<path d="" fill="#F6F6F6" transform="translate(0,0)"/>
<path d="" fill="#FBFBFB" transform="translate(0,0)"/>
<path d="" fill="#FBFBFB" transform="translate(0,0)"/>
<path d="" fill="#FAFAFA" transform="translate(0,0)"/>
<path d="" fill="#F8F8F8" transform="translate(0,0)"/>
<path d="" fill="#F7F7F7" transform="translate(0,0)"/>
<path d="M0 0 C2 1 2 1 2 1 Z " fill="#F8F8F8" transform="translate(303,271)"/>
<path d="M0 0 C2 1 2 1 2 1 Z " fill="#F7F7F7" transform="translate(305,270)"/>
<path d="M0 0 C2 1 2 1 2 1 Z " fill="#F8F8F8" transform="translate(184,270)"/>
<path d="M0 0 C2 1 2 1 2 1 Z " fill="#F3F3F3" transform="translate(154,269)"/>
<path d="" fill="#F8F8F8" transform="translate(0,0)"/>
<path d="M0 0 C2 1 2 1 2 1 Z " fill="#FEFEFE" transform="translate(174,267)"/>
<path d="" fill="#F6F6F6" transform="translate(0,0)"/>
<path d="M0 0 C2 1 2 1 2 1 Z " fill="#FAFAFA" transform="translate(151,266)"/>
<path d="" fill="#FAFAFA" transform="translate(0,0)"/>
<path d="M0 0 C2 1 2 1 2 1 Z " fill="#F3F3F3" transform="translate(292,265)"/>
<path d="M0 0 C2 1 2 1 2 1 Z " fill="#FCFCFC" transform="translate(203,214)"/>
<path d="" fill="#F9F9F9" transform="translate(0,0)"/>
<path d="M0 0 C2 1 2 1 2 1 Z " fill="#FDFDFD" transform="translate(123,202)"/>
<path d="M0 0 C2 1 2 1 2 1 Z " fill="#FDFDFD" transform="translate(211,199)"/>
<path d="" fill="#F6F6F6" transform="translate(0,0)"/>
<path d="M0 0 C2 1 2 1 2 1 Z " fill="#FDFDFD" transform="translate(247,164)"/>
<path d="" fill="#F2F2F2" transform="translate(0,0)"/>
<path d="" fill="#F5F5F5" transform="translate(0,0)"/>
<path d="" fill="#F1F1F1" transform="translate(0,0)"/>
<path d="" fill="#F5F5F5" transform="translate(0,0)"/>
<path d="" fill="#F1F1F1" transform="translate(0,0)"/>
<path d="" fill="#EFEFEF" transform="translate(0,0)"/>
<path d="" fill="#F6F6F6" transform="translate(0,0)"/>
<path d="" fill="#F3F3F3" transform="translate(0,0)"/>
<path d="" fill="#F5F5F5" transform="translate(0,0)"/>
<path d="" fill="#F0F0F0" transform="translate(0,0)"/>
<path d="" fill="#F5F5F5" transform="translate(0,0)"/>
<path d="" fill="#F5F5F5" transform="translate(0,0)"/>
<path d="" fill="#FAFAFA" transform="translate(0,0)"/>
<path d="" fill="#FBFBFB" transform="translate(0,0)"/>
<path d="" fill="#F5F5F5" transform="translate(0,0)"/>
<path d="" fill="#FBFBFB" transform="translate(0,0)"/>
<path d="" fill="#F6F6F6" transform="translate(0,0)"/>
<path d="" fill="#F9F9F9" transform="translate(0,0)"/>
<path d="" fill="#F6F6F6" transform="translate(0,0)"/>
<path d="" fill="#FBFBFB" transform="translate(0,0)"/>
<path d="" fill="#FAFAFA" transform="translate(0,0)"/>
<path d="" fill="#FEFEFE" transform="translate(0,0)"/>
<path d="" fill="#F9F9F9" transform="translate(0,0)"/>
<path d="" fill="#FAFAFA" transform="translate(0,0)"/>
<path d="" fill="#F9F9F9" transform="translate(0,0)"/>
<path d="" fill="#F6F6F6" transform="translate(0,0)"/>
<path d="" fill="#FAFAFA" transform="translate(0,0)"/>
<path d="" fill="#FFFFFF" transform="translate(0,0)"/>
<path d="" fill="#FAFAFA" transform="translate(0,0)"/>
<path d="" fill="#FAFAFA" transform="translate(0,0)"/>
<path d="" fill="#FAFAFA" transform="translate(0,0)"/>
<path d="" fill="#FBFBFB" transform="translate(0,0)"/>
<path d="" fill="#FCFCFC" transform="translate(0,0)"/>
<path d="" fill="#F3F3F3" transform="translate(0,0)"/>
<path d="" fill="#F9F9F9" transform="translate(0,0)"/>
<path d="" fill="#F7F7F7" transform="translate(0,0)"/>
<path d="" fill="#F8F8F8" transform="translate(0,0)"/>
<path d="" fill="#FAFAFA" transform="translate(0,0)"/>
<path d="" fill="#F8F8F8" transform="translate(0,0)"/>
<path d="" fill="#F8F8F8" transform="translate(0,0)"/>
<path d="" fill="#FAFAFA" transform="translate(0,0)"/>
<path d="" fill="#FAFAFA" transform="translate(0,0)"/>
<path d="" fill="#F2F2F2" transform="translate(0,0)"/>
<path d="" fill="#F9F9F9" transform="translate(0,0)"/>
<path d="" fill="#F2F2F2" transform="translate(0,0)"/>
<path d="" fill="#FBFBFB" transform="translate(0,0)"/>
<path d="" fill="#FBFBFB" transform="translate(0,0)"/>
<path d="" fill="#FBFBFB" transform="translate(0,0)"/>
<path d="" fill="#F5F5F5" transform="translate(0,0)"/>
<path d="" fill="#F9F9F9" transform="translate(0,0)"/>
<path d="" fill="#FAFAFA" transform="translate(0,0)"/>
<path d="" fill="#F8F8F8" transform="translate(0,0)"/>
<path d="" fill="#F8F8F8" transform="translate(0,0)"/>
<path d="" fill="#FAFAFA" transform="translate(0,0)"/>
<path d="" fill="#F7F7F7" transform="translate(0,0)"/>
<path d="" fill="#FAFAFA" transform="translate(0,0)"/>
<path d="" fill="#FAFAFA" transform="translate(0,0)"/>
<path d="" fill="#FAFAFA" transform="translate(0,0)"/>
<path d="" fill="#FBFBFB" transform="translate(0,0)"/>
<path d="" fill="#FDFDFD" transform="translate(0,0)"/>
<path d="" fill="#F7F7F7" transform="translate(0,0)"/>
<path d="" fill="#FAFAFA" transform="translate(0,0)"/>
<path d="" fill="#FBFBFB" transform="translate(0,0)"/>
</svg>
