<?xml version="1.0" encoding="UTF-8"?>
<svg version="1.1" xmlns="http://www.w3.org/2000/svg" width="1000" height="330">
<path d="M0 0 C24.53113575 -0.06782322 49.06219512 -0.12304359 73.59340096 -0.15543652 C84.98466483 -0.17087951 96.37586614 -0.19191979 107.76708984 -0.22631836 C117.70022687 -0.25629949 127.63331857 -0.27559365 137.56649959 -0.28226548 C142.82190813 -0.28616301 148.07718703 -0.29526887 153.33255386 -0.31719017 C158.28848982 -0.33769317 163.24424386 -0.34380611 168.2002182 -0.33932304 C170.01008725 -0.34014211 171.81996296 -0.34602487 173.62979507 -0.35761642 C197.37417692 -0.502115 218.02986261 5.16829429 235.84765625 21.76171875 C250.68804088 37.19464142 258.53223669 57.36119447 258.20703125 78.765625 C257.04674301 96.89239217 251.31158408 111.77600806 240 126 C239.34 126.99 238.68 127.98 238 129 C238.49628906 129.55945313 238.99257813 130.11890625 239.50390625 130.6953125 C250.23740732 143.36369517 257.29235232 159.2625941 258 176 C258.03996094 176.763125 258.07992188 177.52625 258.12109375 178.3125 C258.70338783 199.68611803 250.90092642 219.20806662 236.41503906 234.74926758 C222.48928191 248.93808788 203.94790859 257.12207177 184.10966492 257.36076355 C180.67524295 257.38024192 177.24174594 257.3621752 173.80737305 257.34057617 C171.90400201 257.33972834 170.00062999 257.34020809 168.09725952 257.34190369 C162.96794005 257.34275897 157.83883413 257.32520942 152.70956397 257.30418181 C147.33509916 257.28533656 141.96062862 257.28365842 136.58613586 257.28010559 C126.42568094 257.27080808 116.26532368 257.24622554 106.10491163 257.21605712 C94.53047898 257.18244145 82.95604149 257.16600912 71.38157213 257.15097082 C47.58764825 257.11967379 23.79385814 257.06469058 0 257 C0 241.16 0 225.32 0 209 C5.61765381 208.9906543 11.23530762 208.98130859 17.02319336 208.97167969 C35.57519832 208.93792626 54.12709237 208.88258738 72.67900753 208.81609726 C83.92801588 208.77630859 95.17695429 208.74391518 106.42602539 208.72900391 C116.23211076 208.71598655 126.03804223 208.6890196 135.84404093 208.64538693 C141.03500332 208.62277417 146.2257759 208.60708922 151.41679192 208.60811615 C156.30635764 208.60886286 161.19550379 208.59090739 166.08496094 208.55883217 C167.87593738 208.55033877 169.66696091 208.54857943 171.45794868 208.55419731 C183.22345964 208.58617666 192.467967 207.91856853 201.49609375 199.64453125 C207.52519521 193.05166966 208.4327285 186.02438203 208.3359375 177.390625 C207.5302149 169.25844809 203.38894823 163.7085329 197.35546875 158.47265625 C191.45177825 154.78162587 185.81956876 153.5539132 178.9387207 153.60127258 C178.16826101 153.59462576 177.39780132 153.58797893 176.60399437 153.58113068 C174.0444524 153.56260566 171.48538223 153.56509881 168.92578125 153.56762695 C167.08225347 153.55860337 165.23873169 153.54827468 163.3952179 153.53674316 C158.40616537 153.50921718 153.41722683 153.4998946 148.42810822 153.49388909 C143.20837405 153.48449399 137.98872464 153.45828966 132.76904297 153.43388367 C122.89181296 153.39024628 113.01459942 153.36168233 103.1373024 153.33856028 C91.8893981 153.31149384 80.64157918 153.26758319 69.39373589 153.22227156 C46.2625245 153.12946476 23.13132138 153.05998924 0 153 C0 137.16 0 121.32 0 105 C5.4860083 104.98541748 10.9720166 104.97083496 16.62426758 104.95581055 C34.75316098 104.90546617 52.88196899 104.83902084 71.01077747 104.76428509 C82.0018855 104.71936723 92.99296141 104.6799433 103.98413086 104.65356445 C113.56681345 104.63055192 123.14939409 104.5971175 132.73199576 104.55129844 C137.80338426 104.52741017 142.87467206 104.50865259 147.94611549 104.50238609 C152.72564514 104.49631536 157.50491725 104.47624385 162.28435135 104.44572449 C164.03256246 104.43697607 165.78080728 104.43321501 167.52903938 104.43499184 C184.95384029 104.56631325 184.95384029 104.56631325 200.20703125 96.9765625 C205.59759757 91.03402098 208.34420316 84.30585003 208.625 76.3125 C208.18724239 67.80167764 205.20082563 60.93122452 199 55 C191.50164396 50.43416934 185.14738129 48.85396176 176.41337585 48.84178162 C175.6577301 48.83684364 174.90208434 48.83190566 174.12354022 48.82681805 C171.59627832 48.81148298 169.06904175 48.80309327 166.54174805 48.79467773 C164.72822345 48.78509607 162.91470108 48.77508582 161.10118103 48.76467896 C156.18016066 48.73765506 151.25913073 48.71663186 146.33807731 48.69667697 C141.19442742 48.67480192 136.05080694 48.64742065 130.90718079 48.62062073 C121.16797238 48.5707144 111.42874764 48.52576792 101.68950731 48.48259836 C90.60131204 48.43320839 79.51314629 48.37829678 68.42497957 48.32291877 C45.61667922 48.20913034 22.80835173 48.10301337 0 48 C0 32.16 0 16.32 0 0 Z " fill="#182957" transform="translate(59,36)"/>
<path d="M0 0 C0.83660156 0.66515625 1.67320312 1.3303125 2.53515625 2.015625 C4.93719639 3.74978081 7.15117962 4.77652621 9.9375 5.75 C10.48535156 5.25371094 11.03320312 4.75742187 11.59765625 4.24609375 C28.12256997 -9.91427947 48.59152469 -14.52527347 69.9375 -13.25 C91.95379009 -10.42568804 110.46127498 1.31513388 123.9375 18.75 C132.42004839 30.99667924 137.11734045 44.83598561 137.05775452 59.7605896 C137.05903615 60.9443425 137.05903615 60.9443425 137.06034368 62.15200961 C137.06198603 64.78674721 137.05649756 67.42142064 137.05102539 70.05615234 C137.05074322 71.9486389 137.05090183 73.84112557 137.0514679 75.73361206 C137.05175472 80.86533411 137.04587651 85.99703276 137.03889394 91.12874937 C137.03264131 96.49392293 137.03205509 101.85909704 137.03086853 107.22427368 C137.02776085 117.38137846 137.01955504 127.53847246 137.00951904 137.6955725 C136.99834043 149.26018181 136.99284304 160.82479164 136.98782361 172.38940501 C136.97737197 196.17627735 136.95903347 219.96313493 136.9375 243.75 C121.0975 243.75 105.2575 243.75 88.9375 243.75 C88.9281543 238.16787598 88.91880859 232.58575195 88.90917969 226.83447266 C88.87541746 208.39423321 88.8200734 189.95410523 88.75359726 171.51395607 C88.71381874 160.33335765 88.68142018 149.15282949 88.66650391 137.97216797 C88.65348129 128.22503625 88.6265009 118.47805921 88.58288693 108.73101461 C88.560286 103.57187821 88.54458851 98.41293251 88.54561615 93.25374222 C88.54636356 88.39289979 88.52838003 83.53247868 88.49633217 78.6717453 C88.48784756 76.89247689 88.48607343 75.11316114 88.49169731 73.33388138 C88.52185804 62.32053632 88.42548139 52.48018974 80.6875 43.875 C73.95332825 37.82565927 67.02019134 35.4337503 57.9375 35.75 C50.3443984 37.00075872 43.76471864 39.80980388 39.2109375 46.15625 C35.08197072 52.80956139 33.79001324 57.47963698 33.77928162 65.29229736 C33.77434364 66.0552558 33.76940566 66.81821424 33.76431805 67.60429263 C33.74895289 70.16229968 33.74058508 72.72028164 33.73217773 75.27832031 C33.72259844 77.11140158 33.71258833 78.94448063 33.70217896 80.77755737 C33.67512941 85.75648645 33.65412009 90.73542501 33.63417697 95.71438694 C33.61231775 100.91676628 33.58492874 106.1191164 33.55812073 111.32147217 C33.50819299 121.17404508 33.46325444 131.0266342 33.42009836 140.87923884 C33.3707267 152.09558248 33.3158083 163.31189679 33.26041877 174.52821207 C33.14659746 197.60211538 33.04049098 220.67604563 32.9375 243.75 C17.0975 243.75 1.2575 243.75 -15.0625 243.75 C-15.08231934 238.31934082 -15.10213867 232.88868164 -15.12255859 227.29345703 C-15.18946011 209.3521673 -15.26700084 191.41093522 -15.35002708 173.46971321 C-15.40010677 162.59180222 -15.44655021 151.71389858 -15.484375 140.8359375 C-15.51735993 131.35253431 -15.55722699 121.86918903 -15.60529006 112.38584983 C-15.63049044 107.36649009 -15.65229071 102.34716844 -15.66584396 97.3277626 C-15.67872305 92.59835324 -15.70084003 87.86907495 -15.72988319 83.13973808 C-15.7389134 81.40884129 -15.74463849 79.67792342 -15.74671364 77.94700432 C-15.52536261 59.50954164 -15.52536261 59.50954164 -24.0625 43.75 C-30.65174797 38.06205397 -37.25208569 35.37890677 -45.9375 35.8125 C-53.029116 36.76168553 -59.45677478 39.66901585 -64.4375 44.875 C-71.76383835 54.92450403 -71.64651381 65.98905132 -71.60839844 77.8894043 C-71.61714621 79.70382061 -71.62763616 81.51822922 -71.63972473 83.33262634 C-71.66745791 88.22857507 -71.67099223 93.12427048 -71.67000484 98.02028632 C-71.67314489 103.14792463 -71.69878576 108.27545068 -71.72198486 113.4030304 C-71.76246496 123.09955447 -71.78286677 132.79601142 -71.79595876 142.49260694 C-71.8118559 153.53745196 -71.85028296 164.58218321 -71.89055204 175.62696207 C-71.9728417 198.33462569 -72.02402853 221.04221694 -72.0625 243.75 C-87.9025 243.75 -103.7425 243.75 -120.0625 243.75 C-120.15299015 219.27067469 -120.22659225 194.79148599 -120.26974869 170.31203556 C-120.29032458 158.94437205 -120.31834957 147.57682028 -120.36425781 136.20922852 C-120.40427839 126.29474016 -120.4299689 116.38033278 -120.43885398 106.46576589 C-120.44404306 101.22195398 -120.45613435 95.9783736 -120.48542023 90.73463631 C-120.51283047 85.7860407 -120.52089394 80.83776917 -120.51493073 75.88910484 C-120.51601963 74.08532568 -120.52381946 72.28153422 -120.5393219 70.47782135 C-120.65764368 55.98435491 -119.39365944 41.29612525 -112.3125 28.3125 C-111.97033447 27.65838135 -111.62816895 27.0042627 -111.27563477 26.33032227 C-108.17654595 20.59166226 -104.45924118 15.56933184 -100.0625 10.75 C-99.54558594 10.1415625 -99.02867187 9.533125 -98.49609375 8.90625 C-74.28915411 -17.78811953 -28.51017942 -21.02959687 0 0 Z " fill="#0193AC" transform="translate(636.0625,49.25)"/>
<path d="M0 0 C15.84 0 31.68 0 48 0 C48.0093457 5.54659424 48.01869141 11.09318848 48.02832031 16.80786133 C48.06209144 35.13633527 48.11744076 53.46469716 48.18390274 71.79308033 C48.22367099 82.90526883 48.25607476 94.01738674 48.27099609 105.12963867 C48.28402405 114.81781674 48.31101802 124.50583935 48.35461307 134.19392985 C48.37720203 139.32124025 48.39291221 144.44835908 48.39188385 149.57572365 C48.39113573 154.40784279 48.4091476 159.23953884 48.44116783 164.07154846 C48.44964356 165.83910885 48.45143267 167.60671682 48.44580269 169.37428856 C48.41611995 180.13133546 49.11960106 189.2839249 54.625 198.8125 C61.99517768 205.60082154 69.25217706 208.40472504 79.125 208.2734375 C86.37081481 207.5842975 91.69657563 203.80681893 97.17578125 199.26953125 C104.27024146 190.44323279 103.57946235 180.4790071 103.54589844 169.72045898 C103.55464167 167.86692948 103.56513006 166.01340752 103.57722473 164.15989685 C103.60501347 159.14813252 103.60849099 154.13661535 103.60750484 149.12478518 C103.61064007 143.8796888 103.63627099 138.63470272 103.65948486 133.3896637 C103.70000168 123.46641082 103.72037544 113.54322359 103.73345876 103.61990076 C103.74934341 92.31875999 103.78776525 81.01773069 103.82805204 69.71665466 C103.91039199 46.47778512 103.96154626 23.23898646 104 0 C120.17 0 136.34 0 153 0 C153.06785659 24.10544295 153.12306289 48.21080794 153.15543652 72.31632233 C153.17087115 83.51023287 153.19189526 94.70407963 153.22631836 105.89794922 C153.25632527 115.66044043 153.2755997 125.42288542 153.28226548 135.18542147 C153.28615869 140.34923307 153.29523651 145.51291249 153.31719017 150.67668152 C153.33773415 155.54890538 153.34379805 160.42094411 153.33932304 165.29320717 C153.34014031 167.06998517 153.34599828 168.84677015 153.35761642 170.62351036 C153.50816847 194.86053584 148.54454543 216.43682431 131.421875 234.59375 C115.87814668 250.03719621 97.93108783 257.16741921 76.125 257.4375 C57.3401643 257.33496111 40.1430239 251.74371411 26 239 C25.10539062 238.19820312 24.21078125 237.39640625 23.2890625 236.5703125 C9.50964403 223.54593066 0.69140683 206.16430517 -0.18054581 187.04017258 C-0.27187019 182.13737438 -0.2476991 177.23489901 -0.22705078 172.33154297 C-0.22648593 170.44831854 -0.22680467 168.56509368 -0.22793579 166.68186951 C-0.22850741 161.59374194 -0.21678401 156.50570951 -0.20278788 151.41760397 C-0.19024868 146.09116192 -0.18910751 140.76471747 -0.18673706 135.43826294 C-0.18053165 125.36273234 -0.16413355 115.28724537 -0.14403808 105.21173394 C-0.12164983 93.73651487 -0.1106783 82.26129367 -0.10064721 70.78605819 C-0.07976648 47.19067573 -0.04310199 23.59535305 0 0 Z " fill="#182957" transform="translate(340,36)"/>
<path d="M0 0 C16.12570164 13.00380513 27.65872337 29.23937791 31 50 C31.08991291 52.65205137 31.13074258 55.27683574 31.12025452 57.92829895 C31.12153615 59.11689554 31.12153615 59.11689554 31.12284368 60.32950419 C31.12448906 62.98116717 31.11899252 65.63276669 31.11352539 68.28442383 C31.11324329 70.18661498 31.1134017 72.08880623 31.1139679 73.99099731 C31.11425498 79.15376925 31.10837262 84.31651798 31.10139394 89.47928452 C31.09514559 94.87516045 31.09455543 100.27103691 31.09336853 105.66691589 C31.09025959 115.88426108 31.08205208 126.10159557 31.07201904 136.31893605 C31.06084434 147.95123553 31.05534403 159.58353552 31.05032361 171.21583903 C31.03986912 195.14389998 31.02152905 219.07194627 31 243 C15.16 243 -0.68 243 -17 243 C-17.0093457 237.41787598 -17.01869141 231.83575195 -17.02832031 226.08447266 C-17.06208254 207.64423321 -17.1174266 189.20410523 -17.18390274 170.76395607 C-17.22368126 159.58335765 -17.25607982 148.40282949 -17.27099609 137.22216797 C-17.28401871 127.47503625 -17.3109991 117.72805921 -17.35461307 107.98101461 C-17.377214 102.82187821 -17.39291149 97.66293251 -17.39188385 92.50374222 C-17.39113644 87.64289979 -17.40911997 82.78247868 -17.44116783 77.9217453 C-17.44965244 76.14247689 -17.45142657 74.36316114 -17.44580269 72.58388138 C-17.39912282 57.39105742 -17.39912282 57.39105742 -24.3125 44.1875 C-25.199375 43.465625 -26.08625 42.74375 -27 42 C-27.5259375 41.55914062 -28.051875 41.11828125 -28.59375 40.6640625 C-35.35788043 35.3449963 -41.94933646 34.46384063 -50.3203125 35.4609375 C-57.72396039 36.95030107 -63.02948276 40.78405343 -67.37890625 46.95703125 C-71.29200409 52.96603334 -72.14835738 57.36345367 -72.15821838 64.54229736 C-72.16315636 65.3052558 -72.16809434 66.06821424 -72.17318195 66.85429263 C-72.18854711 69.41229968 -72.19691492 71.97028164 -72.20532227 74.52832031 C-72.21490156 76.36140158 -72.22491167 78.19448063 -72.23532104 80.02755737 C-72.26237059 85.00648645 -72.28337991 89.98542501 -72.30332303 94.96438694 C-72.32518225 100.16676628 -72.35257126 105.3691164 -72.37937927 110.57147217 C-72.42930701 120.42404508 -72.47424556 130.2766342 -72.51740164 140.12923884 C-72.5667733 151.34558248 -72.6216917 162.56189679 -72.67708123 173.77821207 C-72.79090254 196.85211538 -72.89700902 219.92604563 -73 243 C-88.84 243 -104.68 243 -121 243 C-121.09044606 218.09498195 -121.16406677 193.19009777 -121.20724869 168.28495693 C-121.2278356 156.71994058 -121.25588197 145.15503386 -121.30175781 133.59008789 C-121.34174431 123.50495373 -121.36746092 113.41989901 -121.37635398 103.33468777 C-121.38154876 97.99927974 -121.39367714 92.66409887 -121.42292023 87.32876396 C-121.45027628 82.29645683 -121.45840457 77.26446824 -121.45243073 72.23209381 C-121.453522 70.39522375 -121.46135465 68.5583419 -121.4768219 66.72153664 C-121.66650542 43.01239705 -114.78636052 24.27344567 -98.25 6.875 C-71.93890712 -18.79921317 -29.72259295 -21.00587098 0 0 Z " fill="#0193AC" transform="translate(918,50)"/>
</svg>
