<?xml version="1.0" encoding="UTF-8"?>
<svg version="1.1" xmlns="http://www.w3.org/2000/svg" width="5100" height="1600">
<path d="M0 0 C1.54155762 0.00273422 1.54155762 0.00273422 3.11425781 0.00552368 C18.51498248 0.05142325 33.56827248 0.49315524 48.75 3.3125 C49.67925293 3.47878906 50.60850586 3.64507812 51.56591797 3.81640625 C100.79140899 12.86859939 144.42790052 35.24611133 182.10913086 67.89257812 C183.24014341 68.87129692 184.37673492 69.84359314 185.51782227 70.81054688 C191.15591291 75.64134086 196.43872037 80.81506153 201.68579102 86.06298828 C203.17641615 87.55143237 204.67487017 89.03167277 206.17382812 90.51171875 C212.48350838 96.78504566 218.20902287 103.33916631 223.75 110.3125 C225.30925805 112.14859142 226.87103933 113.98254964 228.4375 115.8125 C247.52738912 138.73807009 263.85020446 164.25803092 278.6640625 190.109375 C285.98835413 202.85507911 293.27271233 214.87786962 303.75 225.3125 C304.26062988 225.83263672 304.77125977 226.35277344 305.29736328 226.88867188 C325.08322492 246.85525477 350.31625421 260.37024913 376.75 269.3125 C377.81299316 269.6849585 377.81299316 269.6849585 378.89746094 270.06494141 C425.10535787 286.08560341 480.90402624 281.17233902 525.13671875 261.1484375 C532.60048825 257.45795915 539.74945522 253.14426664 546.93505859 248.94775391 C551.60062851 246.23743411 556.30024729 243.58796067 561 240.9375 C561.95132813 240.3997998 562.90265625 239.86209961 563.8828125 239.30810547 C568.88691377 236.48199406 573.89799492 233.66891777 578.91796875 230.87109375 C589.27678707 225.09588063 599.59066354 219.26490719 609.8125 213.25 C618.71591509 208.01569464 627.72313742 203.0184024 636.82275391 198.13427734 C646.57413286 192.89404291 656.19745194 187.43894206 665.82275391 181.97167969 C691.68824292 167.31097382 717.70658684 152.88831967 743.90869141 138.83740234 C745.77989492 137.83314585 747.64941009 136.82573615 749.51708984 135.81494141 C779.53938206 119.59403739 811.2646583 104.63718937 844.75 97.3125 C845.46655762 97.15023926 846.18311523 96.98797852 846.92138672 96.82080078 C868.55778016 92.09986738 892.43731891 92.16732792 913.75 98.3125 C914.84393066 98.62598389 914.84393066 98.62598389 915.95996094 98.94580078 C938.19540234 105.56880709 957.14661735 118.29213689 973.75 134.3125 C974.28866699 134.83070313 974.82733398 135.34890625 975.38232422 135.8828125 C982.20271891 142.47554712 988.65346284 149.14953461 994.54296875 156.6015625 C996.99763246 159.61667156 999.60059752 162.47004946 1002.25 165.3125 C1006.50251874 169.88790196 1010.51668601 174.59883353 1014.4375 179.46484375 C1016.99867061 182.6187177 1019.61735032 185.71834093 1022.25 188.8125 C1027.15590985 194.58760724 1031.96799775 200.43426258 1036.75 206.3125 C1038.16624911 208.04200867 1039.58292473 209.77116817 1041 211.5 C1042.58386697 213.43706379 1044.16714358 215.37461036 1045.75 217.3125 C1046.24016602 217.91223633 1046.73033203 218.51197266 1047.23535156 219.12988281 C1054.33914921 227.82689201 1061.37516276 236.57004569 1068.27832031 245.42724609 C1069.8662032 247.46135884 1071.46033763 249.49048414 1073.0546875 251.51953125 C1081.50299477 262.29545762 1089.69020299 273.24365141 1097.75 284.3125 C1098.3270166 285.10253418 1098.9040332 285.89256836 1099.49853516 286.70654297 C1118.75 313.07937482 1118.75 313.07937482 1118.75 316.3125 C1015.83333333 375.6875 912.91666667 435.0625 748.25 530.0625 C747.17669434 530.6817334 746.10338867 531.3009668 744.99755859 531.93896484 C742.83909502 533.18419484 740.68056677 534.42931272 738.52197266 535.67431641 C732.97925259 538.87136337 727.43779992 542.07057595 721.8984375 545.2734375 C716.4539748 548.42122472 711.00446453 551.56013222 705.55273438 554.6953125 C703.11809944 556.10010534 700.69055944 557.51606377 698.265625 558.9375 C659.13601634 581.70556151 613.94372118 593.24496052 569.19140625 582.24609375 C544.80113086 575.72102517 522.44003543 563.61903306 503.97265625 546.3828125 C501.96873266 544.51624044 499.91247085 542.75633926 497.8125 541 C480.31468372 525.64119533 467.90283857 505.58370345 456.04296875 485.80859375 C446.2964951 469.58528156 435.49966348 454.1487651 423.75 439.3125 C422.72326172 437.99572266 422.72326172 437.99572266 421.67578125 436.65234375 C416.94550452 430.63959514 411.89587781 424.97012257 406.75 419.3125 C400.75 412.64720226 400.75 412.64720226 400.75 410.3125 C400.1725 410.07402344 399.595 409.83554687 399 409.58984375 C396.28110393 408.04630379 394.76690818 406.26243866 392.75 403.875 C387.47885282 397.86814262 381.69265955 392.63416735 375.75 387.3125 C374.96109375 386.57386719 374.1721875 385.83523438 373.359375 385.07421875 C362.73396961 375.18970047 350.84609287 366.32001169 338.75 358.3125 C338.14655762 357.90773438 337.54311523 357.50296875 336.92138672 357.0859375 C316.87843628 343.72078836 295.43669207 332.45442907 272.75 324.3125 C271.84813965 323.98056641 270.9462793 323.64863281 270.01708984 323.30664062 C236.99533348 311.24110771 202.36995922 306.09155149 167.3125 306.0625 C166.46161804 306.06149292 165.61073608 306.06048584 164.73406982 306.05944824 C148.57179786 306.07227215 132.78144003 307.15857263 116.75 309.3125 C115.14825928 309.52132812 115.14825928 309.52132812 113.51416016 309.734375 C38.02771962 319.84134612 -35.68445618 352.56167133 -100.44091797 391.63378906 C-105.59215733 394.71217615 -110.79794146 397.69607487 -116 400.6875 C-117.08676025 401.31325928 -118.17352051 401.93901855 -119.29321289 402.58374023 C-121.50415805 403.85653067 -123.71534091 405.12890828 -125.92675781 406.40087891 C-131.41132887 409.55575632 -136.89363073 412.71456348 -142.375 415.875 C-143.45233398 416.49616699 -144.52966797 417.11733398 -145.63964844 417.75732422 C-153.84571997 422.49292678 -162.03146399 427.26268947 -170.21142578 432.04321289 C-177.5431252 436.32494941 -184.8928655 440.5746376 -192.25 444.8125 C-204.61022518 451.93336408 -216.93467327 459.11433378 -229.25 466.3125 C-242.65758718 474.14907983 -256.08159279 481.95528608 -269.53857422 489.70678711 C-276.78921986 493.88577594 -284.02472586 498.0898134 -291.25 502.3125 C-300.6599033 507.81195536 -310.09470563 513.26699196 -319.5390625 518.70703125 C-326.7895149 522.88599128 -334.02488269 527.08990506 -341.25 531.3125 C-350.6599033 536.81195536 -360.09470563 542.26699196 -369.5390625 547.70703125 C-376.7895169 551.88599244 -384.02470979 556.09019869 -391.25 560.3125 C-403.88950579 567.69321042 -416.54136089 575.05129984 -429.25 582.3125 C-430.16297852 582.83505371 -431.07595703 583.35760742 -432.01660156 583.89599609 C-454.45051335 596.6788876 -477.51447747 607.54769649 -503.25 611.3125 C-504.14203125 611.44398438 -505.0340625 611.57546875 -505.953125 611.7109375 C-549.95400544 616.8305368 -592.6864633 603.45463055 -627.3125 576.4375 C-633.18569536 571.65229001 -638.73796187 566.50572923 -644.25 561.3125 C-644.85972656 560.75175781 -645.46945312 560.19101562 -646.09765625 559.61328125 C-647.25 558.3125 -647.25 558.3125 -647.25 556.3125 C-647.91 556.3125 -648.57 556.3125 -649.25 556.3125 C-660.83988037 544.28085289 -669.78806034 529.3292139 -678.11230469 514.96850586 C-694.19986727 487.41392252 -713.09481675 461.20050833 -734.87890625 437.8671875 C-736.85116591 435.7422158 -738.74986371 433.58481832 -740.625 431.375 C-748.13522029 422.72467398 -756.48567755 414.67774713 -765.25 407.3125 C-766.18972656 406.49523437 -767.12945313 405.67796875 -768.09765625 404.8359375 C-815.21605356 364.02582081 -873.32399865 339.0191196 -935.25 332.3125 C-936.11641113 332.21678711 -936.98282227 332.12107422 -937.87548828 332.02246094 C-947.48385401 331.08759292 -957.10490827 331.06899397 -966.75 331.0625 C-967.65561676 331.06182526 -968.56123352 331.06115051 -969.49429321 331.06045532 C-985.26864946 331.07902053 -1000.62541018 332.01083504 -1016.25 334.3125 C-1017.42965332 334.47878906 -1018.60930664 334.64507812 -1019.82470703 334.81640625 C-1049.46481269 339.06475583 -1077.94520414 346.63071982 -1106.25 356.3125 C-1107.81210205 356.839646 -1107.81210205 356.839646 -1109.40576172 357.37744141 C-1153.56159602 372.35651808 -1196.5359073 393.61706659 -1236.40869141 417.61767578 C-1241.57270885 420.69798246 -1246.78776443 423.68975726 -1252 426.6875 C-1253.08804932 427.31390381 -1254.17609863 427.94030762 -1255.29711914 428.58569336 C-1257.50972404 429.8592418 -1259.72253416 431.13243377 -1261.93554688 432.40527344 C-1267.37650557 435.5361492 -1272.81307989 438.67461805 -1278.25 441.8125 C-1284.77229998 445.57619591 -1291.29513767 449.33894625 -1297.8203125 453.09765625 C-1308.27206199 459.11997329 -1318.71299548 465.15919337 -1329.125 471.25 C-1338.39499777 476.67171178 -1347.70831752 482.01454915 -1357.03845215 487.33172607 C-1366.16140571 492.53214031 -1375.24884528 497.79054777 -1384.3125 503.09375 C-1391.60900169 507.36133255 -1398.9250282 511.59398956 -1406.25 515.8125 C-1414.59802509 520.62094758 -1422.93243232 525.45155711 -1431.25 530.3125 C-1444.98046817 538.33531678 -1458.76078086 546.27108328 -1472.54101562 554.20800781 C-1484.12681766 560.88206312 -1495.70553353 567.56714084 -1507.25 574.3125 C-1516.60755097 579.78005818 -1525.98327923 585.21521327 -1535.37646484 590.62133789 C-1540.96303501 593.83664511 -1546.54267622 597.06288822 -1552.109375 600.3125 C-1604.02062777 630.57885708 -1662.85107447 647.45287095 -1722.8125 632.125 C-1754.75277662 623.33190285 -1783.67203955 608.30787795 -1809.25 587.3125 C-1810.99904448 585.93628475 -1812.74896425 584.56118076 -1814.5 583.1875 C-1818.77011637 579.76440671 -1822.84028939 576.15302717 -1826.87890625 572.4609375 C-1828.98763367 570.55022896 -1831.13780105 568.70949852 -1833.3125 566.875 C-1840.80743906 560.30943338 -1846.94015307 552.54324796 -1853.02270508 544.69702148 C-1856.1693867 540.64832389 -1859.41292981 536.70535228 -1862.75 532.8125 C-1867.01899579 527.82846637 -1871.09883363 522.72437036 -1875.125 517.54296875 C-1878.24147918 513.5499798 -1881.45533621 509.65939437 -1884.75 505.8125 C-1889.01875118 500.82824792 -1893.09882342 495.72438349 -1897.125 490.54296875 C-1900.24147918 486.5499798 -1903.45533621 482.65939437 -1906.75 478.8125 C-1911.01875118 473.82824792 -1915.09882342 468.72438349 -1919.125 463.54296875 C-1922.24149779 459.54995596 -1925.45576222 455.65978072 -1928.75 451.8125 C-1932.69582426 447.19565104 -1936.54522093 442.51391374 -1940.3125 437.75 C-1940.77785156 437.16605469 -1941.24320313 436.58210938 -1941.72265625 435.98046875 C-1943.91150349 433.19229429 -1945.73113351 430.50818821 -1947.25 427.3125 C-1933.95349714 419.70082987 -1920.65619921 412.09123123 -1907.3125 404.5625 C-1891.2864827 395.51782684 -1875.32599648 386.36218408 -1859.39086914 377.15844727 C-1847.87569899 370.51161599 -1836.33004932 363.91846137 -1824.78222656 357.32861328 C-1819.51905722 354.32490368 -1814.25791262 351.31765108 -1808.99661255 348.31066895 C-1807.25163661 347.3134353 -1805.50657074 346.31635924 -1803.76147461 345.31933594 C-1798.46411684 342.29273746 -1793.16712741 339.26550151 -1787.8717041 336.23551941 C-1784.89384696 334.53164416 -1781.91574097 332.82820426 -1778.9375 331.125 C-1778.35260803 330.79049835 -1777.76771606 330.4559967 -1777.1651001 330.11135864 C-1769.33226848 325.63283889 -1761.48528771 321.18015782 -1753.625 316.75 C-1744.31934433 311.5039132 -1735.05974666 306.18063599 -1725.8112793 300.83447266 C-1716.48999232 295.44655015 -1707.14662453 290.09821231 -1697.79443359 284.76416016 C-1693.44492466 282.28266139 -1689.09759178 279.79735554 -1684.75 277.3125 C-1682.99089542 276.30727416 -1681.23178086 275.30206579 -1679.47265625 274.296875 C-1678.60527832 273.80123047 -1677.73790039 273.30558594 -1676.84423828 272.79492188 C-1669.24609375 268.453125 -1669.24609375 268.453125 -1666.73120117 267.01611328 C-1665.02425268 266.04066733 -1663.31738521 265.06507957 -1661.6105957 264.08935547 C-1656.59127706 261.22025114 -1651.5700106 258.35460464 -1646.546875 255.4921875 C-1644.17685191 254.14103048 -1641.80708617 252.78942312 -1639.4375 251.4375 C-1638.84277893 251.09821472 -1638.24805786 250.75892944 -1637.63531494 250.40936279 C-1629.41546413 245.71767221 -1621.22718872 240.97467554 -1613.0625 236.1875 C-1603.89907256 230.81767365 -1594.66337781 225.58928117 -1585.38720703 220.41699219 C-1576.26089112 215.327672 -1567.18465301 210.15488445 -1558.12011719 204.95654297 C-1554.95955141 203.14612702 -1551.79641055 201.34026808 -1548.6328125 199.53515625 C-1537.09177506 192.94927446 -1525.56322172 186.34366531 -1514.0625 179.6875 C-1505.62205073 174.80384648 -1497.14384361 169.99551182 -1488.625 165.25 C-1479.51251008 160.17249274 -1470.47747149 154.97738266 -1461.4777832 149.70288086 C-1453.78094645 145.19547601 -1446.05694615 140.73742364 -1438.3125 136.3125 C-1437.72633911 135.97757538 -1437.14017822 135.64265076 -1436.53625488 135.2975769 C-1427.06946272 129.89223992 -1417.56322629 124.55879828 -1408.04443359 119.24560547 C-1401.22616981 115.43447127 -1394.44748232 111.56222225 -1387.6965332 107.63330078 C-1379.39907884 102.80673984 -1371.0659725 98.04252389 -1362.72216797 93.29663086 C-1357.34795221 90.23804613 -1351.98283422 87.16904918 -1346.66796875 84.0078125 C-1333.64587241 76.3005814 -1320.23409504 70.07723656 -1306.25 64.3125 C-1304.61248779 63.63405029 -1304.61248779 63.63405029 -1302.94189453 62.94189453 C-1249.67762907 41.03425315 -1193.94091629 25.77450569 -1136 26 C-1135.01931549 26.00182281 -1134.03863098 26.00364563 -1133.02822876 26.00552368 C-1117.90624128 26.05269299 -1103.16471534 26.61199069 -1088.25 29.3125 C-1087.26950684 29.48410645 -1086.28901367 29.65571289 -1085.27880859 29.83251953 C-1062.59177139 33.89896109 -1041.13838157 40.59081281 -1020.25 50.3125 C-1019.42435547 50.69245117 -1018.59871094 51.07240234 -1017.74804688 51.46386719 C-993.73796225 62.61882782 -972.66934659 77.56060123 -952.81787109 94.93994141 C-951.45203682 96.13563127 -950.08005707 97.32429397 -948.70703125 98.51171875 C-943.29692974 103.2693457 -938.16732607 108.29469952 -933.0625 113.375 C-932.06404053 114.3664502 -932.06404053 114.3664502 -931.04541016 115.37792969 C-927.17794262 119.25790085 -923.48743045 123.2417058 -919.90942383 127.38989258 C-918.3638149 129.18063413 -916.79497656 130.94676897 -915.21484375 132.70703125 C-892.90460551 157.77175537 -875.274513 186.59489689 -858.06689453 215.28564453 C-844.51272183 238.77228293 -844.51272183 238.77228293 -825.25 257.3125 C-825.25 257.9725 -825.25 258.6325 -825.25 259.3125 C-824.66863281 259.580625 -824.08726563 259.84875 -823.48828125 260.125 C-821.21287451 261.3321966 -819.42654818 262.68046046 -817.4375 264.3125 C-776.14610364 296.77979697 -724.24885622 309.45109934 -672.41308594 303.71484375 C-642.396979 299.89680236 -615.41267166 290.39614697 -589.51953125 275.01953125 C-583.72382067 271.57813302 -577.87643666 268.2387186 -572 264.9375 C-563.35709447 260.07272967 -554.73405637 255.17434071 -546.125 250.25 C-545.52838562 249.90875092 -544.93177124 249.56750183 -544.31707764 249.21591187 C-541.38050679 247.53612882 -538.44411402 245.85603506 -535.5078125 244.17578125 C-532.57916886 242.50076564 -529.64936309 240.82781671 -526.71875 239.15625 C-517.36001934 233.81740061 -508.01735172 228.45167206 -498.6875 223.0625 C-489.49039617 217.75109227 -480.28344509 212.45738001 -471.0625 207.1875 C-470.47536224 206.85192078 -469.88822449 206.51634155 -469.28329468 206.17059326 C-461.37044207 201.64962482 -453.4406428 197.15946183 -445.5 192.6875 C-436.69163029 187.72566351 -427.95183054 182.65377638 -419.22949219 177.54248047 C-411.4935417 173.01708744 -403.70254544 168.59656281 -395.89013672 164.20483398 C-389.01111422 160.32945212 -382.18491497 156.37038688 -375.375 152.375 C-366.18483273 146.98518798 -356.91930424 141.74639422 -347.61035156 136.56494141 C-339.38805108 131.97721033 -331.24974291 127.25669402 -323.12890625 122.4921875 C-316.37178368 118.53355868 -309.57655302 114.65003215 -302.75 110.8125 C-294.87361926 106.38413993 -287.04586683 101.88109983 -279.25 97.3125 C-270.51165692 92.19158226 -261.72296376 87.17076006 -252.89453125 82.20703125 C-245.9739069 78.30768902 -239.10428538 74.32712912 -232.25 70.3125 C-229.23266373 68.55285308 -226.21474715 66.79420459 -223.19677734 65.03564453 C-221.26970804 63.90877998 -219.34542525 62.77713305 -217.42431641 61.64013672 C-168.48118861 32.69379713 -111.6473643 13.60522315 -55.6875 4 C-54.83406006 3.85256348 -53.98062012 3.70512695 -53.10131836 3.55322266 C-35.4708417 0.73459336 -17.82834501 -0.06604565 0 0 Z " fill="#F9B40A" transform="translate(3899.25,71.6875)"/>
<path d="M0 0 C0.56074219 0.40669922 1.12148438 0.81339844 1.69921875 1.23242188 C5.17710168 3.76584476 8.60288153 6.35953618 12 9 C12.68449219 9.52851562 13.36898438 10.05703125 14.07421875 10.6015625 C15.42759414 11.68047715 16.72413082 12.83045325 18 14 C18 14.66 18 15.32 18 16 C18.99 16.33 19.98 16.66 21 17 C23.1875 18.9375 23.1875 18.9375 25 21 C25 21.66 25 22.32 25 23 C25.66 23 26.32 23 27 23 C30.25714194 26.44326433 33.09517385 30.25790044 36 34 C36.44085938 34.56203125 36.88171875 35.1240625 37.3359375 35.703125 C63 68.63619942 63 68.63619942 63 82 C66.54168666 78.63662742 69.32068011 75.26404335 72 71.1875 C80.79359443 58.15659725 91.15384118 46.3477153 102 35 C102.70640625 34.25234375 103.4128125 33.5046875 104.140625 32.734375 C145.36639659 -9.83207209 204.62431596 -32.42794388 263 -34 C263.67160156 -34.02191406 264.34320312 -34.04382813 265.03515625 -34.06640625 C314.43853301 -35.53966798 361.03241846 -19.21022708 399 12 C399.56928223 12.44891602 400.13856445 12.89783203 400.72509766 13.36035156 C402.18672578 14.52914106 403.59823015 15.76005366 405 17 C405 17.66 405 18.32 405 19 C406.32 19.66 407.64 20.32 409 21 C409 21.66 409 22.32 409 23 C409.55429687 23.21140625 410.10859375 23.4228125 410.6796875 23.640625 C413.80413059 25.47110681 415.85284028 27.99054417 418.125 30.75 C418.84405518 31.61455811 418.84405518 31.61455811 419.57763672 32.49658203 C472.26416679 96.65252444 480.20963653 180.26325251 480.11606562 260.13401735 C480.11169171 264.8296351 480.1132124 269.52525175 480.1139679 274.22087097 C480.11448879 282.3295926 480.11138777 290.4383061 480.10573006 298.54702568 C480.09755564 310.2704487 480.09499379 321.99386783 480.09374207 333.71729339 C480.09156082 352.74406695 480.08492603 371.7708362 480.07543945 390.79760742 C480.06624124 409.26538064 480.05917223 427.73315268 480.05493164 446.20092773 C480.05466892 447.3418914 480.05440619 448.48285506 480.05413551 449.65839338 C480.05283034 455.38305214 480.05156667 461.10771091 480.05032361 466.83236969 C480.03997991 514.22158363 480.02155728 561.61078957 480 609 C428.52 609 377.04 609 324 609 C323.98018066 598.00816406 323.96036133 587.01632812 323.93994141 575.69140625 C323.87501882 540.44914291 323.80047874 505.20690571 323.71994839 469.96467471 C323.70743077 464.48279763 323.69499781 459.00092036 323.68261719 453.51904297 C323.68015119 452.4277828 323.6776852 451.33652263 323.67514448 450.21219397 C323.63551145 432.58449833 323.60272245 414.95679636 323.57250018 397.32908237 C323.54129391 379.21710881 323.50264591 361.10516193 323.45720994 342.99321842 C323.42944532 331.83347034 323.4073607 320.67374158 323.39273749 309.51396841 C323.38212696 301.84253014 323.3642336 294.17112949 323.34083296 286.49971968 C323.32757682 282.08570521 323.31732017 277.67174302 323.31578636 273.2577076 C323.30529854 250.71742877 323.17063688 228.14982435 319.25 205.875 C319.08226074 204.90183838 318.91452148 203.92867676 318.74169922 202.92602539 C312.78962999 169.98751894 300.21678471 134.41535012 271.75 114.375 C248.43943922 98.56895965 220.32350983 93.75944812 192.70043945 98.58959961 C162.51098639 104.38941632 136.27154356 122.77125532 119 148 C99.74203416 177.31924198 94.86320189 209.43435276 94.84178162 244.02754211 C94.83720529 245.61031202 94.83220374 247.19308074 94.82681805 248.77584809 C94.81334928 253.09047358 94.80585161 257.40509127 94.79939139 261.71973217 C94.79133743 266.38554148 94.7776571 271.05133482 94.76467896 275.71713257 C94.74298661 283.78946237 94.72481589 291.86179383 94.70907402 299.93413734 C94.6863091 311.60522356 94.65817566 323.27629205 94.62875474 334.94736316 C94.58115974 353.88539246 94.53787378 372.82342903 94.49731445 391.76147461 C94.45791825 410.15210536 94.41648222 428.54272967 94.37231445 446.93334961 C94.36822804 448.63529447 94.36822804 448.63529447 94.36405908 450.37162206 C94.35037892 456.06403504 94.33665879 461.75644793 94.32291877 467.44886076 C94.20908119 514.63256116 94.10304077 561.81627455 94 609 C42.85 609 -8.3 609 -61 609 C-61.01981934 598.08558838 -61.03963867 587.17117676 -61.06005859 575.92602539 C-61.12505426 540.88614583 -61.19959872 505.84629229 -61.28005161 470.80644495 C-61.29256843 465.35118807 -61.30500152 459.89593101 -61.31738281 454.44067383 C-61.3210818 452.81181068 -61.3210818 452.81181068 -61.32485552 451.15004122 C-61.36443118 433.63512334 -61.39724523 416.12019912 -61.42749982 398.60526294 C-61.45876485 380.59381712 -61.49743676 362.58239783 -61.54279006 344.57098192 C-61.57048126 333.48342727 -61.59259674 322.39589171 -61.60726251 311.30831205 C-61.6179168 303.67465347 -61.63585369 296.04103217 -61.65916704 288.40740187 C-61.67235403 284.02265151 -61.68266858 279.63795268 -61.68421364 275.25318146 C-61.69226793 258.49107995 -61.89485288 241.77785675 -62.87539673 225.04100037 C-62.98733858 223.07109984 -62.98733858 223.07109984 -63.10154188 221.06140333 C-65.49920461 184.18856856 -76.73924144 145.68321344 -104.3125 119.75 C-120.38076421 106.20224782 -140.8804169 97.78584495 -162 97 C-163.00675781 96.9484375 -164.01351563 96.896875 -165.05078125 96.84375 C-195.06059708 96.01302845 -222.76460027 107.42264106 -244.58642578 127.73071289 C-270.52394787 152.3919977 -289.04276649 189.19610709 -290.09826958 225.36764729 C-290.14242428 229.50345138 -290.15571855 233.63831526 -290.15821838 237.77430725 C-290.1627896 239.37837373 -290.16779044 240.98243904 -290.17318195 242.58650297 C-290.18670872 246.97857531 -290.19416552 251.37063995 -290.20060861 255.76272762 C-290.20863666 260.50495417 -290.22232611 265.24716481 -290.23532104 269.98937988 C-290.25704976 278.20037905 -290.27520739 286.41137986 -290.29092598 294.62239265 C-290.31365749 306.49407733 -290.34179574 318.36574437 -290.37124526 330.23741405 C-290.41888098 349.49933269 -290.46215603 368.76125855 -290.50268555 388.02319336 C-290.54206094 406.73218345 -290.58349206 425.44116713 -290.62768555 444.15014648 C-290.63177196 445.88055065 -290.63177196 445.88055065 -290.63594092 447.64591248 C-290.64962073 453.43331242 -290.66334094 459.22071227 -290.67708123 465.00811207 C-290.79098284 513.00539546 -290.8970022 561.00269173 -291 609 C-342.48 609 -393.96 609 -447 609 C-447.029729 586.18613159 -447.029729 586.18613159 -447.06005859 562.91137695 C-447.1035268 530.24496359 -447.14950762 497.57855628 -447.20132446 464.91215515 C-447.2030249 463.83953641 -447.2030249 463.83953641 -447.20475969 462.74524861 C-447.22943244 447.19077198 -447.25452627 431.63629606 -447.28005161 416.0818208 C-447.2925734 408.449811 -447.30500251 400.81780105 -447.31738281 393.18579102 C-447.31861614 392.42646425 -447.31984946 391.66713748 -447.32112016 390.88480081 C-447.36078564 366.43717119 -447.3943752 341.989538 -447.42468691 317.54189515 C-447.45596617 292.34051033 -447.49362825 267.13914245 -447.53890612 241.93777871 C-447.54535302 238.34787968 -447.55172971 234.75798052 -447.55806351 231.16808128 C-447.55931181 230.46179412 -447.56056012 229.75550696 -447.56184625 229.02781716 C-447.57905477 219.20280436 -447.59195861 209.37779434 -447.60136419 199.55277108 C-447.26909121 96.83792375 -447.26909121 96.83792375 -451.84814453 -5.74682617 C-452.05414949 -10.16003531 -452 -14.58198541 -452 -19 C-406.46 -19 -360.92 -19 -314 -19 C-313.01 -5.305 -312.02 8.39 -311 22.5 C-310.68675781 26.81255859 -310.37351562 31.12511719 -310.05078125 35.56835938 C-309.66992187 40.86425781 -309.66992187 40.86425781 -309.49194336 43.34924316 C-309.36799451 45.07230087 -309.24292366 46.79527811 -309.11694336 48.51818848 C-308.92554024 51.13889325 -308.73778055 53.75983716 -308.55078125 56.38085938 C-308.49457108 57.13901695 -308.4383609 57.89717453 -308.38044739 58.67830658 C-308.04383287 63.46454108 -307.9522798 68.2017504 -308 73 C-303.44126364 71.49792788 -301.58478257 67.76715595 -299.125 63.9375 C-291.36425329 52.26367078 -282.61290678 40.94896818 -272.35546875 31.34765625 C-270.87818413 30.02217517 -270.87818413 30.02217517 -270 28 C-269.34 28 -268.68 28 -268 28 C-268 27.34 -268 26.68 -268 26 C-265.58007193 23.41771254 -262.72462131 21.25094433 -260 19 C-259.46890625 18.5580127 -258.9378125 18.11602539 -258.390625 17.66064453 C-249.31369986 10.13487185 -239.95824889 3.3094686 -230 -3 C-229.07574219 -3.60199219 -228.15148437 -4.20398438 -227.19921875 -4.82421875 C-161.68686365 -45.49686757 -62.66406805 -45.7929728 0 0 Z " fill="#013066" transform="translate(474,904)"/>
<path d="M0 0 C52.47 0 104.94 0 159 0 C159.01981934 22.4387915 159.03963867 44.87758301 159.06005859 67.99633789 C159.07358857 82.99276243 159.08715143 97.98918688 159.10116577 112.98561096 C159.10250057 114.41547284 159.10250057 114.41547284 159.10386233 115.87422082 C159.13392048 148.03605851 159.16663764 180.19789293 159.20132446 212.35972595 C159.2030249 213.93732143 159.2030249 213.93732143 159.20475969 215.54678752 C159.22942506 238.41706254 159.25451857 261.28733707 159.28005161 284.15761114 C159.29257481 295.37712804 159.30500364 306.59664505 159.31738281 317.81616211 C159.31861614 318.93249476 159.31984946 320.04882742 159.32112016 321.19898834 C159.36087717 357.22457259 159.39443223 393.25015929 159.42468691 429.27575268 C159.45587407 466.37195031 159.493486 503.46813623 159.53890612 540.5643193 C159.54535423 545.83310099 159.55173072 551.10188277 159.55806351 556.3706646 C159.55931181 557.40738987 159.56056012 558.44411515 159.56184625 559.51225635 C159.58156211 576.03810377 159.59472841 592.56394987 159.60529328 609.08980539 C159.61612278 625.80230005 159.63421321 642.51477539 159.65916704 659.22725499 C159.67243971 668.24241611 159.68287842 677.25755456 159.68421364 686.27272606 C159.6910622 721.44868769 159.92991464 756.59461179 160.94961548 791.7575531 C160.98165617 792.8649324 160.98165617 792.8649324 161.01434414 793.99468299 C161.68095431 816.87244455 162.57575578 839.73758204 163.84814453 862.59008789 C164.02180519 866.48592571 164.01499463 870.37625581 164.00949097 874.27561951 C164.00812071 875.53520194 164.00675045 876.79478437 164.00533867 878.09253597 C164.00357691 879.0519991 164.00181515 880.01146223 164 881 C145.50277268 881.02332798 127.00554833 881.04097868 108.50830936 881.05181217 C99.92032951 881.05697534 91.33235877 881.06401844 82.74438477 881.07543945 C75.26184583 881.08538565 67.77931349 881.09185327 60.29676813 881.09408849 C56.33235414 881.09539571 52.36795905 881.09848226 48.4035511 881.10573006 C44.67639787 881.11248926 40.94927143 881.11461717 37.22211266 881.11310768 C35.85024495 881.11338406 34.4783764 881.11538978 33.10651398 881.11920547 C31.24139037 881.12414108 29.37625256 881.12239794 27.51112366 881.12025452 C26.46488862 881.12117631 25.41865358 881.1220981 24.34071445 881.12304783 C22 881 22 881 21 880 C20.72486997 877.21116169 20.511225 874.43977317 20.33569336 871.64404297 C20.27702591 870.76756607 20.21835846 869.89108917 20.15791321 868.98805237 C19.96400462 866.07304479 19.77682521 863.15764699 19.58984375 860.2421875 C19.45709121 858.2201213 19.32399451 856.19807768 19.19056702 854.17605591 C18.91119606 849.92744849 18.63495758 845.67865276 18.36108398 841.4296875 C18.01049769 835.99210316 17.65387696 830.55493666 17.2950964 825.1178875 C17.019578 820.93663468 16.74646519 816.75522758 16.47415352 812.5737648 C16.34352622 810.56993173 16.21235006 808.56613436 16.08061028 806.56237411 C15.89640124 803.75250141 15.7152281 800.9424491 15.53491211 798.13232422 C15.48037872 797.30814499 15.42584534 796.48396576 15.36965942 795.6348114 C15.08092782 791.07852054 14.94789314 786.56547416 15 782 C14.34 782 13.68 782 13 782 C12.74347656 782.69996094 12.48695313 783.39992188 12.22265625 784.12109375 C7.91185786 794.27144013 0.75005852 803.38464033 -6 812 C-6.67417969 812.88042969 -7.34835937 813.76085938 -8.04296875 814.66796875 C-12.6629096 820.53607373 -17.68298747 825.88621695 -22.9375 831.1875 C-23.93257568 832.19647339 -23.93257568 832.19647339 -24.94775391 833.22583008 C-25.88433838 834.15625122 -25.88433838 834.15625122 -26.83984375 835.10546875 C-27.40050537 835.66387451 -27.96116699 836.22228027 -28.53881836 836.79760742 C-30 838 -30 838 -32 838 C-32 838.66 -32 839.32 -32 840 C-33.33837891 841.27758789 -33.33837891 841.27758789 -35.2265625 842.72265625 C-36.26780273 843.52316406 -36.26780273 843.52316406 -37.33007812 844.33984375 C-38.46606445 845.19255859 -38.46606445 845.19255859 -39.625 846.0625 C-40.40552734 846.6503125 -41.18605469 847.238125 -41.99023438 847.84375 C-94.81428522 887.25696018 -163.68058547 902.85379638 -228.81884766 893.47827148 C-231.55662876 893.03101022 -234.27702496 892.52983762 -237 892 C-238.03253906 891.80132324 -239.06507813 891.60264648 -240.12890625 891.39794922 C-288.37398639 881.80212354 -330.11764039 859.11581502 -366 825.8125 C-367.051875 824.84038574 -367.051875 824.84038574 -368.125 823.84863281 C-368.764375 823.2450293 -369.40375 822.64142578 -370.0625 822.01953125 C-370.91521484 821.21672729 -370.91521484 821.21672729 -371.78515625 820.39770508 C-373 819 -373 819 -373 817 C-373.66 817 -374.32 817 -375 817 C-377.58236586 814.5844947 -379.74095245 811.71394109 -382 809 C-382.9296575 807.91664093 -383.85934723 806.8333095 -384.7890625 805.75 C-398.93187875 789.03657972 -411.04346237 770.49197728 -421 751 C-421.43618652 750.15211914 -421.87237305 749.30423828 -422.32177734 748.43066406 C-468.13994231 658.48348308 -473.34203859 542.07609534 -441.85571289 441.71801758 C-436.61817535 425.60998517 -430.62417316 410.15008982 -423 395 C-422.52062988 394.02788574 -422.04125977 393.05577148 -421.54736328 392.05419922 C-403.49334886 355.535446 -377.3212534 321.12366335 -345 296 C-344.01773438 295.21238281 -343.03546875 294.42476562 -342.0234375 293.61328125 C-297.88614103 258.50327966 -243.06903765 240.11816364 -187 238 C-185.88367187 237.95746094 -184.76734375 237.91492188 -183.6171875 237.87109375 C-162.31860277 237.50046873 -140.81007115 239.48723774 -120 244 C-119.07058594 244.20077148 -118.14117188 244.40154297 -117.18359375 244.60839844 C-72.80679233 254.51229944 -28.96083914 278.37390748 -3.80078125 317.36328125 C-2.26579715 320.06976226 -2.26579715 320.06976226 0 321 C0 215.07 0 109.14 0 0 Z M-240 401 C-240.76828125 401.72832031 -241.5365625 402.45664063 -242.328125 403.20703125 C-284.32367964 443.9884287 -297.89061199 508.03102358 -299 564.36328125 C-299.34089724 611.19404022 -291.69282722 662.92305443 -264 702 C-263.41089844 702.85980469 -262.82179688 703.71960937 -262.21484375 704.60546875 C-258.28719068 710.194511 -254.0341772 715.47569572 -249.625 720.6875 C-248.83863159 721.62493042 -248.83863159 721.62493042 -248.03637695 722.58129883 C-246.73640952 724.09450077 -245.37316525 725.55289508 -244 727 C-243.34 727 -242.68 727 -242 727 C-242 727.66 -242 728.32 -242 729 C-222.37615785 750.45215043 -191.11339745 762.30086876 -163 766 C-162.31349365 766.0928125 -161.6269873 766.185625 -160.91967773 766.28125 C-144.60237171 768.31932101 -128.01820711 767.62932574 -112 764 C-111.29278809 763.84966309 -110.58557617 763.69932617 -109.85693359 763.54443359 C-90.52492318 759.33155149 -72.42009034 750.32007218 -57 738 C-55.99582031 737.2265625 -54.99164062 736.453125 -53.95703125 735.65625 C-48.30643441 731.20287813 -43.54216747 726.55701182 -39 721 C-38.23042969 720.12859375 -37.46085937 719.2571875 -36.66796875 718.359375 C-30.06818563 710.77621405 -24.85008348 702.79423407 -20 694 C-19.3709375 692.86691406 -18.741875 691.73382812 -18.09375 690.56640625 C-7.29327619 670.07866536 -1.54885517 646.03543992 -0.44799805 622.9765625 C-0.40595843 622.10794586 -0.36391882 621.23932922 -0.32060528 620.34439087 C0.13939533 610.02329368 0.16419317 599.70456052 0.16796875 589.375 C0.17119724 587.25105774 0.17456238 585.12711567 0.17805481 583.00317383 C0.18399061 578.57942186 0.18590054 574.15568926 0.18530273 569.73193359 C0.18522161 565.25825954 0.19215166 560.78468818 0.20581055 556.31103516 C0.3753297 499.93978435 -0.69088373 446.09584275 -42 403 C-42.74507812 402.19175781 -43.49015625 401.38351562 -44.2578125 400.55078125 C-66.83118541 376.82266484 -100.29370831 362.58342355 -132.9453125 361.69921875 C-135.33846575 361.67976088 -137.73179407 361.67625298 -140.125 361.6875 C-141.39400146 361.69313965 -142.66300293 361.6987793 -143.97045898 361.70458984 C-180.49451435 362.17293614 -213.65784216 375.70244497 -240 401 Z " fill="#013066" transform="translate(2763,632)"/>
<path d="M0 0 C53.44420476 -2.46246741 108.62817778 16.64187502 148.3581543 52.35351562 C150.79353112 54.57994575 153.18481296 56.84919117 155.57373047 59.12548828 C156.35232422 59.85123047 157.13091797 60.57697266 157.93310547 61.32470703 C208.38528303 109.71943763 225.25906163 186.21763885 227.12814331 253.51243591 C227.14911484 254.24196716 227.17008638 254.9714984 227.19169341 255.72313666 C227.67731796 272.92749332 227.7175725 290.12796086 227.70445514 307.33796656 C227.70214251 311.85208754 227.70570862 316.36620508 227.70843506 320.88032532 C227.71282695 329.66184277 227.71194714 338.44335156 227.70902242 347.22486932 C227.70674686 354.35648644 227.70646507 361.48810117 227.70754623 368.61971855 C227.70777608 370.15270097 227.70777608 370.15270097 227.70801058 371.71665273 C227.70833034 373.79356484 227.70865455 375.87047695 227.70898317 377.94738906 C227.71181736 397.30179709 227.70858103 416.65620034 227.7031828 436.01060759 C227.6986943 452.6192974 227.6995114 469.22798023 227.70410156 485.83666992 C227.70944556 505.18178037 227.71156619 524.52688669 227.7084893 543.87199777 C227.70817077 545.93039127 227.7078564 547.98878477 227.70754623 550.04717827 C227.70739196 551.05972877 227.70723768 552.07227928 227.70707873 553.11551313 C227.70621471 560.25583832 227.70767353 567.39616089 227.71002579 574.53648567 C227.71282102 583.21041327 227.71209047 591.88433181 227.70674504 600.55825836 C227.70410772 604.98383097 227.70310381 609.40938843 227.7063942 613.83496094 C227.70935512 617.87807492 227.70776791 621.92115959 227.70241664 625.96427088 C227.70129186 627.43297976 227.70188497 628.90169107 227.70429243 630.37039841 C227.70729574 632.35325927 227.70364349 634.33612699 227.69957161 636.31898594 C227.69940926 637.42414793 227.6992469 638.52930991 227.69907963 639.66796166 C227.57373047 642.12548828 227.57373047 642.12548828 226.57373047 643.12548828 C224.52345308 643.22228869 222.46978168 643.24735772 220.41722107 643.2457428 C219.44201219 643.24702444 219.44201219 643.24702444 218.44710213 643.24833196 C216.25287467 643.24998854 214.05872245 643.24446253 211.86450195 643.23901367 C210.29787193 643.23873181 208.73124177 643.23888951 207.16461182 643.23945618 C202.8982667 643.2397442 198.63194945 643.23384671 194.36561084 643.22688222 C189.91195996 643.22064946 185.4583085 643.22004495 181.00465393 643.21885681 C172.56505603 643.21574326 164.12547102 643.20752956 155.68587881 643.19750732 C146.08023603 643.18634691 136.47459265 643.18083592 126.868945 643.17581189 C107.10386629 643.16534697 87.33879919 643.14774707 67.57373047 643.12548828 C67.57237394 642.34420573 67.57101741 641.56292317 67.56961977 640.75796539 C67.48885683 594.38657603 67.39785631 548.01521635 67.29367886 501.64387338 C67.28116095 496.06800234 67.26872803 490.49213111 67.25634766 484.91625977 C67.25264867 483.25127358 67.25264867 483.25127358 67.24887495 481.55265131 C67.20922092 463.61253559 67.17644113 445.67241363 67.14623065 427.73227981 C67.11504581 409.30504753 67.07640669 390.87784158 67.03094041 372.45063895 C67.00314887 361.09280605 66.98107568 349.73499227 66.96646796 338.37713464 C66.95587336 330.57396304 66.93799618 322.7708286 66.91456343 314.96768508 C66.90128185 310.475057 66.89104657 305.98248068 66.88951683 301.48983192 C66.88151938 283.94457936 66.82834242 266.55988601 64.57373047 249.12548828 C64.35072989 247.38652896 64.35072989 247.38652896 64.12322426 245.61243916 C63.76663267 242.97851288 63.34950592 240.36760153 62.88623047 237.75048828 C62.63740112 236.34367798 62.63740112 236.34367798 62.38354492 234.90844727 C56.20207021 202.03809321 42.15329616 169.21728624 13.87841797 149.48876953 C-2.57820216 138.48706678 -22.55389229 131.81172865 -42.42626953 131.12548828 C-43.72435547 131.07392578 -45.02244141 131.02236328 -46.35986328 130.96923828 C-81.7778948 130.0234493 -113.83147633 142.89380964 -139.52709961 167.12817383 C-160.3165401 187.48871696 -176.6249365 216.8971219 -179.42626953 246.12548828 C-179.50706991 246.91444355 -179.58787028 247.70339881 -179.67111915 248.51626182 C-180.4779037 257.07542943 -180.57923753 265.59635971 -180.58448792 274.18463135 C-180.58906285 275.78303739 -180.59406421 277.38144225 -180.59945148 278.97984576 C-180.61293598 283.34233691 -180.62042259 287.70482034 -180.62687814 292.06732678 C-180.63492504 296.78291548 -180.64860787 301.49848833 -180.66159058 306.21406555 C-180.6832928 314.37426504 -180.70145998 322.53446617 -180.71719551 330.69467926 C-180.73995134 342.49283775 -180.76808609 354.29097864 -180.79751479 366.08912215 C-180.84512086 385.23290958 -180.88840387 404.37670423 -180.92895508 423.52050781 C-180.96834562 442.11198488 -181.00978032 460.70345554 -181.05395508 479.29492188 C-181.05804149 481.0151828 -181.05804149 481.0151828 -181.06221045 482.77019647 C-181.07589051 488.52381637 -181.08961067 494.27743617 -181.10335076 500.03105593 C-181.21720575 547.72918746 -181.32324045 595.42733189 -181.42626953 643.12548828 C-234.55626953 643.12548828 -287.68626953 643.12548828 -342.42626953 643.12548828 C-342.45599854 620.31161987 -342.45599854 620.31161987 -342.48632812 597.03686523 C-342.52979633 564.37045187 -342.57577716 531.70404456 -342.62759399 499.03764343 C-342.62929443 497.96502469 -342.62929443 497.96502469 -342.63102922 496.87073689 C-342.65570197 481.31626026 -342.6807958 465.76178434 -342.70632114 450.20730909 C-342.71884294 442.57529928 -342.73127204 434.94328933 -342.74365234 427.3112793 C-342.74488567 426.55195253 -342.74611899 425.79262576 -342.74738969 425.01028909 C-342.78705517 400.56265947 -342.82064474 376.11502628 -342.85095644 351.66738343 C-342.8822357 326.46599861 -342.91989778 301.26463073 -342.96517565 276.063267 C-342.97162255 272.47336796 -342.97799924 268.8834688 -342.98433304 265.29356956 C-342.98558134 264.58728241 -342.98682965 263.88099525 -342.98811578 263.15330545 C-343.0053243 253.32829304 -343.01822814 243.50328342 -343.02763372 233.67826057 C-342.89050726 129.95013513 -342.89050726 129.95013513 -347.27441406 26.33520508 C-347.45101437 22.60246522 -347.42626953 18.86240339 -347.42626953 15.12548828 C-301.22626953 15.12548828 -255.02626953 15.12548828 -207.42626953 15.12548828 C-205.17601206 33.12754801 -205.17601206 33.12754801 -204.6484375 39.67138672 C-204.58962402 40.38906219 -204.53081055 41.10673767 -204.47021484 41.84616089 C-204.28292105 44.14213666 -204.10053666 46.43846869 -203.91845703 48.73486328 C-203.78705418 50.36153227 -203.65538576 51.98817982 -203.52346802 53.61480713 C-203.25078927 56.98603648 -202.9804072 60.35743867 -202.71191406 63.72900391 C-202.36802273 68.04654516 -202.01954875 72.36370149 -201.66955376 76.6807518 C-201.39886635 80.02290364 -201.12988088 83.36519062 -200.86148453 86.70752716 C-200.73346898 88.30075289 -200.60508292 89.89394889 -200.47631454 91.48711395 C-200.29768207 93.70205726 -200.12118069 95.91715993 -199.9453125 98.13232422 C-199.79447708 100.01851471 -199.79447708 100.01851471 -199.64059448 101.94281006 C-199.47965748 104.33268907 -199.42626953 106.73019657 -199.42626953 109.12548828 C-198.43626953 109.12548828 -197.44626953 109.12548828 -196.42626953 109.12548828 C-196.03761719 108.05621094 -196.03761719 108.05621094 -195.64111328 106.96533203 C-189.74619476 93.18524918 -177.93435554 80.64408872 -167.86376953 69.75048828 C-167.25581543 69.08944092 -166.64786133 68.42839355 -166.02148438 67.74731445 C-165.45252441 67.14250244 -164.88356445 66.53769043 -164.29736328 65.91455078 C-163.79132568 65.37523926 -163.28528809 64.83592773 -162.76391602 64.28027344 C-161.42626953 63.12548828 -161.42626953 63.12548828 -159.42626953 63.12548828 C-159.42626953 62.46548828 -159.42626953 61.80548828 -159.42626953 61.12548828 C-156.45799711 58.36541132 -153.23655455 55.91102491 -150.05126953 53.40625 C-148.48045339 52.16819389 -146.92186454 50.91467253 -145.36376953 49.66064453 C-123.25870643 32.17001335 -98.20673631 19.71553637 -71.42626953 11.12548828 C-70.60819824 10.86155273 -69.79012695 10.59761719 -68.94726562 10.32568359 C-46.47335883 3.22563459 -23.42412631 1.21151146 0 0 Z " fill="#013066" transform="translate(2007.42626953125,869.87451171875)"/>
<path d="M0 0 C46.00083193 44.21157309 66.6324996 111.20522343 68.79185581 173.70854235 C68.8326772 176.52955795 68.84594191 179.34916259 68.84680176 182.17047119 C68.85315037 183.77051282 68.85315037 183.77051282 68.85962725 185.40287852 C68.87254274 188.94339194 68.87865287 192.48388289 68.88476562 196.02441406 C68.89271853 198.578813 68.9011073 201.13321061 68.90989685 203.68760681 C68.92790866 209.17940162 68.94305345 214.6711924 68.95567322 220.16300201 C68.9741221 228.15528781 68.99879088 236.14754569 69.02504712 244.13980922 C69.06779631 257.17897161 69.10689018 270.21814201 69.14306641 283.25732422 C69.14522921 284.03644144 69.14739201 284.81555867 69.14962035 285.61828551 C69.16054769 289.55956216 69.17143013 293.50083894 69.18228912 297.44211578 C69.20381933 305.25389163 69.22556526 313.06566685 69.24755859 320.87744141 C69.24971746 321.64467719 69.25187633 322.41191298 69.25410062 323.20239833 C69.29065184 336.15296207 69.33065462 349.10351324 69.37286139 362.05405974 C69.39628879 369.28886542 69.41793984 376.52366768 69.43495178 383.75849152 C69.49876389 410.70241516 69.59503543 437.64207453 70.15820312 464.58105469 C70.17790633 465.53926573 70.19760954 466.49747678 70.21790981 467.48472452 C70.93317902 501.33237964 72.59289224 535.30761104 77.36328125 568.85546875 C77.72532882 572.19056573 77.6953125 575.5593717 77.6953125 578.9140625 C30.1753125 578.9140625 -17.3446875 578.9140625 -66.3046875 578.9140625 C-76.3046875 512.9140625 -76.3046875 512.9140625 -76.3046875 509.9140625 C-77.6246875 509.9140625 -78.9446875 509.9140625 -80.3046875 509.9140625 C-80.55605469 510.48253906 -80.80742188 511.05101562 -81.06640625 511.63671875 C-88.78920706 525.83985084 -105.34217197 538.53903215 -118.3046875 547.9140625 C-118.96533203 548.39198242 -119.62597656 548.86990234 -120.30664062 549.36230469 C-136.89633744 561.19982588 -155.06820315 571.11585315 -174.3046875 577.9140625 C-175.44309082 578.32881836 -175.44309082 578.32881836 -176.60449219 578.75195312 C-190.27181658 583.70521163 -204.00569079 587.31224608 -218.3046875 589.9140625 C-219.17174316 590.07922363 -220.03879883 590.24438477 -220.93212891 590.41455078 C-250.8103858 595.88346511 -284.67738206 595.38496352 -314.3046875 588.9140625 C-315.78171143 588.60057861 -315.78171143 588.60057861 -317.28857422 588.28076172 C-348.86508221 581.37582508 -382.1984219 566.37283513 -404.71484375 542.53515625 C-406.40293922 540.81387954 -408.19359321 539.32062701 -410.0546875 537.7890625 C-442.39433556 509.61625371 -458.85676465 463.43238951 -462.9921875 421.8515625 C-466.44287501 369.01291006 -453.27383901 314.41578388 -418.58984375 273.5 C-414.23249111 268.56911548 -409.81420856 263.70629054 -405.3046875 258.9140625 C-404.68851563 258.25535156 -404.07234375 257.59664062 -403.4375 256.91796875 C-390.80686631 243.83408266 -374.94549692 233.0531303 -359.3046875 223.9140625 C-358.73266602 223.57197754 -358.16064453 223.22989258 -357.57128906 222.87744141 C-278.01494796 175.37366872 -180.6345704 169.25431058 -90.3046875 167.9140625 C-90.43688269 164.78611572 -90.57898856 161.65868917 -90.72265625 158.53125 C-90.75935425 157.66008545 -90.79605225 156.7889209 -90.8338623 155.89135742 C-92.24339762 125.8814478 -101.7260369 97.60633026 -124.3046875 76.9140625 C-157.19791631 49.65674517 -204.7479536 47.569675 -245.28759766 51.1796875 C-293.49700629 55.84486663 -340.84867474 69.71232374 -382.609375 94.4453125 C-385.3046875 95.9140625 -385.3046875 95.9140625 -387.3046875 95.9140625 C-397.5346875 61.9240625 -407.7646875 27.9340625 -418.3046875 -7.0859375 C-413.39721051 -11.99341449 -408.24516317 -14.56060111 -402.1171875 -17.7109375 C-401.51822662 -18.01962769 -400.91926575 -18.32831787 -400.30215454 -18.6463623 C-318.11880207 -60.82822171 -214.57755172 -73.47996975 0 0 Z M-129.4921875 272.6640625 C-130.71334259 272.72841492 -130.71334259 272.72841492 -131.95916748 272.79406738 C-184.62687171 275.65465037 -244.99424569 284.74579614 -282.6796875 325.4140625 C-301.98900021 348.36664176 -305.95761948 374.74724691 -304.3046875 403.9140625 C-303.4136897 414.1361006 -300.43337529 423.54012355 -296.3046875 432.9140625 C-295.99789063 433.63851562 -295.69109375 434.36296875 -295.375 435.109375 C-286.53716963 454.42746438 -269.39612879 466.89612511 -249.94140625 474.171875 C-218.70971647 484.27074475 -183.7737551 479.80742826 -154.67919922 465.30859375 C-142.15496929 458.78425037 -131.59006184 450.5861692 -121.3046875 440.9140625 C-120.64082031 440.32625 -119.97695312 439.7384375 -119.29296875 439.1328125 C-99.09189951 420.44784785 -87.80217643 391.28027704 -86.14175797 364.26297379 C-85.90283877 357.67454495 -85.95851385 351.08740498 -86.01171875 344.49609375 C-86.017332 342.41574921 -86.02159389 340.33540063 -86.02458191 338.25505066 C-86.03589477 332.84811957 -86.06524082 327.44144029 -86.09869385 322.03460693 C-86.12969157 316.48990279 -86.14314993 310.94515692 -86.15820312 305.40039062 C-86.19012709 294.57150552 -86.2411537 283.74280516 -86.3046875 272.9140625 C-91.44562366 272.1356848 -96.41132757 271.76497217 -101.60546875 271.8046875 C-102.77750603 271.80991425 -102.77750603 271.80991425 -103.97322083 271.81524658 C-112.48950116 271.88066341 -120.98839326 272.21368458 -129.4921875 272.6640625 Z " fill="#013066" transform="translate(1487.3046875,934.0859375)"/>
<path d="M0 0 C0 46.53 0 93.06 0 141 C-8.91 139.68 -17.82 138.36 -27 137 C-33.24221015 136.68653195 -39.33626303 136.45619668 -45.5625 136.5625 C-46.32439636 136.56931793 -47.08629272 136.57613586 -47.87127686 136.5831604 C-59.12707985 136.68672164 -70.05855301 137.19470767 -81 140 C-81.74830078 140.18224121 -82.49660156 140.36448242 -83.26757812 140.55224609 C-117.75818505 149.04715484 -147.29874313 169.65252361 -165.9609375 200.2109375 C-188.13239482 237.59329366 -192.47368353 278.81210341 -192.43273985 321.56171405 C-192.43210562 325.7038114 -192.44883121 329.84584774 -192.46325684 333.98791504 C-192.48585627 341.13350466 -192.49789528 348.27904616 -192.50238609 355.42466927 C-192.50889458 365.75553128 -192.53191327 376.08630697 -192.55872939 386.41713386 C-192.60181787 403.18554772 -192.6318865 419.95395789 -192.65356445 436.72241211 C-192.67462829 452.99391485 -192.70198373 469.26538747 -192.73754883 485.53686523 C-192.73976234 486.55309882 -192.74197585 487.56933241 -192.74425644 488.61636096 C-192.76162072 496.56611044 -192.77934533 504.5158591 -192.79718363 512.46560752 C-192.88425483 551.31038624 -192.93994879 590.15515195 -193 629 C-245.8 629 -298.6 629 -353 629 C-353.01981934 613.59328613 -353.03963867 598.18657227 -353.06005859 582.31298828 C-353.07359059 572.01221694 -353.08716223 561.71144574 -353.10116577 551.41067505 C-353.10250057 550.4282768 -353.10250057 550.4282768 -353.10386233 549.42603212 C-353.13394991 527.30703804 -353.16666832 505.18804865 -353.20132446 483.06906128 C-353.2030249 481.98313365 -353.2030249 481.98313365 -353.20475969 480.87526808 C-353.22943108 465.12868843 -353.25452486 449.38210948 -353.28005161 433.63553119 C-353.29257366 425.90952743 -353.30500272 418.18352352 -353.31738281 410.45751953 C-353.31861614 409.68883143 -353.31984946 408.92014333 -353.32112016 408.12816164 C-353.36080246 383.36855178 -353.39438571 358.60893838 -353.42468691 333.8493154 C-353.4559492 308.33140342 -353.49360216 282.81350823 -353.53890612 257.29561714 C-353.54535324 253.66259207 -353.5517299 250.02956687 -353.55806351 246.3965416 C-353.55931181 245.68175326 -353.56056012 244.96696493 -353.56184625 244.23051635 C-353.579069 234.27870297 -353.59196541 224.32689236 -353.60136325 214.37506864 C-353.66874744 143.10259564 -354.60890736 72.21294549 -358 1 C-312.13 1 -266.26 1 -219 1 C-218.34606576 7.53934238 -217.78955046 13.97531619 -217.51928711 20.52612305 C-217.4801268 21.42032455 -217.44096649 22.31452606 -217.40061951 23.23582458 C-217.27331486 26.16100662 -217.15016496 29.08634529 -217.02734375 32.01171875 C-216.93924965 34.06900191 -216.85099508 36.12627821 -216.7625885 38.18354797 C-216.57836811 42.48613858 -216.39623996 46.78881137 -216.21557617 51.09155273 C-215.98547665 56.5671911 -215.7499492 62.04257994 -215.51279354 67.51791668 C-215.32946942 71.76555289 -215.14919677 76.01331464 -214.96978951 80.26111794 C-214.88423246 82.27788154 -214.79773331 84.29460543 -214.71021843 86.31128502 C-214.22426739 97.54933027 -213.86815107 108.75032185 -214 120 C-212.35 120 -210.7 120 -209 120 C-208.84217041 119.40719238 -208.68434082 118.81438477 -208.52172852 118.20361328 C-206.61422639 111.42006298 -204.00771029 105.20871818 -200.9375 98.875 C-200.45361816 97.87307617 -199.96973633 96.87115234 -199.47119141 95.83886719 C-193.05436213 82.77939647 -185.66405118 70.92037783 -176 60 C-175.57074219 59.51047852 -175.14148437 59.02095703 -174.69921875 58.51660156 C-143.91009282 23.5350082 -100.89598331 4.18181112 -54.64208984 0.8290863 C-52.16425789 0.68172367 -49.68625723 0.55135451 -47.20703125 0.4296875 C-46.29853928 0.38433868 -45.3900473 0.33898987 -44.45402527 0.29226685 C-42.54226319 0.19829532 -40.63042095 0.10594178 -38.71850586 0.01513672 C-35.83726328 -0.12380584 -32.95679723 -0.27464872 -30.07617188 -0.42578125 C-28.20316052 -0.5163625 -26.33011442 -0.60622871 -24.45703125 -0.6953125 C-23.61695023 -0.74108429 -22.7768692 -0.78685608 -21.91133118 -0.83401489 C-14.42884737 -1.16625932 -7.63436665 -0.5453119 0 0 Z " fill="#013066" transform="translate(3658,884)"/>
<path d="M0 0 C53.13 0 106.26 0 161 0 C161 207.24 161 414.48 161 628 C107.87 628 54.74 628 0 628 C0 420.76 0 213.52 0 0 Z " fill="#013066" transform="translate(3731,885)"/>
<path d="M0 0 C53.13 0 106.26 0 161 0 C161 207.24 161 414.48 161 628 C107.87 628 54.74 628 0 628 C0 420.76 0 213.52 0 0 Z " fill="#013066" transform="translate(3033,885)"/>
<path d="M0 0 C0.66 0.33 1.32 0.66 2 1 C-7.57 10.57 -17.14 20.14 -27 30 C-27 26.53892535 -26.65521356 26.25439895 -24.39453125 23.84765625 C-23.54592529 22.93802124 -23.54592529 22.93802124 -22.68017578 22.01000977 C-22.06384277 21.36733154 -21.44750977 20.72465332 -20.8125 20.0625 C-20.18843262 19.40241943 -19.56436523 18.74233887 -18.92138672 18.06225586 C-12.88387794 11.74451554 -6.51881668 5.81495774 0 0 Z " fill="#0D376E" transform="translate(1096,1180)"/>
<path d="M0 0 C0.66 0.33 1.32 0.66 2 1 C-6.25 9.25 -14.5 17.5 -23 26 C-23 22.48401315 -22.56814673 22.16359981 -20.25390625 19.70703125 C-19.66754395 19.07998291 -19.08118164 18.45293457 -18.47705078 17.80688477 C-17.84524902 17.14873779 -17.21344727 16.49059082 -16.5625 15.8125 C-15.92812012 15.14210693 -15.29374023 14.47171387 -14.64013672 13.78100586 C-9.98553281 8.90860473 -5.1934569 4.30040214 0 0 Z " fill="#0D3670" transform="translate(3503,923)"/>
</svg>
