<?xml version="1.0" encoding="UTF-8"?>
<svg xmlns="http://www.w3.org/2000/svg" xmlns:xlink="http://www.w3.org/1999/xlink" width="150px" height="60px" viewBox="0 0 148 60" version="1.1">
<defs>
<filter id="alpha" filterUnits="objectBoundingBox" x="0%" y="0%" width="100%" height="100%">
  <feColorMatrix type="matrix" in="SourceGraphic" values="0 0 0 0 1 0 0 0 0 1 0 0 0 0 1 0 0 0 1 0"/>
</filter>
<mask id="mask0">
  <g filter="url(#alpha)">
<rect x="0" y="0" width="148" height="60" style="fill:rgb(0%,0%,0%);fill-opacity:0.988235;stroke:none;"/>
  </g>
</mask>
<clipPath id="clip1">
  <rect x="0" y="0" width="148" height="60"/>
</clipPath>
<g id="surface5" clip-path="url(#clip1)">
<path style=" stroke:none;fill-rule:evenodd;fill:rgb(91.372549%,3.921569%,16.078431%);fill-opacity:1;" d="M 83.1875 10.734375 C 84.691406 10.683594 85.773438 11.335938 86.425781 12.6875 C 86.601562 13.160156 86.699219 13.652344 86.707031 14.160156 C 87.398438 13.757812 88.097656 13.359375 88.796875 12.972656 C 89.117188 12.871094 89.433594 12.871094 89.75 12.972656 C 93.210938 14.953125 96.671875 16.9375 100.132812 18.917969 C 100.699219 19.25 100.933594 19.746094 100.835938 20.40625 C 100.660156 21.097656 100.214844 21.46875 99.507812 21.515625 C 99.355469 21.507812 99.207031 21.484375 99.058594 21.441406 C 95.960938 19.675781 92.871094 17.90625 89.78125 16.125 C 89.613281 16.019531 89.433594 15.933594 89.246094 15.871094 C 89.183594 15.875 89.121094 15.890625 89.066406 15.914062 C 87.421875 16.875 85.777344 17.832031 84.128906 18.785156 C 84.117188 17.511719 84.109375 16.242188 84.097656 14.96875 C 84.078125 14.878906 84.023438 14.8125 83.933594 14.773438 C 83.644531 14.753906 83.359375 14.753906 83.070312 14.773438 C 82.996094 14.808594 82.941406 14.863281 82.90625 14.941406 C 82.894531 16.460938 82.886719 17.984375 82.875 19.503906 C 81.777344 20.144531 80.679688 20.78125 79.578125 21.410156 C 78.859375 21.640625 78.289062 21.445312 77.863281 20.824219 C 77.597656 20.246094 77.65625 19.707031 78.042969 19.203125 C 78.15625 19.097656 78.28125 19.003906 78.414062 18.917969 C 79.644531 18.226562 80.867188 17.523438 82.085938 16.816406 C 80.957031 16.203125 80.359375 15.246094 80.292969 13.949219 C 80.4375 12.121094 81.402344 11.050781 83.1875 10.734375 Z M 82.261719 12.238281 C 82.421875 12.261719 82.476562 12.351562 82.429688 12.507812 C 81.953125 13.019531 81.835938 13.613281 82.070312 14.277344 C 82.164062 14.476562 82.285156 14.65625 82.429688 14.820312 C 82.464844 14.953125 82.414062 15.03125 82.277344 15.058594 C 82.191406 15.035156 82.125 14.984375 82.070312 14.910156 C 81.4375 14.035156 81.457031 13.171875 82.128906 12.328125 C 82.179688 12.300781 82.222656 12.269531 82.261719 12.238281 Z M 84.679688 12.265625 C 84.753906 12.261719 84.824219 12.277344 84.890625 12.3125 C 85.417969 12.917969 85.550781 13.601562 85.292969 14.371094 C 85.183594 14.628906 85.03125 14.855469 84.828125 15.046875 C 84.65625 15.070312 84.582031 14.996094 84.605469 14.820312 C 85.261719 14.039062 85.261719 13.257812 84.605469 12.476562 C 84.585938 12.4375 84.585938 12.398438 84.605469 12.355469 C 84.636719 12.332031 84.660156 12.300781 84.679688 12.265625 Z M 82.832031 12.808594 C 82.964844 12.785156 83.042969 12.84375 83.070312 12.972656 C 83 13.089844 82.925781 13.203125 82.84375 13.316406 C 82.765625 13.515625 82.753906 13.714844 82.816406 13.917969 C 82.894531 14.0625 82.980469 14.203125 83.070312 14.339844 C 83.011719 14.492188 82.914062 14.527344 82.769531 14.445312 C 82.320312 13.882812 82.339844 13.335938 82.832031 12.808594 Z M 84.082031 12.808594 C 84.214844 12.832031 84.316406 12.902344 84.398438 13.019531 C 84.671875 13.480469 84.648438 13.933594 84.335938 14.371094 C 84.242188 14.492188 84.132812 14.523438 84.007812 14.460938 C 83.984375 14.421875 83.96875 14.382812 83.964844 14.339844 C 84.03125 14.214844 84.105469 14.097656 84.1875 13.980469 C 84.269531 13.78125 84.28125 13.582031 84.21875 13.378906 C 84.128906 13.246094 84.042969 13.109375 83.964844 12.972656 C 83.980469 12.898438 84.019531 12.839844 84.082031 12.808594 Z M 83.425781 13.4375 C 83.695312 13.425781 83.78125 13.546875 83.679688 13.796875 C 83.542969 13.917969 83.421875 13.898438 83.324219 13.738281 C 83.300781 13.679688 83.300781 13.617188 83.324219 13.558594 C 83.363281 13.523438 83.398438 13.480469 83.425781 13.4375 Z M 83.425781 13.4375 "/>
</g>
<mask id="mask1">
  <g filter="url(#alpha)">
<rect x="0" y="0" width="148" height="60" style="fill:rgb(0%,0%,0%);fill-opacity:0.988235;stroke:none;"/>
  </g>
</mask>
<clipPath id="clip2">
  <rect x="0" y="0" width="148" height="60"/>
</clipPath>
<g id="surface8" clip-path="url(#clip2)">
<path style=" stroke:none;fill-rule:evenodd;fill:rgb(91.372549%,3.921569%,16.078431%);fill-opacity:1;" d="M 54.757812 13.199219 C 54.789062 13.195312 54.820312 13.199219 54.847656 13.214844 C 55.566406 13.824219 56.289062 14.425781 57.023438 15.015625 C 57.464844 15.542969 57.457031 16.066406 57.011719 16.589844 C 56.324219 17.332031 55.628906 18.0625 54.921875 18.785156 C 54.203125 18.199219 53.480469 17.613281 52.757812 17.027344 C 52.363281 16.6875 52.261719 16.273438 52.445312 15.78125 C 52.507812 15.664062 52.578125 15.554688 52.65625 15.449219 C 53.363281 14.703125 54.0625 13.953125 54.757812 13.199219 Z M 54.757812 13.199219 "/>
</g>
<mask id="mask2">
  <g filter="url(#alpha)">
<rect x="0" y="0" width="148" height="60" style="fill:rgb(0%,0%,0%);fill-opacity:0.996078;stroke:none;"/>
  </g>
</mask>
<clipPath id="clip3">
  <rect x="0" y="0" width="148" height="60"/>
</clipPath>
<g id="surface11" clip-path="url(#clip3)">
<path style=" stroke:none;fill-rule:evenodd;fill:rgb(91.372549%,3.921569%,16.078431%);fill-opacity:1;" d="M 47.121094 13.289062 C 47.789062 13.242188 48.445312 13.308594 49.089844 13.484375 C 49.253906 13.523438 49.410156 13.589844 49.550781 13.679688 C 49.578125 20.90625 49.570312 28.132812 49.539062 35.359375 C 48.660156 35.714844 47.757812 35.820312 46.824219 35.675781 C 46.03125 35.570312 45.46875 35.15625 45.136719 34.429688 C 45.035156 34.144531 44.953125 33.855469 44.898438 33.558594 C 44.050781 35.011719 42.78125 35.796875 41.09375 35.914062 C 38.265625 36.140625 36.242188 34.976562 35.023438 32.417969 C 34.574219 31.351562 34.304688 30.242188 34.21875 29.085938 C 34.074219 27.476562 34.214844 25.894531 34.636719 24.339844 C 35.03125 22.925781 35.78125 21.75 36.886719 20.8125 C 38.25 19.835938 39.761719 19.488281 41.421875 19.757812 C 43.105469 20.082031 44.253906 21.050781 44.867188 22.65625 C 44.878906 20.296875 44.886719 17.933594 44.898438 15.570312 C 45.054688 14.226562 45.792969 13.46875 47.121094 13.289062 Z M 41.722656 23.289062 C 42.917969 23.222656 43.839844 23.691406 44.480469 24.699219 C 44.699219 25.09375 44.828125 25.511719 44.867188 25.960938 C 44.886719 27.28125 44.886719 28.605469 44.867188 29.925781 C 44.703125 31 44.121094 31.746094 43.125 32.164062 C 41.289062 32.683594 40.011719 32.058594 39.289062 30.285156 C 38.949219 29.25 38.832031 28.191406 38.933594 27.101562 C 38.976562 26.03125 39.3125 25.070312 39.945312 24.21875 C 40.421875 23.683594 41.015625 23.371094 41.722656 23.289062 Z M 41.722656 23.289062 "/>
</g>
<mask id="mask3">
  <g filter="url(#alpha)">
<rect x="0" y="0" width="148" height="60" style="fill:rgb(0%,0%,0%);fill-opacity:0.996078;stroke:none;"/>
  </g>
</mask>
<clipPath id="clip4">
  <rect x="0" y="0" width="148" height="60"/>
</clipPath>
<g id="surface14" clip-path="url(#clip4)">
<path style=" stroke:none;fill-rule:evenodd;fill:rgb(91.372549%,3.921569%,16.078431%);fill-opacity:1;" d="M 11.292969 13.980469 C 11.910156 13.964844 12.496094 14.089844 13.050781 14.355469 C 13.773438 14.8125 14.15625 15.480469 14.199219 16.351562 C 14.226562 22.726562 14.21875 29.105469 14.183594 35.480469 C 13.574219 35.734375 12.9375 35.863281 12.277344 35.871094 C 11.570312 35.886719 10.925781 35.699219 10.335938 35.316406 C 9.757812 34.792969 9.464844 34.136719 9.457031 33.347656 C 9.433594 27.023438 9.4375 20.695312 9.472656 14.371094 C 10.058594 14.128906 10.664062 13.996094 11.292969 13.980469 Z M 11.292969 13.980469 "/>
</g>
<mask id="mask4">
  <g filter="url(#alpha)">
<rect x="0" y="0" width="148" height="60" style="fill:rgb(0%,0%,0%);fill-opacity:0.996078;stroke:none;"/>
  </g>
</mask>
<clipPath id="clip5">
  <rect x="0" y="0" width="148" height="60"/>
</clipPath>
<g id="surface17" clip-path="url(#clip5)">
<path style=" stroke:none;fill-rule:evenodd;fill:rgb(91.372549%,3.921569%,16.078431%);fill-opacity:1;" d="M 61.621094 13.980469 C 62.34375 13.925781 63.03125 14.0625 63.679688 14.382812 C 64.328125 14.824219 64.691406 15.441406 64.765625 16.230469 C 64.78125 18.445312 64.785156 20.65625 64.78125 22.867188 C 67.296875 22.867188 69.8125 22.867188 72.328125 22.867188 C 72.320312 20.035156 72.328125 17.203125 72.359375 14.371094 C 72.976562 14.105469 73.625 13.976562 74.296875 13.980469 C 75.007812 13.953125 75.652344 14.140625 76.238281 14.535156 C 76.789062 15.011719 77.082031 15.617188 77.117188 16.351562 C 77.140625 22.777344 77.136719 29.203125 77.101562 35.628906 C 76.308594 35.960938 75.484375 36.074219 74.625 35.976562 C 73.226562 35.796875 72.464844 35.003906 72.34375 33.589844 C 72.328125 31.425781 72.324219 29.265625 72.328125 27.101562 C 69.8125 27.101562 67.296875 27.101562 64.78125 27.101562 C 64.792969 29.945312 64.78125 32.789062 64.75 35.628906 C 64.34375 35.824219 63.917969 35.9375 63.46875 35.976562 C 62.90625 36.015625 62.351562 35.988281 61.796875 35.886719 C 60.742188 35.574219 60.152344 34.867188 60.023438 33.769531 C 60.003906 27.300781 60.003906 20.835938 60.023438 14.371094 C 60.21875 14.269531 60.421875 14.195312 60.636719 14.144531 C 60.964844 14.070312 61.292969 14.015625 61.621094 13.980469 Z M 61.621094 13.980469 "/>
</g>
<mask id="mask5">
  <g filter="url(#alpha)">
<rect x="0" y="0" width="148" height="60" style="fill:rgb(0%,0%,0%);fill-opacity:0.992157;stroke:none;"/>
  </g>
</mask>
<clipPath id="clip6">
  <rect x="0" y="0" width="148" height="60"/>
</clipPath>
<g id="surface20" clip-path="url(#clip6)">
<path style=" stroke:none;fill-rule:evenodd;fill:rgb(91.372549%,3.921569%,16.078431%);fill-opacity:1;" d="M 89.183594 16.621094 C 89.226562 16.617188 89.265625 16.621094 89.304688 16.636719 C 92.433594 18.429688 95.5625 20.226562 98.6875 22.027344 C 98.707031 26.472656 98.707031 30.914062 98.6875 35.359375 C 98.535156 36.023438 98.132812 36.4375 97.476562 36.605469 C 92.097656 36.625 86.71875 36.625 81.339844 36.605469 C 80.644531 36.429688 80.242188 35.984375 80.128906 35.269531 C 80.109375 30.804688 80.109375 26.339844 80.128906 21.875 C 83.148438 20.121094 86.167969 18.367188 89.183594 16.621094 Z M 89.246094 19.625 C 90.945312 19.585938 92.527344 20 93.988281 20.871094 C 95.824219 22.109375 96.921875 23.835938 97.285156 26.050781 C 97.585938 27.878906 97.394531 29.648438 96.71875 31.367188 C 95.617188 33.742188 93.78125 35.179688 91.214844 35.675781 C 89.484375 35.992188 87.792969 35.851562 86.140625 35.253906 C 83.878906 34.316406 82.410156 32.660156 81.742188 30.285156 C 81.324219 28.582031 81.324219 26.882812 81.742188 25.179688 C 82.511719 22.496094 84.226562 20.757812 86.886719 19.96875 C 87.664062 19.761719 88.449219 19.648438 89.246094 19.625 Z M 89.246094 19.625 "/>
</g>
<mask id="mask6">
  <g filter="url(#alpha)">
<rect x="0" y="0" width="148" height="60" style="fill:rgb(0%,0%,0%);fill-opacity:0.992157;stroke:none;"/>
  </g>
</mask>
<clipPath id="clip7">
  <rect x="0" y="0" width="148" height="60"/>
</clipPath>
<g id="surface23" clip-path="url(#clip7)">
<path style=" stroke:none;fill-rule:evenodd;fill:rgb(91.372549%,3.921569%,16.078431%);fill-opacity:1;" d="M 26.179688 19.683594 C 27.363281 19.589844 28.476562 19.824219 29.519531 20.390625 C 30.476562 20.988281 31.136719 21.824219 31.503906 22.898438 C 31.703125 23.492188 31.820312 24.101562 31.859375 24.730469 C 31.875 28.375 31.882812 32.015625 31.875 35.660156 C 30.324219 35.660156 28.773438 35.660156 27.222656 35.660156 C 27.226562 32.355469 27.222656 29.054688 27.207031 25.75 C 26.996094 23.738281 25.90625 22.960938 23.941406 23.421875 C 22.921875 23.789062 22.339844 24.515625 22.195312 25.601562 C 22.179688 28.953125 22.175781 32.308594 22.179688 35.660156 C 20.621094 35.660156 19.058594 35.660156 17.496094 35.660156 C 17.492188 30.535156 17.496094 25.410156 17.511719 20.285156 C 18.113281 20.011719 18.742188 19.882812 19.40625 19.894531 C 21.097656 19.917969 22.015625 20.78125 22.164062 22.476562 C 22.753906 21.152344 23.746094 20.289062 25.132812 19.878906 C 25.484375 19.792969 25.832031 19.730469 26.179688 19.683594 Z M 26.179688 19.683594 "/>
</g>
<mask id="mask7">
  <g filter="url(#alpha)">
<rect x="0" y="0" width="148" height="60" style="fill:rgb(0%,0%,0%);fill-opacity:0.996078;stroke:none;"/>
  </g>
</mask>
<clipPath id="clip8">
  <rect x="0" y="0" width="148" height="60"/>
</clipPath>
<g id="surface26" clip-path="url(#clip8)">
<path style=" stroke:none;fill-rule:evenodd;fill:rgb(91.372549%,3.921569%,16.078431%);fill-opacity:1;" d="M 109.976562 19.683594 C 112.417969 19.558594 114.0625 20.640625 114.914062 22.929688 C 115.894531 20.59375 117.648438 19.519531 120.179688 19.699219 C 122.535156 19.9375 124.023438 21.203125 124.640625 23.5 C 124.710938 23.816406 124.757812 24.136719 124.789062 24.460938 C 124.832031 28.183594 124.847656 31.90625 124.835938 35.628906 C 123.285156 35.628906 121.730469 35.628906 120.179688 35.628906 C 120.1875 32.457031 120.179688 29.285156 120.167969 26.109375 C 120.15625 25.484375 120.027344 24.882812 119.777344 24.308594 C 119.371094 23.605469 118.761719 23.265625 117.945312 23.289062 C 116.859375 23.296875 116.078125 23.785156 115.601562 24.757812 C 115.484375 25.050781 115.414062 25.347656 115.394531 25.660156 C 115.378906 28.984375 115.371094 32.308594 115.378906 35.628906 C 113.835938 35.628906 112.296875 35.628906 110.753906 35.628906 C 110.757812 32.386719 110.753906 29.144531 110.738281 25.902344 C 110.703125 25.1875 110.476562 24.546875 110.054688 23.980469 C 109.609375 23.503906 109.0625 23.273438 108.410156 23.289062 C 107.101562 23.355469 106.316406 24.035156 106.054688 25.332031 C 106.011719 28.761719 105.996094 32.195312 106.011719 35.628906 C 104.449219 35.628906 102.886719 35.628906 101.328125 35.628906 C 101.320312 30.515625 101.328125 25.398438 101.339844 20.285156 C 101.601562 20.148438 101.875 20.054688 102.160156 20 C 102.746094 19.886719 103.332031 19.867188 103.921875 19.941406 C 105.289062 20.234375 105.980469 21.089844 105.996094 22.507812 C 106.589844 21.058594 107.648438 20.164062 109.171875 19.820312 C 109.445312 19.765625 109.714844 19.722656 109.976562 19.683594 Z M 109.976562 19.683594 "/>
</g>
<mask id="mask8">
  <g filter="url(#alpha)">
<rect x="0" y="0" width="148" height="60" style="fill:rgb(0%,0%,0%);fill-opacity:0.996078;stroke:none;"/>
  </g>
</mask>
<clipPath id="clip9">
  <rect x="0" y="0" width="148" height="60"/>
</clipPath>
<g id="surface29" clip-path="url(#clip9)">
<path style=" stroke:none;fill-rule:evenodd;fill:rgb(91.372549%,3.921569%,16.078431%);fill-opacity:1;" d="M 133.933594 19.683594 C 135.511719 19.570312 137.003906 19.875 138.410156 20.601562 C 139.988281 21.574219 140.96875 22.980469 141.347656 24.820312 C 141.433594 25.257812 141.496094 25.695312 141.527344 26.140625 C 141.546875 26.8125 141.546875 27.484375 141.527344 28.152344 C 141.511719 28.335938 141.492188 28.515625 141.464844 28.695312 C 138.234375 28.753906 135 28.773438 131.757812 28.753906 C 131.777344 30.582031 132.660156 31.726562 134.410156 32.191406 C 135.664062 32.472656 136.878906 32.351562 138.050781 31.832031 C 138.464844 31.605469 138.839844 31.320312 139.167969 30.976562 C 139.28125 30.8125 139.40625 30.664062 139.542969 30.527344 C 140.75 30.949219 141.230469 31.800781 140.988281 33.078125 C 140.78125 33.859375 140.339844 34.464844 139.660156 34.894531 C 138.792969 35.402344 137.859375 35.714844 136.859375 35.824219 C 135.683594 35.976562 134.507812 35.964844 133.335938 35.796875 C 130.109375 35.140625 128.097656 33.203125 127.296875 29.984375 C 126.90625 28.164062 126.972656 26.363281 127.503906 24.578125 C 128.414062 21.941406 130.230469 20.355469 132.949219 19.820312 C 133.28125 19.765625 133.609375 19.722656 133.933594 19.683594 Z M 134.320312 23.078125 C 136.308594 23.015625 137.351562 23.988281 137.453125 25.992188 C 135.554688 25.992188 133.65625 25.992188 131.757812 25.992188 C 131.816406 24.300781 132.667969 23.328125 134.320312 23.078125 Z M 134.320312 23.078125 "/>
</g>
<mask id="mask9">
  <g filter="url(#alpha)">
<rect x="0" y="0" width="148" height="60" style="fill:rgb(0%,0%,0%);fill-opacity:0.996078;stroke:none;"/>
  </g>
</mask>
<clipPath id="clip10">
  <rect x="0" y="0" width="148" height="60"/>
</clipPath>
<g id="surface32" clip-path="url(#clip10)">
<path style=" stroke:none;fill-rule:evenodd;fill:rgb(91.372549%,3.921569%,16.078431%);fill-opacity:1;" d="M 52.519531 19.984375 C 54.082031 19.984375 55.644531 19.984375 57.203125 19.984375 C 57.214844 25.109375 57.203125 30.234375 57.175781 35.359375 C 56.5625 35.613281 55.925781 35.742188 55.265625 35.75 C 53.519531 35.738281 52.609375 34.859375 52.535156 33.109375 C 52.519531 28.734375 52.515625 24.359375 52.519531 19.984375 Z M 52.519531 19.984375 "/>
</g>
<mask id="mask10">
  <g filter="url(#alpha)">
<rect x="0" y="0" width="148" height="60" style="fill:rgb(0%,0%,0%);fill-opacity:0.996078;stroke:none;"/>
  </g>
</mask>
<clipPath id="clip11">
  <rect x="0" y="0" width="148" height="60"/>
</clipPath>
<g id="surface35" clip-path="url(#clip11)">
<path style=" stroke:none;fill-rule:evenodd;fill:rgb(91.372549%,3.921569%,16.078431%);fill-opacity:1;" d="M 89.273438 23.167969 C 90.945312 23.175781 92.015625 23.984375 92.480469 25.601562 C 92.734375 26.648438 92.804688 27.710938 92.691406 28.785156 C 92.617188 29.636719 92.347656 30.417969 91.882812 31.125 C 91.257812 31.914062 90.4375 32.304688 89.421875 32.296875 C 88.054688 32.285156 87.097656 31.65625 86.542969 30.40625 C 86.222656 29.542969 86.070312 28.652344 86.082031 27.734375 C 86.058594 26.785156 86.222656 25.875 86.574219 25 C 87.109375 23.84375 88.011719 23.234375 89.273438 23.167969 Z M 89.273438 23.167969 "/>
</g>
<mask id="mask11">
  <g filter="url(#alpha)">
<rect x="0" y="0" width="148" height="60" style="fill:rgb(0%,0%,0%);fill-opacity:0.996078;stroke:none;"/>
  </g>
</mask>
<clipPath id="clip12">
  <rect x="0" y="0" width="148" height="60"/>
</clipPath>
<g id="surface38" clip-path="url(#clip12)">
<path style=" stroke:none;fill-rule:evenodd;fill:rgb(91.372549%,3.921569%,16.078431%);fill-opacity:1;" d="M 101.027344 39.535156 C 101.308594 39.53125 101.585938 39.535156 101.863281 39.550781 C 102.296875 39.617188 102.570312 39.859375 102.683594 40.285156 C 102.695312 42.609375 102.703125 44.929688 102.714844 47.253906 C 102.710938 47.671875 102.8125 48.054688 103.027344 48.410156 C 102.535156 48.652344 102.039062 48.664062 101.535156 48.4375 C 101.265625 48.253906 101.101562 48 101.042969 47.671875 C 101.027344 44.960938 101.023438 42.246094 101.027344 39.535156 Z M 101.027344 39.535156 "/>
</g>
<mask id="mask12">
  <g filter="url(#alpha)">
<rect x="0" y="0" width="148" height="60" style="fill:rgb(0%,0%,0%);fill-opacity:0.980392;stroke:none;"/>
  </g>
</mask>
<clipPath id="clip13">
  <rect x="0" y="0" width="148" height="60"/>
</clipPath>
<g id="surface41" clip-path="url(#clip13)">
<path style=" stroke:none;fill-rule:evenodd;fill:rgb(91.372549%,3.921569%,16.078431%);fill-opacity:1;" d="M 103.863281 39.535156 C 104.429688 39.535156 104.996094 39.535156 105.5625 39.535156 C 105.558594 41.335938 105.5625 43.136719 105.578125 44.941406 C 106.328125 44.03125 107.070312 43.117188 107.800781 42.191406 C 108.445312 42.167969 109.09375 42.171875 109.738281 42.207031 C 109.035156 43.09375 108.324219 43.972656 107.605469 44.851562 C 107.382812 45.058594 107.128906 45.21875 106.847656 45.332031 C 107.003906 45.390625 107.164062 45.457031 107.324219 45.527344 C 107.4375 45.597656 107.546875 45.679688 107.652344 45.765625 C 108.433594 46.667969 109.207031 47.574219 109.976562 48.484375 C 109.5 48.519531 109.023438 48.523438 108.546875 48.5 C 108.308594 48.484375 108.089844 48.414062 107.890625 48.289062 C 107.71875 48.144531 107.554688 47.988281 107.398438 47.824219 C 106.792969 47.101562 106.183594 46.382812 105.578125 45.660156 C 105.5625 46.613281 105.558594 47.5625 105.5625 48.511719 C 104.996094 48.511719 104.429688 48.511719 103.863281 48.511719 C 103.863281 45.519531 103.863281 42.527344 103.863281 39.535156 Z M 103.863281 39.535156 "/>
</g>
<mask id="mask13">
  <g filter="url(#alpha)">
<rect x="0" y="0" width="148" height="60" style="fill:rgb(0%,0%,0%);fill-opacity:0.988235;stroke:none;"/>
  </g>
</mask>
<clipPath id="clip14">
  <rect x="0" y="0" width="148" height="60"/>
</clipPath>
<g id="surface44" clip-path="url(#clip14)">
<path style=" stroke:none;fill-rule:evenodd;fill:rgb(91.372549%,3.921569%,16.078431%);fill-opacity:1;" d="M 139.542969 39.535156 C 139.832031 39.53125 140.121094 39.535156 140.40625 39.550781 C 140.839844 39.628906 141.113281 39.886719 141.226562 40.316406 C 141.238281 42.667969 141.246094 45.019531 141.257812 47.371094 C 141.277344 47.753906 141.371094 48.117188 141.542969 48.453125 C 141.097656 48.628906 140.652344 48.644531 140.199219 48.5 C 139.859375 48.339844 139.65625 48.074219 139.585938 47.703125 C 139.542969 44.980469 139.527344 42.257812 139.542969 39.535156 Z M 139.542969 39.535156 "/>
</g>
<mask id="mask14">
  <g filter="url(#alpha)">
<rect x="0" y="0" width="148" height="60" style="fill:rgb(0%,0%,0%);fill-opacity:0.988235;stroke:none;"/>
  </g>
</mask>
<clipPath id="clip15">
  <rect x="0" y="0" width="148" height="60"/>
</clipPath>
<g id="surface47" clip-path="url(#clip15)">
<path style=" stroke:none;fill-rule:evenodd;fill:rgb(91.372549%,3.921569%,16.078431%);fill-opacity:1;" d="M 89.632812 39.835938 C 90.308594 39.828125 90.984375 39.835938 91.660156 39.851562 C 92.382812 40.007812 92.847656 40.441406 93.046875 41.15625 C 93.085938 43.277344 93.105469 45.398438 93.109375 47.523438 C 93.136719 47.839844 93.230469 48.136719 93.390625 48.410156 C 92.875 48.667969 92.355469 48.667969 91.839844 48.410156 C 91.582031 48.21875 91.429688 47.964844 91.378906 47.644531 C 91.363281 45.628906 91.359375 43.617188 91.363281 41.605469 C 90.527344 41.605469 89.691406 41.605469 88.855469 41.605469 C 88.851562 41.285156 88.855469 40.964844 88.871094 40.644531 C 88.957031 40.214844 89.210938 39.941406 89.632812 39.835938 Z M 89.632812 39.835938 "/>
</g>
<mask id="mask15">
  <g filter="url(#alpha)">
<rect x="0" y="0" width="148" height="60" style="fill:rgb(0%,0%,0%);fill-opacity:0.988235;stroke:none;"/>
  </g>
</mask>
<clipPath id="clip16">
  <rect x="0" y="0" width="148" height="60"/>
</clipPath>
<g id="surface50" clip-path="url(#clip16)">
<path style=" stroke:none;fill-rule:evenodd;fill:rgb(91.372549%,3.921569%,16.078431%);fill-opacity:1;" d="M 92.496094 39.835938 C 93.519531 39.835938 94.542969 39.835938 95.570312 39.835938 C 95.582031 40.367188 95.566406 40.898438 95.523438 41.425781 C 95.460938 41.515625 95.378906 41.570312 95.269531 41.589844 C 94.742188 41.613281 94.214844 41.613281 93.691406 41.589844 C 93.539062 41.550781 93.433594 41.453125 93.375 41.304688 C 93.300781 40.71875 93.019531 40.265625 92.527344 39.953125 C 92.5 39.917969 92.488281 39.878906 92.496094 39.835938 Z M 92.496094 39.835938 "/>
</g>
<mask id="mask16">
  <g filter="url(#alpha)">
<rect x="0" y="0" width="148" height="60" style="fill:rgb(0%,0%,0%);fill-opacity:0.984314;stroke:none;"/>
  </g>
</mask>
<clipPath id="clip17">
  <rect x="0" y="0" width="148" height="60"/>
</clipPath>
<g id="surface53" clip-path="url(#clip17)">
<path style=" stroke:none;fill-rule:evenodd;fill:rgb(91.372549%,3.921569%,16.078431%);fill-opacity:1;" d="M 96.820312 42.085938 C 97.8125 41.980469 98.660156 42.269531 99.371094 42.957031 C 99.808594 43.488281 100.058594 44.097656 100.117188 44.789062 C 100.136719 45.140625 100.132812 45.492188 100.105469 45.839844 C 98.660156 45.839844 97.21875 45.839844 95.777344 45.839844 C 95.9375 46.539062 96.367188 46.972656 97.0625 47.148438 C 98.019531 47.3125 98.894531 47.105469 99.6875 46.53125 C 99.726562 47.023438 99.726562 47.511719 99.6875 48.003906 C 98.699219 48.582031 97.644531 48.746094 96.523438 48.5 C 95.136719 48.152344 94.347656 47.265625 94.152344 45.839844 C 94.023438 44.820312 94.273438 43.910156 94.898438 43.109375 C 95.417969 42.535156 96.058594 42.191406 96.820312 42.085938 Z M 97.148438 43.347656 C 97.957031 43.398438 98.402344 43.828125 98.492188 44.640625 C 97.597656 44.644531 96.703125 44.640625 95.808594 44.625 C 95.984375 43.902344 96.429688 43.476562 97.148438 43.347656 Z M 97.148438 43.347656 "/>
</g>
<mask id="mask17">
  <g filter="url(#alpha)">
<rect x="0" y="0" width="148" height="60" style="fill:rgb(0%,0%,0%);fill-opacity:0.988235;stroke:none;"/>
  </g>
</mask>
<clipPath id="clip18">
  <rect x="0" y="0" width="148" height="60"/>
</clipPath>
<g id="surface56" clip-path="url(#clip18)">
<path style=" stroke:none;fill-rule:evenodd;fill:rgb(91.372549%,3.921569%,16.078431%);fill-opacity:1;" d="M 112.335938 42.085938 C 113.488281 41.964844 114.464844 42.316406 115.273438 43.136719 C 115.953125 43.996094 116.195312 44.964844 115.988281 46.050781 C 115.664062 47.460938 114.792969 48.296875 113.378906 48.558594 C 112.171875 48.742188 111.140625 48.40625 110.277344 47.550781 C 109.582031 46.664062 109.347656 45.664062 109.574219 44.550781 C 109.96875 43.128906 110.886719 42.308594 112.335938 42.085938 Z M 112.574219 43.558594 C 113.71875 43.582031 114.316406 44.171875 114.363281 45.332031 C 114.371094 45.949219 114.144531 46.453125 113.675781 46.847656 C 113.054688 47.234375 112.4375 47.222656 111.828125 46.816406 C 111.261719 46.265625 111.066406 45.601562 111.246094 44.820312 C 111.417969 44.101562 111.859375 43.683594 112.574219 43.558594 Z M 112.574219 43.558594 "/>
</g>
<mask id="mask18">
  <g filter="url(#alpha)">
<rect x="0" y="0" width="148" height="60" style="fill:rgb(0%,0%,0%);fill-opacity:0.988235;stroke:none;"/>
  </g>
</mask>
<clipPath id="clip19">
  <rect x="0" y="0" width="148" height="60"/>
</clipPath>
<g id="surface59" clip-path="url(#clip19)">
<path style=" stroke:none;fill-rule:evenodd;fill:rgb(91.372549%,3.921569%,16.078431%);fill-opacity:1;" d="M 119.882812 42.085938 C 120.328125 42.054688 120.765625 42.101562 121.195312 42.222656 C 121.632812 42.402344 121.957031 42.710938 122.164062 43.136719 C 122.808594 42.261719 123.667969 41.925781 124.746094 42.132812 C 125.6875 42.363281 126.242188 42.957031 126.402344 43.917969 C 126.417969 45.449219 126.421875 46.980469 126.417969 48.511719 C 125.847656 48.511719 125.28125 48.511719 124.714844 48.511719 C 124.71875 47.132812 124.714844 45.75 124.699219 44.371094 C 124.582031 43.835938 124.25 43.554688 123.703125 43.527344 C 123.074219 43.601562 122.703125 43.953125 122.582031 44.578125 C 122.558594 44.699219 122.539062 44.820312 122.523438 44.941406 C 122.507812 46.132812 122.503906 47.320312 122.507812 48.511719 C 121.941406 48.511719 121.375 48.511719 120.808594 48.511719 C 120.8125 47.140625 120.808594 45.769531 120.792969 44.398438 C 120.710938 43.839844 120.386719 43.550781 119.824219 43.527344 C 119.1875 43.613281 118.804688 43.972656 118.675781 44.609375 C 118.648438 44.75 118.628906 44.890625 118.613281 45.03125 C 118.601562 46.191406 118.59375 47.351562 118.601562 48.511719 C 118.03125 48.511719 117.464844 48.511719 116.898438 48.511719 C 116.898438 46.402344 116.898438 44.289062 116.898438 42.175781 C 117.207031 42.171875 117.515625 42.175781 117.824219 42.191406 C 118.246094 42.296875 118.507812 42.5625 118.613281 42.988281 C 118.886719 42.46875 119.308594 42.171875 119.882812 42.085938 Z M 119.882812 42.085938 "/>
</g>
<mask id="mask19">
  <g filter="url(#alpha)">
<rect x="0" y="0" width="148" height="60" style="fill:rgb(0%,0%,0%);fill-opacity:0.984314;stroke:none;"/>
  </g>
</mask>
<clipPath id="clip20">
  <rect x="0" y="0" width="148" height="60"/>
</clipPath>
<g id="surface62" clip-path="url(#clip20)">
<path style=" stroke:none;fill-rule:evenodd;fill:rgb(91.372549%,3.921569%,16.078431%);fill-opacity:1;" d="M 129.371094 42.085938 C 130.042969 42.035156 130.699219 42.121094 131.339844 42.34375 C 131.492188 42.398438 131.636719 42.472656 131.769531 42.566406 C 131.789062 43.039062 131.789062 43.507812 131.769531 43.980469 C 131.019531 43.46875 130.199219 43.300781 129.308594 43.484375 C 128.996094 43.617188 128.902344 43.84375 129.027344 44.160156 C 129.164062 44.28125 129.316406 44.375 129.488281 44.445312 C 129.886719 44.566406 130.285156 44.683594 130.683594 44.804688 C 131.949219 45.226562 132.402344 46.082031 132.039062 47.371094 C 131.757812 47.945312 131.304688 48.3125 130.683594 48.46875 C 129.75 48.695312 128.832031 48.632812 127.9375 48.289062 C 127.742188 48.203125 127.558594 48.097656 127.386719 47.972656 C 127.359375 47.472656 127.367188 46.972656 127.402344 46.472656 C 128.140625 47.105469 128.996094 47.359375 129.964844 47.238281 C 130.316406 47.195312 130.515625 47 130.5625 46.652344 C 130.542969 46.507812 130.472656 46.390625 130.355469 46.304688 C 130.207031 46.226562 130.058594 46.15625 129.90625 46.097656 C 129.546875 45.984375 129.191406 45.875 128.832031 45.765625 C 128.355469 45.609375 127.953125 45.34375 127.625 44.96875 C 127.304688 44.4375 127.253906 43.875 127.476562 43.289062 C 127.691406 42.859375 128.015625 42.546875 128.445312 42.34375 C 128.746094 42.222656 129.054688 42.136719 129.371094 42.085938 Z M 129.371094 42.085938 "/>
</g>
<mask id="mask20">
  <g filter="url(#alpha)">
<rect x="0" y="0" width="148" height="60" style="fill:rgb(0%,0%,0%);fill-opacity:0.984314;stroke:none;"/>
  </g>
</mask>
<clipPath id="clip21">
  <rect x="0" y="0" width="148" height="60"/>
</clipPath>
<g id="surface65" clip-path="url(#clip21)">
<path style=" stroke:none;fill-rule:evenodd;fill:rgb(91.372549%,3.921569%,16.078431%);fill-opacity:1;" d="M 135.367188 42.085938 C 136.789062 41.945312 137.808594 42.515625 138.421875 43.796875 C 138.664062 44.457031 138.730469 45.132812 138.617188 45.824219 C 137.175781 45.835938 135.734375 45.847656 134.292969 45.855469 C 134.496094 46.605469 134.984375 47.046875 135.753906 47.175781 C 136.660156 47.289062 137.480469 47.074219 138.214844 46.53125 C 138.234375 47.023438 138.234375 47.511719 138.214844 48.003906 C 137.273438 48.558594 136.265625 48.734375 135.1875 48.527344 C 133.617188 48.171875 132.777344 47.1875 132.664062 45.570312 C 132.589844 44.296875 133.0625 43.289062 134.082031 42.550781 C 134.484375 42.308594 134.910156 42.15625 135.367188 42.085938 Z M 135.695312 43.347656 C 136.5 43.398438 136.949219 43.828125 137.035156 44.640625 C 136.140625 44.648438 135.246094 44.640625 134.351562 44.609375 C 134.535156 43.894531 134.980469 43.476562 135.695312 43.347656 Z M 135.695312 43.347656 "/>
</g>
<mask id="mask21">
  <g filter="url(#alpha)">
<rect x="0" y="0" width="148" height="60" style="fill:rgb(0%,0%,0%);fill-opacity:0.980392;stroke:none;"/>
  </g>
</mask>
<clipPath id="clip22">
  <rect x="0" y="0" width="148" height="60"/>
</clipPath>
<g id="surface68" clip-path="url(#clip22)">
<path style=" stroke:none;fill-rule:evenodd;fill:rgb(91.372549%,3.921569%,16.078431%);fill-opacity:1;" d="M 80.144531 42.746094 C 80.453125 42.675781 80.65625 42.785156 80.757812 43.078125 C 80.765625 43.648438 80.777344 44.21875 80.785156 44.789062 C 81.226562 44.21875 81.800781 44.023438 82.503906 44.203125 C 83.226562 44.453125 83.648438 44.957031 83.769531 45.722656 C 83.890625 46.476562 83.699219 47.132812 83.1875 47.6875 C 82.589844 48.164062 81.945312 48.242188 81.25 47.929688 C 81.078125 47.816406 80.921875 47.679688 80.785156 47.523438 C 80.726562 48.046875 80.464844 48.191406 79.996094 47.957031 C 79.976562 47.921875 79.949219 47.886719 79.921875 47.851562 C 79.871094 46.253906 79.863281 44.652344 79.890625 43.046875 C 79.929688 42.90625 80.015625 42.804688 80.144531 42.746094 Z M 81.816406 44.910156 C 82.503906 45.015625 82.863281 45.421875 82.890625 46.125 C 82.878906 46.835938 82.523438 47.242188 81.832031 47.34375 C 81.140625 47.246094 80.777344 46.84375 80.742188 46.140625 C 80.777344 45.4375 81.136719 45.027344 81.816406 44.910156 Z M 81.816406 44.910156 "/>
</g>
<mask id="mask22">
  <g filter="url(#alpha)">
<rect x="0" y="0" width="148" height="60" style="fill:rgb(0%,0%,0%);fill-opacity:0.976471;stroke:none;"/>
  </g>
</mask>
<clipPath id="clip23">
  <rect x="0" y="0" width="148" height="60"/>
</clipPath>
<g id="surface71" clip-path="url(#clip23)">
<path style=" stroke:none;fill-rule:evenodd;fill:rgb(91.372549%,3.921569%,16.078431%);fill-opacity:1;" d="M 84.5625 44.1875 C 84.679688 44.183594 84.800781 44.1875 84.917969 44.203125 C 84.980469 44.238281 85.035156 44.28125 85.082031 44.339844 C 85.453125 45.214844 85.808594 46.097656 86.15625 46.980469 C 86.472656 46.164062 86.777344 45.34375 87.082031 44.519531 C 87.191406 44.238281 87.394531 44.132812 87.691406 44.203125 C 87.859375 44.285156 87.949219 44.421875 87.960938 44.609375 C 87.457031 45.945312 86.914062 47.265625 86.335938 48.574219 C 85.972656 49.152344 85.460938 49.347656 84.800781 49.160156 C 84.460938 49.105469 84.328125 48.910156 84.398438 48.574219 C 84.460938 48.421875 84.578125 48.351562 84.738281 48.363281 C 84.945312 48.414062 85.15625 48.429688 85.367188 48.410156 C 85.550781 48.320312 85.671875 48.175781 85.722656 47.972656 C 85.253906 46.902344 84.78125 45.832031 84.308594 44.757812 C 84.246094 44.5 84.332031 44.308594 84.5625 44.1875 Z M 84.5625 44.1875 "/>
</g>
</defs>
<g id="surface1">
<use xlink:href="#surface5" mask="url(#mask0)"/>
<use xlink:href="#surface8" mask="url(#mask1)"/>
<use xlink:href="#surface11" mask="url(#mask2)"/>
<use xlink:href="#surface14" mask="url(#mask3)"/>
<use xlink:href="#surface17" mask="url(#mask4)"/>
<use xlink:href="#surface20" mask="url(#mask5)"/>
<use xlink:href="#surface23" mask="url(#mask6)"/>
<use xlink:href="#surface26" mask="url(#mask7)"/>
<use xlink:href="#surface29" mask="url(#mask8)"/>
<use xlink:href="#surface32" mask="url(#mask9)"/>
<use xlink:href="#surface35" mask="url(#mask10)"/>
<use xlink:href="#surface38" mask="url(#mask11)"/>
<use xlink:href="#surface41" mask="url(#mask12)"/>
<use xlink:href="#surface44" mask="url(#mask13)"/>
<use xlink:href="#surface47" mask="url(#mask14)"/>
<use xlink:href="#surface50" mask="url(#mask15)"/>
<use xlink:href="#surface53" mask="url(#mask16)"/>
<use xlink:href="#surface56" mask="url(#mask17)"/>
<use xlink:href="#surface59" mask="url(#mask18)"/>
<use xlink:href="#surface62" mask="url(#mask19)"/>
<use xlink:href="#surface65" mask="url(#mask20)"/>
<use xlink:href="#surface68" mask="url(#mask21)"/>
<use xlink:href="#surface71" mask="url(#mask22)"/>
</g>
</svg>
